<?xml version="1.0" encoding="UTF-8" standalone="no"?>
<svg version="1.1" xmlns="http://www.w3.org/2000/svg" xmlns:xlink="http://www.w3.org/1999/xlink" width="222" height="62">
	<path id="dp_path001" fill="#b29f70" fill-rule="evenodd" stroke="none" stroke-width="0" d="M 199.216,20.268 L 189.205,0 L 179.205,20.268 L 156.829,23.52 L 173.023,39.3 L 169.2,61.58 L 189.205,51.06 L 209.217,61.58 L 205.395,39.3 L 221.584,23.52 Z M 216.069,24.228 L 189.956,30.636 L 189.956,4.89333 L 198.221,21.6373 Z M 189.956,35.04 L 205.884,58.14 L 189.956,49.76 Z M 188.459,49.76 L 172.363,58.2293 L 188.459,33.32 Z M 180.2,21.6373 L 188.459,4.89733 L 188.459,30.9387 L 162.252,24.2413 Z M 160.964,25.4587 L 187.393,32.2107 L 171.551,56.7293 L 174.629,38.78 Z M 171.209,58.7093 L 171.316,58.78 L 171.187,58.8493 Z M 206.912,56.9893 L 189.956,32.4093 L 189.956,32.1787 L 217.489,25.4227 L 203.788,38.78 Z "/>
	<path id="dp_path002" fill="#b29f70" fill-rule="evenodd" stroke="none" stroke-width="0" d="M 120.801,20.268 L 110.791,0 L 100.789,20.268 L 78.4147,23.52 L 94.608,39.3 L 90.7853,61.58 L 110.791,51.06 L 130.803,61.58 L 126.98,39.3 L 143.169,23.52 Z M 137.655,24.228 L 111.541,30.636 L 111.541,4.89333 L 119.807,21.6373 Z M 111.541,35.04 L 127.467,58.14 L 111.541,49.76 Z M 110.044,49.76 L 93.948,58.2293 L 110.044,33.32 Z M 101.785,21.6373 L 110.044,4.89733 L 110.044,30.9387 L 83.8373,24.2413 Z M 82.5493,25.4587 L 108.977,32.2107 L 93.136,56.7293 L 96.2147,38.78 Z M 92.7947,58.7093 L 92.9013,58.78 L 92.772,58.8493 Z M 128.497,56.9893 L 111.541,32.4093 L 111.541,32.1787 L 139.073,25.4227 L 125.373,38.78 Z "/>
	<path id="dp_path003" fill="#b29f70" fill-rule="evenodd" stroke="none" stroke-width="0" d="M 42.3867,20.268 L 32.376,0 L 22.3747,20.268 L 0,23.52 L 16.192,39.3 L 12.3707,61.58 L 32.376,51.06 L 52.3867,61.58 L 48.5653,39.3 L 64.7547,23.52 Z M 59.2387,24.228 L 33.1253,30.636 L 33.1253,4.89333 L 41.3907,21.6373 Z M 33.1253,35.04 L 49.0547,58.14 L 33.1253,49.76 Z M 31.628,49.76 L 15.532,58.2293 L 31.628,33.32 Z M 23.3693,21.6373 L 31.628,4.89733 L 31.628,30.9387 L 5.42267,24.2413 Z M 4.13467,25.4587 L 30.5627,32.2107 L 14.7213,56.7293 L 17.7987,38.78 Z M 14.38,58.7093 L 14.4867,58.78 L 14.3573,58.8493 Z M 50.0813,56.9893 L 33.1253,32.4093 L 33.1253,32.1787 L 60.6587,25.4227 L 46.9587,38.78 Z "/>
</svg>