<?xml version="1.0" encoding="UTF-8" standalone="no"?>
<svg version="1.1" xmlns="http://www.w3.org/2000/svg" xmlns:xlink="http://www.w3.org/1999/xlink" width="153" height="46">
	<g id="dp_dp001" transform="matrix(1,0,0,1,182.416,125.893)">
		<path id="dp_path002" fill="white" fill-rule="evenodd" stroke="none" stroke-width="0" d="M -98.2253,-80.456 C -98.6,-85.5907 -98.316,-103.075 -98.096,-106.932 C -98.64,-107.251 -99.1973,-107.756 -99.7853,-108.341 L -100.309,-110.156 L -100.389,-108.956 C -100.721,-109.292 -101.057,-109.637 -101.411,-109.976 L -101.665,-111.293 L -101.821,-110.372 C -102.311,-110.829 -102.831,-111.268 -103.375,-111.647 C -101.415,-105.864 -100.893,-87.156 -101.216,-82.2787 C -101.241,-81.7227 -102.805,-81.76 -102.8,-82.2787 C -102.532,-87.544 -102.881,-106.929 -104.497,-111.937 C -104.959,-110.78 -105.516,-109.804 -106.065,-108.947 C -106.311,-109.123 -106.645,-109.435 -107.047,-109.884 C -106.831,-109.195 -106.612,-108.708 -106.399,-108.429 C -106.659,-108.028 -106.911,-107.656 -107.14,-107.299 C -107.541,-107.665 -108.112,-108.155 -108.431,-108.804 C -108.441,-108.265 -107.98,-107.537 -107.584,-106.573 C -107.796,-106.208 -107.971,-105.851 -108.108,-105.489 C -110.177,-107.863 -110.036,-110.044 -107.676,-112.051 C -109.017,-111.777 -109.989,-111.332 -110.849,-110.844 L -111.144,-111.517 L -111.429,-110.503 C -111.736,-110.321 -112.035,-110.136 -112.337,-109.96 C -112.337,-110.351 -112.313,-110.823 -112.264,-111.361 C -112.531,-110.897 -112.852,-110.208 -113.035,-109.577 C -113.364,-109.413 -113.715,-109.261 -114.087,-109.136 C -113.22,-112.539 -110.875,-114.335 -107.047,-114.516 C -107.469,-114.672 -107.959,-114.737 -108.492,-114.763 C -108.564,-114.885 -108.527,-115.069 -108.38,-115.319 C -108.687,-115.192 -108.991,-115.011 -109.295,-114.787 L -109.92,-114.787 C -109.849,-114.989 -109.741,-115.28 -109.596,-115.663 C -110.105,-115.408 -110.495,-115.116 -110.759,-114.792 C -111.161,-114.801 -111.563,-114.827 -111.953,-114.863 C -107.011,-118.292 -106.421,-116.615 -104.976,-115.94 C -104.623,-117.836 -101.765,-120.016 -98.496,-120.285 C -99.8493,-120.475 -100.729,-120.455 -101.412,-120.269 L -101.756,-120.795 L -101.756,-120.159 C -101.967,-120.071 -102.161,-119.972 -102.351,-119.852 C -102.503,-120.068 -102.651,-120.339 -102.805,-120.677 C -102.851,-120.184 -102.875,-119.776 -102.879,-119.465 C -103.107,-119.28 -103.339,-119.065 -103.6,-118.835 C -103.625,-119.192 -103.621,-119.696 -103.576,-120.349 C -103.827,-119.617 -103.94,-119.02 -103.923,-118.553 C -104.155,-118.355 -104.403,-118.144 -104.693,-117.931 C -105.015,-121.353 -102.805,-122.797 -98.0013,-123.124 C -98.3013,-123.567 -98.7947,-123.756 -99.4733,-123.697 C -99.4387,-123.94 -99.3027,-124.269 -99.1773,-124.517 C -99.568,-124.117 -99.836,-123.819 -99.9773,-123.613 C -100.335,-123.533 -100.728,-123.397 -101.16,-123.213 C -96.144,-129.088 -96.5067,-123.515 -95.0267,-123.563 C -93.244,-123.617 -88.6373,-127.688 -85.1853,-122.484 C -85.3707,-122.379 -85.76,-122.392 -86.304,-122.435 C -86.8493,-123.083 -87.4027,-123.579 -87.9693,-123.932 C -87.388,-123.075 -87.2067,-122.745 -87.3027,-122.519 C -87.548,-122.536 -87.8027,-122.553 -88.0787,-122.564 C -88.3053,-122.884 -88.5547,-123.179 -88.8987,-123.372 C -88.716,-123.075 -88.6547,-122.792 -88.664,-122.577 C -90.0773,-122.581 -91.7827,-122.405 -93.5613,-121.619 C -88.368,-122.401 -84.7933,-120.855 -84.4347,-116.885 C -85.172,-117.153 -85.724,-117.48 -86.34,-117.791 C -86.5267,-118.515 -86.8133,-119.091 -87.1893,-119.521 C -87.0653,-118.956 -86.9947,-118.48 -86.972,-118.099 C -87.2427,-118.217 -87.5347,-118.335 -87.8587,-118.44 C -87.916,-118.759 -88.0093,-119.116 -88.1693,-119.536 C -88.1987,-119.137 -88.2413,-118.812 -88.3107,-118.577 C -88.5653,-118.645 -88.8453,-118.707 -89.148,-118.765 C -89.18,-119.015 -89.256,-119.289 -89.384,-119.592 C -89.4373,-119.272 -89.5067,-119.02 -89.5867,-118.84 C -90.6747,-118.993 -92.0707,-119.073 -93.9733,-118.997 C -91.3547,-118.96 -90.524,-117.597 -91.108,-113.991 C -90.1027,-113.665 -90.3547,-112.601 -89.4653,-112.509 C -88.1533,-112.38 -85.6933,-115.639 -79.896,-111.852 C -80.128,-111.54 -80.68,-111.403 -81.4747,-111.299 C -82.0053,-111.684 -82.568,-112.017 -83.172,-112.307 C -82.7907,-111.871 -82.4907,-111.504 -82.276,-111.204 L -83.2547,-111.108 C -83.668,-111.372 -84.0267,-111.575 -84.344,-111.728 C -84.1293,-111.487 -83.9373,-111.26 -83.7707,-111.049 C -84.9027,-110.911 -86.2213,-110.705 -87.6493,-110.28 C -83.924,-111.145 -81.4907,-108.896 -81.8333,-105.599 C -82.1293,-105.673 -82.576,-105.98 -83.1373,-106.385 C -83.1773,-106.903 -83.272,-107.36 -83.4093,-107.76 C -83.4267,-107.34 -83.4733,-106.984 -83.5493,-106.687 L -84.212,-107.157 C -84.2547,-107.551 -84.344,-107.943 -84.4733,-108.336 C -84.5067,-108.027 -84.5493,-107.727 -84.6093,-107.433 C -85.4693,-108.017 -86.452,-108.603 -87.4813,-108.967 C -85.7173,-107.172 -85.664,-104.787 -86.796,-102.684 C -87.0227,-102.92 -87.2333,-103.296 -87.4453,-103.752 C -87.2747,-104.316 -87.1507,-104.893 -87.0747,-105.471 C -87.2,-105.073 -87.404,-104.683 -87.6893,-104.308 L -88,-105.06 C -87.9147,-105.421 -87.86,-105.725 -87.836,-105.969 C -87.9027,-105.817 -88.0013,-105.633 -88.136,-105.413 C -88.5547,-106.431 -89.0267,-107.547 -89.6613,-108.447 C -91.2307,-103.765 -92.032,-87.2693 -91.88,-82.2787 C -91.8627,-81.6293 -93.24,-81.5613 -93.2773,-82.2787 C -93.4627,-86.6547 -92.6507,-102.496 -91.0307,-107.105 C -91.6947,-106.04 -92.2907,-105.253 -92.7267,-104.568 C -92.8413,-104.872 -92.9613,-105.123 -92.9813,-105.469 C -93.072,-104.939 -93.104,-104.413 -93.08,-103.973 C -93.1947,-103.748 -93.2907,-103.529 -93.3587,-103.312 C -94.9907,-104.385 -93.3907,-107.18 -91.6027,-108.857 C -92.8133,-108.257 -93.6187,-107.551 -94.236,-106.961 C -94.2707,-107.176 -94.3,-107.385 -94.3187,-107.596 C -94.3973,-107.36 -94.468,-107.053 -94.524,-106.679 L -94.8533,-106.351 C -94.9213,-106.771 -94.96,-107.256 -94.9733,-107.799 C -95.1253,-107.236 -95.2227,-106.625 -95.2707,-105.973 C -95.4093,-105.864 -95.54,-105.784 -95.668,-105.741 C -96.1867,-108.457 -94.3627,-110.156 -91.6253,-110.687 C -92.1067,-110.961 -92.8613,-111.008 -93.7787,-110.776 C -93.7787,-111.028 -93.764,-111.277 -93.732,-111.508 C -93.856,-111.301 -93.9907,-111.02 -94.1347,-110.671 C -94.3147,-110.611 -94.5,-110.544 -94.6813,-110.463 C -94.7187,-110.809 -94.708,-111.204 -94.6373,-111.66 C -94.8773,-111.277 -95.1013,-110.78 -95.304,-110.184 C -95.4573,-110.103 -95.6107,-110.019 -95.772,-109.925 C -95.772,-109.925 -96.6867,-113.363 -92.5747,-114.02 C -92.2,-114.079 -91.8933,-114.095 -91.636,-114.081 C -91.7653,-114.283 -91.8933,-114.477 -92.0227,-114.663 L -91.7853,-116.079 L -92.2373,-114.961 C -92.3627,-115.143 -92.4933,-115.301 -92.6173,-115.46 L -92.5013,-116.255 L -92.8773,-115.772 C -93.948,-117.011 -95.0267,-117.673 -96.1093,-117.776 C -96.6093,-109.464 -96.6373,-87.4867 -96.448,-80.456 C -96.44,-79.812 -98.164,-79.7147 -98.2253,-80.456M -97.1707,-117.712 C -97.552,-117.664 -97.9133,-117.619 -98.2667,-117.569 L -98.4773,-118.001 L -98.5493,-117.527 C -99.0907,-117.451 -99.5947,-117.367 -100.073,-117.277 C -100.152,-117.441 -100.223,-117.64 -100.28,-117.867 C -100.377,-117.648 -100.432,-117.431 -100.453,-117.207 C -100.692,-117.16 -100.928,-117.109 -101.152,-117.06 C -101.241,-117.249 -101.317,-117.527 -101.385,-117.884 C -101.491,-117.551 -101.551,-117.244 -101.565,-116.959 C -101.844,-116.896 -102.119,-116.824 -102.369,-116.749 C -102.459,-116.996 -102.519,-117.333 -102.549,-117.767 C -102.704,-117.295 -102.792,-116.907 -102.803,-116.617 C -103.565,-116.377 -104.177,-116.105 -104.645,-115.811 C -104.353,-115.723 -104.016,-115.679 -103.607,-115.723 C -101.115,-115.995 -99.3013,-116.615 -97.48,-114.757 C -97.3867,-115.727 -97.28,-116.711 -97.1707,-117.712M -98.0467,-107.764 C -97.924,-109.712 -97.764,-111.728 -97.5667,-113.821 C -97.96,-113.753 -98.372,-113.763 -98.7947,-113.796 C -98.9013,-114.12 -99.072,-114.431 -99.2947,-114.708 C -99.2573,-114.392 -99.2867,-114.111 -99.3867,-113.855 C -100.572,-113.999 -101.768,-114.195 -102.677,-113.511 C -100.487,-113.645 -98.9453,-111.728 -98.0467,-107.764"/>
		<path id="dp_path003" fill="white" fill-rule="evenodd" stroke="none" stroke-width="0" d="M -141.368,-104.425 L -140.083,-104.425 L -138.847,-103.629 L -138.847,-105.027 L -145.779,-105.027 L -145.779,-103.629 L -144.54,-104.425 L -143.271,-104.425 L -143.271,-99.1933 L -141.368,-99.1933 Z "/>
		<path id="dp_path004" fill="white" fill-rule="evenodd" stroke="none" stroke-width="0" d="M -131.039,-99.192 L -129.141,-99.192 L -129.141,-105.027 L -132.032,-105.027 L -131.039,-104.408 L -131.039,-102.632 L -133.98,-102.632 L -133.98,-105.027 L -136.855,-105.027 L -135.877,-104.408 L -135.877,-99.192 L -133.98,-99.192 L -133.98,-102.04 L -131.039,-102.04 Z "/>
		<path id="dp_path005" fill="white" fill-rule="evenodd" stroke="none" stroke-width="0" d="M -119.664,-100.581 L -120.903,-99.7907 L -123.221,-99.7907 L -123.221,-101.995 L -121.613,-101.995 L -120.637,-101.367 L -120.637,-103.231 L -121.613,-102.595 L -123.221,-102.595 L -123.221,-104.425 L -120.903,-104.425 L -119.664,-103.629 L -119.664,-105.027 L -126.097,-105.027 L -125.125,-104.409 L -125.125,-99.1933 L -119.664,-99.1933 Z "/>
		<path id="dp_path006" fill="white" fill-rule="evenodd" stroke="none" stroke-width="0" d="M -166.776,-85.8013 L -166.776,-91.6093 L -172.492,-91.6093 L -170.639,-90.4227 L -170.639,-86.7067 C -170.921,-86.568 -171.393,-86.004 -172.747,-86.004 C -176.824,-86.004 -177.893,-88.716 -177.893,-91.1267 C -177.893,-93.5027 -176.323,-96.172 -172.747,-96.172 C -171.8,-96.172 -171.14,-96.008 -170.481,-95.6093 L -167.559,-93.7213 L -167.559,-96.6147 C -169.447,-97.2213 -170.703,-97.3213 -172.747,-97.3213 C -177.769,-97.3213 -182.416,-94.424 -182.416,-91.1267 C -182.416,-87.832 -177.769,-84.9387 -172.747,-84.9387 C -170.389,-84.9387 -168.881,-85.0533 -166.776,-85.8013"/>
		<path id="dp_path007" fill="white" fill-rule="evenodd" stroke="none" stroke-width="0" d="M -132.467,-93.4053 L -123.412,-85.0267 L -123.412,-96.0667 L -126.863,-96.0667 L -125.216,-95.0133 L -125.216,-90.1707 L -131.625,-96.0667 L -135.92,-96.0667 L -134.271,-95.0133 L -134.271,-86.1827 L -132.467,-86.1827 Z "/>
		<path id="dp_path008" fill="white" fill-rule="evenodd" stroke="none" stroke-width="0" d="M -115.22,-95.0467 L -113.545,-95.0467 C -110.771,-95.0467 -109.723,-92.956 -109.723,-91.1267 C -109.723,-89.3013 -110.771,-87.2067 -113.545,-87.2067 L -115.22,-87.2067 Z M -112.997,-86.1827 C -108.909,-86.1827 -105.929,-88.5133 -105.929,-91.1267 C -105.929,-93.7427 -108.909,-96.0667 -112.997,-96.0667 L -120.087,-96.0667 L -118.44,-95.0133 L -118.44,-86.1827 Z "/>
		<path id="dp_path009" fill="white" fill-rule="evenodd" stroke="none" stroke-width="0" d="M -157.951,-95.0467 C -156.589,-95.0467 -155.54,-94.3093 -155.54,-93.436 C -155.54,-92.5133 -156.564,-91.676 -157.951,-91.676 L -159.077,-91.676 L -159.077,-95.0467 Z M -154.887,-91.0213 C -153.683,-91.292 -151.98,-92.116 -151.98,-93.436 C -151.98,-95.248 -155.151,-96.0667 -157.951,-96.0667 L -163.949,-96.0667 L -162.297,-95.0133 L -162.297,-86.1747 L -159.077,-86.1747 L -159.077,-90.6547 L -157.98,-90.6547 L -154.523,-86.1747 L -150.728,-86.1747 Z "/>
		<path id="dp_path010" fill="white" fill-rule="evenodd" stroke="none" stroke-width="0" d="M -83.1267,-91.2933 L -83.1267,-95.8413 L -81.116,-95.8413 C -79.2613,-95.8413 -77.8133,-94.7733 -77.8133,-93.5653 C -77.8133,-92.3587 -79.2613,-91.2933 -81.116,-91.2933 Z M -83.1267,-85.2 L -83.1267,-90.0667 L -81.116,-90.0667 C -77.5013,-90.0667 -73.5413,-91.1947 -73.5413,-93.5653 C -73.5413,-95.9227 -77.5013,-97.0653 -81.116,-97.0653 L -88.9733,-97.0653 L -86.9947,-95.7987 L -86.9947,-85.2 Z "/>
		<path id="dp_path011" fill="white" fill-rule="evenodd" stroke="none" stroke-width="0" d="M -43.9307,-93.864 L -39.324,-88.5867 L -34.7133,-93.864 L -34.7133,-86.1893 L -31.4933,-86.1893 L -31.4933,-95.024 L -29.8147,-96.0813 L -34.66,-96.0813 L -38.456,-91.7867 L -42.2307,-96.0813 L -47.3867,-96.0813 L -45.7373,-95.024 L -45.7373,-86.1893 L -43.9307,-86.1893 Z "/>
		<path id="dp_path012" fill="white" fill-rule="evenodd" stroke="none" stroke-width="0" d="M -67.984,-93.1947 L -66.2813,-89.928 L -69.7907,-89.928 Z M -70.3413,-88.9173 L -65.7067,-88.9173 L -64.268,-86.1893 L -60.8827,-86.1893 L -66.2813,-96.0813 L -68.272,-96.0813 L -73.76,-86.1893 L -71.852,-86.1893 Z "/>
		<path id="dp_path013" fill="white" fill-rule="evenodd" stroke="none" stroke-width="0" d="M -54.568,-87.2107 L -54.568,-96.0813 L -59.44,-96.0813 L -57.7893,-95.0253 L -57.7893,-86.1893 L -48.7853,-86.1893 L -48.7853,-88.5533 L -50.8787,-87.2107 Z "/>
		<path id="dp_path014" fill="white" fill-rule="evenodd" stroke="none" stroke-width="0" d="M -144.092,-93.1947 L -142.388,-89.928 L -145.896,-89.928 Z M -146.448,-88.9173 L -141.813,-88.9173 L -140.372,-86.1893 L -136.989,-86.1893 L -142.388,-96.0813 L -144.377,-96.0813 L -149.865,-86.1893 L -147.957,-86.1893 Z "/>
	</g>
</svg>