<?xml version="1.0" encoding="UTF-8" standalone="no"?>
<svg version="1.1" xmlns="http://www.w3.org/2000/svg" xmlns:xlink="http://www.w3.org/1999/xlink" width="106" height="49">
	<g id="dp_dp001" transform="matrix(1,0,0,1,317.861,127.611)">
		<path id="dp_path002" fill="white" fill-rule="evenodd" stroke="none" stroke-width="0" d="M -267.412,-124.72 C -267.272,-120.659 -277.932,-113.679 -277.865,-111.727 C -277.791,-109.675 -265.233,-104.88 -267.107,-101.895 C -267.583,-101.14 -267.955,-100.763 -268.648,-100.203 C -271.729,-97.7093 -279.615,-104.077 -282.313,-109.504 C -284.304,-113.505 -267.784,-135.363 -267.412,-124.72"/>
		<path id="dp_path003" fill="white" fill-rule="evenodd" stroke="none" stroke-width="0" d="M -286.879,-124.373 C -290.761,-125.745 -290.153,-108.223 -288.288,-101.997 C -287.724,-100.125 -285.825,-100.185 -285.575,-101.477 C -283.141,-113.9 -280.62,-122.164 -286.879,-124.373"/>
		<path id="dp_path004" fill="white" fill-rule="evenodd" stroke="none" stroke-width="0" d="M -263.143,-100.779 C -263.281,-104.839 -252.621,-111.817 -252.689,-113.769 C -252.761,-115.821 -265.32,-120.616 -263.445,-123.603 C -262.968,-124.357 -262.6,-124.735 -261.907,-125.297 C -258.823,-127.788 -250.939,-121.421 -248.24,-115.993 C -246.249,-111.992 -262.771,-90.1347 -263.143,-100.779"/>
		<path id="dp_path005" fill="white" fill-rule="evenodd" stroke="none" stroke-width="0" d="M -241.203,-124.643 C -237.119,-125.176 -241.356,-108.165 -244.479,-102.463 C -245.419,-100.747 -247.261,-101.2 -247.237,-102.517 C -247.035,-115.173 -247.785,-123.784 -241.203,-124.643"/>
		<path id="dp_path006" fill="white" fill-rule="evenodd" stroke="none" stroke-width="0" d="M -265.309,-107.901 C -266.647,-108.281 -268.581,-110.144 -269.455,-111.608 C -270.187,-112.837 -266.34,-117.612 -264.857,-116.92 C -263.599,-116.329 -261.884,-114.543 -261.012,-113.079 C -260.28,-111.849 -263.689,-107.443 -265.309,-107.901"/>
		<path id="dp_path007" fill="white" fill-rule="evenodd" stroke="none" stroke-width="0" d="M -223.575,-83.4373 L -223.575,-90.7347 C -223.575,-91.5787 -222.893,-92.264 -222.052,-92.264 L -221.299,-92.264 L -221.299,-78.448 L -222.04,-78.448 C -222.796,-78.448 -223.464,-78.836 -223.857,-79.424 L -229.159,-87.2707 L -229.159,-80.0107 C -229.164,-79.132 -229.845,-78.448 -230.691,-78.448 L -231.44,-78.448 L -231.44,-92.264 L -230.699,-92.264 C -229.963,-92.264 -229.305,-91.892 -228.913,-91.3267 Z M -246.027,-85.344 C -246.027,-82.7147 -245.091,-80.5187 -243.404,-80.5187 C -241.695,-80.5187 -240.759,-82.7147 -240.759,-85.344 C -240.759,-87.996 -241.695,-90.1907 -243.404,-90.1907 C -245.091,-90.1907 -246.027,-87.996 -246.027,-85.344 Z M -248.713,-85.344 C -248.713,-89.2587 -246.821,-92.492 -243.404,-92.492 C -239.985,-92.492 -238.071,-89.2587 -238.071,-85.344 C -238.071,-81.4293 -239.985,-78.22 -243.404,-78.22 C -246.821,-78.22 -248.713,-81.4293 -248.713,-85.344 Z M -280.073,-85.344 C -280.073,-82.7147 -279.136,-80.5187 -277.451,-80.5187 C -275.739,-80.5187 -274.809,-82.7147 -274.809,-85.344 C -274.809,-87.996 -275.739,-90.1907 -277.451,-90.1907 C -279.136,-90.1907 -280.073,-87.996 -280.073,-85.344 Z M -282.759,-85.344 C -282.759,-89.2587 -280.867,-92.492 -277.451,-92.492 C -274.033,-92.492 -272.121,-89.2587 -272.121,-85.344 C -272.121,-81.4293 -274.033,-78.22 -277.451,-78.22 C -280.867,-78.22 -282.759,-81.4293 -282.759,-85.344 Z M -297.439,-84.8893 L -297.439,-79.888 C -297.485,-79.0853 -298.149,-78.448 -298.961,-78.448 L -299.968,-78.448 L -299.968,-92.264 L -298.961,-92.264 C -298.149,-92.264 -297.485,-91.6253 -297.439,-90.8213 L -297.439,-87.188 L -292.381,-87.188 L -292.381,-90.6707 C -292.376,-91.5787 -291.691,-92.264 -290.848,-92.264 L -289.829,-92.264 L -289.829,-78.448 L -290.848,-78.448 C -291.691,-78.448 -292.376,-79.132 -292.376,-79.9747 L -292.381,-84.8893 Z M -213.935,-78.448 L -213.935,-90.704 C -213.935,-91.5787 -213.248,-92.264 -212.405,-92.264 L -211.405,-92.264 L -211.405,-78.448 Z M -262.523,-89.964 L -262.523,-85.368 L -262.523,-83.044 L -262.523,-82.628 L -262.523,-78.448 L -265.047,-78.448 L -265.047,-92.264 L -260.24,-92.264 C -257.46,-92.264 -255.184,-90.1907 -255.184,-87.6427 C -255.184,-85.884 -256.276,-84.3093 -257.944,-83.5627 L -253.908,-78.448 L -255.959,-78.448 C -256.619,-78.448 -257.212,-78.7427 -257.612,-79.2093 L -260.653,-83.044 L -262.503,-85.344 L -260.24,-85.344 C -258.852,-85.344 -257.715,-86.3813 -257.715,-87.6427 C -257.715,-88.928 -258.852,-89.964 -260.24,-89.964 Z M -306.971,-78.448 L -309.02,-78.448 C -309.672,-78.448 -310.26,-78.7347 -310.655,-79.1893 L -315.331,-85.1187 L -315.331,-78.448 L -317.861,-78.448 L -317.861,-92.264 L -316.86,-92.264 C -316.019,-92.264 -315.331,-91.5787 -315.331,-90.7347 L -315.331,-85.9053 L -310.975,-91.4347 C -310.575,-91.9387 -309.956,-92.264 -309.268,-92.264 L -307.224,-92.264 L -312.553,-85.5107 Z "/>
	</g>
</svg>