<?xml version="1.0" encoding="UTF-8" standalone="no"?>
<svg version="1.1" xmlns="http://www.w3.org/2000/svg" xmlns:xlink="http://www.w3.org/1999/xlink" width="80" height="79">
	<g id="dp_dp001" transform="matrix(1,0,0,1,447.74,286.625)">
		<path id="dp_path002" fill="white" fill-rule="evenodd" stroke="none" stroke-width="0" d="M -446.509,-233.533 L -446.531,-228.827 L -446.531,-228.492 C -446.531,-228.017 -446.509,-227.62 -446.283,-227.275 L -447.512,-227.275 C -447.081,-227.652 -446.929,-229.688 -446.929,-233.425 C -446.929,-233.748 -446.984,-233.964 -447.199,-234.179 L -445.992,-234.179 C -445.831,-234.179 -445.777,-234.168 -445.713,-233.985 L -443.763,-228.783 L -441.597,-233.932 C -441.523,-234.125 -441.457,-234.179 -441.241,-234.179 L -440.187,-234.179 C -440.391,-233.911 -440.445,-233.349 -440.445,-232.499 C -440.445,-229.559 -440.381,-227.847 -439.939,-227.275 L -441.523,-227.275 C -441.285,-227.641 -441.241,-228.137 -441.241,-228.837 C -441.241,-228.859 -441.253,-229.171 -441.264,-229.763 L -441.328,-233.533 L -444.021,-227.124 Z "/>
		<path id="dp_path003" fill="white" fill-rule="evenodd" stroke="white" stroke-width="0.273555" d="M -446.549,-233.567 L -446.571,-228.797 L -446.571,-228.46 C -446.571,-227.979 -446.549,-227.576 -446.32,-227.225 L -447.564,-227.225 C -447.128,-227.608 -446.975,-229.671 -446.975,-233.457 C -446.975,-233.785 -447.029,-234.004 -447.247,-234.223 L -446.027,-234.223 C -445.863,-234.223 -445.808,-234.211 -445.743,-234.025 L -443.771,-228.755 L -441.577,-233.971 C -441.503,-234.167 -441.436,-234.223 -441.217,-234.223 L -440.149,-234.223 C -440.357,-233.949 -440.411,-233.381 -440.411,-232.519 C -440.411,-229.54 -440.347,-227.804 -439.899,-227.225 L -441.503,-227.225 C -441.261,-227.597 -441.217,-228.099 -441.217,-228.808 C -441.217,-228.831 -441.229,-229.147 -441.24,-229.747 L -441.307,-233.567 L -444.032,-227.072 Z "/>
		<path id="dp_path004" fill="white" fill-rule="evenodd" stroke="none" stroke-width="0" d="M -446.509,-233.533 L -446.531,-228.827 L -446.531,-228.492 C -446.531,-228.017 -446.509,-227.62 -446.283,-227.275 L -447.512,-227.275 C -447.081,-227.652 -446.929,-229.688 -446.929,-233.425 C -446.929,-233.748 -446.984,-233.964 -447.199,-234.179 L -445.992,-234.179 C -445.831,-234.179 -445.777,-234.168 -445.713,-233.985 L -443.763,-228.783 L -441.597,-233.932 C -441.523,-234.125 -441.457,-234.179 -441.241,-234.179 L -440.187,-234.179 C -440.391,-233.911 -440.445,-233.349 -440.445,-232.499 C -440.445,-229.559 -440.381,-227.847 -439.939,-227.275 L -441.523,-227.275 C -441.285,-227.641 -441.241,-228.137 -441.241,-228.837 C -441.241,-228.859 -441.253,-229.171 -441.264,-229.763 L -441.328,-233.533 L -444.021,-227.124 Z "/>
		<path id="dp_path005" fill="white" fill-rule="evenodd" stroke="white" stroke-width="0.273555" d="M -446.548,-233.545 L -446.569,-228.791 L -446.569,-228.453 C -446.569,-227.975 -446.548,-227.572 -446.319,-227.224 L -447.563,-227.224 C -447.127,-227.605 -446.973,-229.661 -446.973,-233.437 C -446.973,-233.763 -447.028,-233.981 -447.247,-234.199 L -446.025,-234.199 C -445.863,-234.199 -445.807,-234.188 -445.743,-234.003 L -443.769,-228.747 L -441.577,-233.948 C -441.501,-234.145 -441.436,-234.199 -441.217,-234.199 L -440.149,-234.199 C -440.357,-233.927 -440.411,-233.36 -440.411,-232.501 C -440.411,-229.531 -440.347,-227.801 -439.899,-227.224 L -441.501,-227.224 C -441.261,-227.593 -441.217,-228.095 -441.217,-228.803 C -441.217,-228.823 -441.229,-229.139 -441.24,-229.739 L -441.305,-233.545 L -444.031,-227.072 Z "/>
		<path id="dp_path006" fill="white" fill-rule="evenodd" stroke="none" stroke-width="0" d="M -434.501,-233.533 L -434.523,-228.827 L -434.523,-228.492 C -434.523,-228.017 -434.501,-227.62 -434.275,-227.275 L -435.503,-227.275 C -435.072,-227.652 -434.921,-229.688 -434.921,-233.425 C -434.921,-233.748 -434.975,-233.964 -435.191,-234.179 L -433.984,-234.179 C -433.823,-234.179 -433.769,-234.168 -433.705,-233.985 L -431.755,-228.783 L -429.589,-233.932 C -429.515,-234.125 -429.451,-234.179 -429.235,-234.179 L -428.179,-234.179 C -428.383,-233.911 -428.437,-233.349 -428.437,-232.499 C -428.437,-229.559 -428.373,-227.847 -427.931,-227.275 L -429.515,-227.275 C -429.277,-227.641 -429.235,-228.137 -429.235,-228.837 C -429.235,-228.859 -429.245,-229.171 -429.256,-229.763 L -429.32,-233.533 L -432.013,-227.124 Z "/>
		<path id="dp_path007" fill="white" fill-rule="evenodd" stroke="white" stroke-width="0.273555" stroke-linejoin="miter" stroke-miterlimit="10" d="M -434.541,-233.565 L -434.564,-228.796 L -434.564,-228.459 C -434.564,-227.977 -434.541,-227.575 -434.312,-227.225 L -435.556,-227.225 C -435.12,-227.607 -434.967,-229.669 -434.967,-233.456 C -434.967,-233.784 -435.021,-234.003 -435.239,-234.221 L -434.019,-234.221 C -433.855,-234.221 -433.8,-234.211 -433.735,-234.025 L -431.761,-228.753 L -429.571,-233.969 C -429.495,-234.167 -429.428,-234.221 -429.211,-234.221 L -428.143,-234.221 C -428.349,-233.948 -428.404,-233.38 -428.404,-232.517 C -428.404,-229.539 -428.339,-227.803 -427.891,-227.225 L -429.495,-227.225 C -429.253,-227.596 -429.211,-228.097 -429.211,-228.807 C -429.211,-228.829 -429.221,-229.145 -429.232,-229.747 L -429.297,-233.565 L -432.023,-227.072 Z "/>
		<path id="dp_path008" fill="white" fill-rule="evenodd" stroke="none" stroke-width="0" d="M -434.501,-233.533 L -434.523,-228.827 L -434.523,-228.492 C -434.523,-228.017 -434.501,-227.62 -434.275,-227.275 L -435.503,-227.275 C -435.072,-227.652 -434.921,-229.688 -434.921,-233.425 C -434.921,-233.748 -434.975,-233.964 -435.191,-234.179 L -433.984,-234.179 C -433.823,-234.179 -433.769,-234.168 -433.705,-233.985 L -431.755,-228.783 L -429.589,-233.932 C -429.515,-234.125 -429.451,-234.179 -429.235,-234.179 L -428.179,-234.179 C -428.383,-233.911 -428.437,-233.349 -428.437,-232.499 C -428.437,-229.559 -428.373,-227.847 -427.931,-227.275 L -429.515,-227.275 C -429.277,-227.641 -429.235,-228.137 -429.235,-228.837 C -429.235,-228.859 -429.245,-229.171 -429.256,-229.763 L -429.32,-233.533 L -432.013,-227.124 Z "/>
		<path id="dp_path009" fill="white" fill-rule="evenodd" stroke="white" stroke-width="0.273555" d="M -434.54,-233.545 L -434.563,-228.791 L -434.563,-228.453 C -434.563,-227.975 -434.54,-227.572 -434.311,-227.224 L -435.555,-227.224 C -435.119,-227.605 -434.965,-229.661 -434.965,-233.437 C -434.965,-233.763 -435.02,-233.981 -435.237,-234.199 L -434.017,-234.199 C -433.853,-234.199 -433.799,-234.188 -433.733,-234.003 L -431.761,-228.747 L -429.571,-233.948 C -429.493,-234.145 -429.428,-234.199 -429.211,-234.199 L -428.143,-234.199 C -428.349,-233.927 -428.404,-233.36 -428.404,-232.501 C -428.404,-229.531 -428.339,-227.801 -427.891,-227.224 L -429.493,-227.224 C -429.253,-227.593 -429.211,-228.095 -429.211,-228.803 C -429.211,-228.823 -429.221,-229.139 -429.232,-229.739 L -429.297,-233.545 L -432.023,-227.072 Z "/>
		<path id="dp_path010" fill="white" fill-rule="evenodd" stroke="none" stroke-width="0" d="M -422.169,-230.927 C -421.415,-232.683 -421.113,-233.695 -421.113,-233.845 C -421.113,-233.964 -421.147,-234.072 -421.2,-234.179 L -419.864,-234.179 C -418.744,-230.441 -417.807,-228.148 -417.193,-227.275 L -418.367,-227.275 L -419.455,-230.269 L -421.965,-230.269 L -422.428,-229.137 C -422.665,-228.568 -422.869,-228.083 -422.869,-227.609 C -422.869,-227.491 -422.848,-227.383 -422.816,-227.275 L -424.195,-227.275 C -423.495,-228.115 -422.848,-229.332 -422.169,-230.927 Z M -419.616,-230.668 L -420.629,-233.447 L -421.792,-230.668 Z "/>
		<path id="dp_path011" fill="white" fill-rule="evenodd" stroke="white" stroke-width="0.273555" stroke-linejoin="miter" stroke-miterlimit="10" d="M -422.188,-230.928 C -421.425,-232.693 -421.12,-233.711 -421.12,-233.863 C -421.12,-233.981 -421.153,-234.089 -421.208,-234.199 L -419.857,-234.199 C -418.724,-230.44 -417.776,-228.133 -417.156,-227.255 L -418.343,-227.255 L -419.443,-230.267 L -421.98,-230.267 L -422.449,-229.129 C -422.688,-228.555 -422.895,-228.068 -422.895,-227.591 C -422.895,-227.472 -422.873,-227.363 -422.841,-227.255 L -424.235,-227.255 C -423.527,-228.1 -422.873,-229.324 -422.188,-230.928 Z M -419.607,-230.667 L -420.631,-233.461 L -421.807,-230.667 Z "/>
		<path id="dp_path012" fill="white" fill-rule="evenodd" stroke="none" stroke-width="0" d="M -422.169,-230.927 C -421.415,-232.683 -421.113,-233.695 -421.113,-233.845 C -421.113,-233.964 -421.147,-234.072 -421.2,-234.179 L -419.864,-234.179 C -418.744,-230.441 -417.807,-228.148 -417.193,-227.275 L -418.367,-227.275 L -419.455,-230.269 L -421.965,-230.269 L -422.428,-229.137 C -422.665,-228.568 -422.869,-228.083 -422.869,-227.609 C -422.869,-227.491 -422.848,-227.383 -422.816,-227.275 L -424.195,-227.275 C -423.495,-228.115 -422.848,-229.332 -422.169,-230.927 Z M -419.616,-230.668 L -420.629,-233.447 L -421.792,-230.668 Z "/>
		<path id="dp_path013" fill="white" fill-rule="evenodd" stroke="white" stroke-width="0.273555" d="M -422.188,-230.928 C -421.425,-232.693 -421.12,-233.711 -421.12,-233.863 C -421.12,-233.981 -421.153,-234.089 -421.208,-234.199 L -419.857,-234.199 C -418.724,-230.44 -417.776,-228.133 -417.156,-227.255 L -418.343,-227.255 L -419.443,-230.267 L -421.98,-230.267 L -422.449,-229.129 C -422.688,-228.555 -422.895,-228.068 -422.895,-227.591 C -422.895,-227.472 -422.873,-227.363 -422.841,-227.255 L -424.235,-227.255 C -423.527,-228.1 -422.873,-229.324 -422.188,-230.928 Z M -419.607,-230.667 L -420.631,-233.461 L -421.807,-230.667 Z "/>
		<path id="dp_path014" fill="white" fill-rule="evenodd" stroke="none" stroke-width="0" d="M -413.047,-227.275 C -412.788,-227.544 -412.777,-228.577 -412.777,-230.432 L -412.777,-230.872 C -412.777,-232.811 -412.777,-233.9 -413.047,-234.179 L -412.143,-234.179 C -411.453,-234.179 -410.807,-234.255 -410.192,-234.255 C -409.115,-234.255 -408.533,-233.759 -408.533,-232.952 C -408.533,-232.176 -409.093,-231.573 -410.203,-231.196 C -408.9,-231.045 -408.189,-230.355 -408.189,-229.332 C -408.189,-228.125 -409.147,-227.209 -410.807,-227.209 C -411.356,-227.209 -411.863,-227.275 -412.315,-227.275 Z M -411.852,-231.26 L -411.56,-231.26 C -410.225,-231.26 -409.568,-231.82 -409.568,-232.725 C -409.568,-233.436 -410.085,-233.803 -411.129,-233.803 C -411.312,-233.803 -411.528,-233.791 -411.755,-233.771 C -411.829,-233.436 -411.852,-232.725 -411.852,-231.616 L -411.852,-231.519 Z M -411.852,-229.536 C -411.852,-228.577 -411.797,-228.007 -411.765,-227.888 C -411.711,-227.717 -411.409,-227.609 -410.904,-227.609 C -409.891,-227.609 -409.299,-228.212 -409.299,-229.247 C -409.299,-230.248 -409.944,-230.861 -411.172,-230.861 L -411.852,-230.861 Z "/>
		<path id="dp_path015" fill="white" fill-rule="evenodd" stroke="white" stroke-width="0.273555" stroke-linejoin="miter" stroke-miterlimit="10" d="M -413.091,-227.256 C -412.828,-227.527 -412.819,-228.567 -412.819,-230.429 L -412.819,-230.873 C -412.819,-232.824 -412.819,-233.917 -413.091,-234.199 L -412.175,-234.199 C -411.476,-234.199 -410.821,-234.275 -410.199,-234.275 C -409.108,-234.275 -408.519,-233.776 -408.519,-232.964 C -408.519,-232.184 -409.085,-231.577 -410.211,-231.199 C -408.889,-231.047 -408.169,-230.355 -408.169,-229.325 C -408.169,-228.111 -409.14,-227.191 -410.821,-227.191 C -411.377,-227.191 -411.891,-227.256 -412.348,-227.256 Z M -411.88,-231.263 L -411.585,-231.263 C -410.232,-231.263 -409.565,-231.827 -409.565,-232.736 C -409.565,-233.452 -410.089,-233.82 -411.148,-233.82 C -411.333,-233.82 -411.552,-233.808 -411.781,-233.787 C -411.857,-233.452 -411.88,-232.736 -411.88,-231.621 L -411.88,-231.523 Z M -411.88,-229.531 C -411.88,-228.567 -411.825,-227.992 -411.792,-227.872 C -411.737,-227.7 -411.432,-227.592 -410.92,-227.592 C -409.893,-227.592 -409.293,-228.197 -409.293,-229.239 C -409.293,-230.245 -409.948,-230.863 -411.192,-230.863 L -411.88,-230.863 Z "/>
		<path id="dp_path016" fill="white" fill-rule="evenodd" stroke="none" stroke-width="0" d="M -413.047,-227.275 C -412.788,-227.544 -412.777,-228.577 -412.777,-230.432 L -412.777,-230.872 C -412.777,-232.811 -412.777,-233.9 -413.047,-234.179 L -412.143,-234.179 C -411.453,-234.179 -410.807,-234.255 -410.192,-234.255 C -409.115,-234.255 -408.533,-233.759 -408.533,-232.952 C -408.533,-232.176 -409.093,-231.573 -410.203,-231.196 C -408.9,-231.045 -408.189,-230.355 -408.189,-229.332 C -408.189,-228.125 -409.147,-227.209 -410.807,-227.209 C -411.356,-227.209 -411.863,-227.275 -412.315,-227.275 Z M -411.852,-231.26 L -411.56,-231.26 C -410.225,-231.26 -409.568,-231.82 -409.568,-232.725 C -409.568,-233.436 -410.085,-233.803 -411.129,-233.803 C -411.312,-233.803 -411.528,-233.791 -411.755,-233.771 C -411.829,-233.436 -411.852,-232.725 -411.852,-231.616 L -411.852,-231.519 Z M -411.852,-229.536 C -411.852,-228.577 -411.797,-228.007 -411.765,-227.888 C -411.711,-227.717 -411.409,-227.609 -410.904,-227.609 C -409.891,-227.609 -409.299,-228.212 -409.299,-229.247 C -409.299,-230.248 -409.944,-230.861 -411.172,-230.861 L -411.852,-230.861 Z "/>
		<path id="dp_path017" fill="white" fill-rule="evenodd" stroke="white" stroke-width="0.273555" d="M -413.091,-227.256 C -412.828,-227.527 -412.819,-228.567 -412.819,-230.429 L -412.819,-230.873 C -412.819,-232.824 -412.819,-233.917 -413.091,-234.199 L -412.175,-234.199 C -411.476,-234.199 -410.821,-234.275 -410.199,-234.275 C -409.108,-234.275 -408.519,-233.776 -408.519,-232.964 C -408.519,-232.184 -409.085,-231.577 -410.211,-231.199 C -408.889,-231.047 -408.169,-230.355 -408.169,-229.325 C -408.169,-228.111 -409.14,-227.191 -410.821,-227.191 C -411.377,-227.191 -411.891,-227.256 -412.348,-227.256 Z M -411.88,-231.263 L -411.585,-231.263 C -410.232,-231.263 -409.565,-231.827 -409.565,-232.736 C -409.565,-233.452 -410.089,-233.82 -411.148,-233.82 C -411.333,-233.82 -411.552,-233.808 -411.781,-233.787 C -411.857,-233.452 -411.88,-232.736 -411.88,-231.621 L -411.88,-231.523 Z M -411.88,-229.531 C -411.88,-228.567 -411.825,-227.992 -411.792,-227.872 C -411.737,-227.7 -411.432,-227.592 -410.92,-227.592 C -409.893,-227.592 -409.293,-228.197 -409.293,-229.239 C -409.293,-230.245 -409.948,-230.863 -411.192,-230.863 L -411.88,-230.863 Z "/>
		<path id="dp_path018" fill="white" fill-rule="evenodd" stroke="none" stroke-width="0" d="M -402.536,-230.927 C -401.781,-232.683 -401.48,-233.695 -401.48,-233.845 C -401.48,-233.964 -401.512,-234.072 -401.567,-234.179 L -400.231,-234.179 C -399.111,-230.441 -398.173,-228.148 -397.56,-227.275 L -398.733,-227.275 L -399.821,-230.269 L -402.331,-230.269 L -402.795,-229.137 C -403.032,-228.568 -403.236,-228.083 -403.236,-227.609 C -403.236,-227.491 -403.215,-227.383 -403.181,-227.275 L -404.561,-227.275 C -403.86,-228.115 -403.215,-229.332 -402.536,-230.927 Z M -399.983,-230.668 L -400.996,-233.447 L -402.159,-230.668 Z "/>
		<path id="dp_path019" fill="white" fill-rule="evenodd" stroke="white" stroke-width="0.273555" stroke-linejoin="miter" stroke-miterlimit="10" d="M -402.553,-230.928 C -401.791,-232.693 -401.487,-233.711 -401.487,-233.863 C -401.487,-233.981 -401.52,-234.089 -401.573,-234.199 L -400.224,-234.199 C -399.091,-230.44 -398.143,-228.133 -397.523,-227.255 L -398.709,-227.255 L -399.809,-230.267 L -402.347,-230.267 L -402.815,-229.129 C -403.055,-228.555 -403.263,-228.068 -403.263,-227.591 C -403.263,-227.472 -403.24,-227.363 -403.207,-227.255 L -404.601,-227.255 C -403.893,-228.1 -403.24,-229.324 -402.553,-230.928 Z M -399.972,-230.667 L -400.996,-233.461 L -402.173,-230.667 Z "/>
		<path id="dp_path020" fill="white" fill-rule="evenodd" stroke="none" stroke-width="0" d="M -402.536,-230.927 C -401.781,-232.683 -401.48,-233.695 -401.48,-233.845 C -401.48,-233.964 -401.512,-234.072 -401.567,-234.179 L -400.231,-234.179 C -399.111,-230.441 -398.173,-228.148 -397.56,-227.275 L -398.733,-227.275 L -399.821,-230.269 L -402.331,-230.269 L -402.795,-229.137 C -403.032,-228.568 -403.236,-228.083 -403.236,-227.609 C -403.236,-227.491 -403.215,-227.383 -403.181,-227.275 L -404.561,-227.275 C -403.86,-228.115 -403.215,-229.332 -402.536,-230.927 Z M -399.983,-230.668 L -400.996,-233.447 L -402.159,-230.668 Z "/>
		<path id="dp_path021" fill="white" fill-rule="evenodd" stroke="white" stroke-width="0.273555" d="M -402.553,-230.928 C -401.791,-232.693 -401.487,-233.711 -401.487,-233.863 C -401.487,-233.981 -401.52,-234.089 -401.573,-234.199 L -400.224,-234.199 C -399.091,-230.44 -398.143,-228.133 -397.523,-227.255 L -398.709,-227.255 L -399.809,-230.267 L -402.347,-230.267 L -402.815,-229.129 C -403.055,-228.555 -403.263,-228.068 -403.263,-227.591 C -403.263,-227.472 -403.24,-227.363 -403.207,-227.255 L -404.601,-227.255 C -403.893,-228.1 -403.24,-229.324 -402.553,-230.928 Z M -399.972,-230.667 L -400.996,-233.461 L -402.173,-230.667 Z "/>
		<path id="dp_path022" fill="white" fill-rule="evenodd" stroke="none" stroke-width="0" d="M -392.381,-230.312 L -392.381,-230.733 C -392.381,-231.625 -392.392,-232.573 -392.447,-233.597 L -393.588,-233.597 C -393.965,-233.597 -394.299,-233.565 -394.655,-233.328 L -394.395,-234.179 L -388.924,-234.179 C -389.192,-233.759 -389.548,-233.629 -390.088,-233.629 L -391.401,-233.619 C -391.444,-232.488 -391.455,-231.476 -391.455,-230.581 C -391.455,-228.632 -391.455,-227.555 -391.185,-227.275 L -392.651,-227.275 C -392.392,-227.544 -392.381,-228.535 -392.381,-230.312"/>
		<path id="dp_path023" fill="white" fill-rule="evenodd" stroke="white" stroke-width="0.273555" stroke-linejoin="miter" stroke-miterlimit="10" d="M -392.388,-230.311 L -392.388,-230.733 C -392.388,-231.632 -392.399,-232.585 -392.453,-233.613 L -393.608,-233.613 C -393.992,-233.613 -394.329,-233.581 -394.689,-233.344 L -394.427,-234.199 L -388.889,-234.199 C -389.161,-233.776 -389.521,-233.647 -390.067,-233.647 L -391.396,-233.636 C -391.44,-232.497 -391.451,-231.48 -391.451,-230.581 C -391.451,-228.621 -391.451,-227.537 -391.179,-227.255 L -392.661,-227.255 C -392.399,-227.527 -392.388,-228.523 -392.388,-230.311"/>
		<path id="dp_path024" fill="white" fill-rule="evenodd" stroke="none" stroke-width="0" d="M -392.381,-230.312 L -392.381,-230.733 C -392.381,-231.625 -392.392,-232.573 -392.447,-233.597 L -393.588,-233.597 C -393.965,-233.597 -394.299,-233.565 -394.655,-233.328 L -394.395,-234.179 L -388.924,-234.179 C -389.192,-233.759 -389.548,-233.629 -390.088,-233.629 L -391.401,-233.619 C -391.444,-232.488 -391.455,-231.476 -391.455,-230.581 C -391.455,-228.632 -391.455,-227.555 -391.185,-227.275 L -392.651,-227.275 C -392.392,-227.544 -392.381,-228.535 -392.381,-230.312"/>
		<path id="dp_path025" fill="white" fill-rule="evenodd" stroke="white" stroke-width="0.273555" d="M -392.388,-230.311 L -392.388,-230.733 C -392.388,-231.632 -392.399,-232.585 -392.453,-233.613 L -393.608,-233.613 C -393.992,-233.613 -394.329,-233.581 -394.689,-233.344 L -394.427,-234.199 L -388.889,-234.199 C -389.161,-233.776 -389.521,-233.647 -390.067,-233.647 L -391.396,-233.636 C -391.44,-232.497 -391.451,-231.48 -391.451,-230.581 C -391.451,-228.621 -391.451,-227.537 -391.179,-227.255 L -392.661,-227.255 C -392.399,-227.527 -392.388,-228.523 -392.388,-230.311 Z "/>
		<path id="dp_path026" fill="white" fill-rule="evenodd" stroke="none" stroke-width="0" d="M -380.276,-231.519 C -380.276,-233.016 -380.287,-233.877 -380.556,-234.179 L -379.08,-234.179 C -379.339,-233.92 -379.349,-232.929 -379.349,-231.152 L -379.349,-230.312 C -379.349,-228.535 -379.339,-227.533 -379.08,-227.275 L -380.556,-227.275 C -380.297,-227.577 -380.276,-228.449 -380.276,-229.947 L -380.276,-230.764 L -383.496,-230.764 L -383.496,-229.947 C -383.496,-228.449 -383.496,-227.577 -383.228,-227.275 L -384.692,-227.275 C -384.435,-227.544 -384.423,-228.577 -384.423,-230.431 L -384.423,-230.872 C -384.423,-232.811 -384.423,-233.9 -384.692,-234.179 L -383.228,-234.179 C -383.496,-233.877 -383.496,-233.016 -383.496,-231.519 L -383.496,-231.163 L -380.276,-231.163 Z "/>
		<path id="dp_path027" fill="white" fill-rule="evenodd" stroke="white" stroke-width="0.273555" stroke-linejoin="miter" stroke-miterlimit="10" d="M -380.249,-231.524 C -380.249,-233.029 -380.26,-233.896 -380.535,-234.199 L -379.035,-234.199 C -379.299,-233.94 -379.309,-232.943 -379.309,-231.155 L -379.309,-230.311 C -379.309,-228.524 -379.299,-227.516 -379.035,-227.256 L -380.535,-227.256 C -380.272,-227.56 -380.249,-228.436 -380.249,-229.943 L -380.249,-230.765 L -383.521,-230.765 L -383.521,-229.943 C -383.521,-228.436 -383.521,-227.56 -383.248,-227.256 L -384.736,-227.256 C -384.473,-227.527 -384.463,-228.567 -384.463,-230.429 L -384.463,-230.873 C -384.463,-232.824 -384.463,-233.917 -384.736,-234.199 L -383.248,-234.199 C -383.521,-233.896 -383.521,-233.029 -383.521,-231.524 L -383.521,-231.165 L -380.249,-231.165 Z "/>
		<path id="dp_path028" fill="white" fill-rule="evenodd" stroke="none" stroke-width="0" d="M -380.276,-231.519 C -380.276,-233.016 -380.287,-233.877 -380.556,-234.179 L -379.08,-234.179 C -379.339,-233.92 -379.349,-232.929 -379.349,-231.152 L -379.349,-230.312 C -379.349,-228.535 -379.339,-227.533 -379.08,-227.275 L -380.556,-227.275 C -380.297,-227.577 -380.276,-228.449 -380.276,-229.947 L -380.276,-230.764 L -383.496,-230.764 L -383.496,-229.947 C -383.496,-228.449 -383.496,-227.577 -383.228,-227.275 L -384.692,-227.275 C -384.435,-227.544 -384.423,-228.577 -384.423,-230.431 L -384.423,-230.872 C -384.423,-232.811 -384.423,-233.9 -384.692,-234.179 L -383.228,-234.179 C -383.496,-233.877 -383.496,-233.016 -383.496,-231.519 L -383.496,-231.163 L -380.276,-231.163 Z "/>
		<path id="dp_path029" fill="white" fill-rule="evenodd" stroke="white" stroke-width="0.273555" d="M -380.249,-231.524 C -380.249,-233.029 -380.26,-233.896 -380.535,-234.199 L -379.035,-234.199 C -379.299,-233.94 -379.309,-232.943 -379.309,-231.155 L -379.309,-230.311 C -379.309,-228.524 -379.299,-227.516 -379.035,-227.256 L -380.535,-227.256 C -380.272,-227.56 -380.249,-228.436 -380.249,-229.943 L -380.249,-230.765 L -383.521,-230.765 L -383.521,-229.943 C -383.521,-228.436 -383.521,-227.56 -383.248,-227.256 L -384.736,-227.256 C -384.473,-227.527 -384.463,-228.567 -384.463,-230.429 L -384.463,-230.873 C -384.463,-232.824 -384.463,-233.917 -384.736,-234.199 L -383.248,-234.199 C -383.521,-233.896 -383.521,-233.029 -383.521,-231.524 L -383.521,-231.165 L -380.249,-231.165 Z "/>
		<path id="dp_path030" fill="white" fill-rule="evenodd" stroke="none" stroke-width="0" d="M -374.396,-230.593 C -374.396,-232.995 -373.179,-234.309 -370.917,-234.309 C -368.795,-234.309 -367.717,-233.167 -367.717,-230.927 C -367.717,-228.621 -369.107,-227.145 -371.228,-227.145 C -373.255,-227.145 -374.396,-228.384 -374.396,-230.593M -368.795,-230.539 C -368.795,-232.617 -369.667,-233.824 -371.035,-233.824 C -372.425,-233.824 -373.308,-232.791 -373.308,-230.884 C -373.308,-228.815 -372.392,-227.663 -370.896,-227.663 C -369.613,-227.663 -368.795,-228.697 -368.795,-230.539"/>
		<path id="dp_path031" fill="white" fill-rule="evenodd" stroke="white" stroke-width="0.273555" stroke-linejoin="miter" stroke-miterlimit="10" d="M -374.415,-230.592 C -374.415,-233.007 -373.191,-234.328 -370.915,-234.328 C -368.781,-234.328 -367.697,-233.18 -367.697,-230.928 C -367.697,-228.609 -369.095,-227.127 -371.229,-227.127 C -373.267,-227.127 -374.415,-228.371 -374.415,-230.592M -368.781,-230.537 C -368.781,-232.628 -369.659,-233.84 -371.035,-233.84 C -372.433,-233.84 -373.32,-232.801 -373.32,-230.884 C -373.32,-228.805 -372.4,-227.645 -370.893,-227.645 C -369.604,-227.645 -368.781,-228.685 -368.781,-230.537"/>
		<path id="dp_path032" fill="white" fill-rule="evenodd" stroke="none" stroke-width="0" d="M -374.396,-230.593 C -374.396,-232.995 -373.179,-234.309 -370.917,-234.309 C -368.795,-234.309 -367.717,-233.167 -367.717,-230.927 C -367.717,-228.621 -369.107,-227.145 -371.228,-227.145 C -373.255,-227.145 -374.396,-228.384 -374.396,-230.593M -368.795,-230.539 C -368.795,-232.617 -369.667,-233.824 -371.035,-233.824 C -372.425,-233.824 -373.308,-232.791 -373.308,-230.884 C -373.308,-228.815 -372.392,-227.663 -370.896,-227.663 C -369.613,-227.663 -368.795,-228.697 -368.795,-230.539"/>
		<path id="dp_path033" fill="white" fill-rule="evenodd" stroke="white" stroke-width="0.273555" d="M -374.415,-230.592 C -374.415,-233.007 -373.191,-234.328 -370.915,-234.328 C -368.781,-234.328 -367.697,-233.18 -367.697,-230.928 C -367.697,-228.609 -369.095,-227.127 -371.229,-227.127 C -373.267,-227.127 -374.415,-228.371 -374.415,-230.592 Z M -368.781,-230.537 C -368.781,-232.628 -369.659,-233.84 -371.035,-233.84 C -372.433,-233.84 -373.32,-232.801 -373.32,-230.884 C -373.32,-228.805 -372.4,-227.645 -370.893,-227.645 C -369.604,-227.645 -368.781,-228.685 -368.781,-230.537 Z "/>
		<path id="dp_path034" fill="white" fill-rule="evenodd" stroke="none" stroke-width="0" d="M -442.269,-214.797 L -442.269,-215.727 C -442.269,-219.808 -442.269,-222.099 -442.837,-222.687 L -442.112,-222.687 C -440.275,-222.687 -438.777,-222.891 -437.6,-222.891 C -434.788,-222.891 -433.337,-221.553 -433.337,-218.992 C -433.337,-216.317 -435.083,-214.48 -437.532,-214.48 C -438.393,-214.48 -439.164,-214.639 -439.799,-214.979 L -439.572,-214.979 C -437.1,-214.979 -435.627,-216.429 -435.627,-218.901 C -435.627,-221.009 -436.603,-221.984 -438.597,-221.984 C -439.051,-221.984 -439.572,-221.963 -440.116,-221.871 C -440.252,-221.237 -440.32,-218.969 -440.32,-215.115 C -440.32,-211.011 -440.32,-208.744 -439.753,-208.155 L -442.837,-208.155 C -442.293,-208.721 -442.269,-210.897 -442.269,-214.797"/>
		<path id="dp_path035" fill="white" fill-rule="evenodd" stroke="none" stroke-width="0" d="M -428.524,-215.841 C -426.937,-219.536 -426.303,-221.668 -426.303,-221.984 C -426.303,-222.233 -426.371,-222.46 -426.484,-222.688 L -423.672,-222.688 C -421.315,-214.82 -419.343,-209.991 -418.051,-208.155 L -420.521,-208.155 L -422.812,-214.457 L -428.093,-214.457 L -429.068,-212.077 C -429.567,-210.876 -429.999,-209.856 -429.999,-208.857 C -429.999,-208.608 -429.952,-208.381 -429.885,-208.155 L -432.787,-208.155 C -431.313,-209.923 -429.952,-212.485 -428.524,-215.841 Z M -423.151,-215.297 L -425.283,-221.147 L -427.731,-215.297 Z "/>
		<path id="dp_path036" fill="white" fill-rule="evenodd" stroke="none" stroke-width="0" d="M -410.997,-222.687 C -411.541,-222.12 -411.565,-219.943 -411.565,-216.067 L -411.565,-215.137 C -411.565,-211.6 -411.473,-209.537 -411.36,-208.993 C -410.929,-208.969 -410.545,-208.969 -410.159,-208.969 C -408.051,-208.969 -406.759,-209.288 -405.875,-210.557 L -406.372,-208.291 C -406.963,-208.176 -407.733,-208.109 -408.64,-208.109 C -409.841,-208.109 -411.384,-208.155 -413.288,-208.155 L -414.081,-208.155 C -413.537,-208.72 -413.515,-210.897 -413.515,-214.797 L -413.515,-215.727 C -413.515,-219.808 -413.515,-222.097 -414.081,-222.687 Z "/>
		<path id="dp_path037" fill="white" fill-rule="evenodd" stroke="none" stroke-width="0" d="M -399.593,-221.327 L -399.637,-211.419 L -399.637,-210.716 C -399.637,-209.72 -399.593,-208.88 -399.117,-208.155 L -401.701,-208.155 C -400.795,-208.948 -400.476,-213.233 -400.476,-221.1 C -400.476,-221.781 -400.589,-222.233 -401.044,-222.688 L -398.504,-222.688 C -398.164,-222.688 -398.051,-222.665 -397.915,-222.279 L -393.811,-211.328 L -389.255,-222.165 C -389.096,-222.573 -388.959,-222.688 -388.507,-222.688 L -386.284,-222.688 C -386.715,-222.12 -386.828,-220.941 -386.828,-219.151 C -386.828,-212.961 -386.692,-209.356 -385.763,-208.155 L -389.096,-208.155 C -388.596,-208.925 -388.507,-209.968 -388.507,-211.441 C -388.507,-211.487 -388.529,-212.144 -388.552,-213.392 L -388.688,-221.327 L -394.356,-207.836 Z "/>
		<path id="dp_path038" fill="white" fill-rule="evenodd" stroke="none" stroke-width="0" d="M -381.295,-211.216 C -380.411,-209.72 -378.983,-208.903 -377.213,-208.903 C -375.4,-208.903 -374.244,-210.104 -374.244,-211.669 C -374.244,-213.029 -375.083,-213.891 -376.671,-214.752 C -379.028,-216.044 -380.796,-216.905 -380.796,-219.173 C -380.796,-221.281 -379.028,-222.96 -376.08,-222.96 C -374.924,-222.96 -374.108,-222.869 -373.677,-222.869 C -373.564,-222.869 -373.428,-222.847 -373.247,-222.847 L -372.679,-222.847 L -372.679,-220.488 C -373.247,-221.44 -374.289,-221.963 -375.672,-221.963 C -377.668,-221.963 -378.732,-220.987 -378.732,-219.672 C -378.732,-218.063 -377.349,-217.381 -375.581,-216.453 C -373.269,-215.228 -372.091,-214.049 -372.091,-212.28 C -372.091,-209.945 -374.244,-207.883 -377.281,-207.883 C -378.528,-207.883 -379.844,-208.2 -381.295,-208.744 Z "/>
		<path id="dp_path039" fill="white" fill-rule="evenodd" stroke="none" stroke-width="0" d="M -414.181,-242.283 C -415.517,-245.228 -417.091,-248.423 -417.349,-253.86 C -417.889,-253.441 -418.824,-252.42 -419.007,-251.913 C -419.276,-252.012 -419.592,-252.02 -419.848,-252.123 C -419.617,-251.916 -419.493,-251.583 -419.344,-251.317 C -419.656,-250.983 -419.813,-250.387 -419.76,-249.949 C -420.047,-249.907 -420.361,-249.927 -420.645,-249.888 C -420.485,-249.729 -420.32,-249.493 -420.2,-249.299 C -420.017,-249.003 -420.2,-248.825 -420.359,-248.52 C -420.556,-248.14 -420.741,-247.773 -421,-247.424 C -421.149,-247.221 -421.163,-247.019 -421.495,-246.825 C -421.319,-247.08 -421.276,-247.517 -421.241,-247.813 C -421.183,-248.32 -421.239,-248.791 -421.265,-249.292 C -421.315,-250.199 -421.239,-251.007 -421.099,-251.931 C -421.047,-252.277 -420.993,-252.639 -420.908,-252.988 C -421.131,-252.659 -421.308,-252.328 -421.377,-252.113 C -421.392,-252.115 -421.405,-252.115 -421.421,-252.113 C -421.46,-252.175 -421.676,-251.432 -421.885,-251.117 C -421.913,-251.189 -421.971,-251.26 -422.015,-251.313 C -422.08,-250.923 -422.18,-250.548 -422.343,-250.176 C -422.452,-249.925 -422.628,-249.733 -422.751,-249.499 C -422.744,-249.527 -422.732,-249.56 -422.732,-249.588 C -422.688,-250.039 -422.704,-250.448 -422.748,-250.896 C -422.788,-251.308 -422.823,-251.659 -422.78,-252.076 C -422.728,-252.593 -422.563,-253.064 -422.279,-253.473 C -422.705,-253.212 -423.232,-252.845 -423.347,-252.672 C -423.589,-252.807 -423.859,-253.048 -424.143,-253.121 C -424.091,-252.509 -424.024,-252.967 -424.051,-252.279 C -424.616,-252.072 -425.74,-251.663 -426.385,-251.713 C -426.684,-251.737 -426.921,-251.823 -427.189,-251.864 C -424.985,-247.757 -421.601,-244.381 -417.492,-242.183 C -416.481,-242.129 -415.383,-242.152 -414.181,-242.283"/>
		<path id="dp_path040" fill="white" fill-rule="evenodd" stroke="none" stroke-width="0" d="M -424.745,-253.917 C -424.217,-254.496 -423.659,-255.123 -423.055,-255.667 C -422.221,-256.159 -421.192,-256.427 -420.232,-256.529 C -420.445,-256.691 -421.213,-256.521 -421.213,-256.521 C -421.213,-256.521 -421.312,-256.864 -421.292,-257.081 C -421.303,-256.879 -421.388,-256.469 -421.388,-256.469 C -421.949,-256.331 -421.865,-256.399 -422.061,-256.407 C -422.06,-256.407 -422.192,-256.409 -422.192,-256.411 C -422.348,-256.456 -422.957,-256.303 -422.957,-256.303 C -422.957,-256.303 -422.785,-256.819 -422.865,-256.968 C -423,-256.873 -423.041,-256.596 -423.133,-256.457 C -423.748,-256.528 -424.683,-257.012 -425.041,-257.545 C -424.043,-257.252 -422.965,-257.345 -421.941,-257.628 C -421.707,-257.693 -420.719,-257.849 -420.083,-257.613 C -420.083,-257.613 -420.708,-257.948 -420.707,-257.948 C -421.723,-257.98 -422.8,-258.433 -423.433,-259.247 C -421.819,-258.683 -420.147,-259.308 -418.559,-258.168 C -418.364,-258.028 -417.607,-257.273 -417.477,-257.056 C -417.635,-257.683 -417.619,-258.172 -417.469,-258.763 C -417.22,-259.755 -417.244,-259.715 -416.472,-260.479 C -415.679,-261.263 -414.223,-261.469 -413.683,-262.768 C -413.653,-262.841 -413.569,-262.46 -413.564,-262.524 C -413.543,-261.824 -413.509,-261.627 -413.824,-261.145 C -414.289,-260.751 -414.743,-260.763 -414.969,-260.735 C -415.109,-260.633 -414.449,-260.693 -414.279,-260.544 C -414.605,-260.173 -414.988,-259.856 -415.416,-259.619 C -415.849,-259.393 -415.639,-259.092 -415.559,-259.041 C -415.633,-258.748 -415.864,-258.373 -416.032,-258.085 C -415.405,-258.888 -414.599,-260.073 -413.679,-260.383 C -412.615,-260.74 -411.871,-260.98 -411.309,-262.023 C -411.271,-261.416 -411.691,-260.616 -412.107,-260.143 C -412.233,-259.999 -412.692,-259.515 -412.692,-259.515 C -412.692,-259.515 -413.111,-259.319 -412.901,-259.24 C -413.031,-259 -413.481,-258.516 -413.709,-258.383 C -414.077,-258.164 -414.697,-257.503 -414.825,-257.311 C -414.128,-257.463 -413.397,-257.491 -412.716,-257.343 C -412.235,-257.239 -411.747,-257.113 -411.281,-256.956 C -410.804,-256.797 -410.305,-256.599 -409.799,-256.559 C -409.624,-256.544 -409.453,-256.54 -409.281,-256.589 C -409.739,-256.459 -410.187,-256.253 -410.637,-256.08 C -411.097,-255.901 -411.612,-256.065 -412.04,-256.259 C -412.063,-256.116 -412.056,-255.96 -412.053,-255.819 C -412.523,-255.803 -413.064,-255.741 -413.519,-255.601 C -413.655,-255.559 -413.753,-255.457 -413.875,-255.493 C -414.043,-255.541 -414.188,-255.823 -414.312,-255.939 C -414.387,-255.817 -414.44,-255.688 -414.501,-255.564 C -414.603,-255.36 -414.647,-255.427 -414.893,-255.379 C -415.109,-255.337 -415.295,-255.357 -415.472,-255.395 C -415.472,-255.379 -415.473,-255.363 -415.473,-255.347 C -415.465,-255.341 -415.457,-255.337 -415.457,-255.332 C -415.075,-255.367 -414.699,-255.355 -414.353,-255.268 C -413.623,-255.085 -412.892,-254.563 -412.396,-254.008 C -411.771,-253.309 -411.324,-252.225 -410.38,-251.895 C -410.317,-251.871 -410.279,-251.847 -410.224,-251.843 C -411.603,-251.765 -413.449,-252.155 -414.003,-253.567 C -414.081,-253.459 -414.115,-253.336 -414.195,-253.229 C -414.687,-253.372 -415.119,-253.627 -415.664,-253.649 C -415.725,-253.767 -415.736,-253.903 -415.713,-254.032 C -415.764,-253.931 -415.812,-253.811 -415.891,-253.721 C -416.185,-253.797 -416.607,-254.245 -416.752,-254.519 C -416.009,-249.148 -413.817,-245.511 -412.34,-242.555 C -412.087,-242.6 -411.832,-242.649 -411.571,-242.704 L -412.288,-242.676 C -407.961,-249.708 -403.487,-255.595 -403.093,-259.119 C -402.748,-262.057 -401.795,-263.337 -402.233,-266.336 C -402.772,-266.253 -403.301,-266.021 -403.765,-265.708 C -404.215,-265.403 -404.488,-265.009 -404.847,-264.616 C -405.299,-264.12 -405.311,-264.179 -405.815,-264.564 C -406.344,-263.761 -406.819,-263.38 -407.588,-262.836 C -407.613,-262.892 -407.916,-263.377 -408.503,-263.121 C -409.133,-262.847 -409.433,-262.604 -410.125,-262.796 C -409.283,-263.027 -409.137,-263.58 -408.719,-264.312 C -407.735,-266.028 -405.04,-268.083 -405.04,-268.421 C -406.595,-267.397 -407.279,-266.756 -408.129,-266.079 C -408.732,-265.599 -409.276,-265.532 -409.969,-265.376 C -410.145,-265.989 -410.256,-265.659 -410.528,-266.263 C -411.061,-265.484 -412.232,-265.44 -413.077,-265.557 C -413.649,-265.636 -414.152,-265.828 -414.667,-266.14 C -415.091,-266.396 -415.767,-266.668 -416.031,-267.089 C -415.353,-267.139 -414.684,-266.856 -413.955,-266.949 C -413.139,-267.052 -408.799,-268.933 -407.255,-270.131 C -409.915,-269.809 -411.092,-268.948 -410.912,-269.248 C -410.791,-269.452 -412.371,-269.328 -412.228,-269.563 C -412.044,-269.868 -412.009,-269.972 -411.921,-270.216 C -412.232,-269.925 -412.723,-269.355 -413.176,-269.317 C -413.573,-269.285 -414.123,-269.527 -414.488,-269.704 C -415.556,-270.219 -415.823,-270.595 -415.823,-270.595 C -415.823,-270.595 -415.249,-271.168 -415.165,-271.381 C -415.817,-271.185 -416.556,-271.087 -417.167,-271.333 C -417.84,-271.603 -418.725,-272.369 -419.285,-272.827 C -417.7,-272.493 -416.635,-272.216 -415.089,-272.603 C -414.197,-272.827 -413.285,-272.964 -412.393,-273.18 C -412.012,-273.273 -408.251,-272.008 -407.876,-272.051 C -408.065,-272.336 -411.637,-273.949 -411.821,-274.228 C -411.663,-274.433 -411.48,-274.64 -411.377,-274.871 C -411.932,-274.864 -412.433,-274.785 -412.792,-275.345 C -413.088,-275.808 -413.276,-276.361 -413.517,-276.849 C -413.659,-277.135 -413.935,-277.483 -413.952,-277.769 C -413.053,-276.507 -410.941,-275.997 -409.647,-275.611 C -409.647,-275.611 -407.399,-275.067 -406.539,-274.728 L -407.319,-275.829 L -406.045,-276.501 L -407.408,-276.537 C -408.077,-278.167 -408.056,-280.237 -408.019,-281.003 C -408.025,-281.108 -408.021,-281.211 -408.001,-281.305 C -408.001,-281.305 -408.009,-281.195 -408.019,-281.003 C -407.92,-279.233 -404.4,-276.023 -404.4,-276.023 C -404.231,-275.881 -404.072,-275.732 -403.916,-275.579 C -404.143,-276.916 -403.681,-278.268 -402.641,-279.176 C -403.233,-278.036 -402.992,-277.164 -402.573,-276.017 C -402.275,-275.2 -401.936,-274.295 -401.523,-273.541 C -401.637,-273.9 -401.551,-274.361 -401.248,-274.615 C -401.08,-274.756 -400.887,-274.751 -400.695,-274.829 C -400.884,-274.967 -401.08,-275.081 -401.084,-275.287 C -401.087,-275.564 -400.92,-276.045 -400.752,-276.245 C -400.409,-276.653 -400.217,-277.224 -399.355,-277.293 C -399.835,-277.072 -399.989,-276.212 -400.052,-275.745 C -400.179,-274.807 -400.019,-273.887 -399.859,-272.964 C -399.807,-272.66 -399.709,-272.2 -399.653,-271.715 C -398.725,-272.753 -397.736,-273.549 -396.277,-274.164 C -394.256,-275.017 -391.911,-274.832 -389.78,-274.924 C -388.773,-274.967 -387.968,-275.068 -387.104,-275.532 C -387.801,-274.664 -388.5,-274.16 -389.341,-273.648 C -390.007,-273.243 -393.165,-272.499 -393.601,-271.908 C -393.863,-272.181 -393.875,-272.475 -393.992,-272.817 C -394.165,-272.373 -394.453,-272.024 -394.636,-271.591 C -393.571,-271.829 -392.439,-271.833 -391.065,-271.141 C -389.328,-270.264 -388.72,-268.917 -386.419,-267.275 C -385.916,-266.917 -385.185,-266.372 -384.557,-266.469 C -386.017,-265.553 -388.479,-266.533 -389.317,-268.043 C -389.616,-267.784 -389.611,-267.323 -390.02,-267.311 C -390.345,-267.3 -390.833,-267.603 -391.168,-267.681 C -391.825,-267.836 -392.369,-267.784 -393.036,-267.692 C -390.503,-266.173 -388.215,-263.8 -385.281,-263.985 C -386.539,-263.364 -387.788,-262.952 -389.209,-262.732 C -389.848,-262.633 -390.723,-262.357 -391.363,-262.593 C -391.829,-262.765 -391.932,-263.265 -392.167,-263.675 C -392.659,-263.471 -392.967,-263.039 -393.379,-262.76 C -393.721,-263.097 -395.119,-265.407 -395.733,-266.013 C -395.908,-265.848 -396.101,-265.643 -396.268,-265.493 C -396.867,-266.061 -397.621,-266.401 -398.413,-266.525 C -397.747,-266.076 -397.18,-265.356 -396.76,-264.553 C -395.991,-263.087 -395.748,-261.516 -395.496,-260.065 C -395.345,-259.193 -395.217,-258.281 -394.92,-257.396 C -394.692,-256.715 -394.401,-255.951 -393.9,-255.351 C -393.856,-255.299 -393.808,-255.252 -393.76,-255.209 C -393.975,-255.395 -394.237,-255.513 -394.467,-255.671 C -394.853,-255.937 -395.259,-256.317 -395.579,-256.696 C -395.919,-257.097 -396.181,-257.563 -396.403,-258.024 C -396.46,-258.141 -396.479,-258.229 -396.509,-258.288 C -396.544,-258.285 -396.588,-258.303 -396.641,-258.352 C -396.693,-258.297 -396.775,-258.187 -396.843,-258.147 C -396.976,-258.065 -396.969,-258.133 -397.076,-258.241 C -397.208,-258.375 -398.924,-261.3 -399.039,-261.664 C -399.133,-261.964 -399.292,-262.341 -399.237,-262.663 C -399.161,-263.121 -398.915,-263.473 -398.803,-263.935 C -398.805,-263.935 -398.807,-263.936 -398.807,-263.936 C -398.829,-263.908 -398.908,-263.8 -398.909,-263.793 C -399.199,-263.481 -399.253,-263.348 -399.62,-263.124 C -399.705,-263.533 -399.817,-263.937 -399.909,-264.344 C -399.939,-264.471 -400.157,-264.933 -400.203,-265.045 C -400.315,-265.045 -400.421,-265.033 -400.527,-265.019 C -400.577,-265.351 -400.683,-265.627 -400.829,-265.855 C -400.831,-265.76 -400.833,-265.687 -400.836,-265.635 C -400.116,-263.083 -400.608,-261.497 -400.823,-258.685 C -401.04,-255.676 -404.273,-248.391 -405.152,-244.349 C -402.149,-244.904 -398.557,-244.967 -393.319,-243.716 C -393.181,-243.684 -393.048,-243.653 -392.915,-243.621 C -386.781,-247.885 -382.764,-254.98 -382.764,-263.015 C -382.764,-276.055 -393.335,-286.625 -406.376,-286.625 C -419.415,-286.625 -429.987,-276.055 -429.987,-263.015 C -429.987,-259.007 -428.983,-255.233 -427.221,-251.927 C -426.171,-252.332 -425.499,-253.092 -424.745,-253.917"/>
		<path id="dp_path041" fill="white" fill-rule="evenodd" stroke="none" stroke-width="0" d="M -393.272,-269.217 C -393.765,-269.143 -394.188,-268.839 -394.556,-268.46 C -394.04,-268.255 -393.54,-267.993 -393.048,-267.699 C -393.131,-268.223 -393.343,-268.684 -393.272,-269.217"/>
		<path id="dp_path042" fill="white" fill-rule="evenodd" stroke="none" stroke-width="0" d="M -416.804,-254.677 C -416.804,-254.687 -416.804,-254.696 -416.8,-254.704 C -416.804,-254.703 -416.808,-254.701 -416.812,-254.701 C -416.809,-254.693 -416.808,-254.685 -416.804,-254.677"/>
		<path id="dp_path043" fill="white" fill-rule="evenodd" stroke="none" stroke-width="0" d="M -408.02,-281.003 C -408.011,-281.195 -408.001,-281.305 -408.001,-281.305 C -408.021,-281.211 -408.025,-281.108 -408.02,-281.003"/>
		<path id="dp_path044" fill="white" fill-rule="evenodd" stroke="none" stroke-width="0" d="M -427.264,-251.909 C -427.304,-251.895 -427.381,-251.891 -427.417,-251.888 C -427.337,-251.887 -427.263,-251.876 -427.188,-251.865 C -427.2,-251.887 -427.211,-251.907 -427.221,-251.928 C -427.236,-251.923 -427.249,-251.915 -427.264,-251.909"/>
		<path id="dp_path045" fill="white" fill-rule="evenodd" stroke="none" stroke-width="0" d="M -415.332,-240.26 C -417.115,-240.26 -418.777,-240.428 -419.893,-240.723 C -423.2,-241.593 -426.865,-244.172 -427.433,-246.027 L -427.895,-247.535 L -426.423,-246.456 C -424.72,-245.203 -421.868,-243.103 -416.627,-243.103 L -416.625,-243.103 C -414.296,-243.103 -411.72,-243.531 -408.968,-244.375 C -406.36,-245.175 -404.001,-245.707 -400.968,-245.707 C -398.579,-245.707 -395.996,-245.368 -393.073,-244.671 C -392.26,-244.476 -391.491,-244.295 -390.777,-244.127 C -386.053,-243.015 -385.485,-242.845 -385.249,-242.48 L -385.947,-241.74 C -386.611,-242.099 -393.277,-242.9 -397.395,-243.272 C -397.847,-243.313 -398.316,-243.335 -398.791,-243.335 C -402.489,-243.335 -406.189,-242.091 -409.163,-241.092 L -409.195,-241.081 C -411.323,-240.365 -413.953,-240.26 -415.332,-240.26"/>
	</g>
</svg>