<?xml version="1.0" encoding="UTF-8" standalone="no"?>
<svg version="1.1" xmlns="http://www.w3.org/2000/svg" xmlns:xlink="http://www.w3.org/1999/xlink" width="91" height="58">
	<path id="dp_path001" transform="matrix(1,0,0,1,-312.831,131.856)" fill="white" fill-rule="evenodd" stroke="none" stroke-width="0" d="M 338.171,-81.3213 C 337.904,-81.3213 337.3,-81.3493 336.793,-81.3493 C 336.649,-81.3493 336.58,-81.3307 336.58,-81.264 C 336.58,-81.196 336.637,-81.176 336.744,-81.176 C 336.879,-81.176 337.041,-81.168 337.119,-81.148 C 337.435,-81.0827 337.509,-80.928 337.531,-80.6027 C 337.551,-80.2947 337.551,-80.0267 337.551,-78.5733 L 337.551,-76.8853 C 337.551,-76.0053 337.551,-75.248 337.503,-74.8467 C 337.464,-74.5667 337.415,-74.3587 337.224,-74.3173 C 337.137,-74.2973 337.021,-74.2813 336.879,-74.2813 C 336.764,-74.2813 336.725,-74.2507 336.725,-74.204 C 336.725,-74.1373 336.793,-74.108 336.917,-74.108 C 337.3,-74.108 337.904,-74.1373 338.124,-74.1373 C 338.375,-74.1373 338.977,-74.108 339.607,-74.108 C 339.713,-74.108 339.792,-74.1373 339.792,-74.204 C 339.792,-74.2507 339.743,-74.2813 339.639,-74.2813 C 339.495,-74.2813 339.284,-74.2973 339.148,-74.3173 C 338.861,-74.3587 338.803,-74.5667 338.776,-74.836 C 338.728,-75.248 338.728,-76.0053 338.728,-76.8853 L 338.728,-80.716 C 338.728,-80.8253 338.756,-80.88 338.803,-80.9 C 338.889,-80.928 339.035,-80.9373 339.177,-80.9373 C 339.399,-80.9373 339.792,-80.88 340.135,-80.5627 C 340.672,-80.0853 340.7,-79.4453 340.7,-79.1267 C 340.7,-78.1507 339.953,-77.5467 339.419,-77.5467 C 339.215,-77.5467 339.148,-77.5187 339.148,-77.4413 C 339.148,-77.3747 339.215,-77.3627 339.265,-77.356 C 339.313,-77.3453 339.419,-77.3453 339.465,-77.3453 C 340.827,-77.3453 341.821,-78.304 341.821,-79.664 C 341.821,-80.1707 341.552,-80.6027 341.344,-80.8027 C 341.189,-80.948 340.759,-81.3493 339.561,-81.3493 C 339.12,-81.3493 338.563,-81.3213 338.171,-81.3213 Z M 353.149,-81.3213 C 352.889,-81.3213 352.287,-81.3493 351.836,-81.3493 C 351.691,-81.3493 351.625,-81.3307 351.625,-81.264 C 351.625,-81.196 351.681,-81.176 351.787,-81.176 C 351.912,-81.176 352.027,-81.168 352.105,-81.148 C 352.421,-81.0827 352.499,-80.928 352.517,-80.6027 C 352.536,-80.2947 352.536,-80.0267 352.536,-78.5733 L 352.536,-76.8853 C 352.536,-76.0053 352.536,-75.248 352.488,-74.8467 C 352.449,-74.5667 352.403,-74.3587 352.209,-74.3173 C 352.124,-74.2973 352.008,-74.2813 351.864,-74.2813 C 351.749,-74.2813 351.712,-74.2507 351.712,-74.204 C 351.712,-74.1373 351.779,-74.108 351.903,-74.108 C 352.095,-74.108 352.343,-74.1173 352.564,-74.128 C 352.795,-74.128 353.004,-74.1373 353.111,-74.1373 C 353.503,-74.1373 353.847,-74.128 354.279,-74.108 C 354.711,-74.0987 355.208,-74.0787 355.897,-74.0787 C 356.397,-74.0787 356.444,-74.128 356.501,-74.3387 C 356.577,-74.6173 356.647,-75.3333 356.647,-75.44 C 356.647,-75.5547 356.637,-75.6027 356.568,-75.6027 C 356.491,-75.6027 356.472,-75.5453 356.463,-75.4573 C 356.444,-75.2747 356.328,-75.008 356.213,-74.884 C 355.975,-74.6253 355.6,-74.6173 355.092,-74.6173 C 354.348,-74.6173 354.097,-74.684 353.936,-74.8253 C 353.732,-74.996 353.732,-75.66 353.732,-76.8853 L 353.732,-78.5733 C 353.732,-80.0267 353.732,-80.2947 353.752,-80.6027 C 353.771,-80.9373 353.847,-81.1013 354.107,-81.148 C 354.221,-81.168 354.375,-81.176 354.479,-81.176 C 354.595,-81.176 354.652,-81.196 354.652,-81.264 C 354.652,-81.3307 354.585,-81.3493 354.451,-81.3493 C 354.077,-81.3493 353.379,-81.3213 353.149,-81.3213 Z M 380.049,-81.3867 C 379.973,-81.368 379.819,-81.3493 379.64,-81.3307 C 379.456,-81.3213 377.549,-81.3213 377.244,-81.3213 C 377.109,-81.3213 376.889,-81.3307 376.64,-81.3413 L 375.865,-81.3493 C 375.721,-81.3493 375.653,-81.3307 375.653,-81.264 C 375.653,-81.196 375.711,-81.176 375.815,-81.176 C 375.949,-81.176 376.115,-81.168 376.191,-81.148 C 376.507,-81.0827 376.581,-80.928 376.601,-80.6027 C 376.62,-80.2947 376.62,-80.0267 376.62,-78.5733 L 376.62,-76.8853 C 376.62,-76.0053 376.62,-75.248 376.572,-74.8467 C 376.536,-74.5667 376.487,-74.3587 376.293,-74.3173 C 376.209,-74.2973 376.095,-74.2813 375.949,-74.2813 C 375.835,-74.2813 375.797,-74.2507 375.797,-74.204 C 375.797,-74.1373 375.865,-74.108 375.988,-74.108 C 376.179,-74.108 376.431,-74.1173 376.651,-74.128 C 376.881,-74.128 377.089,-74.1373 377.196,-74.1373 C 377.483,-74.1373 377.78,-74.128 378.192,-74.108 C 378.604,-74.0987 379.131,-74.0787 379.849,-74.0787 C 380.213,-74.0787 380.3,-74.0787 380.365,-74.328 C 380.412,-74.5187 380.491,-75.172 380.491,-75.3907 C 380.491,-75.488 380.491,-75.564 380.412,-75.564 C 380.348,-75.564 380.329,-75.5267 380.308,-75.42 C 380.241,-75.028 380.127,-74.8253 379.877,-74.712 C 379.628,-74.5973 379.225,-74.5973 378.979,-74.5973 C 378,-74.5973 377.847,-74.7387 377.828,-75.4 C 377.817,-75.6787 377.828,-76.5587 377.828,-76.8853 L 377.884,-77.7373 C 378.113,-77.7373 379.064,-77.7253 379.245,-77.7093 C 379.597,-77.672 379.735,-77.528 379.783,-77.336 C 379.811,-77.212 379.811,-77.088 379.907,-76.9053 C 379.992,-76.9053 379.992,-77.0107 379.992,-77.088 C 379.992,-77.1547 380.013,-77.536 380.031,-77.7253 C 380.06,-78.216 380.109,-78.3707 380.04,-78.5053 C 379.992,-78.5053 379.953,-78.4533 379.888,-78.38 C 379.8,-78.284 379.657,-78.256 379.425,-78.2333 C 379.208,-78.216 378.104,-78.216 377.828,-78.3227 L 377.893,-80.8427 C 378.085,-80.8427 379.091,-80.8253 379.253,-80.8027 C 379.735,-80.7453 379.829,-80.632 379.897,-80.4587 C 379.944,-80.3427 379.953,-80.1813 379.953,-80.1147 C 379.953,-80.0267 379.973,-79.9813 380.135,-80.0853 C 380.156,-80.2 380.175,-80.6213 380.183,-80.716 C 380.213,-81.1587 380.26,-81.2733 380.204,-81.4267 C 380.156,-81.4267 380.099,-81.3973 380.049,-81.3867 Z M 367.793,-80.468 C 366.873,-79.6267 366.671,-78.4947 366.671,-77.8453 C 366.671,-76.916 366.92,-75.84 367.859,-75.0173 C 368.732,-74.2613 369.832,-73.9747 371.144,-73.9747 C 371.757,-73.9747 372.487,-74.0413 372.869,-74.1933 C 373.031,-74.2613 373.072,-74.308 373.117,-74.4707 C 373.213,-74.7973 373.329,-75.632 373.329,-75.7453 C 373.329,-75.8227 373.311,-75.8893 373.243,-75.8893 C 373.168,-75.8893 373.145,-75.852 373.117,-75.6973 C 373.08,-75.5267 372.956,-75.248 372.792,-75.068 C 372.409,-74.6253 371.891,-74.528 371.04,-74.528 C 369.756,-74.528 368.023,-75.66 368.023,-77.94 C 368.023,-78.8693 368.204,-79.7773 368.904,-80.4213 C 369.325,-80.8027 369.872,-81.0147 370.704,-81.0147 C 371.585,-81.0147 372.332,-80.7547 372.649,-80.4213 C 372.889,-80.1707 373.012,-79.8347 373.023,-79.5387 C 373.023,-79.4053 373.041,-79.3267 373.117,-79.3267 C 373.205,-79.3267 373.223,-79.4053 373.235,-79.5493 C 373.253,-79.74 373.243,-80.2667 373.261,-80.5853 C 373.281,-80.9187 373.311,-81.032 373.311,-81.1107 C 373.311,-81.168 373.273,-81.2147 373.168,-81.224 C 372.879,-81.2533 372.571,-81.3413 372.209,-81.3867 C 371.767,-81.444 371.412,-81.484 370.819,-81.484 C 369.393,-81.484 368.481,-81.1013 367.793,-80.468 Z M 345.123,-77.1547 L 346.109,-79.5107 L 346.923,-77.088 L 345.161,-77.088 Z M 346.033,-81.176 L 343.627,-75.1627 C 343.436,-74.684 343.255,-74.3587 342.813,-74.2973 C 342.737,-74.2867 342.603,-74.2813 342.517,-74.2813 C 342.441,-74.2813 342.401,-74.2613 342.401,-74.204 C 342.401,-74.128 342.461,-74.108 342.584,-74.108 C 343.083,-74.108 343.609,-74.1373 343.715,-74.1373 C 344.011,-74.1373 344.423,-74.108 344.731,-74.108 C 344.837,-74.108 344.892,-74.128 344.892,-74.204 C 344.892,-74.2613 344.864,-74.2813 344.749,-74.2813 L 344.605,-74.2813 C 344.309,-74.2813 344.223,-74.4053 344.223,-74.5773 C 344.223,-74.692 344.271,-74.9213 344.368,-75.1627 L 344.969,-76.6067 L 347.107,-76.6067 L 347.203,-76.5427 L 347.968,-74.5093 C 348.016,-74.3973 347.949,-74.308 347.883,-74.2867 C 347.787,-74.2813 347.748,-74.2613 347.748,-74.204 C 347.748,-74.1373 347.861,-74.1373 348.036,-74.128 C 348.804,-74.108 349.501,-74.108 349.847,-74.108 C 350.2,-74.108 350.285,-74.128 350.285,-74.204 C 350.285,-74.2707 350.239,-74.2813 350.161,-74.2813 C 350.047,-74.2813 349.901,-74.2867 349.76,-74.3173 C 349.559,-74.3747 349.281,-74.5093 348.916,-75.368 C 348.303,-76.8187 346.772,-80.728 346.54,-81.2533 C 346.445,-81.4747 346.389,-81.5613 346.303,-81.5613 C 346.205,-81.5613 346.148,-81.456 346.033,-81.176 Z M 360.303,-77.1547 L 361.289,-79.5107 L 362.103,-77.088 L 360.341,-77.088 Z M 361.213,-81.176 L 358.808,-75.1627 C 358.617,-74.684 358.435,-74.3587 357.992,-74.2973 C 357.919,-74.2867 357.784,-74.2813 357.699,-74.2813 C 357.621,-74.2813 357.583,-74.2613 357.583,-74.204 C 357.583,-74.128 357.64,-74.108 357.764,-74.108 C 358.263,-74.108 358.788,-74.1373 358.895,-74.1373 C 359.192,-74.1373 359.603,-74.108 359.909,-74.108 C 360.016,-74.108 360.073,-74.128 360.073,-74.204 C 360.073,-74.2613 360.043,-74.2813 359.929,-74.2813 L 359.785,-74.2813 C 359.487,-74.2813 359.401,-74.4053 359.401,-74.5773 C 359.401,-74.692 359.449,-74.9213 359.545,-75.1627 L 360.149,-76.6067 L 362.287,-76.6067 L 362.381,-76.5427 L 363.149,-74.5093 C 363.196,-74.3973 363.128,-74.308 363.063,-74.2867 C 362.965,-74.2813 362.929,-74.2613 362.929,-74.204 C 362.929,-74.1373 363.041,-74.1373 363.215,-74.128 C 363.981,-74.108 364.68,-74.108 365.025,-74.108 C 365.381,-74.108 365.467,-74.128 365.467,-74.204 C 365.467,-74.2707 365.419,-74.2813 365.341,-74.2813 C 365.229,-74.2813 365.083,-74.2867 364.94,-74.3173 C 364.737,-74.3747 364.46,-74.5093 364.097,-75.368 C 363.484,-76.8187 361.951,-80.728 361.72,-81.2533 C 361.624,-81.4747 361.568,-81.5613 361.481,-81.5613 C 361.385,-81.5613 361.328,-81.456 361.213,-81.176 Z M 341.911,-96.508 C 341.495,-96.508 340.56,-96.552 339.775,-96.552 C 339.551,-96.552 339.448,-96.524 339.448,-96.42 C 339.448,-96.3147 339.537,-96.2853 339.699,-96.2853 C 339.908,-96.2853 340.159,-96.2707 340.279,-96.2387 C 340.767,-96.136 340.887,-95.8987 340.916,-95.396 C 340.947,-94.9187 340.947,-94.5053 340.947,-92.2533 L 340.947,-89.6427 C 340.947,-88.2787 340.947,-87.108 340.872,-86.484 C 340.813,-86.056 340.739,-85.7293 340.443,-85.6707 C 340.308,-85.6427 340.131,-85.6107 339.908,-85.6107 C 339.728,-85.6107 339.672,-85.5667 339.672,-85.4933 C 339.672,-85.388 339.775,-85.344 339.968,-85.344 C 340.56,-85.344 341.495,-85.388 341.836,-85.388 C 342.223,-85.388 343.156,-85.344 344.135,-85.344 C 344.299,-85.344 344.417,-85.388 344.417,-85.4933 C 344.417,-85.5667 344.343,-85.6107 344.18,-85.6107 C 343.957,-85.6107 343.631,-85.6427 343.423,-85.6707 C 342.977,-85.7293 342.889,-86.056 342.847,-86.4707 C 342.772,-87.108 342.772,-88.2787 342.772,-89.6427 L 342.772,-95.5733 C 342.772,-95.736 342.816,-95.824 342.889,-95.856 C 343.024,-95.8987 343.245,-95.916 343.467,-95.916 C 343.808,-95.916 344.417,-95.824 344.949,-95.336 C 345.783,-94.5947 345.827,-93.6013 345.827,-93.1147 C 345.827,-91.6027 344.669,-90.6653 343.839,-90.6653 C 343.528,-90.6653 343.423,-90.6227 343.423,-90.504 C 343.423,-90.3987 343.528,-90.3853 343.6,-90.3707 C 343.675,-90.3547 343.839,-90.3547 343.913,-90.3547 C 346.02,-90.3547 347.564,-91.836 347.564,-93.9427 C 347.564,-94.7267 347.147,-95.396 346.82,-95.708 C 346.584,-95.928 345.916,-96.552 344.063,-96.552 C 343.381,-96.552 342.517,-96.508 341.911,-96.508 Z M 364.464,-96.552 C 364.201,-96.552 363.915,-96.5427 363.601,-96.5333 C 363.165,-96.52 362.695,-96.508 362.372,-96.508 L 362.261,-96.508 C 361.877,-96.516 361.047,-96.552 360.268,-96.552 C 360.045,-96.552 359.941,-96.524 359.941,-96.42 C 359.941,-96.3147 360.031,-96.2853 360.195,-96.2853 C 360.401,-96.2853 360.653,-96.2707 360.773,-96.2387 C 361.261,-96.136 361.381,-95.8987 361.409,-95.396 C 361.439,-94.9187 361.439,-94.5053 361.439,-92.2533 L 361.439,-89.6427 C 361.439,-88.2787 361.439,-87.108 361.365,-86.484 C 361.308,-86.056 361.232,-85.7293 360.935,-85.6707 C 360.801,-85.6427 360.623,-85.6107 360.401,-85.6107 C 360.224,-85.6107 360.164,-85.5667 360.164,-85.4933 C 360.164,-85.388 360.268,-85.344 360.532,-85.344 C 361.117,-85.344 362.033,-85.3853 362.356,-85.388 C 362.607,-85.3853 363.677,-85.344 364.521,-85.344 L 364.629,-85.344 C 364.792,-85.344 364.912,-85.388 364.912,-85.4933 C 364.912,-85.5667 364.837,-85.6107 364.672,-85.6107 C 364.449,-85.6107 364.125,-85.6427 363.917,-85.6707 C 363.472,-85.7293 363.384,-86.056 363.339,-86.4707 C 363.265,-87.108 363.265,-88.2787 363.265,-89.6427 L 363.265,-95.5733 C 363.265,-95.62 363.267,-95.6573 363.275,-95.692 C 363.291,-95.7453 363.327,-95.776 363.395,-95.796 C 363.543,-95.8413 363.811,-95.856 364.181,-95.856 C 364.333,-95.856 364.495,-95.836 364.668,-95.7973 C 364.917,-95.712 365.191,-95.5693 365.444,-95.336 C 366.277,-94.5947 366.32,-93.6013 366.32,-93.1147 C 366.32,-91.6027 365.163,-90.6653 364.333,-90.6653 C 364.021,-90.6653 363.917,-90.6227 363.917,-90.504 C 363.917,-90.3987 364.021,-90.3853 364.157,-90.364 C 364.584,-90.32 364.785,-90.0547 364.939,-89.8493 L 365.021,-89.7467 C 365.284,-89.4027 365.88,-88.528 366.408,-87.8053 C 367.236,-86.6627 367.8,-85.968 368.439,-85.6253 C 368.824,-85.42 369.195,-85.344 370.025,-85.344 L 371.435,-85.344 C 371.613,-85.344 371.717,-85.3747 371.717,-85.4933 C 371.717,-85.5667 371.659,-85.6107 371.539,-85.6107 C 371.421,-85.6107 371.287,-85.6253 371.123,-85.6547 C 370.901,-85.6987 370.292,-85.8027 369.463,-86.6627 C 368.588,-87.5813 367.564,-88.9027 366.243,-90.5627 C 367.74,-91.776 368.203,-92.7853 368.203,-93.8827 C 368.203,-94.8747 367.608,-95.632 367.192,-95.916 C 366.512,-96.3813 365.692,-96.5147 364.888,-96.5453 L 364.555,-96.552 Z M 389.956,-96.552 C 389.693,-96.552 389.408,-96.5427 389.095,-96.5333 C 388.656,-96.52 388.188,-96.508 387.864,-96.508 L 387.755,-96.508 C 387.371,-96.516 386.54,-96.552 385.761,-96.552 C 385.537,-96.552 385.435,-96.524 385.435,-96.42 C 385.435,-96.3147 385.523,-96.2853 385.685,-96.2853 C 385.893,-96.2853 386.147,-96.2707 386.265,-96.2387 C 386.756,-96.136 386.873,-95.8987 386.904,-95.396 C 386.932,-94.9187 386.932,-94.5053 386.932,-92.2533 L 386.932,-89.6427 C 386.932,-88.2787 386.932,-87.108 386.859,-86.484 C 386.8,-86.056 386.725,-85.7293 386.429,-85.6707 C 386.296,-85.6427 386.116,-85.6107 385.893,-85.6107 C 385.716,-85.6107 385.657,-85.5667 385.657,-85.4933 C 385.657,-85.388 385.761,-85.344 386.024,-85.344 C 386.609,-85.344 387.528,-85.3853 387.848,-85.388 C 388.097,-85.3853 389.171,-85.344 390.015,-85.344 L 390.121,-85.344 C 390.284,-85.344 390.401,-85.388 390.401,-85.4933 C 390.401,-85.5667 390.329,-85.6107 390.168,-85.6107 C 389.943,-85.6107 389.617,-85.6427 389.408,-85.6707 C 388.965,-85.7293 388.875,-86.056 388.832,-86.4707 C 388.757,-87.108 388.757,-88.2787 388.757,-89.6427 L 388.757,-95.5733 C 388.757,-95.62 388.761,-95.6573 388.767,-95.692 C 388.785,-95.7453 388.82,-95.776 388.888,-95.796 C 389.035,-95.8413 389.304,-95.856 389.672,-95.856 C 389.824,-95.856 389.988,-95.836 390.16,-95.7973 C 390.411,-95.712 390.681,-95.5693 390.937,-95.336 C 391.769,-94.5947 391.813,-93.6013 391.813,-93.1147 C 391.813,-91.6027 390.655,-90.6653 389.825,-90.6653 C 389.513,-90.6653 389.408,-90.6227 389.408,-90.504 C 389.408,-90.3987 389.513,-90.3853 389.651,-90.364 C 390.077,-90.32 390.276,-90.0547 390.431,-89.8493 L 390.512,-89.7467 C 390.776,-89.4027 391.372,-88.528 391.9,-87.8053 C 392.731,-86.6627 393.293,-85.968 393.932,-85.6253 C 394.317,-85.42 394.688,-85.344 395.519,-85.344 L 396.928,-85.344 C 397.107,-85.344 397.212,-85.3747 397.212,-85.4933 C 397.212,-85.5667 397.151,-85.6107 397.033,-85.6107 C 396.912,-85.6107 396.779,-85.6253 396.616,-85.6547 C 396.393,-85.6987 395.785,-85.8027 394.956,-86.6627 C 394.079,-87.5813 393.056,-88.9027 391.735,-90.5627 C 393.233,-91.776 393.696,-92.7853 393.696,-93.8827 C 393.696,-94.8747 393.1,-95.632 392.684,-95.916 C 392.005,-96.3813 391.184,-96.5147 390.379,-96.5453 L 390.048,-96.552 Z M 319.637,-96.612 C 319.52,-96.5813 319.283,-96.552 319.001,-96.524 C 318.72,-96.508 315.767,-96.508 315.292,-96.508 C 315.085,-96.508 314.743,-96.524 314.356,-96.5373 C 313.987,-96.5373 313.556,-96.552 313.155,-96.552 C 312.933,-96.552 312.831,-96.524 312.831,-96.42 C 312.831,-96.3147 312.917,-96.2853 313.081,-96.2853 C 313.289,-96.2853 313.54,-96.2707 313.66,-96.2387 C 314.149,-96.136 314.268,-95.8987 314.297,-95.396 C 314.325,-94.9187 314.325,-94.5053 314.325,-92.2533 L 314.325,-89.6427 C 314.325,-88.2787 314.325,-87.108 314.252,-86.484 C 314.192,-86.056 314.119,-85.7293 313.821,-85.6707 C 313.689,-85.6427 313.511,-85.6107 313.289,-85.6107 C 313.112,-85.6107 313.052,-85.5667 313.052,-85.4933 C 313.052,-85.388 313.155,-85.344 313.349,-85.344 C 313.645,-85.344 314.031,-85.3587 314.373,-85.3747 C 314.728,-85.3747 315.055,-85.388 315.217,-85.388 C 315.663,-85.388 316.123,-85.3747 316.76,-85.344 C 317.397,-85.332 318.213,-85.2987 319.327,-85.2987 C 319.891,-85.2987 320.024,-85.2987 320.128,-85.6867 C 320.201,-85.9813 320.32,-86.9893 320.32,-87.3307 C 320.32,-87.4787 320.32,-87.5987 320.201,-87.5987 C 320.099,-87.5987 320.068,-87.5387 320.039,-87.3747 C 319.935,-86.768 319.757,-86.456 319.369,-86.2787 C 318.984,-86.1013 318.363,-86.1013 317.977,-86.1013 C 316.464,-86.1013 316.225,-86.3213 316.197,-87.3467 C 316.183,-87.7733 316.197,-89.14 316.197,-89.6427 L 316.197,-90.8133 C 316.197,-90.904 316.212,-90.9653 316.285,-90.9653 C 316.641,-90.9653 318.111,-90.948 318.393,-90.916 C 318.941,-90.8587 319.148,-90.6373 319.223,-90.3413 C 319.265,-90.1493 319.265,-89.9547 319.283,-89.8067 C 319.283,-89.7347 319.313,-89.6747 319.415,-89.6747 C 319.548,-89.6747 319.548,-89.8373 319.548,-89.9547 C 319.548,-90.056 319.579,-90.6533 319.608,-90.948 C 319.652,-91.704 319.727,-91.9427 319.727,-92.0293 C 319.727,-92.1187 319.681,-92.148 319.623,-92.148 C 319.548,-92.148 319.491,-92.076 319.385,-91.9573 C 319.252,-91.8093 319.029,-91.7627 318.673,-91.7347 C 318.333,-91.704 316.628,-91.704 316.3,-91.704 C 316.212,-91.704 316.197,-91.7627 316.197,-91.8667 L 316.197,-95.6187 C 316.197,-95.7227 316.225,-95.7653 316.3,-95.7653 C 316.596,-95.7653 318.155,-95.736 318.407,-95.708 C 319.148,-95.6187 319.297,-95.4413 319.4,-95.1733 C 319.475,-94.996 319.491,-94.744 319.491,-94.64 C 319.491,-94.5053 319.52,-94.4333 319.623,-94.4333 C 319.727,-94.4333 319.757,-94.5213 319.772,-94.5947 C 319.8,-94.7733 319.832,-95.4227 319.847,-95.5733 C 319.891,-96.2547 319.964,-96.432 319.964,-96.5373 C 319.964,-96.612 319.949,-96.6707 319.876,-96.6707 C 319.8,-96.6707 319.712,-96.6253 319.637,-96.612 Z M 356.413,-96.612 C 356.295,-96.5813 356.057,-96.552 355.775,-96.524 C 355.492,-96.508 352.541,-96.508 352.067,-96.508 C 351.859,-96.508 351.516,-96.524 351.132,-96.5373 C 350.761,-96.5373 350.331,-96.552 349.929,-96.552 C 349.708,-96.552 349.603,-96.524 349.603,-96.42 C 349.603,-96.3147 349.692,-96.2853 349.855,-96.2853 C 350.064,-96.2853 350.315,-96.2707 350.435,-96.2387 C 350.923,-96.136 351.043,-95.8987 351.073,-95.396 C 351.104,-94.9187 351.104,-94.5053 351.104,-92.2533 L 351.104,-89.6427 C 351.104,-88.2787 351.104,-87.108 351.027,-86.484 C 350.968,-86.056 350.895,-85.7293 350.597,-85.6707 C 350.461,-85.6427 350.285,-85.6107 350.064,-85.6107 C 349.887,-85.6107 349.827,-85.5667 349.827,-85.4933 C 349.827,-85.388 349.929,-85.344 350.123,-85.344 C 350.419,-85.344 350.805,-85.3587 351.147,-85.3747 C 351.503,-85.3747 351.829,-85.388 351.991,-85.388 C 352.436,-85.388 352.897,-85.3747 353.536,-85.344 C 354.173,-85.332 354.989,-85.2987 356.101,-85.2987 C 356.664,-85.2987 356.797,-85.2987 356.903,-85.6867 C 356.976,-85.9813 357.095,-86.9893 357.095,-87.3307 C 357.095,-87.4787 357.095,-87.5987 356.976,-87.5987 C 356.872,-87.5987 356.843,-87.5387 356.813,-87.3747 C 356.711,-86.768 356.533,-86.456 356.144,-86.2787 C 355.761,-86.1013 355.137,-86.1013 354.752,-86.1013 C 353.237,-86.1013 353,-86.3213 352.972,-87.3467 C 352.957,-87.7733 352.972,-89.14 352.972,-89.6427 L 352.972,-90.8133 C 352.972,-90.904 352.987,-90.9653 353.059,-90.9653 C 353.416,-90.9653 354.885,-90.948 355.168,-90.916 C 355.715,-90.8587 355.923,-90.6373 355.996,-90.3413 C 356.043,-90.1493 356.043,-89.9547 356.057,-89.8067 C 356.057,-89.7347 356.087,-89.6747 356.191,-89.6747 C 356.325,-89.6747 356.325,-89.8373 356.325,-89.9547 C 356.325,-90.056 356.352,-90.6533 356.383,-90.948 C 356.427,-91.704 356.503,-91.9427 356.503,-92.0293 C 356.503,-92.1187 356.457,-92.148 356.399,-92.148 C 356.325,-92.148 356.264,-92.076 356.161,-91.9573 C 356.027,-91.8093 355.805,-91.7627 355.449,-91.7347 C 355.107,-91.704 353.403,-91.704 353.075,-91.704 C 352.987,-91.704 352.972,-91.7627 352.972,-91.8667 L 352.972,-95.6187 C 352.972,-95.7227 353,-95.7653 353.075,-95.7653 C 353.372,-95.7653 354.929,-95.736 355.181,-95.708 C 355.923,-95.6187 356.071,-95.4413 356.175,-95.1733 C 356.252,-94.996 356.264,-94.744 356.264,-94.64 C 356.264,-94.5053 356.295,-94.4333 356.399,-94.4333 C 356.503,-94.4333 356.533,-94.5213 356.547,-94.5947 C 356.577,-94.7733 356.607,-95.4227 356.62,-95.5733 C 356.664,-96.2547 356.739,-96.432 356.739,-96.5373 C 356.739,-96.612 356.725,-96.6707 356.652,-96.6707 C 356.577,-96.6707 356.487,-96.6253 356.413,-96.612 Z M 373.804,-91.4093 C 373.804,-95.1 375.748,-96.048 377.453,-96.048 C 379.885,-96.048 381.801,-93.9893 381.801,-90.6653 C 381.801,-86.3813 379.396,-85.8787 378.359,-85.8787 C 375.511,-85.8787 373.804,-88.324 373.804,-91.4093 Z M 371.757,-90.948 C 371.757,-88.324 373.479,-85.1387 377.736,-85.1387 C 381.503,-85.1387 383.876,-87.8213 383.876,-91.216 C 383.876,-94.608 381.576,-96.76 377.884,-96.76 C 373.433,-96.76 371.757,-93.484 371.757,-90.948 Z M 398.353,-93.9587 C 398.353,-92.7573 398.916,-91.7187 400.551,-90.444 L 401.232,-89.9093 C 402.463,-88.964 402.687,-88.2653 402.687,-87.5387 C 402.687,-86.752 402.033,-85.8493 400.699,-85.8493 C 399.779,-85.8493 398.903,-86.248 398.577,-87.3467 C 398.503,-87.5987 398.443,-87.9093 398.443,-88.1027 C 398.443,-88.22 398.428,-88.3547 398.295,-88.3547 C 398.176,-88.3547 398.132,-88.1907 398.117,-87.968 C 398.101,-87.7293 398.044,-86.844 398.044,-86.028 C 398.044,-85.6987 398.088,-85.6253 398.324,-85.524 C 398.963,-85.24 399.629,-85.1387 400.491,-85.1387 C 401.276,-85.1387 402.108,-85.272 402.849,-85.7453 C 403.917,-86.4427 404.241,-87.464 404.241,-88.324 C 404.241,-89.7347 403.589,-90.7267 401.811,-92.1067 L 401.396,-92.4173 C 400.164,-93.348 399.824,-93.868 399.824,-94.552 C 399.824,-95.4413 400.491,-96.0773 401.588,-96.0773 C 402.552,-96.0773 402.983,-95.632 403.205,-95.3507 C 403.516,-94.9653 403.589,-94.5053 403.589,-94.372 C 403.589,-94.1933 403.635,-94.104 403.739,-94.104 C 403.857,-94.104 403.903,-94.224 403.903,-94.552 C 403.903,-95.708 403.963,-96.136 403.963,-96.3307 C 403.963,-96.432 403.888,-96.4787 403.755,-96.508 C 403.368,-96.612 402.745,-96.76 401.781,-96.76 C 399.72,-96.76 398.353,-95.588 398.353,-93.9587 Z M 334.171,-96.524 L 330.137,-88.0573 L 326.087,-96.42 C 325.893,-96.8053 325.805,-96.8773 325.687,-96.8773 C 325.567,-96.8773 325.479,-96.744 325.432,-96.4907 L 323.965,-86.8253 C 323.891,-86.3213 323.772,-85.7453 323.356,-85.6547 C 323.132,-85.6107 323.031,-85.6107 322.912,-85.6107 C 322.764,-85.6107 322.675,-85.5827 322.675,-85.5067 C 322.675,-85.3747 322.793,-85.344 322.941,-85.344 C 323.417,-85.344 324.128,-85.388 324.409,-85.388 C 324.677,-85.388 325.344,-85.344 325.965,-85.344 C 326.192,-85.344 326.324,-85.3747 326.324,-85.5067 C 326.324,-85.5827 326.221,-85.6107 326.101,-85.6107 C 325.952,-85.6107 325.744,-85.6253 325.479,-85.6867 C 325.225,-85.7453 325.035,-85.8787 325.035,-86.16 C 325.035,-86.3987 325.049,-86.5907 325.077,-86.8573 L 325.908,-92.7573 C 326.428,-91.644 327.317,-89.7773 327.452,-89.4653 C 327.631,-89.0507 328.801,-86.784 329.156,-86.1013 C 329.395,-85.6547 329.543,-85.3587 329.677,-85.3587 C 329.808,-85.3587 329.884,-85.4933 330.224,-86.1893 L 333.52,-92.9213 L 334.407,-86.3987 C 334.468,-85.9813 334.423,-85.7893 334.333,-85.7587 C 334.229,-85.7133 334.171,-85.6707 334.171,-85.5973 C 334.171,-85.5067 334.26,-85.464 334.6,-85.4347 C 335.195,-85.388 337.24,-85.344 337.613,-85.344 C 337.82,-85.344 337.999,-85.388 337.999,-85.5067 C 337.999,-85.5973 337.896,-85.6107 337.761,-85.6107 C 337.567,-85.6107 337.271,-85.6253 336.841,-85.7587 C 336.395,-85.896 336.248,-86.3213 336.113,-87.2587 L 334.765,-96.42 C 334.721,-96.7307 334.632,-96.8773 334.496,-96.8773 C 334.364,-96.8773 334.275,-96.76 334.171,-96.524 Z M 360.173,-103.791 C 360.339,-103.463 360.559,-103.024 360.78,-102.585 C 360.969,-102.616 361.159,-102.649 361.347,-102.688 C 361.003,-103.107 360.635,-103.544 360.321,-103.892 C 360.303,-103.913 360.279,-103.923 360.256,-103.923 C 360.196,-103.923 360.14,-103.859 360.173,-103.791 Z M 355.984,-104.977 C 355.801,-104.423 355.68,-103.648 355.632,-102.737 C 355.776,-102.705 355.921,-102.676 356.067,-102.649 C 356.104,-102.944 356.139,-103.223 356.167,-103.451 C 356.18,-103.556 356.329,-103.557 356.344,-103.453 C 356.383,-103.189 356.42,-102.889 356.455,-102.581 C 356.887,-102.513 357.324,-102.465 357.768,-102.439 L 356.217,-105.004 C 356.192,-105.045 356.149,-105.067 356.108,-105.067 C 356.055,-105.067 356.003,-105.036 355.984,-104.977 Z M 356.501,-105.799 L 356.479,-105.788 C 356.289,-105.704 356.223,-105.469 356.34,-105.299 C 356.719,-104.748 357.521,-103.583 358.328,-102.416 C 358.657,-102.409 358.991,-102.415 359.325,-102.432 C 359.521,-102.441 359.716,-102.457 359.909,-102.476 L 357.528,-105.54 C 357.361,-105.756 357.109,-105.872 356.849,-105.872 C 356.732,-105.872 356.613,-105.848 356.501,-105.799 Z M 350.881,-104.804 C 352.187,-103.909 353.652,-103.236 355.22,-102.835 C 355.281,-103.901 355.447,-104.895 355.763,-105.544 C 355.804,-105.628 355.78,-105.733 355.703,-105.787 C 355.555,-105.888 355.349,-105.888 355.199,-105.764 L 355.02,-105.616 C 355.02,-105.616 354.313,-106.24 353.32,-106.24 C 352.605,-106.24 351.74,-105.916 350.881,-104.804 Z M 357.451,-106.151 C 357.825,-105.812 358.564,-105.136 359.047,-104.52 C 359.119,-104.428 359.237,-104.528 359.188,-104.637 C 358.952,-105.159 358.567,-105.887 358.043,-106.483 C 357.892,-106.348 357.689,-106.233 357.451,-106.151 Z M 356.301,-109.375 C 355.733,-109.411 355.176,-109.448 355.151,-108.633 C 355.491,-108.867 355.9,-108.843 356.267,-108.819 C 356.805,-108.784 357.256,-108.749 357.272,-109.531 C 357.037,-109.327 356.667,-109.351 356.301,-109.375 Z M 356.681,-110.303 C 356.639,-109.976 356.515,-109.756 356.308,-109.64 C 357.057,-109.939 358.052,-109.543 357.888,-110.651 C 357.639,-110.349 357.121,-110.365 356.681,-110.303 Z M 357.081,-111.203 C 357.051,-110.965 356.979,-110.788 356.861,-110.671 C 357.467,-110.928 358.284,-110.619 358.132,-111.519 C 357.92,-111.252 357.452,-111.276 357.081,-111.203 Z M 355.295,-111.529 C 355.985,-112.092 357.149,-111.313 357.08,-112.46 C 356.593,-111.965 355.235,-112.699 355.295,-111.529 Z M 362.483,-115.975 C 362.192,-115.855 362.171,-115.576 362.184,-115.468 C 362.187,-115.448 362.205,-115.443 362.221,-115.456 C 362.339,-115.545 362.727,-115.837 362.984,-115.9 C 363.009,-115.905 363.024,-115.933 363.001,-115.947 C 362.949,-115.977 362.856,-116.025 362.725,-116.025 C 362.656,-116.025 362.573,-116.012 362.483,-115.975 Z M 352.46,-115.768 C 352.588,-115.503 352.712,-115.236 352.828,-114.964 C 353.024,-114.5 353.199,-114.025 353.331,-113.529 C 353.46,-113.033 353.549,-112.516 353.525,-111.975 C 353.512,-111.705 353.467,-111.431 353.381,-111.164 C 353.292,-110.899 353.163,-110.641 352.996,-110.413 C 352.832,-110.184 352.632,-109.985 352.421,-109.811 C 352.209,-109.639 351.984,-109.488 351.756,-109.357 C 351.296,-109.093 350.821,-108.889 350.349,-108.704 C 349.877,-108.519 349.405,-108.352 348.94,-108.184 C 348.677,-108.091 348.203,-107.921 347.757,-107.76 C 347.864,-107.621 347.973,-107.483 348.085,-107.349 C 349.101,-107.736 350.047,-107.875 350.9,-107.856 C 350.715,-108.101 350.585,-108.287 350.585,-108.287 C 350.585,-108.287 350.875,-108.369 351.815,-107.832 C 350.935,-107.779 349.904,-107.445 348.755,-106.603 C 348.901,-106.451 349.052,-106.3 349.207,-106.155 C 350.915,-107.432 351.543,-106.981 351.543,-106.981 C 350.788,-106.531 350.245,-106.033 349.857,-105.579 C 350,-105.459 350.147,-105.343 350.296,-105.229 C 350.904,-106.164 352.147,-107.153 354.623,-106.641 C 354.764,-106.612 354.849,-106.793 354.737,-106.885 C 354.328,-107.212 353.616,-107.659 352.66,-107.797 C 352.66,-107.797 352.66,-107.797 352.66,-107.797 C 352.477,-107.853 352.324,-107.968 352.185,-108.119 C 352.185,-108.119 352.185,-108.119 352.184,-108.119 C 352.184,-108.121 352.183,-108.121 352.18,-108.124 C 352.156,-108.152 352.131,-108.18 352.107,-108.209 C 352.107,-108.211 352.109,-108.211 352.111,-108.212 C 351.852,-108.545 351.603,-108.987 351.603,-108.987 C 351.603,-108.987 351.828,-109.031 352.52,-108.516 C 352.521,-108.517 352.521,-108.517 352.521,-108.517 C 352.529,-108.511 352.537,-108.504 352.544,-108.499 C 352.545,-108.497 352.547,-108.497 352.547,-108.496 L 352.547,-108.496 C 353.061,-108.079 353.525,-107.843 354.141,-108.641 C 353.832,-108.617 353.54,-108.772 353.257,-108.981 L 353.257,-108.981 C 353.256,-108.981 353.256,-108.983 353.255,-108.983 C 353.227,-109.004 353.197,-109.027 353.169,-109.048 C 353.169,-109.049 353.171,-109.049 353.171,-109.051 C 352.912,-109.26 352.527,-109.576 352.527,-109.576 C 352.527,-109.576 352.88,-109.661 353.501,-109.379 C 353.503,-109.38 353.504,-109.381 353.505,-109.383 C 353.547,-109.361 353.589,-109.339 353.631,-109.319 C 353.633,-109.316 353.636,-109.316 353.639,-109.315 C 354.248,-109 354.755,-108.743 355.171,-109.647 C 354.797,-109.531 354.384,-109.735 353.975,-109.945 C 353.976,-109.945 353.976,-109.947 353.977,-109.947 C 354.373,-110.091 354.791,-110.007 355.172,-109.921 C 355.809,-109.781 356.344,-109.64 356.505,-110.565 C 356.072,-110.293 355.412,-110.583 354.856,-110.651 C 355.16,-110.821 355.507,-110.796 355.823,-110.772 C 356.353,-110.731 356.797,-110.689 356.805,-111.567 C 356.575,-111.339 356.212,-111.367 355.852,-111.395 C 355.315,-111.436 354.787,-111.477 354.733,-110.661 C 354.605,-110.668 354.485,-110.66 354.376,-110.625 C 355.196,-112.431 353.977,-114.011 353.087,-116.256 Z M 363.917,-113.233 C 363.7,-113.345 363.22,-113.263 363.235,-113.649 C 363.236,-113.689 363.289,-113.708 363.32,-113.68 C 363.523,-113.496 363.681,-113.549 363.824,-113.603 C 363.952,-113.649 364.067,-113.697 364.189,-113.572 C 364.189,-113.572 363.939,-113.515 363.92,-113.444 L 363.969,-113.267 C 363.973,-113.245 363.955,-113.229 363.935,-113.229 C 363.929,-113.229 363.923,-113.229 363.917,-113.233 Z M 361.609,-115.271 C 361.569,-115.291 361.556,-115.34 361.579,-115.38 C 362.063,-116.233 363.316,-116.489 363.791,-115.991 C 363.816,-115.964 363.801,-115.919 363.765,-115.909 C 363.715,-115.897 363.667,-115.875 363.616,-115.872 C 363.328,-115.856 363.108,-115.697 363.053,-115.659 C 363,-115.62 363.036,-115.475 363.035,-115.367 C 363.035,-115.233 362.972,-115.069 362.832,-115.063 C 362.641,-115.052 362.596,-115.252 362.573,-115.533 C 362.043,-115.283 362.441,-115.168 362.544,-115.124 C 362.471,-115.079 362.383,-115.06 362.291,-115.06 C 362.033,-115.06 361.74,-115.2 361.609,-115.271 Z M 363.781,-117.255 C 362.549,-117.191 361.287,-116.659 360.188,-116.131 C 360.141,-116.024 360.085,-115.912 359.999,-115.801 C 359.943,-115.731 359.872,-115.663 359.787,-115.611 C 359.703,-115.557 359.607,-115.521 359.515,-115.503 C 359.468,-115.493 359.423,-115.487 359.376,-115.483 C 359.355,-115.481 359.332,-115.48 359.309,-115.48 L 359.253,-115.48 C 359.188,-115.479 359.124,-115.477 359.064,-115.471 C 358.943,-115.457 358.835,-115.429 358.756,-115.383 C 358.677,-115.337 358.617,-115.271 358.52,-115.155 C 358.473,-115.097 358.415,-115.032 358.344,-114.971 C 358.273,-114.908 358.191,-114.853 358.105,-114.809 C 357.933,-114.721 357.757,-114.684 357.592,-114.661 C 357.509,-114.651 357.428,-114.644 357.348,-114.641 C 357.308,-114.639 357.271,-114.64 357.231,-114.639 C 357.231,-114.639 357.156,-114.639 357.123,-114.636 C 357.121,-114.636 357.121,-114.636 357.121,-114.636 C 356.604,-114.619 356.353,-114.229 356.485,-113.708 C 356.567,-113.792 356.667,-113.864 356.772,-113.911 C 356.88,-113.959 356.991,-113.983 357.093,-113.995 C 357.197,-114.007 357.296,-114.001 357.388,-113.995 C 357.528,-113.979 357.667,-113.972 357.788,-113.985 C 357.849,-113.992 357.904,-114.004 357.953,-114.02 C 358.003,-114.037 358.043,-114.057 358.083,-114.088 C 358.123,-114.116 358.161,-114.157 358.204,-114.211 C 358.248,-114.265 358.296,-114.333 358.359,-114.404 C 358.42,-114.476 358.5,-114.549 358.592,-114.603 C 358.683,-114.657 358.781,-114.692 358.875,-114.715 C 358.971,-114.736 359.06,-114.743 359.149,-114.745 C 359.164,-114.745 359.179,-114.745 359.195,-114.745 C 359.223,-114.745 359.252,-114.745 359.279,-114.744 L 359.4,-114.736 C 359.537,-114.724 359.669,-114.739 359.728,-114.779 C 359.757,-114.797 359.784,-114.828 359.815,-114.891 C 359.844,-114.948 359.875,-115.032 359.928,-115.117 C 359.981,-115.203 360.065,-115.285 360.159,-115.329 C 360.249,-115.376 360.341,-115.397 360.429,-115.409 C 360.473,-115.416 360.516,-115.419 360.559,-115.42 C 360.6,-115.423 360.632,-115.423 360.667,-115.427 C 360.735,-115.432 360.8,-115.445 360.845,-115.467 C 360.891,-115.489 360.912,-115.512 360.932,-115.569 C 360.951,-115.625 360.957,-115.701 360.969,-115.78 C 360.981,-115.86 360.997,-115.945 361.027,-116.027 C 361.055,-116.108 361.095,-116.185 361.144,-116.256 C 361.244,-116.395 361.375,-116.499 361.512,-116.584 C 361.541,-116.603 361.58,-116.593 361.599,-116.564 C 361.616,-116.535 361.609,-116.499 361.583,-116.48 L 361.583,-116.479 C 361.463,-116.389 361.356,-116.284 361.285,-116.163 C 361.212,-116.041 361.184,-115.908 361.177,-115.76 C 361.173,-115.685 361.175,-115.605 361.155,-115.511 C 361.144,-115.463 361.124,-115.411 361.092,-115.363 C 361.059,-115.316 361.015,-115.277 360.969,-115.249 C 360.879,-115.195 360.789,-115.175 360.704,-115.159 C 360.663,-115.151 360.617,-115.145 360.581,-115.14 C 360.545,-115.136 360.512,-115.131 360.48,-115.123 C 360.415,-115.108 360.355,-115.087 360.311,-115.059 C 360.264,-115.031 360.237,-114.996 360.212,-114.948 C 360.187,-114.9 360.168,-114.835 360.135,-114.751 C 360.104,-114.669 360.049,-114.563 359.955,-114.487 C 359.861,-114.411 359.756,-114.376 359.661,-114.355 C 359.567,-114.336 359.476,-114.328 359.389,-114.328 L 359.279,-114.325 C 359.243,-114.324 359.209,-114.32 359.176,-114.317 C 359.109,-114.308 359.044,-114.299 358.989,-114.28 C 358.933,-114.261 358.885,-114.237 358.847,-114.208 C 358.807,-114.179 358.773,-114.143 358.737,-114.093 C 358.701,-114.045 358.665,-113.981 358.617,-113.911 C 358.569,-113.839 358.509,-113.759 358.431,-113.687 C 358.419,-113.676 358.405,-113.665 358.393,-113.656 L 358.42,-113.659 C 358.947,-113.167 359.012,-113.261 359.271,-113.513 C 359.459,-113.696 359.572,-113.811 359.671,-113.844 C 359.697,-113.853 359.721,-113.827 359.709,-113.8 C 359.665,-113.708 359.581,-113.443 359.308,-113.055 C 359.005,-112.625 358.849,-112.819 358.681,-113.011 C 358.584,-113.124 358.483,-113.236 358.347,-113.225 C 357.869,-113.193 358.569,-112.655 358.123,-112.739 C 357.535,-112.849 357.553,-113.604 357.527,-113.753 C 357.049,-113.137 355.443,-113.777 355.66,-112.481 C 356.008,-112.84 356.532,-112.84 356.94,-112.911 C 357.041,-112.795 357.157,-112.679 357.292,-112.564 C 358.691,-111.375 358.604,-112.255 358.604,-112.255 C 359.179,-111.975 357.759,-108.449 357.559,-107.963 C 357.287,-108.092 356.925,-108.161 356.532,-108.141 C 356.397,-108.135 356.268,-108.117 356.145,-108.091 C 355.387,-108.336 354.567,-108.888 354.183,-107.779 C 354.572,-107.899 354.952,-107.805 355.304,-107.681 C 355.161,-107.539 355.081,-107.375 355.091,-107.201 C 355.116,-106.725 355.801,-106.375 356.623,-106.417 C 357.444,-106.461 358.088,-106.881 358.063,-107.357 C 358.059,-107.437 358.036,-107.515 357.996,-107.587 C 358.192,-107.441 358.311,-107.259 358.323,-107.055 C 358.328,-106.941 358.299,-106.831 358.241,-106.727 C 359.777,-105.263 361.061,-103.819 361.905,-102.815 C 362.943,-103.071 363.931,-103.443 364.856,-103.919 C 364.995,-105.767 365.015,-107.047 365,-107.864 C 364.391,-107.892 363.704,-108.044 362.832,-108.465 C 362.832,-108.465 362.691,-109.223 362.461,-109.611 L 362.415,-109.036 C 362.357,-108.344 361.999,-107.707 361.42,-107.324 C 361.389,-107.303 361.356,-107.283 361.324,-107.263 C 361.283,-107.24 361.233,-107.267 361.228,-107.312 C 360.947,-110.009 359.319,-109.388 359.311,-111.383 C 360.557,-110.221 362.657,-110.189 363.564,-110.457 C 363.921,-110.563 364.104,-110.96 363.949,-111.3 L 363.793,-111.643 L 363.795,-111.644 C 363.76,-111.653 363.728,-111.667 363.699,-111.679 C 363.589,-111.728 363.5,-111.781 363.409,-111.808 C 363.321,-111.836 363.235,-111.832 363.147,-111.796 C 363.107,-111.877 363.155,-111.979 363.245,-111.993 C 363.251,-111.995 363.255,-111.996 363.26,-111.996 C 363.325,-112.005 363.392,-112.001 363.453,-111.991 C 363.577,-111.967 363.683,-111.915 363.777,-111.884 C 363.824,-111.868 363.868,-111.859 363.903,-111.86 C 363.937,-111.861 363.964,-111.871 363.992,-111.889 C 364.047,-111.927 364.099,-112.001 364.143,-112.083 C 364.164,-112.192 364.125,-112.309 364.029,-112.381 L 364.025,-112.383 C 363.985,-112.408 363.941,-112.421 363.888,-112.421 C 363.8,-112.423 363.697,-112.389 363.595,-112.347 C 363.489,-112.307 363.385,-112.252 363.257,-112.225 C 363.224,-112.217 363.189,-112.216 363.153,-112.216 C 363.116,-112.22 363.077,-112.227 363.044,-112.247 C 363.016,-112.26 362.993,-112.277 362.975,-112.299 C 362.929,-112.345 362.945,-112.423 363.003,-112.452 C 363.029,-112.408 363.061,-112.375 363.097,-112.363 C 363.115,-112.355 363.135,-112.355 363.155,-112.355 C 363.176,-112.357 363.197,-112.361 363.221,-112.369 C 363.315,-112.4 363.412,-112.46 363.515,-112.516 C 363.619,-112.571 363.732,-112.629 363.873,-112.647 C 363.944,-112.655 364.021,-112.649 364.095,-112.624 C 364.132,-112.611 364.168,-112.593 364.201,-112.573 C 364.292,-112.648 364.327,-112.775 364.285,-112.888 L 364.093,-113.399 L 364.697,-113.584 C 365.001,-113.656 365.019,-113.868 364.915,-114.028 C 364.125,-115.244 363.997,-115.879 363.997,-115.879 C 363.987,-116.637 363.851,-117.259 363.851,-117.259 C 363.828,-117.257 363.804,-117.256 363.781,-117.255 Z M 355.287,-118.625 C 355.287,-118.625 355.744,-119.052 356.033,-120.049 C 356.033,-120.049 356.433,-119.589 356.252,-119.168 C 356.252,-119.168 356.325,-119.024 356.528,-118.94 C 356.191,-118.703 355.896,-118.445 355.655,-118.172 C 355.627,-118.212 355.488,-118.385 355.215,-118.371 Z M 357.223,-120.008 C 356.667,-120.111 356.403,-120.387 356.403,-120.387 C 356.925,-120.255 357.441,-120.259 357.701,-120.271 L 357.872,-120.283 C 357.872,-120.283 358.037,-120.043 358.327,-119.84 C 357.936,-119.705 357.564,-119.544 357.217,-119.36 C 357.117,-119.396 356.956,-119.42 356.712,-119.372 C 356.603,-119.611 357.117,-119.641 357.223,-120.008 Z M 353.356,-119.543 C 353.408,-119.997 353.521,-120.436 353.688,-120.849 C 353.715,-120.764 353.755,-120.683 353.801,-120.612 C 353.887,-120.477 353.992,-120.373 354.076,-120.28 C 354.12,-120.235 354.156,-120.191 354.183,-120.151 C 354.209,-120.112 354.221,-120.079 354.224,-120.053 C 354.228,-120.028 354.224,-120.001 354.211,-119.965 C 354.197,-119.928 354.175,-119.887 354.144,-119.843 C 354.085,-119.757 354.001,-119.668 353.912,-119.584 C 353.868,-119.543 353.821,-119.5 353.773,-119.46 C 353.708,-119.403 353.644,-119.329 353.597,-119.249 C 353.499,-119.087 353.463,-118.889 353.485,-118.708 C 353.507,-118.525 353.577,-118.355 353.695,-118.212 C 353.752,-118.139 353.825,-118.075 353.908,-118.021 C 353.992,-117.971 354.089,-117.929 354.193,-117.913 C 354.225,-117.909 354.256,-117.907 354.289,-117.905 C 354.116,-117.451 354.017,-116.96 354.012,-116.441 C 353.461,-117.372 353.229,-118.451 353.356,-119.543 Z M 358.509,-120.42 C 358.509,-120.42 359.065,-120.452 359.332,-121.059 C 359.332,-121.059 359.359,-120.76 359.183,-120.477 C 359.183,-120.477 359.403,-120.311 359.727,-120.187 C 359.543,-120.159 359.36,-120.124 359.179,-120.083 C 359.093,-120.172 358.933,-120.253 358.665,-120.127 C 358.665,-120.127 358.475,-120.297 358.509,-120.42 Z M 358.179,-127.636 C 357.464,-127.531 357.044,-127.155 356.867,-126.953 C 356.827,-127.001 356.417,-127.465 355.689,-127.115 C 355.039,-126.801 354.749,-126.317 354.639,-126.073 C 354.588,-126.107 354.06,-126.428 353.468,-125.876 C 352.941,-125.384 352.808,-124.835 352.776,-124.569 C 352.716,-124.587 352.116,-124.736 351.715,-124.033 C 351.359,-123.405 351.395,-122.843 351.443,-122.58 C 351.381,-122.577 350.764,-122.543 350.591,-121.752 C 350.436,-121.048 350.639,-120.521 350.761,-120.283 C 350.704,-120.263 350.125,-120.047 350.195,-119.24 C 350.256,-118.521 350.605,-118.079 350.795,-117.889 C 350.745,-117.852 350.257,-117.473 350.563,-116.724 C 350.747,-116.275 351.017,-115.984 351.247,-115.803 L 352.815,-117.024 C 352.672,-117.412 352.568,-117.821 352.509,-118.248 C 351.964,-118.22 351.481,-118.049 351.196,-117.925 C 351.139,-117.901 351.091,-117.975 351.136,-118.017 C 351.58,-118.444 352.115,-118.707 352.459,-118.845 C 352.449,-119.119 352.46,-119.391 352.487,-119.655 C 351.925,-119.767 351.429,-119.735 351.141,-119.696 C 351.085,-119.689 351.063,-119.763 351.111,-119.789 C 351.688,-120.107 352.235,-120.203 352.576,-120.229 C 352.628,-120.476 352.695,-120.717 352.777,-120.952 C 352.347,-121.173 351.807,-121.251 351.46,-121.279 C 351.397,-121.283 351.391,-121.372 351.452,-121.387 C 352.097,-121.544 352.631,-121.529 352.989,-121.479 C 353.089,-121.692 353.2,-121.899 353.323,-122.097 C 352.881,-122.42 352.26,-122.505 351.979,-122.527 C 351.936,-122.531 351.927,-122.588 351.965,-122.607 C 352.404,-122.811 352.879,-122.768 353.056,-122.741 C 353.088,-122.736 353.112,-122.767 353.101,-122.797 C 353.035,-122.973 352.872,-123.463 352.896,-123.937 C 352.899,-123.983 352.963,-123.991 352.977,-123.948 C 353.216,-123.219 353.488,-122.837 353.703,-122.639 C 353.821,-122.789 353.948,-122.935 354.081,-123.073 C 353.64,-124.221 354.437,-125.28 354.507,-125.368 C 354.204,-124.587 353.809,-122.685 356.625,-121.775 C 356.671,-121.58 356.787,-121.259 357.083,-120.964 C 357.024,-120.984 356.544,-121.144 356.239,-121.549 C 356.205,-121.46 356.185,-121.357 356.175,-121.28 C 355.503,-121.141 355.099,-121.084 354.991,-119.593 C 354.988,-119.581 354.984,-119.568 354.98,-119.555 C 354.965,-119.495 354.949,-119.435 354.931,-119.375 C 354.896,-119.256 354.856,-119.141 354.809,-119.032 C 354.761,-118.923 354.709,-118.819 354.649,-118.729 C 354.589,-118.64 354.521,-118.563 354.453,-118.515 C 354.385,-118.468 354.328,-118.451 354.275,-118.456 C 354.22,-118.461 354.156,-118.495 354.103,-118.553 C 354.048,-118.613 354.009,-118.695 353.997,-118.776 C 353.983,-118.856 353.993,-118.935 354.028,-119.003 C 354.047,-119.036 354.068,-119.068 354.101,-119.099 C 354.152,-119.148 354.201,-119.196 354.249,-119.248 C 354.348,-119.352 354.444,-119.461 354.527,-119.599 C 354.569,-119.667 354.608,-119.743 354.635,-119.832 C 354.661,-119.923 354.672,-120.032 354.649,-120.136 C 354.639,-120.188 354.62,-120.237 354.599,-120.281 C 354.576,-120.324 354.552,-120.363 354.525,-120.397 C 354.475,-120.465 354.421,-120.519 354.371,-120.568 C 354.271,-120.664 354.181,-120.744 354.119,-120.829 C 354.055,-120.915 354.016,-121.001 354.005,-121.103 C 353.993,-121.203 354.007,-121.315 354.04,-121.429 C 354.072,-121.539 354.119,-121.649 354.172,-121.757 C 354.299,-121.945 354.437,-122.125 354.591,-122.293 C 354.487,-122.401 354.399,-122.511 354.324,-122.619 C 353.557,-121.787 353.075,-120.736 352.943,-119.591 C 352.776,-118.157 353.18,-116.745 354.076,-115.613 C 354.167,-115.499 354.263,-115.389 354.361,-115.283 C 354.365,-115.277 354.368,-115.275 354.368,-115.275 C 356.013,-113.38 354.847,-117.108 356.652,-117.167 C 356.423,-116.972 356.283,-116.675 356.301,-116.349 C 356.329,-115.796 356.803,-115.371 357.357,-115.399 C 358.615,-115.464 361.359,-117.904 364.207,-117.647 C 364.163,-118.087 363.984,-118.665 363.879,-118.98 C 363.424,-118.921 362.973,-118.825 362.529,-118.696 C 361.717,-118.459 360.935,-118.109 360.197,-117.675 C 359.829,-117.457 359.472,-117.22 359.132,-116.961 C 358.96,-116.832 358.793,-116.697 358.631,-116.559 C 358.549,-116.488 358.471,-116.419 358.389,-116.345 C 358.312,-116.273 358.232,-116.196 358.147,-116.12 C 358.06,-116.044 357.968,-115.967 357.859,-115.9 C 357.751,-115.833 357.627,-115.777 357.495,-115.752 C 357.461,-115.747 357.428,-115.739 357.395,-115.737 C 357.361,-115.733 357.329,-115.731 357.291,-115.732 C 357.215,-115.733 357.14,-115.748 357.071,-115.773 C 356.932,-115.824 356.813,-115.916 356.729,-116.036 C 356.647,-116.156 356.6,-116.3 356.607,-116.452 C 356.616,-116.609 356.691,-116.748 356.791,-116.848 C 356.891,-116.948 357.02,-117.017 357.157,-117.036 C 357.293,-117.055 357.437,-117.024 357.543,-116.944 C 357.58,-116.915 357.588,-116.859 357.557,-116.82 C 357.539,-116.796 357.511,-116.785 357.481,-116.787 L 357.473,-116.788 C 357.377,-116.796 357.295,-116.785 357.216,-116.76 C 357.14,-116.732 357.069,-116.692 357.02,-116.632 C 356.971,-116.573 356.943,-116.503 356.944,-116.44 C 356.945,-116.373 356.971,-116.299 357.016,-116.243 C 357.06,-116.184 357.124,-116.14 357.192,-116.119 C 357.225,-116.107 357.26,-116.103 357.295,-116.103 C 357.309,-116.103 357.332,-116.105 357.353,-116.108 C 357.375,-116.109 357.395,-116.116 357.416,-116.119 C 357.58,-116.156 357.728,-116.268 357.876,-116.413 C 357.951,-116.484 358.027,-116.563 358.107,-116.641 C 358.184,-116.72 358.265,-116.799 358.347,-116.875 C 358.509,-117.028 358.677,-117.175 358.848,-117.317 C 359.191,-117.603 359.552,-117.868 359.925,-118.112 C 360.675,-118.6 361.483,-119.007 362.337,-119.299 C 362.803,-119.459 363.283,-119.584 363.769,-119.669 C 363.765,-119.716 363.761,-119.763 363.759,-119.811 C 363.74,-120.172 363.779,-120.523 363.864,-120.856 C 363.159,-120.656 362.473,-120.365 361.809,-120.032 C 361.128,-119.684 360.464,-119.292 359.827,-118.86 C 359.508,-118.645 359.197,-118.419 358.889,-118.187 C 358.735,-118.071 358.581,-117.955 358.429,-117.837 C 358.279,-117.717 358.127,-117.597 357.959,-117.5 L 357.957,-117.499 C 357.931,-117.484 357.895,-117.492 357.88,-117.52 C 357.867,-117.54 357.869,-117.565 357.884,-117.583 C 358.005,-117.741 358.151,-117.871 358.299,-117.996 C 358.447,-118.121 358.595,-118.248 358.748,-118.369 C 359.051,-118.612 359.364,-118.845 359.679,-119.072 C 359.995,-119.3 360.315,-119.523 360.641,-119.735 C 360.969,-119.947 361.304,-120.151 361.644,-120.343 C 361.717,-120.383 361.791,-120.423 361.864,-120.463 C 361.143,-120.836 360.38,-121.033 359.624,-121.079 C 359.619,-121.291 359.587,-121.735 359.393,-121.891 C 358.067,-122.961 359.688,-122.823 359.688,-122.823 C 359.889,-123.863 357.896,-123.547 357.896,-123.547 C 357.896,-123.547 358.025,-123.341 358.147,-123.183 C 358.147,-123.183 358.032,-123.015 357.988,-122.763 C 357.788,-122.999 357.441,-123.22 356.844,-123.297 C 356.575,-123.332 356.348,-123.389 356.156,-123.469 C 356.745,-123.753 357.383,-123.917 358.037,-123.951 C 358.316,-123.967 358.6,-123.957 358.883,-123.924 C 359.676,-123.832 360.42,-123.559 361.068,-123.128 L 361.433,-123.381 C 360.701,-123.901 359.847,-124.232 358.929,-124.337 C 357.813,-124.467 356.709,-124.251 355.741,-123.725 C 355.331,-124.088 355.18,-124.672 355.087,-125.515 C 355.084,-125.565 355.084,-125.611 355.084,-125.651 C 355.087,-125.716 355.177,-125.727 355.195,-125.664 C 355.365,-125.033 355.749,-124.592 356.015,-124.4 C 356.229,-124.491 356.452,-124.569 356.679,-124.633 C 356.645,-125.529 356.751,-126.04 356.833,-126.297 C 356.852,-126.353 356.933,-126.344 356.94,-126.284 C 357.009,-125.616 357.265,-125.093 357.457,-124.797 C 357.571,-124.813 357.687,-124.827 357.803,-124.836 C 357.945,-124.847 358.092,-124.853 358.239,-124.852 C 358.465,-125.777 358.747,-126.263 358.929,-126.497 C 358.968,-126.547 359.045,-126.505 359.025,-126.447 C 358.804,-125.756 358.884,-125.147 358.973,-124.804 C 359.301,-124.764 359.629,-124.695 359.948,-124.601 C 360.468,-125.299 360.896,-125.736 361.18,-125.991 C 361.232,-126.036 361.305,-125.973 361.269,-125.916 C 360.885,-125.313 360.752,-124.583 360.715,-124.317 C 361.056,-124.164 361.379,-123.977 361.668,-123.761 C 362.189,-124.761 363.095,-125.535 364.199,-125.876 C 364.285,-125.901 364.311,-126.009 364.248,-126.072 C 364.064,-126.253 363.715,-126.536 363.189,-126.693 C 362.541,-126.885 361.848,-126.659 361.587,-126.595 C 361.583,-126.656 361.409,-127.336 360.611,-127.461 C 359.899,-127.572 359.484,-127.272 359.255,-127.133 C 359.233,-127.184 359.024,-127.652 358.391,-127.652 C 358.324,-127.652 358.253,-127.647 358.179,-127.636 Z M 357.804,-129.783 C 354.197,-129.58 350.871,-127.993 348.44,-125.319 C 346.005,-122.64 344.745,-119.173 344.891,-115.556 C 344.968,-113.592 345.452,-111.712 346.327,-109.968 C 346.448,-109.727 346.593,-109.484 346.757,-109.247 L 346.768,-109.232 C 346.885,-109.031 347.007,-108.833 347.133,-108.639 C 347.664,-108.808 348.312,-109.016 348.64,-109.109 C 349.119,-109.247 349.592,-109.381 350.056,-109.528 C 350.519,-109.676 350.971,-109.839 351.388,-110.043 C 351.596,-110.144 351.793,-110.259 351.976,-110.388 C 352.156,-110.519 352.321,-110.663 352.457,-110.829 C 352.596,-110.992 352.704,-111.177 352.787,-111.377 C 352.865,-111.58 352.919,-111.796 352.944,-112.021 C 352.995,-112.472 352.949,-112.949 352.857,-113.42 C 352.764,-113.892 352.627,-114.361 352.465,-114.824 C 352.379,-115.071 352.287,-115.315 352.188,-115.557 L 351.629,-115.123 C 352.789,-111.659 351.592,-110.712 347.772,-109.752 L 347.561,-109.712 L 347.516,-109.775 C 347.376,-109.976 347.255,-110.181 347.153,-110.383 C 346.337,-112.008 345.887,-113.761 345.813,-115.593 C 345.679,-118.965 346.853,-122.199 349.124,-124.696 C 351.392,-127.192 354.492,-128.669 357.855,-128.859 C 361.287,-129.052 364.576,-127.904 367.117,-125.624 C 369.656,-123.347 371.155,-120.205 371.335,-116.78 C 371.501,-113.592 370.491,-110.501 368.484,-108.04 C 367.424,-108.175 366.655,-107.977 365.837,-107.893 C 365.851,-107.128 365.796,-105.981 365.659,-104.367 C 367.155,-105.267 368.459,-106.444 369.507,-107.821 C 369.503,-107.823 369.497,-107.825 369.493,-107.827 C 371.451,-110.403 372.429,-113.569 372.257,-116.828 C 372.064,-120.501 370.459,-123.871 367.735,-126.313 C 365.207,-128.581 361.987,-129.804 358.599,-129.804 C 358.335,-129.804 358.069,-129.797 357.804,-129.783 Z M 348.601,-105.288 C 345.713,-107.952 344.037,-111.581 343.88,-115.508 C 343.721,-119.435 345.103,-123.187 347.768,-126.075 C 350.432,-128.963 354.063,-130.639 357.988,-130.797 C 358.189,-130.805 358.392,-130.809 358.592,-130.809 C 362.297,-130.809 365.815,-129.436 368.555,-126.909 C 371.443,-124.244 373.119,-120.615 373.276,-116.688 C 373.435,-112.761 372.053,-109.009 369.388,-106.121 C 366.724,-103.235 363.093,-101.557 359.168,-101.4 C 358.965,-101.392 358.764,-101.388 358.563,-101.388 C 354.857,-101.388 351.34,-102.76 348.601,-105.288 Z M 358.593,-131.856 C 358.379,-131.856 358.163,-131.852 357.947,-131.843 C 353.74,-131.675 349.853,-129.879 346.999,-126.784 C 344.144,-123.692 342.665,-119.672 342.833,-115.467 C 343.001,-111.261 344.799,-107.372 347.892,-104.519 C 350.827,-101.811 354.593,-100.341 358.563,-100.341 C 358.777,-100.341 358.993,-100.345 359.209,-100.353 C 363.416,-100.523 367.303,-102.319 370.157,-105.412 C 373.012,-108.504 374.491,-112.524 374.323,-116.731 C 374.155,-120.936 372.357,-124.824 369.264,-127.677 C 366.331,-130.385 362.563,-131.856 358.595,-131.856 Z "/>
</svg>