<?xml version="1.0" encoding="UTF-8" standalone="no"?>
<svg version="1.1" xmlns="http://www.w3.org/2000/svg" xmlns:xlink="http://www.w3.org/1999/xlink" width="141" height="59">
	<g id="dp_dp001" transform="matrix(1,0,0,1,-973.521,127.267)">
		<path id="dp_path002" fill="white" fill-rule="evenodd" stroke="none" stroke-width="0" d="M 1087.25,-115.559 C 1087.34,-115.603 1087.73,-115.511 1088.09,-115.451 C 1088.31,-115.415 1088.51,-115.412 1088.67,-115.412 C 1089.1,-115.411 1089.65,-115.379 1090.11,-115.463 C 1090.68,-115.568 1091.26,-115.616 1091.87,-115.773 C 1092.69,-115.987 1093.55,-116.201 1094.43,-116.411 C 1094.99,-116.543 1095.69,-116.665 1096.29,-116.805 C 1096.75,-116.912 1097.23,-117.025 1097.7,-117.144 C 1098.79,-117.413 1099.88,-117.731 1100.93,-118.007 C 1101.76,-118.228 1102.71,-118.46 1103.55,-118.689 C 1103.83,-118.765 1104.13,-118.832 1104.4,-118.915 C 1106.18,-119.453 1107.81,-120.128 1109.2,-120.759 C 1110.31,-121.256 1111.26,-121.756 1112.06,-122.169 C 1112.48,-122.389 1112.86,-122.565 1113.17,-122.755 C 1113.2,-122.769 1113.25,-122.763 1113.27,-122.784 C 1113.33,-122.865 1113.4,-122.917 1113.5,-122.907 C 1113.6,-122.895 1113.63,-122.671 1113.52,-122.479 C 1113.48,-122.417 1113.46,-122.336 1113.39,-122.284 C 1113.24,-122.167 1113.09,-122.019 1112.86,-121.881 C 1112.64,-121.743 1112.43,-121.532 1112.18,-121.335 C 1111.86,-121.081 1111.48,-120.804 1111.09,-120.505 C 1110.53,-120.075 1109.94,-119.591 1109.33,-119.089 C 1108.86,-118.696 1108.37,-118.291 1107.9,-117.893 C 1107.32,-117.399 1106.74,-116.817 1106.19,-116.504 C 1105.44,-116.073 1104.11,-115.435 1102.54,-114.797 C 1101.48,-114.364 1100.25,-114.007 1099.15,-113.687 C 1098.26,-113.427 1097.49,-113.097 1096.77,-112.835 C 1096.1,-112.595 1095.42,-112.415 1094.86,-112.327 C 1094.25,-112.232 1093.54,-112.172 1092.8,-112.265 C 1092.3,-112.327 1091.89,-112.547 1091.42,-112.62 C 1090.94,-112.696 1090.48,-112.691 1089.9,-112.721 C 1089.54,-112.741 1089.15,-112.759 1088.75,-112.829 C 1088.49,-112.875 1088.23,-112.939 1088,-113.009 C 1087.22,-113.247 1086.6,-113.593 1086.42,-113.877 C 1086.2,-114.217 1086.69,-115.3 1087.25,-115.559 Z "/>
		<path id="dp_path003" fill="white" fill-rule="evenodd" stroke="none" stroke-width="0" d="M 1055.59,-103.667 C 1055.79,-103.916 1056.03,-104.2 1056.24,-104.509 C 1056.44,-104.812 1056.59,-105.127 1056.61,-105.444 C 1056.62,-105.656 1056.58,-105.856 1056.5,-105.981 C 1056.43,-106.095 1056.33,-106.148 1056.17,-106.104 C 1055.83,-106.008 1055.53,-105.827 1055.24,-105.613 C 1054.95,-105.396 1054.67,-105.153 1054.38,-104.952 C 1053.05,-104.021 1052.03,-102.789 1051.52,-101.152 C 1051.44,-100.883 1051.32,-100.596 1051.26,-100.308 C 1051.21,-100.072 1051.19,-99.8493 1051.25,-99.6427 C 1051.85,-99.888 1052.35,-100.228 1052.82,-100.632 C 1053.07,-100.848 1053.31,-101.083 1053.55,-101.331 C 1053.79,-101.58 1054.04,-101.844 1054.29,-102.115 C 1054.72,-102.573 1055.13,-103.093 1055.59,-103.667 Z M 974.189,-97.9307 C 973.049,-99.1947 973.613,-101.501 973.992,-103.428 C 974.577,-106.405 978.292,-108.369 978.361,-108.388 C 978.416,-108.403 978.443,-108.419 978.456,-108.429 L 978.563,-108.519 C 979.264,-108.979 981.153,-108.063 979.453,-106.96 C 979.269,-106.84 979.076,-106.747 978.901,-106.663 C 978.735,-106.581 978.567,-106.503 978.411,-106.407 C 978.267,-106.316 978.151,-106.224 978.057,-106.107 C 977.497,-105.357 977.26,-104.239 977.016,-102.787 C 976.453,-99.4333 986.299,-95.0493 989.815,-99.4347 C 993.191,-103.644 985.819,-108.717 985.477,-108.949 C 985.141,-109.177 984.811,-109.428 984.5,-109.652 C 982.66,-110.973 980.799,-112.732 980.943,-115.58 C 981.045,-117.601 982.189,-119.301 983.252,-120.537 C 986.383,-124.177 991.459,-126.084 996.096,-127.267 C 996.58,-127.391 997.679,-127.027 998.024,-126.835 C 998.675,-126.477 999.721,-125.555 999.328,-124.417 C 999.053,-123.624 998.547,-123.032 997.928,-122.504 C 997.624,-122.245 997.285,-121.996 996.924,-121.739 C 996.569,-121.488 996.193,-121.232 995.803,-120.951 C 995.145,-120.479 994.529,-119.967 993.876,-119.533 C 993.481,-119.271 993.132,-118.965 992.769,-118.699 C 992.391,-118.419 991.972,-118.157 991.467,-118.029 C 991.243,-117.972 990.955,-117.961 990.705,-118.031 C 990.46,-118.101 990.147,-118.292 990.141,-118.692 C 990.137,-118.968 990.333,-119.192 990.487,-119.335 C 990.659,-119.496 990.883,-119.651 991.101,-119.787 C 991.525,-120.048 991.992,-120.275 992.156,-120.383 C 994.116,-121.672 995.952,-123.045 997.173,-124.952 C 997.011,-125.415 996.577,-125.555 995.893,-125.476 C 995.535,-125.435 995.149,-125.333 994.785,-125.216 C 994.419,-125.097 994.087,-124.967 993.844,-124.873 C 991.74,-124.064 990.575,-123.267 988.969,-122.039 C 987.565,-120.967 986.527,-119.809 985.649,-118.019 C 985.46,-117.633 985.303,-117.196 985.06,-116.793 C 983.369,-113.98 1000.69,-102.612 989.627,-95.9507 C 987.799,-94.8507 987.467,-94.884 985.089,-94.4853 C 976.985,-93.1267 974.304,-97.8027 974.189,-97.9307 Z M 1012.19,-100.823 C 1012.24,-100.877 1012.28,-100.923 1012.32,-100.965 L 1012.45,-101.083 C 1012.54,-101.157 1012.61,-101.223 1012.68,-101.304 C 1012.86,-101.543 1013.01,-101.811 1013.16,-102.089 C 1013.32,-102.373 1013.46,-102.66 1013.63,-102.925 C 1014.1,-103.683 1014.67,-104.381 1015.12,-105.089 C 1015.2,-105.212 1015.25,-105.343 1015.3,-105.489 L 1015.39,-105.713 C 1015.42,-105.793 1015.45,-105.872 1015.5,-105.949 C 1015.55,-106.037 1015.65,-106.152 1015.75,-106.267 C 1015.85,-106.385 1015.97,-106.52 1016.09,-106.66 C 1016.21,-106.799 1016.31,-106.936 1016.38,-107.063 C 1016.46,-107.195 1016.49,-107.291 1016.49,-107.352 C 1016.48,-107.623 1016.08,-107.793 1015.65,-107.64 C 1015.35,-107.536 1015.02,-107.32 1014.68,-107.056 C 1014.34,-106.792 1014.01,-106.492 1013.73,-106.231 C 1012.56,-105.167 1011.66,-103.836 1010.88,-102.335 C 1010.11,-100.843 1009.47,-99.144 1009.71,-97.2773 C 1009.8,-97.344 1009.89,-97.428 1009.98,-97.524 C 1010.05,-97.6027 1010.12,-97.6867 1010.18,-97.772 L 1010.36,-98.0307 C 1011,-98.9307 1011.55,-99.98 1012.19,-100.823 Z M 1041.31,-102.244 C 1040.95,-101.244 1040.37,-100.212 1039.96,-99.188 L 1039.85,-98.892 C 1039.81,-98.7933 1039.78,-98.692 1039.75,-98.5893 C 1039.71,-98.4653 1039.69,-98.344 1039.69,-98.228 C 1041.3,-97.4667 1043.67,-99.2493 1044.5,-100.711 C 1045.33,-102.183 1046.31,-103.645 1046.21,-105.223 C 1046.06,-107.749 1043.85,-107.9 1043.81,-107.809 C 1043.77,-107.729 1043.72,-107.655 1043.67,-107.584 L 1043.53,-107.389 C 1043.44,-107.265 1043.35,-107.152 1043.29,-107.02 C 1042.94,-106.26 1042.67,-105.4 1042.29,-104.592 C 1042.16,-104.308 1042,-104.028 1041.84,-103.745 C 1041.69,-103.468 1041.55,-103.193 1041.45,-102.911 C 1041.42,-102.813 1041.4,-102.715 1041.39,-102.603 L 1041.36,-102.429 C 1041.35,-102.369 1041.33,-102.308 1041.31,-102.244 Z M 1025.95,-102.76 C 1026.11,-102.899 1026.26,-103.041 1026.41,-103.193 C 1027.2,-104.013 1030.18,-106.093 1030.56,-106.373 C 1031.13,-106.375 1031.45,-106.164 1031.71,-105.935 C 1031.83,-105.824 1031.95,-105.705 1032.07,-105.595 C 1032.19,-105.488 1032.3,-105.395 1032.42,-105.325 C 1032.54,-105.255 1032.7,-105.193 1032.87,-105.128 C 1033.05,-105.063 1033.23,-104.997 1033.41,-104.923 C 1033.75,-104.775 1034.11,-104.559 1034.18,-104.156 C 1034.22,-103.913 1034.11,-103.596 1034,-103.315 C 1033.88,-103.028 1033.73,-103.413 1033.65,-103.172 C 1031.56,-97.3947 1033.63,-96.5533 1033.86,-96.5107 C 1034.54,-96.3867 1036.04,-97.164 1037.1,-97.8573 C 1037.05,-98.3227 1037.14,-98.7587 1037.26,-99.2707 C 1037.5,-100.303 1037.98,-101.212 1038.5,-102.084 C 1038.98,-102.893 1040.84,-106.348 1041.27,-107.191 C 1041.33,-107.512 1041.09,-107.683 1041.03,-107.747 C 1040.79,-108.003 1040.12,-107.813 1040.01,-107.759 C 1039.88,-107.695 1037.79,-105.433 1037.3,-105.295 C 1035.4,-104.756 1032.01,-106.888 1030.74,-108.971 C 1029.43,-111.111 1032.71,-113.013 1032.59,-112.203 C 1032.54,-111.907 1032.46,-111.408 1032.44,-110.932 C 1032.41,-110.436 1034.51,-107.545 1038.28,-108.644 C 1041.68,-109.632 1043.55,-113.349 1043.72,-113.54 C 1044.71,-114.721 1046.92,-120.556 1047,-120.656 C 1047.12,-120.809 1047.21,-121.007 1047.29,-121.229 C 1047.37,-121.457 1047.44,-121.692 1047.53,-121.895 C 1047.94,-122.829 1048.53,-123.473 1049.63,-123.803 C 1050.24,-123.637 1050.92,-123.204 1051.32,-122.596 L 1051.34,-122.461 C 1050.95,-121.165 1050.37,-119.905 1049.74,-118.705 C 1048.93,-117.171 1048.25,-115.456 1047.55,-113.964 C 1047.3,-113.437 1047.05,-112.912 1046.82,-112.384 C 1046.6,-111.885 1046.41,-111.387 1046.28,-110.88 C 1046.36,-110.8 1046.44,-110.729 1046.53,-110.663 L 1046.89,-110.399 C 1048.37,-109.437 1049.11,-104.715 1048.52,-103.023 C 1048.07,-101.763 1045.73,-96.496 1042.15,-95.4107 C 1041.31,-95.156 1040.43,-94.312 1039.67,-94.42 C 1039.16,-94.4947 1038.78,-94.7907 1038.46,-95.1853 C 1038.15,-95.568 1037.88,-96.064 1037.57,-96.588 C 1037.46,-96.7707 1037.37,-96.9413 1037.3,-97.1053 C 1031.32,-91.5013 1028.97,-96.028 1028.77,-98.4053 C 1028.6,-99.3373 1028.69,-100.261 1028.81,-101.153 C 1028.91,-101.929 1029.04,-102.693 1029.06,-103.437 C 1027.91,-102.563 1026.86,-101.381 1025.95,-100.068 L 1025.95,-100.009 L 1025.58,-99.5307 C 1025.29,-99.0987 1025.01,-98.6733 1024.73,-98.2747 C 1024.43,-97.872 1024.12,-97.4907 1023.77,-97.1533 C 1023.05,-96.4773 1022.14,-95.9893 1020.8,-95.8547 C 1018.37,-95.6093 1017.07,-97.0707 1016.78,-99.02 C 1016.75,-99.1973 1016.76,-99.3507 1016.74,-99.492 C 1016.73,-99.612 1016.7,-99.708 1016.62,-99.808 C 1016.49,-99.9653 1016.29,-100.041 1016.02,-100.135 C 1015.88,-100.181 1015.75,-100.229 1015.62,-100.292 C 1015.54,-100.329 1015.46,-100.375 1015.39,-100.428 C 1014.91,-99.6133 1014.54,-98.7413 1014.12,-97.8973 C 1013.68,-96.9867 1013.17,-96.092 1012.44,-95.3267 C 1011.77,-94.6333 1011.25,-94.176 1010.02,-94.124 C 1009.41,-94.0973 1008.85,-94.0573 1008.36,-94.1093 C 1007.85,-94.164 1007.4,-94.3187 1007.06,-94.7067 C 1006.55,-95.2827 1006.46,-96.4507 1006.54,-97.3267 C 1006.67,-98.7373 1007.27,-100.196 1007.85,-101.328 C 1008.46,-102.495 1009.12,-103.465 1009.94,-104.525 C 1011.03,-105.947 1012.33,-107.403 1013.86,-108.545 C 1014.08,-108.708 1014.4,-108.948 1014.71,-109.153 C 1015,-109.352 1015.32,-109.548 1015.51,-109.584 C 1015.91,-109.66 1016.23,-109.573 1016.52,-109.467 L 1016.94,-109.308 C 1017.05,-109.269 1017.15,-109.236 1017.26,-109.215 C 1017.61,-109.604 1017.93,-110.035 1018.23,-110.487 C 1018.55,-110.967 1018.85,-111.467 1019.16,-111.963 C 1020.03,-113.364 1021.09,-114.868 1021.94,-116.379 C 1022.6,-117.56 1023.34,-118.739 1024.22,-119.769 L 1024.34,-119.827 C 1025.07,-119.82 1025.81,-119.483 1026.27,-119.064 C 1026.6,-117.961 1026.38,-117.115 1025.82,-116.26 C 1025.7,-116.075 1025.54,-115.888 1025.39,-115.695 C 1025.25,-115.508 1025.13,-115.328 1025.07,-115.143 C 1025.03,-115.023 1025.02,-114.875 1025.01,-114.7 L 1024.98,-114.44 C 1024.97,-114.355 1024.95,-114.265 1024.93,-114.181 C 1024.77,-113.733 1024.34,-113.364 1023.91,-113.057 C 1023.7,-112.901 1023.47,-112.756 1023.26,-112.617 C 1023.06,-112.487 1022.87,-112.363 1022.72,-112.244 C 1021.93,-111.248 1021.34,-109.995 1020.89,-108.515 C 1020.82,-108.275 1020.72,-108.029 1020.63,-107.783 C 1020.55,-107.543 1020.48,-107.316 1020.46,-107.105 C 1020.44,-106.887 1020.48,-106.657 1020.53,-106.409 C 1020.58,-106.152 1020.64,-105.895 1020.65,-105.64 C 1020.71,-104.803 1020.5,-104.035 1020.27,-103.32 C 1020.15,-102.967 1020.03,-102.62 1019.93,-102.279 C 1019.84,-101.94 1019.76,-101.613 1019.74,-101.292 C 1019.7,-100.624 1019.68,-99.908 1019.79,-99.3133 C 1019.83,-99.068 1019.96,-98.7133 1020.12,-98.4133 C 1020.29,-98.0893 1020.46,-97.9187 1020.56,-97.904 C 1020.77,-97.8773 1021.12,-98.0533 1021.52,-98.3453 C 1021.91,-98.6267 1022.28,-98.9653 1022.5,-99.164 C 1023.12,-99.7067 1023.77,-100.297 1024.22,-100.787 C 1024.69,-101.284 1025.1,-101.916 1025.57,-102.421 C 1025.69,-102.548 1025.82,-102.671 1025.95,-102.795 Z M 1052.76,-97.116 C 1053.57,-97.1653 1054.28,-97.5827 1054.92,-97.9333 C 1055.59,-98.2947 1056.15,-98.824 1056.75,-99.1827 C 1057.16,-99.4267 1057.51,-99.592 1057.86,-99.856 C 1059.11,-100.808 1060.26,-101.999 1061.41,-103.125 C 1061.67,-103.376 1061.98,-103.624 1062.23,-103.895 C 1063.24,-104.993 1063.6,-106.775 1065.16,-107.403 C 1067.77,-107.289 1066.23,-104.324 1066.22,-104.087 C 1066.16,-102.507 1065.36,-101.295 1065.12,-100.049 C 1065.57,-100.129 1065.78,-100.645 1066.13,-101.011 C 1066.76,-101.677 1070.17,-107.5 1074.06,-107.259 C 1075.49,-107.171 1074.77,-102.353 1074.87,-100.673 C 1074.53,-98.316 1078.56,-100.723 1079.87,-100.913 C 1079.9,-100.557 1079.53,-100.217 1079.25,-99.904 C 1069.93,-89.5227 1070.86,-101.175 1070.79,-101.972 C 1069.88,-102.163 1069.78,-101.161 1069.2,-100.865 C 1068.56,-100.007 1065.26,-95.4453 1062.04,-95.8187 C 1061.71,-95.856 1061.24,-96.3747 1060.98,-96.684 C 1060.53,-97.2373 1060.49,-98.0173 1060.36,-98.7987 C 1059.86,-98.6853 1059.72,-98.184 1059.44,-97.8853 C 1058.83,-97.2133 1058.11,-96.6947 1057.38,-96.0587 C 1056.64,-95.4213 1055.74,-94.6533 1054.54,-94.472 C 1054.02,-94.3933 1053.42,-94.4947 1052.86,-94.52 C 1052.22,-94.5493 1051.57,-94.468 1051.08,-94.52 C 1049.93,-94.644 1048.78,-95.396 1048.39,-96.2507 C 1048.13,-96.8227 1048.12,-97.7453 1048.15,-98.5107 C 1048.23,-101.14 1050,-103.188 1051.37,-104.76 C 1052.14,-105.649 1052.91,-106.287 1053.82,-107.019 C 1054.65,-107.683 1055.6,-108.635 1056.65,-108.893 C 1056.79,-108.925 1056.74,-108.937 1056.85,-108.893 C 1057.57,-108.608 1058.99,-108.481 1059.3,-107.451 C 1060.35,-105.917 1056.97,-100.163 1052.76,-97.116 Z M 1090.97,-93.5573 C 1090.28,-92.3947 1088.69,-92.4307 1087.48,-92.0333 C 1086.27,-91.6307 1085.21,-90.9587 1084.22,-90.2907 C 1082.24,-88.9693 1080.37,-87.5347 1078.67,-85.8267 C 1076.22,-83.3853 1073.92,-80.684 1072.62,-76.844 C 1072.24,-75.708 1071.67,-73.592 1072.08,-72.4347 C 1072.59,-70.9747 1074.85,-70.2267 1076.98,-70.3653 C 1077.96,-70.4307 1078.87,-70.7627 1079.75,-71.0733 C 1083.19,-72.2787 1085.71,-74.5413 1087.7,-77.28 C 1088.89,-78.9107 1089.44,-80.7747 1089.83,-83.3227 C 1089.92,-83.9627 1090.03,-84.6507 1090.15,-85.2827 C 1090.26,-85.8387 1090.28,-86.5453 1090.86,-86.8613 C 1093.37,-86.18 1091.67,-80.5013 1091.51,-79.8933 C 1091.34,-79.2067 1087.96,-71.9547 1084.05,-69.7667 C 1079.6,-67.2667 1072.48,-68.216 1070.39,-69.9853 C 1069.13,-71.0467 1068,-72.852 1068.16,-75.2107 C 1068.33,-77.836 1069.81,-80.1427 1071.1,-81.9067 C 1073.77,-85.5667 1077.3,-88.6227 1081.11,-91.0533 C 1083.18,-92.364 1085.28,-93.4293 1087.7,-94.0467 C 1088.75,-94.3147 1090.36,-94.0693 1090.97,-93.5573 Z M 1091.9,-107.82 C 1092.83,-107.92 1093.44,-106.836 1094.08,-106.187 C 1094.49,-105.759 1094.85,-105.185 1094.78,-104.772 C 1094.69,-104.212 1093.64,-103.939 1093.15,-103.683 C 1092.55,-103.368 1091.79,-103.068 1091.46,-102.703 C 1091.23,-102.444 1091.11,-102.004 1090.92,-101.668 C 1090.01,-100.06 1088.76,-98.6333 1087.33,-97.476 C 1086.77,-97.0253 1086.23,-96.4973 1085.53,-96.1707 C 1084.91,-95.8813 1084.17,-95.5547 1083.3,-95.7893 C 1082.56,-95.9867 1081,-96.8 1080.57,-97.3133 C 1080.18,-97.7973 1079.97,-98.8267 1080.36,-99.6547 C 1080.55,-100.08 1081.07,-100.543 1081.45,-101.016 C 1083.78,-103.948 1087.9,-106.669 1091.79,-107.82 Z M 1086.97,-102.753 C 1086.42,-102.321 1085.77,-101.857 1085.55,-101.284 C 1086.21,-101.421 1086.98,-101.756 1087.57,-102.155 C 1088.1,-102.516 1088.72,-103.207 1088.87,-103.733 C 1088.15,-103.725 1087.51,-103.177 1086.97,-102.753 Z M 1008.36,-103.081 C 1008.3,-103.016 1008.24,-102.959 1008.18,-102.909 C 1008.12,-102.861 1008.07,-102.819 1008.02,-102.776 C 1007.92,-102.681 1007.82,-102.581 1007.73,-102.475 C 1007.64,-102.365 1007.54,-102.253 1007.44,-102.135 C 1007.33,-102.021 1007.22,-101.919 1007.1,-101.821 C 1006.99,-101.725 1006.87,-101.632 1006.76,-101.536 C 1006.53,-101.347 1006.33,-101.164 1006.22,-100.948 C 1006.11,-100.732 1006.04,-100.505 1005.96,-100.272 C 1005.88,-100.027 1005.79,-99.776 1005.68,-99.52 C 1005.23,-98.9627 1004.83,-98.4173 1004.4,-97.8973 C 1003.98,-97.3733 1003.53,-96.868 1003,-96.432 C 1001.96,-95.552 1000.63,-94.9547 998.679,-94.9973 C 998.531,-95.0013 998.379,-95.028 998.225,-95.0587 C 998.087,-95.0867 997.944,-95.1173 997.8,-95.128 C 997.223,-95.1747 996.736,-95.2107 996.3,-95.2933 C 995.856,-95.3787 995.459,-95.5147 995.076,-95.7627 C 994.288,-96.2733 993.579,-97.2787 993.684,-98.632 C 993.993,-102.581 996.409,-105.56 999.048,-107.531 C 999.531,-107.891 1000.12,-108.172 1000.72,-108.413 C 1001.32,-108.653 1001.95,-108.857 1002.51,-109.06 C 1002.88,-109.193 1003.3,-109.108 1003.68,-108.972 C 1004.05,-108.836 1004.41,-108.635 1004.7,-108.487 C 1004.95,-108.355 1005.24,-108.204 1005.47,-108.032 C 1005.7,-107.861 1005.9,-107.651 1005.96,-107.389 C 1006.1,-106.779 1005.67,-106.049 1005.44,-105.677 C 1005.23,-105.335 1004.97,-104.995 1004.69,-104.656 C 1004.41,-104.321 1004.12,-103.989 1003.83,-103.657 C 1003.28,-103.037 1002.72,-102.367 1002.19,-101.705 C 1001.92,-101.384 1001.62,-101.085 1001.32,-100.788 C 1001.01,-100.493 1000.7,-100.196 1000.4,-99.872 C 1000.12,-99.5787 999.84,-99.2013 999.545,-98.8653 C 999.248,-98.5267 998.92,-98.204 998.561,-98.0533 C 998.512,-98.032 998.452,-98.0147 998.387,-97.9987 C 998.328,-97.9853 998.263,-97.972 998.196,-97.96 C 998.073,-97.936 997.941,-97.912 997.825,-97.8733 C 997.611,-97.8027 997.533,-97.7213 997.595,-97.5333 C 997.608,-97.4907 997.647,-97.4507 997.765,-97.432 C 997.884,-97.4147 998.047,-97.4267 998.227,-97.4587 C 998.584,-97.5227 998.957,-97.6587 999.076,-97.7107 C 999.651,-97.956 1000.11,-98.2293 1000.53,-98.444 C 1002.52,-99.468 1004.05,-100.625 1005.72,-101.907 C 1006.14,-102.232 1006.54,-102.569 1006.96,-102.881 C 1007.39,-103.195 1007.83,-103.485 1008.31,-103.708 L 1008.48,-103.788 L 1008.52,-103.608 C 1008.57,-103.387 1008.47,-103.211 1008.36,-103.081 Z M 1002.17,-104.577 C 1002.41,-104.884 1002.72,-105.232 1002.97,-105.611 C 1003.21,-105.984 1003.4,-106.369 1003.42,-106.759 C 1003.43,-107.019 1003.39,-107.263 1003.29,-107.417 C 1003.2,-107.557 1003.08,-107.623 1002.88,-107.567 C 1002.47,-107.451 1002.1,-107.228 1001.75,-106.967 C 1001.38,-106.7 1001.05,-106.403 1000.69,-106.155 C 999.056,-105.012 997.809,-103.501 997.183,-101.492 C 997.08,-101.161 996.939,-100.808 996.86,-100.457 C 996.795,-100.167 996.777,-99.8933 996.852,-99.64 C 997.587,-99.9413 998.2,-100.357 998.775,-100.853 C 999.081,-101.119 999.377,-101.407 999.672,-101.711 C 999.971,-102.017 1000.27,-102.34 1000.58,-102.673 C 1001.1,-103.235 1001.62,-103.873 1002.17,-104.577 Z "/>
		<path id="dp_path004" fill="white" fill-rule="evenodd" stroke="none" stroke-width="0" d="M 981.413,-89.8853 L 981.413,-82.7787 L 980.672,-82.7787 L 980.672,-86.0573 L 976.225,-86.0573 L 976.225,-82.7787 L 975.475,-82.7787 L 975.475,-89.8853 L 976.225,-89.8853 L 976.225,-86.7173 L 980.672,-86.7173 L 980.672,-89.8853 Z "/>
		<path id="dp_path005" fill="white" fill-rule="evenodd" stroke="none" stroke-width="0" d="M 987.477,-82.7173 C 986.773,-82.7173 986.136,-82.876 985.564,-83.1907 C 984.992,-83.5053 984.545,-83.936 984.224,-84.484 C 983.903,-85.032 983.741,-85.648 983.741,-86.332 C 983.741,-87.016 983.903,-87.6307 984.224,-88.18 C 984.545,-88.728 984.992,-89.1587 985.564,-89.4733 C 986.136,-89.7893 986.773,-89.9453 987.477,-89.9453 C 988.181,-89.9453 988.816,-89.7907 989.38,-89.4787 C 989.945,-89.168 990.391,-88.736 990.716,-88.1853 C 991.04,-87.6333 991.203,-87.016 991.203,-86.332 C 991.203,-85.648 991.04,-85.0307 990.716,-84.4787 C 990.391,-83.928 989.945,-83.496 989.38,-83.1853 C 988.816,-82.8733 988.181,-82.7173 987.477,-82.7173 Z M 987.477,-83.388 C 988.039,-83.388 988.547,-83.5147 989,-83.7693 C 989.453,-84.0227 989.808,-84.3747 990.065,-84.824 C 990.323,-85.2747 990.452,-85.7773 990.452,-86.332 C 990.452,-86.8867 990.323,-87.3893 990.065,-87.84 C 989.808,-88.2893 989.453,-88.6413 989,-88.896 C 988.547,-89.1493 988.039,-89.276 987.477,-89.276 C 986.915,-89.276 986.407,-89.1493 985.949,-88.896 C 985.492,-88.6413 985.133,-88.2893 984.873,-87.84 C 984.613,-87.3893 984.483,-86.8867 984.483,-86.332 C 984.483,-85.7773 984.613,-85.2747 984.873,-84.824 C 985.133,-84.3747 985.492,-84.0227 985.949,-83.7693 C 986.407,-83.5147 986.915,-83.388 987.477,-83.388 Z "/>
		<path id="dp_path006" fill="white" fill-rule="evenodd" stroke="none" stroke-width="0" d="M 995.105,-89.2347 L 992.608,-89.2347 L 992.608,-89.8853 L 998.355,-89.8853 L 998.355,-89.2347 L 995.857,-89.2347 L 995.857,-82.7787 L 995.105,-82.7787 Z "/>
		<path id="dp_path007" fill="white" fill-rule="evenodd" stroke="none" stroke-width="0" d="M 1005.91,-83.428 L 1005.91,-82.7787 L 1000.88,-82.7787 L 1000.88,-89.8853 L 1005.75,-89.8853 L 1005.75,-89.2347 L 1001.63,-89.2347 L 1001.63,-86.708 L 1005.31,-86.708 L 1005.31,-86.068 L 1001.63,-86.068 L 1001.63,-83.428 Z "/>
		<path id="dp_path008" fill="white" fill-rule="evenodd" stroke="none" stroke-width="0" d="M 1008.52,-89.8853 L 1009.27,-89.8853 L 1009.27,-83.428 L 1013.25,-83.428 L 1013.25,-82.7787 L 1008.52,-82.7787 Z "/>
		<path id="dp_path009" fill="white" fill-rule="evenodd" stroke="none" stroke-width="0" d="M 1025.97,-82.7173 C 1025.27,-82.7173 1024.63,-82.8733 1024.07,-83.1853 C 1023.5,-83.496 1023.06,-83.928 1022.74,-84.4787 C 1022.41,-85.0307 1022.25,-85.648 1022.25,-86.332 C 1022.25,-87.016 1022.41,-87.6333 1022.74,-88.1853 C 1023.06,-88.736 1023.5,-89.168 1024.07,-89.4787 C 1024.64,-89.7907 1025.28,-89.9453 1025.98,-89.9453 C 1026.51,-89.9453 1026.99,-89.8573 1027.44,-89.6813 C 1027.89,-89.5053 1028.27,-89.2493 1028.58,-88.9107 L 1028.1,-88.4333 C 1027.55,-88.9947 1026.85,-89.276 1026,-89.276 C 1025.44,-89.276 1024.93,-89.1467 1024.47,-88.8907 C 1024.01,-88.6333 1023.65,-88.2813 1023.39,-87.8347 C 1023.13,-87.388 1023,-86.8867 1023,-86.332 C 1023,-85.7773 1023.13,-85.276 1023.39,-84.8293 C 1023.65,-84.3827 1024.01,-84.0307 1024.47,-83.7733 C 1024.93,-83.516 1025.44,-83.388 1026,-83.388 C 1026.85,-83.388 1027.55,-83.672 1028.1,-84.24 L 1028.58,-83.764 C 1028.27,-83.4253 1027.89,-83.1667 1027.44,-82.9867 C 1026.99,-82.808 1026.5,-82.7173 1025.97,-82.7173 Z "/>
		<path id="dp_path010" fill="white" fill-rule="evenodd" stroke="none" stroke-width="0" d="M 1035.83,-84.6773 L 1031.87,-84.6773 L 1031.02,-82.7787 L 1030.24,-82.7787 L 1033.49,-89.8853 L 1034.23,-89.8853 L 1037.48,-82.7787 L 1036.69,-82.7787 Z M 1035.56,-85.2867 L 1033.85,-89.1027 L 1032.15,-85.2867 Z "/>
		<path id="dp_path011" fill="white" fill-rule="evenodd" stroke="none" stroke-width="0" d="M 1041.88,-82.7173 C 1041.35,-82.7173 1040.85,-82.8027 1040.36,-82.972 C 1039.88,-83.1413 1039.5,-83.364 1039.24,-83.6413 L 1039.53,-84.22 C 1039.79,-83.9627 1040.13,-83.7547 1040.56,-83.596 C 1040.99,-83.4373 1041.43,-83.3573 1041.88,-83.3573 C 1042.51,-83.3573 1042.99,-83.4747 1043.31,-83.708 C 1043.63,-83.9413 1043.79,-84.244 1043.79,-84.616 C 1043.79,-84.9 1043.7,-85.1267 1043.53,-85.296 C 1043.36,-85.4653 1043.14,-85.596 1042.89,-85.688 C 1042.64,-85.7787 1042.29,-85.8787 1041.85,-85.9867 C 1041.31,-86.1227 1040.89,-86.252 1040.57,-86.3773 C 1040.25,-86.5027 1039.98,-86.6933 1039.75,-86.9507 C 1039.53,-87.208 1039.41,-87.5573 1039.41,-87.9973 C 1039.41,-88.356 1039.51,-88.6827 1039.7,-88.976 C 1039.89,-89.2707 1040.18,-89.5053 1040.57,-89.6813 C 1040.96,-89.8573 1041.45,-89.9453 1042.03,-89.9453 C 1042.44,-89.9453 1042.83,-89.8907 1043.22,-89.7787 C 1043.61,-89.6667 1043.95,-89.5133 1044.23,-89.316 L 1043.98,-88.7173 C 1043.68,-88.9133 1043.36,-89.0613 1043.03,-89.1587 C 1042.69,-89.2573 1042.36,-89.3067 1042.03,-89.3067 C 1041.41,-89.3067 1040.94,-89.1867 1040.63,-88.9467 C 1040.31,-88.7053 1040.15,-88.396 1040.15,-88.0173 C 1040.15,-87.7333 1040.24,-87.504 1040.41,-87.332 C 1040.58,-87.16 1040.8,-87.028 1041.06,-86.936 C 1041.32,-86.8453 1041.67,-86.744 1042.11,-86.636 C 1042.63,-86.508 1043.05,-86.3813 1043.38,-86.256 C 1043.7,-86.1307 1043.97,-85.9413 1044.19,-85.688 C 1044.42,-85.4333 1044.53,-85.0893 1044.53,-84.6573 C 1044.53,-84.2987 1044.43,-83.972 1044.24,-83.6773 C 1044.05,-83.3827 1043.75,-83.1493 1043.35,-82.9773 C 1042.95,-82.804 1042.46,-82.7173 1041.88,-82.7173 Z "/>
		<path id="dp_path012" fill="white" fill-rule="evenodd" stroke="none" stroke-width="0" d="M 1047.34,-89.8853 L 1048.09,-89.8853 L 1048.09,-82.7787 L 1047.34,-82.7787 Z "/>
		<path id="dp_path013" fill="white" fill-rule="evenodd" stroke="none" stroke-width="0" d="M 1057.45,-89.8853 L 1057.45,-82.7787 L 1056.83,-82.7787 L 1052.26,-88.5453 L 1052.26,-82.7787 L 1051.51,-82.7787 L 1051.51,-89.8853 L 1052.13,-89.8853 L 1056.7,-84.1187 L 1056.7,-89.8853 Z "/>
		<path id="dp_path014" fill="white" fill-rule="evenodd" stroke="none" stroke-width="0" d="M 1064.13,-82.7173 C 1063.43,-82.7173 1062.79,-82.876 1062.22,-83.1907 C 1061.64,-83.5053 1061.2,-83.936 1060.88,-84.484 C 1060.55,-85.032 1060.39,-85.648 1060.39,-86.332 C 1060.39,-87.016 1060.55,-87.6307 1060.88,-88.18 C 1061.2,-88.728 1061.64,-89.1587 1062.22,-89.4733 C 1062.79,-89.7893 1063.43,-89.9453 1064.13,-89.9453 C 1064.83,-89.9453 1065.47,-89.7907 1066.03,-89.4787 C 1066.6,-89.168 1067.04,-88.736 1067.37,-88.1853 C 1067.69,-87.6333 1067.85,-87.016 1067.85,-86.332 C 1067.85,-85.648 1067.69,-85.0307 1067.37,-84.4787 C 1067.04,-83.928 1066.6,-83.496 1066.03,-83.1853 C 1065.47,-82.8733 1064.83,-82.7173 1064.13,-82.7173 Z M 1064.13,-83.388 C 1064.69,-83.388 1065.2,-83.5147 1065.65,-83.7693 C 1066.11,-84.0227 1066.46,-84.3747 1066.72,-84.824 C 1066.97,-85.2747 1067.1,-85.7773 1067.1,-86.332 C 1067.1,-86.8867 1066.97,-87.3893 1066.72,-87.84 C 1066.46,-88.2893 1066.11,-88.6413 1065.65,-88.896 C 1065.2,-89.1493 1064.69,-89.276 1064.13,-89.276 C 1063.57,-89.276 1063.06,-89.1493 1062.6,-88.896 C 1062.15,-88.6413 1061.79,-88.2893 1061.53,-87.84 C 1061.27,-87.3893 1061.13,-86.8867 1061.13,-86.332 C 1061.13,-85.7773 1061.27,-85.2747 1061.53,-84.824 C 1061.79,-84.3747 1062.15,-84.0227 1062.6,-83.7693 C 1063.06,-83.5147 1063.57,-83.388 1064.13,-83.388 Z "/>
	</g>
</svg>