<?xml version="1.0" encoding="UTF-8" standalone="no"?>
<svg version="1.1" xmlns="http://www.w3.org/2000/svg" xmlns:xlink="http://www.w3.org/1999/xlink" width="84" height="49">
	<path id="dp_path001" transform="matrix(1,0,0,1,540.576,198.829)" fill="white" fill-rule="evenodd" stroke="none" stroke-width="0" d="M -517.125,-152.873 L -516.84,-152.873 C -516.769,-152.801 -516.769,-152.588 -516.84,-152.517 C -516.983,-152.445 -517.267,-152.375 -517.695,-152.375 L -517.909,-152.375 C -518.621,-152.445 -519.192,-152.659 -519.691,-153.088 C -519.62,-153.088 -519.405,-153.016 -519.264,-152.945 C -518.907,-152.801 -518.479,-152.801 -517.981,-152.801 L -517.909,-152.801 C -517.552,-152.801 -517.339,-152.801 -517.125,-152.873 Z M -514.06,-154.796 C -514.416,-155.509 -514.559,-156.364 -514.559,-157.219 C -514.559,-160.069 -512.92,-161.067 -511.421,-161.067 L -511.351,-161.067 C -511.067,-161.067 -510.709,-160.995 -510.496,-160.924 C -510.709,-161.139 -510.995,-161.28 -511.28,-161.423 L -511.351,-161.423 L -511.851,-161.423 C -513.276,-161.423 -514.915,-160.497 -514.915,-157.576 C -514.915,-157.005 -514.844,-156.436 -514.701,-155.865 C -514.559,-155.439 -514.345,-155.083 -514.06,-154.796 Z M -518.692,-159.001 C -518.692,-159.713 -518.907,-160.283 -519.264,-160.569 C -519.264,-160.497 -519.264,-160.497 -519.192,-160.355 C -519.049,-160.069 -519.049,-159.784 -519.049,-159.357 C -519.049,-158.075 -520.047,-157.504 -520.832,-157.219 L -520.903,-157.148 C -520.76,-156.935 -520.617,-156.721 -520.476,-156.579 C -520.547,-156.649 -520.547,-156.721 -520.476,-156.792 C -519.691,-157.076 -518.692,-157.719 -518.692,-159.001 Z M -506.361,-157.005 C -506.361,-158.075 -506.717,-159.144 -507.36,-159.999 C -507.217,-159.713 -507.145,-159.428 -507.003,-159.144 C -506.861,-158.573 -506.717,-158.004 -506.717,-157.361 C -506.717,-154.724 -508.643,-152.801 -511.351,-152.659 C -511.421,-152.659 -511.564,-152.588 -511.708,-152.588 C -512.42,-152.588 -513.063,-152.731 -513.632,-152.945 C -513.988,-153.016 -514.345,-153.159 -514.631,-153.229 C -513.845,-152.659 -512.705,-152.303 -511.351,-152.303 C -508.5,-152.303 -506.361,-154.227 -506.361,-157.005 Z M -528.316,-160.781 C -528.172,-160.64 -527.888,-160.64 -527.817,-160.781 C -527.888,-161.565 -527.888,-162.563 -527.888,-163.417 L -528.244,-163.417 C -528.244,-162.635 -528.244,-161.78 -528.172,-161.139 C -528.244,-161.139 -528.316,-161.067 -528.387,-161.067 C -528.387,-160.924 -528.316,-160.853 -528.316,-160.781 Z M -485.335,-161.78 L -485.548,-161.78 C -485.548,-161.709 -485.619,-161.637 -485.619,-161.637 C -485.763,-161.067 -485.763,-160.283 -485.763,-159.713 C -485.763,-159.641 -485.833,-159.571 -485.904,-159.571 L -485.904,-159.285 C -485.833,-159.144 -485.477,-159.144 -485.335,-159.285 C -485.407,-159.999 -485.335,-160.924 -485.192,-161.495 C -485.263,-161.637 -485.335,-161.709 -485.335,-161.78 Z M -474.357,-157.219 L -474.643,-157.219 L -475.355,-157.219 C -475.712,-157.219 -475.712,-157.148 -475.712,-156.721 L -475.712,-155.296 C -475.712,-154.868 -475.712,-154.583 -475.641,-154.299 C -475.641,-154.227 -475.497,-154.227 -475.355,-154.156 L -475.355,-154.868 L -475.355,-156.364 C -475.355,-156.792 -475.355,-156.792 -474.928,-156.792 L -474.643,-156.792 L -474,-156.792 L -473.645,-156.792 C -473.716,-157.005 -473.788,-157.076 -473.788,-157.148 C -474,-157.219 -474.143,-157.219 -474.357,-157.219 Z M -472.433,-157.504 L -472.433,-156.08 C -472.433,-156.008 -472.576,-155.936 -472.647,-155.936 L -472.576,-155.652 C -472.433,-155.509 -472.148,-155.581 -472.076,-155.723 L -472.076,-157.219 L -472.076,-158.573 C -472.076,-158.716 -472.291,-158.716 -472.433,-158.716 Z M -480.059,-161.423 L -480.273,-161.423 C -480.344,-161.352 -480.344,-161.352 -480.344,-161.28 L -480.772,-161.209 C -481.628,-161.067 -481.7,-160.995 -481.7,-159.571 L -481.7,-155.083 L -481.7,-154.227 C -481.7,-154.227 -481.628,-154.156 -481.628,-154.085 L -481.341,-154.085 L -481.341,-154.724 L -481.341,-159.215 C -481.341,-160.64 -481.271,-160.781 -480.416,-160.853 L -480.059,-160.924 C -479.845,-161.067 -479.917,-161.423 -480.059,-161.423 Z M -459.531,-160.212 C -459.531,-161.067 -459.816,-161.78 -460.245,-162.277 C -460.173,-162.207 -460.173,-161.993 -460.101,-161.851 C -459.959,-161.495 -459.887,-161.067 -459.887,-160.569 C -459.887,-158.644 -461.385,-157.576 -462.383,-157.219 L -462.453,-157.148 L -462.025,-156.436 C -462.097,-156.579 -462.097,-156.721 -462.025,-156.792 C -461.028,-157.219 -459.531,-158.288 -459.531,-160.212 Z M -473.145,-161.139 L -474.072,-161.139 L -474.643,-161.139 L -474.928,-161.139 C -475.712,-161.139 -475.712,-161.139 -475.712,-160.497 L -475.712,-158.429 L -475.355,-158.429 L -475.355,-160.141 C -475.355,-160.781 -475.355,-160.781 -474.643,-160.781 L -474.571,-160.781 L -473.716,-160.781 L -472.86,-160.781 C -472.86,-160.781 -472.86,-160.853 -472.931,-160.924 C -472.931,-160.995 -473.075,-161.067 -473.145,-161.139 Z M -531.951,-150.523 C -531.951,-150.451 -531.951,-150.38 -532.023,-150.38 L -534.731,-150.38 L -537.012,-150.38 C -537.012,-150.237 -536.94,-150.023 -536.869,-149.952 C -535.943,-150.023 -535.231,-150.023 -534.375,-150.023 C -533.519,-150.023 -532.877,-150.023 -531.665,-149.952 C -531.524,-150.095 -531.524,-150.451 -531.595,-150.523 Z M -484.195,-152.517 C -483.411,-152.517 -482.768,-152.588 -482.127,-152.588 C -481.485,-152.588 -480.844,-152.517 -480.059,-152.517 C -479.917,-152.588 -479.845,-152.873 -480.059,-153.016 L -480.273,-153.088 C -480.344,-152.945 -480.344,-152.873 -480.416,-152.873 L -482.483,-152.873 L -484.336,-152.873 C -484.408,-152.731 -484.336,-152.517 -484.195,-152.517 Z M -471.576,-159.285 C -471.505,-159.215 -471.151,-159.215 -471.079,-159.357 C -471.221,-160.283 -471.293,-161.209 -471.293,-161.423 L -471.648,-161.423 C -471.576,-160.995 -471.505,-160.355 -471.435,-159.713 C -471.505,-159.641 -471.576,-159.571 -471.72,-159.571 C -471.648,-159.5 -471.648,-159.428 -471.576,-159.285 Z M -530.596,-156.721 C -530.881,-156.792 -531.309,-156.792 -531.879,-156.792 L -533.233,-156.792 C -533.876,-156.792 -533.876,-156.792 -533.876,-156.221 L -533.876,-153.443 L -533.876,-151.804 C -533.805,-151.733 -533.661,-151.591 -533.448,-151.591 C -533.519,-151.947 -533.519,-152.445 -533.519,-153.088 L -533.519,-155.865 C -533.519,-156.436 -533.448,-156.436 -532.877,-156.436 L -531.524,-156.436 L -530.312,-156.436 C -530.383,-156.579 -530.455,-156.649 -530.596,-156.721 Z M -491.464,-160.781 L -491.464,-160.995 L -491.464,-161.139 L -491.892,-161.139 C -493.175,-161.139 -493.673,-161.067 -494.173,-159.641 C -494.173,-159.571 -494.173,-159.571 -494.244,-159.571 L -494.316,-159.357 C -494.173,-159.215 -494.031,-159.144 -493.816,-159.285 C -493.317,-160.64 -492.748,-160.781 -491.536,-160.781 Z M -487.687,-153.016 C -487.687,-152.945 -487.757,-152.873 -487.829,-152.873 L -490.039,-152.873 L -492.105,-152.873 C -492.105,-152.731 -492.035,-152.517 -491.963,-152.517 L -490.039,-152.517 C -489.967,-152.517 -489.824,-152.588 -489.683,-152.588 C -489.041,-152.588 -488.257,-152.517 -487.472,-152.517 C -487.259,-152.588 -487.259,-152.873 -487.401,-153.016 Z M -487.401,-161.139 L -488.115,-161.139 L -488.827,-161.139 C -489.184,-161.139 -489.325,-161.139 -489.325,-160.64 L -489.325,-155.083 C -489.325,-154.724 -489.325,-154.44 -489.255,-154.227 C -489.184,-154.156 -489.184,-154.156 -489.113,-154.085 L -488.899,-154.085 L -488.899,-154.724 L -488.899,-160.283 C -488.899,-160.781 -488.827,-160.781 -488.471,-160.781 L -487.757,-160.781 L -487.045,-160.781 C -487.116,-160.924 -487.187,-161.067 -487.401,-161.139 Z M -496.24,-152.517 C -496.312,-152.801 -496.312,-154.44 -496.312,-154.796 L -496.312,-158.288 C -496.312,-160.283 -496.097,-160.781 -495.599,-160.853 L -495.1,-160.924 L -494.957,-161.423 L -495.028,-161.423 L -495.243,-161.423 C -495.243,-161.352 -495.315,-161.352 -495.385,-161.28 L -495.955,-161.209 C -496.525,-161.139 -496.668,-160.64 -496.668,-158.644 L -496.668,-155.153 C -496.668,-154.796 -496.668,-153.159 -496.597,-152.801 C -496.668,-152.731 -496.809,-152.659 -496.952,-152.659 C -496.809,-152.517 -496.739,-152.375 -496.668,-152.303 C -496.525,-152.231 -496.312,-152.375 -496.24,-152.517 Z M -503.225,-159.001 C -503.368,-159.144 -503.511,-159.215 -503.581,-159.357 L -503.581,-158.716 L -503.581,-156.008 C -503.581,-155.224 -503.581,-154.653 -503.511,-154.227 C -503.439,-154.085 -503.368,-154.085 -503.155,-154.013 C -503.225,-154.44 -503.225,-155.011 -503.225,-155.652 L -503.225,-158.359 Z M -464.307,-151.163 L -464.592,-151.233 C -464.592,-151.163 -464.592,-151.02 -464.663,-151.02 C -465.589,-151.092 -466.303,-151.092 -467.087,-151.092 C -467.871,-151.092 -468.512,-151.092 -469.368,-151.02 C -469.368,-150.877 -469.368,-150.735 -469.224,-150.664 C -468.299,-150.735 -467.515,-150.735 -466.729,-150.735 C -465.945,-150.735 -465.235,-150.735 -464.307,-150.664 C -464.164,-150.735 -464.164,-151.092 -464.307,-151.163 Z M -456.467,-150.38 C -456.609,-150.38 -456.751,-150.38 -456.895,-150.451 C -457.036,-150.38 -457.321,-150.38 -457.749,-150.38 C -458.319,-150.38 -458.889,-150.451 -459.388,-150.593 C -459.531,-150.664 -459.745,-150.735 -459.959,-150.807 C -459.175,-150.165 -458.391,-149.952 -457.321,-149.952 C -456.965,-149.952 -456.609,-150.023 -456.467,-150.095 C -456.395,-150.165 -456.395,-150.38 -456.467,-150.38 Z M -464.948,-163.347 C -466.232,-163.347 -466.303,-163.276 -466.303,-162.707 L -466.303,-158.004 L -466.303,-157.86 L -466.232,-157.86 L -465.945,-157.86 L -465.945,-162.348 C -465.945,-162.919 -465.804,-162.991 -464.592,-162.991 C -464.093,-162.991 -463.593,-162.919 -463.237,-162.777 C -463.451,-162.991 -463.737,-163.133 -464.093,-163.276 C -464.307,-163.347 -464.663,-163.347 -464.948,-163.347 Z M -464.948,-156.221 L -464.449,-156.221 C -464.592,-156.364 -464.663,-156.507 -464.877,-156.579 C -465.02,-156.649 -465.163,-156.649 -465.305,-156.649 C -466.232,-156.649 -466.303,-156.579 -466.303,-156.151 L -466.303,-154.156 C -466.303,-153.371 -466.303,-152.873 -466.232,-152.517 C -466.089,-152.375 -466.017,-152.375 -465.875,-152.303 C -465.945,-152.659 -465.945,-153.159 -465.945,-153.799 L -465.945,-155.793 C -465.945,-156.221 -465.875,-156.221 -464.948,-156.221 Z M -470.793,-152.517 L -470.793,-152.588 C -470.58,-153.016 -470.365,-153.943 -470.223,-154.724 C -470.223,-154.868 -470.436,-154.939 -470.651,-154.868 C -470.651,-154.583 -470.723,-154.299 -470.793,-154.013 C -470.936,-153.515 -471.079,-153.088 -471.221,-152.873 L -473.003,-152.873 L -474.643,-152.873 L -476.495,-152.873 L -478.492,-152.873 C -478.492,-152.731 -478.492,-152.517 -478.349,-152.517 C -477.352,-152.517 -476.781,-152.588 -476.14,-152.588 L -474.643,-152.588 L -474.287,-152.588 C -473.788,-152.588 -473.217,-152.588 -472.647,-152.517 Z M -533.305,-163.133 C -533.876,-163.133 -533.876,-163.063 -533.876,-162.348 L -533.876,-158.147 L -533.591,-158.147 L -533.519,-158.147 L -533.519,-161.993 C -533.519,-162.707 -533.519,-162.777 -532.948,-162.777 L -531.665,-162.777 C -530.881,-162.777 -530.241,-162.777 -529.741,-162.707 C -529.884,-162.848 -530.027,-162.991 -530.312,-163.063 C -530.668,-163.133 -531.309,-163.133 -532.023,-163.133 Z M -523.041,-156.792 L -523.184,-156.792 C -523.681,-156.792 -523.753,-156.792 -523.753,-156.507 L -523.753,-155.083 L -523.753,-154.227 C -523.681,-154.156 -523.681,-154.156 -523.611,-154.085 L -523.397,-154.085 L -523.397,-154.724 L -523.397,-156.151 C -523.397,-156.436 -523.325,-156.436 -522.828,-156.436 L -522.756,-156.436 L -522.971,-156.721 C -522.971,-156.721 -522.971,-156.792 -523.041,-156.792 Z M -522.328,-161.139 C -522.471,-161.209 -522.685,-161.209 -522.828,-161.209 C -523.611,-161.209 -523.753,-161.209 -523.753,-160.64 L -523.753,-158.004 L -523.681,-158.004 C -523.54,-157.932 -523.468,-157.932 -523.397,-157.932 L -523.397,-160.283 C -523.397,-160.853 -523.255,-160.853 -522.541,-160.853 C -522.257,-160.853 -521.972,-160.853 -521.759,-160.781 C -521.829,-160.924 -522.043,-161.067 -522.328,-161.139 Z M -503.581,-152.588 C -503.011,-152.588 -502.513,-152.517 -501.728,-152.517 C -501.585,-152.588 -501.515,-152.873 -501.728,-153.016 L -502.013,-153.016 C -502.013,-152.945 -502.013,-152.873 -502.085,-152.873 L -503.939,-152.873 L -505.363,-152.873 C -505.363,-152.731 -505.363,-152.517 -505.292,-152.517 C -504.508,-152.517 -504.151,-152.588 -503.581,-152.588 Z M -528.957,-158.857 C -528.957,-158.359 -529.029,-157.719 -529.029,-157.076 C -529.029,-156.364 -528.957,-155.581 -528.957,-155.153 C -528.957,-155.083 -529.029,-155.083 -529.171,-155.083 L -529.1,-154.796 C -528.957,-154.653 -528.672,-154.653 -528.6,-154.796 C -528.6,-155.296 -528.672,-156.008 -528.672,-156.721 C -528.672,-157.504 -528.6,-158.288 -528.6,-158.787 C -528.6,-158.857 -528.743,-158.929 -528.957,-158.857 Z M -522.043,-152.517 C -521.829,-152.588 -521.829,-152.873 -521.972,-153.016 L -522.257,-153.088 C -522.257,-152.945 -522.328,-152.873 -522.328,-152.873 L -524.537,-152.873 L -526.32,-152.873 C -526.391,-152.731 -526.32,-152.517 -526.177,-152.517 C -525.464,-152.517 -524.823,-152.588 -524.181,-152.588 C -523.54,-152.588 -522.828,-152.517 -522.043,-152.517 Z M -529.812,-159.5 L -530.027,-158.716 C -530.099,-158.147 -530.312,-158.075 -530.525,-158.004 C -530.739,-157.932 -531.381,-157.86 -532.236,-157.86 L -533.591,-157.86 C -534.231,-157.86 -534.231,-157.86 -534.231,-158.429 L -534.231,-162.707 C -534.231,-163.417 -534.231,-163.489 -533.661,-163.489 L -532.449,-163.489 C -531.595,-163.489 -530.881,-163.489 -530.455,-163.347 C -529.456,-163.063 -529.243,-162.42 -529.029,-161.423 C -528.887,-161.352 -528.6,-161.423 -528.6,-161.495 L -528.6,-164.203 C -528.887,-164.131 -530.099,-164.131 -531.381,-164.131 L -535.088,-164.131 L -536.228,-164.131 C -536.655,-164.131 -537.012,-164.203 -537.44,-164.203 C -537.583,-164.131 -537.653,-163.775 -537.511,-163.704 L -537.153,-163.632 C -536.013,-163.489 -535.943,-163.205 -535.943,-161.067 L -535.943,-153.799 C -535.943,-151.733 -536.013,-151.448 -537.153,-151.305 L -537.653,-151.233 C -537.796,-151.092 -537.724,-150.735 -537.653,-150.735 L -535.088,-150.735 L -532.379,-150.735 C -532.236,-150.735 -532.236,-151.163 -532.307,-151.233 L -533.02,-151.305 C -534.231,-151.377 -534.231,-151.733 -534.231,-153.799 L -534.231,-156.649 C -534.231,-157.148 -534.231,-157.148 -533.591,-157.148 L -532.236,-157.148 C -531.453,-157.148 -530.953,-157.148 -530.668,-157.076 C -530.312,-156.935 -530.099,-156.649 -530.027,-156.292 L -529.812,-155.509 C -529.671,-155.367 -529.384,-155.367 -529.313,-155.509 C -529.313,-155.936 -529.384,-156.721 -529.384,-157.504 C -529.384,-158.217 -529.313,-159.001 -529.313,-159.5 C -529.384,-159.641 -529.741,-159.641 -529.812,-159.5 Z M -458.105,-150.735 C -459.816,-150.735 -460.815,-151.233 -462.24,-153.229 C -462.811,-154.013 -463.593,-155.439 -464.307,-156.364 C -464.307,-156.364 -464.307,-156.436 -464.377,-156.507 C -464.663,-156.792 -464.948,-157.005 -465.732,-157.005 C -466.588,-157.005 -466.659,-156.935 -466.659,-156.507 L -466.659,-154.512 C -466.659,-152.375 -466.588,-152.16 -465.447,-152.017 L -465.02,-151.876 C -464.877,-151.804 -464.948,-151.448 -465.02,-151.448 L -467.444,-151.448 L -469.939,-151.448 C -470.081,-151.448 -470.152,-151.804 -470.011,-151.876 L -469.511,-152.017 C -468.299,-152.089 -468.299,-152.375 -468.299,-154.512 L -468.299,-161.209 C -468.299,-163.133 -468.369,-163.489 -469.153,-163.632 L -469.867,-163.704 C -469.939,-163.775 -469.939,-164.131 -469.867,-164.203 C -468.727,-164.345 -467.3,-164.345 -465.305,-164.345 L -464.377,-164.345 C -463.451,-164.275 -462.668,-164.131 -461.955,-163.704 C -460.956,-163.276 -460.245,-162.348 -460.245,-160.924 C -460.245,-159.001 -461.741,-157.932 -462.74,-157.576 C -462.881,-157.433 -462.74,-157.219 -462.668,-157.076 C -461.028,-154.44 -459.959,-152.801 -458.604,-151.661 C -458.248,-151.377 -457.749,-151.163 -457.251,-151.092 C -457.108,-151.02 -457.108,-150.877 -457.179,-150.807 C -457.321,-150.735 -457.679,-150.735 -458.105,-150.735 Z M -462.097,-160.64 C -462.097,-161.993 -462.811,-163.276 -464.377,-163.632 C -464.663,-163.704 -464.948,-163.704 -465.305,-163.704 C -466.588,-163.704 -466.659,-163.632 -466.659,-163.063 L -466.659,-158.359 C -466.659,-157.932 -466.659,-157.789 -466.588,-157.648 C -466.517,-157.648 -466.232,-157.576 -465.163,-157.576 C -464.948,-157.576 -464.663,-157.576 -464.377,-157.648 C -463.88,-157.648 -463.451,-157.86 -463.095,-158.075 C -462.525,-158.573 -462.097,-159.215 -462.097,-160.64 Z M -516.769,-155.793 C -516.983,-156.364 -517.125,-156.935 -517.125,-157.576 C -517.125,-158.288 -516.983,-158.929 -516.769,-159.5 C -516.627,-159.784 -516.483,-159.999 -516.34,-160.283 C -515.913,-160.853 -515.415,-161.352 -514.701,-161.709 C -514.559,-161.851 -514.416,-161.923 -514.203,-161.993 C -513.916,-162.136 -513.561,-162.207 -513.276,-162.277 C -512.92,-162.348 -512.492,-162.42 -512.064,-162.42 C -511.636,-162.348 -511.208,-162.348 -510.852,-162.277 C -510.281,-162.207 -509.784,-161.993 -509.284,-161.709 C -508.643,-161.352 -508.144,-160.853 -507.787,-160.212 C -507.715,-160.141 -507.715,-160.069 -507.644,-160.069 C -507.288,-159.357 -507.145,-158.573 -507.145,-157.719 C -507.145,-156.864 -507.288,-156.08 -507.644,-155.439 C -507.715,-155.367 -507.715,-155.296 -507.787,-155.296 C -508.144,-154.653 -508.643,-154.156 -509.284,-153.728 C -509.784,-153.443 -510.281,-153.229 -510.852,-153.159 C -511.208,-153.016 -511.636,-152.945 -512.064,-152.945 C -512.492,-152.945 -512.92,-153.016 -513.276,-153.088 C -513.561,-153.159 -513.916,-153.229 -514.203,-153.371 C -514.416,-153.443 -514.559,-153.515 -514.701,-153.585 C -515.415,-153.943 -515.913,-154.44 -516.34,-155.011 C -516.483,-155.224 -516.627,-155.509 -516.769,-155.793 Z M -515.271,-157.932 C -515.271,-157.076 -515.128,-156.151 -514.701,-155.367 C -514.559,-155.083 -514.416,-154.796 -514.203,-154.583 C -513.916,-154.227 -513.632,-154.013 -513.276,-153.799 C -512.92,-153.656 -512.492,-153.585 -512.064,-153.585 L -511.992,-153.585 C -511.564,-153.585 -511.137,-153.656 -510.852,-153.799 C -510.209,-154.085 -509.64,-154.583 -509.284,-155.367 C -509.069,-155.865 -508.927,-156.579 -508.927,-157.433 C -508.927,-158.217 -509.069,-159.001 -509.284,-159.641 C -509.64,-160.425 -510.139,-161.139 -510.852,-161.495 C -511.208,-161.637 -511.636,-161.78 -512.064,-161.78 L -512.207,-161.78 C -512.563,-161.78 -512.92,-161.78 -513.276,-161.637 C -513.561,-161.495 -513.916,-161.352 -514.203,-161.067 C -514.416,-160.853 -514.559,-160.64 -514.701,-160.355 C -515.057,-159.784 -515.271,-159.001 -515.271,-157.932 Z M -518.764,-153.159 C -519.192,-153.159 -519.62,-153.3 -520.047,-153.515 C -520.404,-153.728 -520.832,-154.085 -521.259,-154.653 L -521.259,-154.724 C -521.401,-154.868 -521.544,-155.083 -521.687,-155.296 C -522.043,-155.793 -522.399,-156.436 -522.756,-156.864 C -522.899,-157.076 -523.255,-157.219 -523.54,-157.219 C -523.753,-157.219 -523.968,-157.219 -524.04,-157.148 C -524.111,-157.076 -524.111,-157.005 -524.111,-156.864 L -524.111,-155.439 C -524.111,-154.796 -524.111,-154.44 -524.04,-154.227 C -523.896,-153.943 -523.681,-153.871 -523.184,-153.799 L -522.685,-153.728 C -522.541,-153.656 -522.613,-153.229 -522.756,-153.229 L -524.04,-153.229 L -524.893,-153.229 L -526.889,-153.229 C -527.104,-153.229 -527.104,-153.656 -526.961,-153.728 L -526.676,-153.799 C -525.749,-153.943 -525.679,-154.013 -525.679,-155.439 L -525.679,-159.713 C -525.679,-161.067 -525.679,-161.423 -526.177,-161.423 L -526.748,-161.495 C -526.889,-161.565 -526.961,-161.993 -526.748,-162.064 C -525.82,-162.136 -524.893,-162.136 -524.04,-162.207 L -523.397,-162.207 C -522.828,-162.207 -522.257,-162.136 -521.687,-162.064 C -521.544,-161.993 -521.401,-161.993 -521.259,-161.993 C -520.76,-161.851 -520.333,-161.637 -520.047,-161.352 C -519.62,-160.995 -519.405,-160.425 -519.405,-159.713 C -519.405,-159.072 -519.691,-158.573 -520.047,-158.288 C -520.333,-157.932 -520.832,-157.719 -521.187,-157.576 C -521.259,-157.504 -521.259,-157.361 -521.187,-157.219 C -520.76,-156.507 -520.404,-155.936 -520.047,-155.509 C -519.549,-154.868 -519.121,-154.44 -518.764,-154.085 C -518.692,-154.085 -518.692,-154.013 -518.621,-154.013 C -518.408,-153.799 -518.195,-153.656 -517.909,-153.656 C -517.837,-153.585 -517.695,-153.585 -517.552,-153.515 C -517.48,-153.443 -517.48,-153.3 -517.552,-153.229 C -517.623,-153.229 -517.767,-153.159 -517.909,-153.159 L -518.408,-153.159 Z M -521.259,-158.644 C -521.187,-158.929 -521.045,-159.215 -521.045,-159.713 C -521.045,-159.999 -521.187,-160.283 -521.259,-160.569 C -521.329,-160.781 -521.544,-160.924 -521.687,-161.067 C -522.043,-161.423 -522.541,-161.565 -523.255,-161.565 C -523.681,-161.565 -523.896,-161.565 -524.04,-161.423 C -524.111,-161.352 -524.111,-161.209 -524.111,-161.067 L -524.111,-158.288 C -524.111,-158.004 -524.111,-157.86 -524.04,-157.789 C -523.896,-157.719 -523.681,-157.719 -523.112,-157.719 C -522.541,-157.719 -522.043,-157.86 -521.687,-158.075 C -521.544,-158.217 -521.329,-158.429 -521.259,-158.644 Z M -484.621,-153.799 L -484.977,-153.728 C -485.12,-153.656 -485.12,-153.229 -484.977,-153.229 L -482.84,-153.229 L -480.844,-153.229 C -480.629,-153.229 -480.629,-153.656 -480.772,-153.728 L -481.129,-153.799 C -481.984,-153.943 -482.056,-154.013 -482.056,-155.439 L -482.056,-159.999 C -482.056,-161.352 -481.984,-161.423 -481.129,-161.637 L -480.772,-161.637 C -480.629,-161.78 -480.629,-162.136 -480.844,-162.207 C -481.628,-162.136 -482.199,-162.136 -482.84,-162.136 C -483.552,-162.136 -484.195,-162.136 -484.977,-162.207 C -485.12,-162.136 -485.12,-161.78 -484.977,-161.637 L -484.621,-161.637 C -483.695,-161.423 -483.624,-161.352 -483.624,-159.999 L -483.624,-155.439 C -483.624,-154.013 -483.695,-153.943 -484.621,-153.799 Z M -524.04,-166.481 L -540.289,-166.481 C -540.433,-166.481 -540.576,-166.624 -540.576,-166.768 C -540.576,-166.909 -540.433,-167.052 -540.289,-167.052 L -524.04,-167.052 L -521.687,-167.052 L -521.259,-167.052 L -520.047,-167.052 L -518.764,-167.052 L -517.909,-167.052 L -517.339,-167.052 C -517.552,-167.123 -517.767,-167.195 -517.909,-167.265 C -518.195,-167.408 -518.479,-167.551 -518.764,-167.693 C -519.192,-167.907 -519.62,-168.192 -520.047,-168.476 C -520.476,-168.833 -520.903,-169.261 -521.259,-169.688 C -521.401,-169.901 -521.544,-170.044 -521.687,-170.259 C -522.115,-170.829 -522.399,-171.399 -522.685,-172.111 L -522.756,-172.253 C -523.112,-172.111 -523.397,-172.04 -523.825,-171.969 C -523.896,-171.897 -523.968,-171.897 -524.04,-171.897 L -524.467,-171.897 C -524.537,-171.827 -524.609,-171.755 -524.752,-171.755 C -524.893,-171.755 -525.036,-171.827 -525.108,-171.897 L -525.393,-171.897 C -525.679,-171.897 -525.964,-171.969 -525.964,-172.111 C -525.964,-172.183 -525.679,-172.324 -525.393,-172.324 L -525.18,-172.324 C -525.108,-172.467 -524.965,-172.609 -524.752,-172.609 C -524.537,-172.609 -524.396,-172.467 -524.324,-172.253 C -524.253,-172.253 -524.111,-172.253 -524.04,-172.324 L -523.968,-172.324 C -523.54,-172.324 -523.184,-172.467 -522.899,-172.609 C -523.112,-173.393 -523.255,-174.248 -523.255,-175.175 C -523.255,-176.6 -522.899,-178.025 -522.257,-179.236 L -523.468,-183.653 L -524.04,-183.583 L -524.253,-183.583 L -524.324,-183.939 L -524.04,-183.939 L -523.896,-183.939 C -523.896,-183.939 -523.896,-184.153 -524.04,-184.367 C -524.04,-184.509 -524.111,-184.58 -524.181,-184.793 C -524.253,-185.007 -524.324,-185.149 -524.396,-185.292 C -525.323,-187.5 -526.32,-188.783 -527.388,-189.068 L -527.388,-189.283 L -526.535,-189.283 C -526.961,-189.639 -526.819,-190.28 -526.819,-190.493 C -526.035,-190.636 -525.464,-190.493 -524.324,-190.209 C -524.04,-190.351 -525.82,-190.993 -526.819,-190.921 C -526.889,-192.061 -526.961,-195.196 -525.18,-196.265 C -524.752,-196.549 -524.752,-196.977 -524.893,-197.405 C -524.752,-197.405 -524.609,-197.405 -524.537,-197.335 L -524.467,-197.619 L -525.036,-197.761 C -525.464,-197.904 -525.251,-198.117 -525.036,-198.189 L -524.396,-198.189 C -524.324,-198.332 -524.253,-198.616 -524.04,-198.759 C -523.753,-198.972 -523.468,-199.043 -522.899,-198.829 C -522.328,-198.616 -522.115,-198.26 -522.257,-197.547 C -521.972,-197.476 -521.759,-197.335 -521.687,-197.192 C -521.544,-197.12 -521.544,-197.049 -521.687,-196.977 L -521.829,-196.977 L -522.541,-197.192 L -522.613,-196.907 L -522.613,-196.336 L -522.828,-196.407 L -523.112,-195.839 C -522.971,-195.695 -522.899,-195.695 -522.756,-195.624 C -522.971,-195.124 -523.184,-194.555 -523.255,-194.056 C -523.041,-194.271 -522.899,-194.627 -522.685,-195.053 C -522.399,-194.699 -522.541,-194.341 -522.828,-193.913 C -522.971,-193.273 -522.685,-192.631 -522.613,-192.133 C -522.541,-191.989 -522.043,-192.133 -521.687,-192.204 C -521.473,-192.276 -521.329,-192.276 -521.329,-192.204 L -521.259,-192.204 C -520.903,-192.276 -520.333,-192.204 -520.047,-192.061 L -519.904,-192.061 C -519.691,-192.061 -519.264,-192.133 -518.764,-192.133 C -518.479,-192.133 -518.265,-192.133 -517.909,-192.204 L -517.125,-192.204 C -517.053,-192.204 -516.911,-192.204 -516.769,-192.276 L -516.34,-192.276 C -515.843,-192.276 -515.271,-192.417 -514.701,-192.417 C -514.559,-192.488 -514.416,-192.488 -514.203,-192.488 C -513.916,-192.559 -513.561,-192.559 -513.276,-192.631 C -513.133,-192.703 -512.991,-192.703 -512.92,-192.703 C -512.563,-192.773 -512.349,-192.845 -512.064,-192.845 L -511.921,-192.845 C -511.992,-192.845 -511.992,-192.916 -511.992,-192.916 C -511.992,-192.987 -511.921,-193.059 -511.708,-193.201 C -511.708,-193.487 -511.421,-193.771 -511.067,-193.771 L -510.852,-193.771 C -510.568,-193.629 -510.424,-193.415 -510.424,-193.201 C -510.281,-193.059 -510.209,-192.987 -510.209,-192.916 C -510.209,-192.845 -510.209,-192.845 -510.281,-192.773 C -509.927,-192.631 -509.64,-192.488 -509.284,-192.347 C -508.785,-192.133 -508.285,-191.919 -507.787,-191.705 L -507.644,-191.633 C -504.865,-190.421 -502.013,-189.425 -499.163,-188.571 C -498.879,-188.428 -498.592,-188.356 -498.307,-188.285 C -498.021,-188.641 -497.737,-188.925 -497.38,-189.212 C -497.096,-189.353 -496.809,-189.496 -496.525,-189.639 C -496.24,-189.711 -496.025,-189.781 -495.741,-189.781 C -495.599,-189.781 -495.456,-189.852 -495.243,-189.852 C -494.316,-189.924 -493.317,-189.568 -492.533,-188.571 C -492.105,-188.072 -491.892,-187.429 -491.963,-186.717 C -491.679,-186.717 -491.393,-186.647 -491.107,-186.575 C -489.683,-186.289 -488.328,-186.076 -486.903,-185.863 C -486.403,-185.791 -485.976,-185.791 -485.548,-185.72 C -485.691,-186.219 -485.619,-186.788 -485.335,-187.288 C -485.335,-186.432 -483.624,-185.935 -482.911,-187.217 C -482.412,-188.143 -482.269,-188.143 -481.841,-188.285 C -483.053,-188.356 -482.911,-187.003 -483.98,-186.931 C -483.837,-187.288 -483.837,-187.785 -484.123,-188.143 C -484.836,-189.353 -483.765,-190.28 -483.765,-190.28 C -483.765,-190.28 -483.98,-189.212 -482.983,-189.14 C -482.056,-189.068 -480.844,-192.347 -476.495,-192.061 L -476.14,-192.061 C -475.212,-191.919 -474.571,-191.277 -474.287,-191.064 C -473.716,-191.348 -473.645,-191.919 -473.217,-191.777 C -473.145,-191.705 -473.359,-190.851 -473.645,-190.209 C -473.645,-190.209 -473.573,-190.137 -473.573,-190.065 C -473.217,-188.428 -473.431,-186.86 -473.217,-184.437 C -473.573,-184.009 -474.072,-183.939 -474.785,-184.224 C -474.857,-184.295 -474.857,-184.437 -474.928,-184.509 C -475.355,-184.509 -475.925,-184.437 -476.495,-184.295 C -476.852,-184.295 -477.28,-184.295 -477.635,-184.224 C -477.564,-183.653 -477.493,-183.227 -477.28,-183.012 C -476.995,-182.513 -476.709,-181.944 -476.495,-181.301 C -476.281,-180.304 -476.281,-179.307 -476.495,-178.239 L -473.503,-177.811 C -472.647,-177.028 -471.863,-176.029 -471.079,-175.032 C -471.079,-173.749 -471.364,-172.253 -471.648,-171.041 C -471.648,-171.041 -471.72,-170.971 -471.935,-171.112 C -473.217,-172.253 -472.576,-172.967 -472.291,-173.323 C -472.931,-173.964 -472.148,-175.245 -472.576,-175.816 C -473.503,-176.813 -475.069,-176.743 -476.495,-176.6 C -477.065,-176.528 -477.564,-176.457 -477.993,-176.385 L -479.489,-176.243 C -479.632,-175.46 -480.131,-174.605 -480.987,-173.535 C -481.413,-172.537 -481.841,-170.971 -482.199,-168.833 C -481.7,-167.907 -481.413,-167.337 -481.341,-167.052 L -476.495,-167.052 L -464.377,-167.052 L -457.607,-167.052 C -457.464,-167.052 -457.321,-166.909 -457.321,-166.768 C -457.321,-166.624 -457.464,-166.481 -457.607,-166.481 L -464.377,-166.481 L -476.495,-166.481 L -486.903,-166.481 L -491.107,-166.481 L -495.243,-166.481 L -496.525,-166.481 L -497.38,-166.481 L -498.307,-166.481 L -499.163,-166.481 L -507.644,-166.481 L -507.787,-166.481 L -509.284,-166.481 L -510.852,-166.481 L -512.064,-166.481 L -513.276,-166.481 L -514.203,-166.481 L -514.701,-166.481 L -516.34,-166.481 L -516.769,-166.481 L -517.125,-166.481 L -517.909,-166.481 L -518.764,-166.481 L -520.047,-166.481 L -521.259,-166.481 L -521.687,-166.481 Z M -477.707,-185.221 C -477.28,-185.292 -476.852,-185.292 -476.495,-185.292 C -475.997,-185.292 -475.641,-185.363 -475.355,-185.363 C -475.497,-185.577 -475.641,-185.791 -475.712,-185.863 C -476.14,-185.935 -476.281,-186.36 -476.495,-186.788 C -476.709,-187.145 -476.781,-187.5 -477.065,-187.715 C -477.564,-187.075 -477.707,-186.147 -477.707,-185.221 Z M -512.991,-167.907 L -513.276,-168.904 L -514.203,-172.111 L -514.701,-173.749 L -514.844,-173.749 L -516.34,-168.548 L -516.555,-167.907 L -516.34,-167.907 C -515.843,-167.765 -515.271,-167.693 -514.701,-167.693 L -514.203,-167.693 C -513.916,-167.765 -513.561,-167.765 -513.276,-167.836 C -513.204,-167.907 -513.063,-167.907 -512.991,-167.907 Z M -520.76,-175.601 C -520.903,-174.889 -521.045,-174.248 -521.259,-173.749 C -521.329,-173.677 -521.329,-173.677 -521.329,-173.535 L -521.259,-173.607 L -520.047,-173.964 L -518.764,-174.32 L -517.909,-174.533 L -517.125,-174.819 L -516.769,-174.889 L -516.34,-175.032 L -516.197,-175.103 L -516.197,-175.245 L -516.34,-175.245 L -516.769,-175.389 L -517.125,-175.531 L -517.909,-175.745 L -518.764,-175.959 L -520.047,-176.385 L -520.404,-176.457 L -520.404,-176.315 C -520.119,-175.959 -520.333,-175.673 -520.76,-175.601 Z M -520.404,-176.885 L -520.047,-176.813 L -518.764,-176.457 L -517.909,-176.315 L -517.125,-176.1 L -516.84,-176.029 L -517.125,-176.315 L -517.909,-177.099 L -518.764,-177.953 L -519.335,-178.452 L -520.047,-178.452 L -520.617,-178.452 L -520.617,-177.383 C -520.476,-177.241 -520.404,-177.099 -520.404,-176.885 Z M -515.485,-176.385 L -515.415,-176.457 L -516.34,-180.304 L -516.697,-181.729 L -516.769,-181.944 L -516.84,-182.3 C -516.911,-182.3 -517.053,-182.3 -517.125,-182.229 C -517.196,-182.229 -517.339,-182.157 -517.409,-182.087 L -517.409,-181.729 L -517.196,-181.729 L -517.125,-181.516 L -516.769,-180.233 L -516.34,-178.951 Z M -517.409,-187.5 L -517.409,-183.297 C -517.339,-183.297 -517.196,-183.297 -517.125,-183.369 C -516.983,-183.369 -516.84,-183.44 -516.769,-183.44 C -516.627,-183.511 -516.483,-183.511 -516.34,-183.583 C -515.771,-183.653 -515.271,-183.653 -514.701,-183.653 L -514.203,-183.653 C -513.916,-183.653 -513.561,-183.583 -513.276,-183.583 C -513.133,-183.583 -513.063,-183.511 -512.92,-183.511 L -512.92,-187.5 L -513.276,-187.5 L -514.203,-187.5 L -514.701,-187.5 L -516.34,-187.5 L -516.769,-187.5 L -517.125,-187.5 Z M -517.125,-188.285 L -516.769,-188.285 L -516.34,-188.285 L -514.701,-188.285 L -514.203,-188.285 L -513.276,-188.285 L -512.92,-188.285 L -512.92,-188.853 C -512.92,-188.853 -513.063,-188.853 -513.276,-188.925 C -513.491,-188.997 -513.845,-188.997 -514.203,-189.068 L -514.701,-189.068 L -516.34,-189.068 C -516.483,-188.997 -516.627,-188.997 -516.769,-188.997 C -516.84,-188.925 -516.983,-188.925 -517.125,-188.925 C -517.196,-188.925 -517.339,-188.853 -517.409,-188.853 L -517.409,-188.285 Z M -513.632,-181.729 L -514.203,-179.307 L -514.701,-176.885 L -514.773,-176.6 L -514.701,-176.6 L -514.631,-176.6 L -514.203,-178.167 L -513.276,-181.445 L -513.204,-181.729 L -512.991,-182.371 C -513.063,-182.441 -513.204,-182.441 -513.276,-182.513 C -513.561,-182.513 -513.916,-182.585 -514.203,-182.585 L -514.701,-182.585 C -515.271,-182.585 -515.843,-182.585 -516.34,-182.441 C -516.412,-182.441 -516.483,-182.441 -516.555,-182.371 L -516.34,-181.801 L -516.34,-181.729 L -514.701,-181.729 L -514.203,-181.729 Z M -512.064,-168.192 C -511.636,-168.335 -511.208,-168.548 -510.852,-168.833 C -510.424,-169.119 -509.927,-169.404 -509.569,-169.831 L -510.852,-170.971 L -512.064,-172.111 L -513.276,-173.252 L -513.988,-173.964 L -514.06,-173.964 L -513.276,-170.472 L -512.633,-167.979 C -512.42,-168.049 -512.207,-168.121 -512.064,-168.192 Z M -508.856,-177.383 L -509.284,-177.241 L -510.852,-176.813 L -512.064,-176.457 L -513.276,-176.029 L -513.491,-175.959 L -513.419,-175.888 L -513.276,-175.888 L -512.064,-176.172 L -510.852,-176.528 L -509.284,-176.885 L -508.572,-177.028 L -507.787,-177.169 L -507.644,-177.241 L -507.573,-177.241 C -507.573,-177.383 -507.644,-177.455 -507.644,-177.527 C -507.715,-177.668 -507.715,-177.739 -507.787,-177.811 C -508.144,-178.736 -508.643,-179.593 -509.284,-180.233 L -509.356,-180.304 L -510.424,-179.164 L -510.424,-179.093 L -509.284,-177.883 Z M -507.644,-176.885 L -507.787,-176.885 L -508.215,-176.743 L -507.787,-176.172 L -507.644,-176.1 L -507.288,-175.673 C -507.288,-176.1 -507.432,-176.528 -507.503,-176.885 Z M -513.491,-174.533 C -513.491,-174.463 -513.561,-174.392 -513.561,-174.392 L -513.276,-174.105 L -512.064,-172.824 L -510.852,-171.54 L -509.356,-169.973 L -509.284,-170.044 C -508.643,-170.757 -508.144,-171.54 -507.787,-172.467 L -509.284,-172.467 L -510.852,-172.467 L -512.064,-173.607 L -512.776,-174.32 L -513.276,-174.463 Z M -482.199,-176.029 C -482.483,-175.816 -485.619,-175.673 -486.689,-176.1 L -486.903,-176.172 C -488.613,-176.6 -489.896,-176.671 -489.896,-176.671 L -491.107,-175.601 L -491.251,-175.46 C -491.679,-175.032 -491.679,-174.747 -491.321,-174.463 L -491.107,-174.32 C -490.609,-173.964 -489.753,-173.393 -489.325,-173.037 C -488.899,-172.68 -488.899,-172.324 -489.041,-172.04 L -489.824,-169.261 L -490.893,-170.971 C -490.467,-171.399 -489.753,-171.969 -489.683,-172.396 C -489.611,-172.609 -490.537,-172.967 -491.107,-173.18 C -491.179,-173.252 -491.251,-173.252 -491.321,-173.323 L -493.888,-174.248 C -494.387,-173.892 -494.885,-173.464 -495.243,-172.895 C -495.741,-172.396 -496.097,-171.827 -496.525,-171.112 C -496.597,-170.971 -496.668,-170.757 -496.809,-170.543 C -496.952,-169.333 -497.024,-168.548 -497.024,-168.192 L -496.525,-167.408 L -496.383,-167.265 L -496.383,-167.052 L -495.243,-167.052 L -491.107,-167.052 L -486.903,-167.052 L -482.911,-167.052 L -482.983,-167.479 L -482.768,-168.264 C -482.768,-168.763 -482.911,-168.975 -483.268,-169.047 C -482.553,-171.969 -482.483,-172.68 -482.269,-173.323 C -482.199,-175.389 -482.199,-175.959 -482.199,-176.029 Z M -479.845,-179.593 C -481.129,-180.091 -482.056,-180.161 -482.983,-180.02 C -483.908,-179.877 -484.764,-179.593 -485.904,-179.307 C -486.189,-179.236 -486.547,-179.093 -486.903,-179.023 C -488.328,-178.736 -489.824,-178.524 -491.107,-178.381 C -492.391,-178.239 -493.389,-178.239 -493.603,-178.239 C -494.173,-178.239 -494.885,-178.096 -495.243,-177.953 C -495.385,-177.953 -495.456,-177.883 -495.456,-177.883 C -495.884,-177.668 -496.24,-177.527 -496.525,-177.169 C -496.809,-176.743 -497.096,-176.243 -497.38,-175.601 C -497.452,-175.46 -497.523,-175.317 -497.595,-175.175 C -497.808,-174.605 -498.093,-174.248 -498.307,-173.821 C -498.592,-173.464 -498.879,-173.18 -499.163,-172.967 C -499.591,-172.537 -500.089,-172.467 -500.516,-172.467 L -506.647,-172.467 C -506.861,-171.684 -507.217,-171.041 -507.644,-170.401 L -507.787,-170.259 C -508.215,-169.617 -508.715,-169.119 -509.284,-168.619 C -509.784,-168.192 -510.281,-167.907 -510.852,-167.551 C -511.208,-167.408 -511.636,-167.265 -512.064,-167.052 L -510.852,-167.052 L -509.284,-167.052 L -507.787,-167.052 L -507.644,-167.052 L -499.163,-167.052 L -498.307,-167.052 L -497.951,-167.052 L -497.808,-167.693 L -498.236,-168.619 C -498.021,-169.261 -497.667,-170.187 -497.38,-171.112 C -497.096,-172.04 -496.881,-172.967 -496.809,-173.464 C -496.809,-174.035 -496.739,-174.463 -496.525,-174.676 C -496.383,-174.819 -496.312,-174.819 -496.24,-174.889 C -495.812,-175.103 -495.527,-175.245 -495.243,-175.531 C -495.1,-175.673 -494.885,-175.888 -494.672,-176.029 L -494.813,-177.169 C -494.885,-177.169 -495.028,-177.312 -495.171,-177.455 C -494.885,-177.597 -494.457,-177.668 -493.816,-177.739 C -493.531,-177.739 -492.461,-177.811 -491.107,-178.025 C -489.824,-178.167 -488.328,-178.381 -486.903,-178.736 C -486.617,-178.808 -486.332,-178.88 -486.047,-178.951 C -484.907,-179.236 -483.98,-179.521 -483.124,-179.664 C -482.199,-179.805 -481.341,-179.735 -480.131,-179.236 C -479.419,-178.951 -478.989,-178.665 -478.989,-178.665 C -478.82,-178.552 -478.52,-178.799 -478.437,-179.012 C -478.432,-179.016 -478.425,-179.017 -478.42,-179.023 L -478.42,-179.061 C -478.424,-179.047 -478.431,-179.028 -478.437,-179.012 C -478.513,-178.953 -478.639,-178.951 -478.705,-178.951 C -478.705,-178.951 -479.204,-179.307 -479.845,-179.593 Z M -500.516,-172.895 C -500.161,-172.895 -499.661,-173.037 -499.163,-173.535 C -498.879,-173.821 -498.592,-174.177 -498.307,-174.676 C -498.164,-174.889 -498.093,-175.103 -497.951,-175.317 C -497.808,-175.816 -497.595,-176.243 -497.38,-176.6 C -497.096,-177.099 -496.809,-177.455 -496.525,-177.811 C -496.312,-177.953 -496.097,-178.096 -495.884,-178.167 L -496.525,-178.167 L -497.38,-178.167 L -498.307,-178.167 L -499.163,-178.167 C -500.089,-178.239 -500.803,-178.239 -500.803,-178.239 L -500.803,-173.252 L -500.803,-172.967 L -500.803,-172.895 Z M -492.605,-185.435 C -492.105,-185.363 -491.536,-185.221 -491.107,-185.149 C -489.255,-184.936 -487.901,-184.793 -486.903,-184.723 C -485.976,-184.652 -485.407,-184.652 -485.12,-184.652 C -484.693,-184.793 -484.479,-184.652 -484.479,-184.652 C -484.123,-184.509 -483.481,-184.295 -482.911,-184.864 C -482.056,-185.791 -481.628,-186.005 -481.2,-186.005 C -481.413,-186.147 -482.056,-186.36 -483.339,-185.007 C -483.908,-184.437 -484.621,-184.723 -484.764,-184.793 C -484.836,-184.793 -484.977,-184.864 -485.048,-185.007 C -485.619,-185.079 -486.26,-185.149 -486.903,-185.221 C -488.185,-185.435 -489.611,-185.649 -491.107,-186.005 C -491.464,-186.076 -491.821,-186.147 -492.177,-186.219 C -492.248,-185.935 -492.391,-185.649 -492.605,-185.435 Z M -494.103,-183.227 C -493.175,-183.583 -492.177,-183.724 -491.107,-183.653 C -490.537,-183.583 -489.967,-183.511 -489.397,-183.369 C -488.613,-183.155 -487.757,-183.084 -486.903,-183.084 C -486.475,-183.155 -486.119,-183.155 -485.833,-183.227 L -485.335,-179.805 C -485.048,-179.877 -484.836,-179.948 -484.551,-180.02 L -485.12,-183.297 C -484.907,-183.369 -484.764,-183.369 -484.551,-183.44 C -485.192,-184.224 -486.332,-183.795 -486.332,-183.795 C -486.332,-183.867 -486.26,-184.009 -486.189,-184.081 L -486.617,-184.153 L -486.903,-184.153 C -488.257,-184.224 -489.683,-184.367 -491.107,-184.652 C -491.749,-184.723 -492.391,-184.864 -493.032,-185.007 C -493.032,-184.864 -493.175,-184.864 -493.175,-184.793 C -493.531,-184.509 -494.103,-183.795 -494.103,-183.227 Z M -496.24,-186.219 L -495.243,-185.935 C -495.028,-185.935 -494.813,-185.863 -494.529,-185.791 C -494.6,-186.219 -494.885,-186.504 -495.243,-186.575 C -495.669,-186.647 -496.025,-186.504 -496.24,-186.219 Z M -509.64,-192.204 C -509.497,-192.133 -509.427,-192.061 -509.284,-191.989 C -508.785,-191.633 -508.285,-191.348 -507.787,-191.064 L -507.644,-190.993 C -504.936,-189.353 -502.085,-188.072 -499.163,-187.075 C -498.949,-187.003 -498.807,-186.931 -498.664,-186.931 C -498.664,-187.288 -498.592,-187.572 -498.449,-187.928 C -498.664,-188 -498.949,-188.072 -499.163,-188.143 C -501.871,-188.997 -504.723,-190.065 -507.644,-191.348 L -507.787,-191.348 C -508.285,-191.633 -508.785,-191.848 -509.284,-192.061 Z M -507.573,-190.493 C -507.573,-190.493 -507.573,-190.421 -507.644,-190.421 C -507.715,-190.421 -507.715,-190.351 -507.787,-190.351 C -508.072,-190.137 -508.643,-189.639 -509.284,-188.571 C -509.497,-188.215 -509.712,-187.857 -509.927,-187.359 C -510.353,-186.147 -510.709,-184.864 -510.852,-183.795 C -510.852,-183.44 -510.924,-183.084 -510.995,-182.799 C -510.924,-182.799 -510.852,-182.799 -510.852,-182.727 C -510.281,-182.441 -509.784,-182.087 -509.284,-181.729 C -508.715,-181.231 -508.215,-180.661 -507.787,-180.091 L -507.644,-179.948 C -506.717,-178.595 -506.22,-176.957 -506.22,-175.175 C -506.22,-174.961 -506.22,-174.747 -506.291,-174.533 L -505.292,-173.535 L -501.943,-173.535 L -501.943,-182.585 C -502.085,-182.585 -502.227,-182.727 -502.227,-182.869 C -502.227,-183.012 -502.013,-183.155 -501.943,-183.155 L -501.728,-183.155 C -501.8,-183.155 -501.8,-183.724 -501.8,-183.867 C -501.8,-183.939 -501.728,-184.009 -501.515,-184.009 L -501.515,-184.224 C -501.515,-184.367 -501.444,-184.509 -501.301,-184.509 C -501.159,-184.509 -501.087,-184.367 -501.087,-184.224 C -501.087,-184.153 -501.087,-184.081 -501.159,-184.009 L -501.087,-184.009 C -500.944,-184.009 -500.803,-183.939 -500.803,-183.867 C -500.803,-183.724 -500.803,-183.155 -500.873,-183.155 L -500.731,-183.155 C -500.588,-183.155 -500.445,-183.012 -500.445,-182.869 C -500.445,-182.727 -500.588,-182.585 -500.731,-182.585 L -500.803,-182.585 L -500.803,-178.808 L -499.163,-178.808 L -498.307,-178.808 L -497.38,-178.808 L -496.525,-178.808 L -495.955,-178.808 C -496.312,-180.02 -495.955,-181.301 -495.243,-182.157 L -495.243,-182.229 C -495.243,-182.3 -495.171,-182.371 -495.1,-182.441 C -495.171,-182.585 -495.243,-182.799 -495.243,-183.155 C -495.315,-183.297 -495.315,-183.369 -495.243,-183.511 C -495.243,-183.939 -495.1,-184.437 -494.813,-185.007 C -494.672,-185.149 -494.672,-185.221 -494.6,-185.292 C -494.885,-185.363 -495.1,-185.435 -495.243,-185.507 C -495.669,-185.577 -496.025,-185.649 -496.455,-185.791 C -496.597,-185.149 -495.955,-184.437 -496.525,-183.084 C -496.525,-183.012 -496.597,-182.941 -496.597,-182.869 C -496.809,-182.441 -497.024,-182.157 -497.38,-182.016 C -497.667,-181.872 -498.021,-181.801 -498.307,-181.729 C -498.592,-181.729 -498.949,-181.801 -499.163,-181.944 C -499.163,-181.944 -499.233,-181.944 -499.233,-182.016 C -500.303,-182.869 -499.875,-184.437 -499.875,-184.437 C -499.875,-184.437 -499.591,-183.724 -499.163,-183.44 C -498.949,-183.297 -498.664,-183.227 -498.449,-183.369 C -498.379,-183.369 -498.379,-183.369 -498.307,-183.44 C -497.808,-183.724 -497.523,-184.437 -498.093,-185.292 C -498.164,-185.363 -498.236,-185.507 -498.307,-185.577 C -498.449,-185.863 -498.592,-186.147 -498.664,-186.504 C -498.807,-186.575 -498.949,-186.575 -499.163,-186.647 C -501.943,-187.644 -504.865,-188.997 -507.644,-190.708 L -507.787,-190.78 C -508.285,-191.064 -508.785,-191.419 -509.284,-191.705 C -509.497,-191.848 -509.712,-191.989 -509.927,-192.133 L -509.997,-191.419 C -509.784,-191.348 -509.569,-191.348 -509.284,-191.277 C -508.856,-191.064 -508.357,-190.851 -507.787,-190.565 L -507.644,-190.493 Z M -511.137,-190.636 L -510.852,-190.636 L -510.639,-190.636 C -510.639,-190.636 -509.927,-191.419 -510.568,-192.204 L -510.852,-192.204 L -511.137,-192.204 C -511.564,-191.348 -511.137,-190.636 -511.137,-190.636 Z M -512.064,-178.665 L -513.276,-177.312 L -514.06,-176.457 L -513.916,-176.457 L -513.276,-177.028 L -512.064,-178.239 L -510.852,-179.379 L -510.709,-179.521 L -509.569,-180.591 C -509.927,-180.947 -510.424,-181.231 -510.852,-181.516 C -510.852,-181.588 -510.995,-181.659 -511.067,-181.659 C -511.067,-180.875 -511.067,-180.376 -510.852,-179.948 Z M -521.544,-190.421 C -521.544,-190.421 -521.401,-190.351 -521.259,-190.209 C -521.045,-189.995 -520.617,-189.496 -520.476,-189.068 C -520.476,-189.068 -520.832,-185.507 -520.189,-183.795 L -520.047,-183.795 C -519.904,-183.795 -519.833,-183.867 -519.833,-183.867 L -520.047,-186.076 L -520.333,-189.995 C -520.333,-189.995 -520.189,-190.065 -520.047,-190.137 C -519.761,-190.28 -519.335,-190.421 -518.764,-190.565 C -518.479,-190.708 -518.265,-190.78 -517.909,-190.851 C -517.695,-190.921 -517.409,-190.993 -517.125,-191.064 C -517.053,-191.135 -516.911,-191.135 -516.769,-191.135 C -516.627,-191.205 -516.483,-191.205 -516.34,-191.277 C -515.843,-191.348 -515.271,-191.419 -514.701,-191.491 C -514.559,-191.491 -514.416,-191.563 -514.203,-191.563 C -513.916,-191.633 -513.561,-191.633 -513.276,-191.633 L -512.064,-191.633 L -512.064,-192.276 L -512.064,-192.347 C -511.992,-192.347 -511.851,-192.488 -511.708,-192.559 C -511.851,-192.488 -511.921,-192.488 -512.064,-192.488 C -512.42,-192.347 -512.848,-192.276 -513.276,-192.204 C -513.561,-192.133 -513.916,-192.061 -514.203,-191.989 C -514.416,-191.989 -514.559,-191.919 -514.701,-191.919 C -515.271,-191.848 -515.843,-191.777 -516.34,-191.705 L -516.769,-191.705 L -517.125,-191.705 C -517.409,-191.633 -517.695,-191.633 -517.909,-191.633 L -518.764,-191.633 L -519.904,-191.633 C -519.904,-191.563 -519.904,-191.419 -520.047,-191.277 L -520.189,-191.135 C -520.261,-191.064 -520.617,-191.064 -520.76,-191.135 C -520.76,-190.993 -520.832,-190.851 -520.903,-190.78 C -520.973,-190.708 -521.187,-190.636 -521.259,-190.565 C -521.473,-190.493 -521.544,-190.421 -521.544,-190.421 Z M -521.901,-177.241 L -521.687,-177.169 L -521.329,-177.099 C -521.329,-177.169 -521.259,-177.169 -521.259,-177.241 C -521.259,-177.312 -521.259,-177.312 -521.187,-177.383 L -521.187,-178.452 L -521.259,-178.452 L -521.401,-178.452 C -521.544,-178.311 -521.616,-178.096 -521.687,-177.883 C -521.759,-177.668 -521.829,-177.455 -521.901,-177.241 Z M -521.972,-173.393 L -521.759,-173.464 C -521.759,-173.464 -521.759,-173.535 -521.687,-173.607 C -521.473,-173.892 -521.329,-174.248 -521.259,-174.676 C -521.259,-174.961 -521.187,-175.245 -521.187,-175.601 L -521.259,-175.673 C -521.616,-175.816 -521.687,-176.029 -521.473,-176.315 L -521.473,-176.813 L -521.687,-176.813 L -521.972,-176.885 C -522.115,-176.385 -522.185,-175.745 -522.185,-175.175 C -522.185,-174.533 -522.115,-173.964 -521.972,-173.393 Z M -520.047,-170.116 L -518.764,-171.399 L -517.909,-172.253 L -517.125,-173.108 L -516.769,-173.535 L -516.34,-173.964 L -515.913,-174.392 C -515.984,-174.392 -515.984,-174.463 -515.984,-174.533 L -516.34,-174.392 L -516.769,-174.32 L -517.125,-174.248 L -517.909,-174.035 L -518.764,-173.821 L -520.047,-173.535 L -521.259,-173.252 L -521.616,-173.18 L -521.687,-173.108 C -521.759,-173.037 -521.829,-172.967 -521.829,-172.895 C -521.829,-172.752 -521.759,-172.609 -521.687,-172.467 C -521.544,-172.183 -521.473,-171.827 -521.259,-171.54 C -520.973,-170.971 -520.617,-170.472 -520.119,-169.973 Z M -517.125,-168.121 C -517.053,-168.049 -516.911,-168.049 -516.84,-167.979 L -516.769,-168.335 L -516.34,-170.044 L -515.415,-173.964 L -515.485,-173.964 L -516.34,-173.18 L -516.769,-172.824 L -517.125,-172.396 L -517.909,-171.612 L -518.764,-170.829 L -519.904,-169.831 C -519.549,-169.404 -519.121,-169.119 -518.764,-168.904 C -518.479,-168.691 -518.195,-168.548 -517.909,-168.405 C -517.695,-168.335 -517.409,-168.192 -517.125,-168.121 Z M -496.952,-155.581 L -496.952,-159.001 C -496.952,-160.781 -496.809,-161.423 -496.525,-161.565 C -496.455,-161.565 -496.383,-161.637 -496.312,-161.637 L -495.741,-161.637 C -495.599,-161.78 -495.599,-162.064 -495.741,-162.207 C -496.025,-162.136 -496.24,-162.136 -496.525,-162.136 L -497.38,-162.136 L -498.307,-162.136 C -498.52,-162.136 -498.807,-162.136 -499.163,-162.207 C -499.304,-162.064 -499.376,-161.78 -499.233,-161.637 L -499.163,-161.637 L -498.52,-161.637 C -498.449,-161.565 -498.379,-161.565 -498.307,-161.495 C -497.808,-161.352 -497.667,-160.711 -497.667,-159.001 L -497.667,-156.649 C -497.667,-156.151 -497.667,-155.865 -497.808,-155.793 C -497.88,-155.865 -498.093,-156.008 -498.307,-156.221 C -498.592,-156.507 -498.879,-156.864 -499.163,-157.148 C -499.376,-157.361 -499.519,-157.576 -499.661,-157.648 L -501.585,-159.713 C -502.441,-160.497 -503.155,-161.423 -503.581,-162.207 C -503.868,-162.136 -504.151,-162.136 -504.437,-162.136 C -504.793,-162.136 -505.363,-162.136 -506.148,-162.207 C -506.361,-162.136 -506.361,-161.78 -506.22,-161.637 L -505.863,-161.637 C -505.649,-161.565 -505.292,-161.423 -505.151,-161.352 C -504.723,-160.995 -504.723,-160.711 -504.723,-160.069 L -504.723,-156.436 C -504.723,-154.44 -504.865,-153.799 -505.363,-153.799 L -506.005,-153.728 C -506.148,-153.656 -506.148,-153.3 -506.005,-153.229 L -504.295,-153.229 L -502.513,-153.229 C -502.299,-153.3 -502.299,-153.585 -502.441,-153.728 L -503.083,-153.799 C -503.868,-153.799 -503.939,-154.369 -503.939,-156.436 L -503.939,-159.144 C -503.939,-159.713 -503.939,-159.999 -503.868,-159.999 C -503.653,-159.713 -503.083,-159.215 -502.299,-158.359 L -499.233,-155.083 L -499.163,-155.011 C -498.807,-154.653 -498.52,-154.369 -498.307,-154.085 C -497.808,-153.515 -497.523,-153.229 -497.38,-153.088 L -497.309,-153.016 C -497.167,-152.945 -496.952,-153.088 -496.952,-153.159 Z M -486.119,-160.069 C -486.119,-160.853 -486.047,-161.923 -485.904,-162.42 C -485.976,-162.563 -486.119,-162.563 -486.26,-162.492 C -486.403,-162.207 -486.475,-162.136 -486.903,-162.136 L -487.329,-162.136 L -491.107,-162.136 L -493.032,-162.136 C -493.816,-162.136 -494.103,-162.136 -494.103,-162.492 C -494.173,-162.563 -494.387,-162.563 -494.457,-162.492 C -494.6,-161.993 -494.813,-160.995 -495.028,-160.069 C -494.957,-159.927 -494.743,-159.855 -494.529,-159.999 C -494.031,-161.423 -493.531,-161.495 -492.248,-161.495 L -491.608,-161.495 C -491.251,-161.495 -491.251,-161.495 -491.251,-160.995 L -491.251,-155.439 C -491.251,-154.013 -491.321,-153.871 -492.177,-153.799 L -492.748,-153.728 C -492.891,-153.656 -492.891,-153.229 -492.676,-153.229 L -491.107,-153.229 L -490.467,-153.229 L -488.185,-153.229 C -488.043,-153.229 -488.043,-153.656 -488.115,-153.728 L -488.684,-153.799 C -489.611,-153.871 -489.683,-154.013 -489.683,-155.439 L -489.683,-160.995 C -489.683,-161.495 -489.611,-161.495 -489.184,-161.495 L -488.541,-161.495 C -487.687,-161.495 -487.187,-161.423 -486.903,-160.995 C -486.76,-160.781 -486.689,-160.497 -486.617,-160.069 C -486.547,-159.855 -486.189,-159.855 -486.119,-160.069 Z M -478.635,-153.799 L -479.133,-153.728 C -479.276,-153.656 -479.276,-153.229 -479.061,-153.229 L -476.852,-153.229 L -476.495,-153.229 L -475.069,-153.229 L -473.359,-153.229 L -471.576,-153.229 C -471.364,-153.585 -471.079,-154.583 -470.936,-155.439 C -471.007,-155.652 -471.364,-155.723 -471.505,-155.581 C -472.076,-153.943 -472.86,-153.871 -474.143,-153.871 C -475.283,-153.871 -475.641,-153.943 -475.855,-154.156 C -475.997,-154.369 -476.068,-155.011 -476.068,-155.652 L -476.068,-157.076 C -476.068,-157.504 -476.068,-157.576 -475.712,-157.576 L -474.785,-157.576 C -473.645,-157.576 -473.573,-157.361 -473.431,-156.792 L -473.288,-156.436 C -473.217,-156.221 -472.86,-156.292 -472.788,-156.436 C -472.86,-157.005 -472.86,-157.361 -472.86,-157.86 C -472.86,-158.359 -472.86,-158.716 -472.788,-159.285 C -472.86,-159.5 -473.217,-159.5 -473.288,-159.357 L -473.431,-159.001 C -473.573,-158.359 -473.645,-158.217 -474.785,-158.217 L -475.712,-158.217 C -476.068,-158.217 -476.068,-158.288 -476.068,-158.644 L -476.068,-160.853 C -476.068,-161.495 -476.068,-161.495 -475.355,-161.495 L -474.5,-161.495 C -474,-161.495 -473.003,-161.495 -472.717,-161.067 C -472.576,-160.853 -472.433,-160.569 -472.361,-160.069 C -472.219,-159.927 -471.863,-159.927 -471.791,-160.069 C -471.935,-160.995 -472.005,-161.923 -472.076,-162.207 C -472.219,-162.136 -473.003,-162.136 -473.929,-162.136 L -476.495,-162.136 L -476.852,-162.136 L -477.849,-162.136 C -478.136,-162.136 -478.42,-162.136 -478.705,-162.207 C -478.919,-162.136 -478.919,-161.709 -478.776,-161.637 L -478.492,-161.637 C -477.707,-161.423 -477.635,-161.352 -477.635,-159.999 L -477.635,-155.439 C -477.635,-154.013 -477.707,-153.871 -478.635,-153.799 Z "/>
</svg>