<?xml version="1.0" encoding="UTF-8" standalone="no"?>
<svg version="1.1" xmlns="http://www.w3.org/2000/svg" xmlns:xlink="http://www.w3.org/1999/xlink" width="148" height="105">
	<g id="dp_dp001" transform="matrix(1,0,0,1,248.08,-1239.49)">
		<path id="dp_path002" fill="#d6d6d6" fill-rule="evenodd" stroke="none" stroke-width="0" d="M -174.661,1299.68 C -174.661,1299.68 -170.452,1299.55 -170.452,1299.55 C -170.452,1299.55 -166.273,1301.74 -166.273,1301.74 C -166.273,1301.74 -165.617,1301.21 -165.617,1301.21 C -165.617,1301.21 -164.897,1285.57 -164.897,1285.57 C -164.897,1285.57 -170.908,1285.64 -170.908,1285.64 C -170.908,1285.64 -174.661,1299.68 -174.661,1299.68 Z "/>
		<path id="dp_path003" fill="#d6d6d6" fill-rule="evenodd" stroke="none" stroke-width="0" d="M -197.979,1294.14 C -189.037,1295.66 -180.637,1298.51 -178.927,1305.98 C -178.927,1305.98 -178.223,1309.07 -178.223,1309.07 C -178.223,1309.07 -180.781,1305.84 -180.781,1305.84 C -183.315,1304.16 -190.636,1302.46 -213.479,1301.72 C -237.327,1300.96 -238.725,1284.7 -238.725,1284.7 C -238.725,1284.7 -230.721,1289.56 -225.567,1290.64 C -217.679,1292.29 -207.031,1292.6 -197.979,1294.14"/>
		<path id="dp_path004" fill="#d6d6d6" fill-rule="evenodd" stroke="none" stroke-width="0" d="M -173.405,1263.79 C -172.528,1265.27 -171.724,1267.3 -170.58,1269.71 C -169.424,1272.14 -167.88,1274.96 -167.421,1278.22 C -166.485,1284.8 -167.364,1292.14 -174.912,1300.53 C -174.912,1300.53 -177.86,1303.8 -177.86,1303.8 C -177.86,1303.8 -177.832,1299.52 -177.832,1299.52 C -176.063,1289.53 -182.303,1283.49 -190.448,1277.78 C -192.473,1276.36 -194.52,1274.99 -196.445,1273.61 C -198.384,1272.22 -200.237,1270.79 -201.831,1269.27 C -205.013,1266.24 -207.313,1262.71 -207.052,1258.25 C -206.904,1255.74 -205.604,1254.06 -204.389,1253.04 C -203.788,1252.54 -203.197,1252.19 -202.76,1251.96 C -202.277,1251.71 -201.549,1251.01 -201.549,1251.01 C -201.549,1251.01 -204.056,1253.43 -203.484,1256.03 C -203.091,1257.83 -199.563,1260.44 -196.895,1262.62 C -194.237,1264.8 -190.791,1267 -187.304,1269.39 C -181.661,1273.26 -175.629,1279.28 -172.755,1285.32 C -172.793,1281.63 -174.836,1275.07 -179.211,1272.38 C -188.413,1266.72 -190.784,1260.24 -190.831,1255.77 C -190.908,1248.51 -181.593,1242.29 -176.008,1240.21 C -170.904,1238.3 -165.9,1240.3 -165.796,1247.13 C -165.744,1250.75 -171.447,1253.15 -171.447,1253.15 C -168.476,1248.85 -170.941,1247.48 -172.437,1247.71 C -174.412,1248.01 -180.495,1251.81 -173.405,1263.79"/>
		<path id="dp_path005" fill="#d6d6d6" fill-rule="evenodd" stroke="none" stroke-width="0" d="M -216.595,1256.12 C -216.055,1256.24 -214.691,1257.06 -213.571,1257.63 C -212.463,1258.18 -208.681,1263.95 -214.317,1267.15 C -217.215,1268.8 -217.596,1270.5 -217.416,1271.12 C -217.352,1271.35 -215.809,1272.14 -214.917,1272.57 C -214.045,1272.98 -212.812,1273.34 -211.229,1273.7 C -208.025,1274.43 -203.84,1275.07 -199.464,1276.26 C -191.067,1278.55 -182.839,1282.82 -178.588,1293.67 C -178.353,1294.26 -174.995,1300.62 -174.783,1301.26 C -174.783,1301.26 -179.988,1305.29 -179.988,1305.29 C -182.868,1301.31 -185.532,1290.12 -189.757,1288.25 C -194.66,1286.08 -200.127,1284.96 -205.349,1284 C -207.773,1283.57 -210.119,1283.16 -212.272,1282.71 C -214.493,1282.24 -216.523,1281.71 -218.269,1281.04 C -221.84,1279.67 -225.887,1276.02 -225.675,1271.56 C -225.191,1261.26 -211.381,1262.51 -216.595,1256.12"/>
		<path id="dp_path006" fill="#d6d6d6" fill-rule="evenodd" stroke="none" stroke-width="0" d="M -167.351,1298.31 C -167.421,1298.19 -167.517,1298 -167.635,1297.77 C -167.855,1297.32 -168.141,1296.65 -168.421,1295.81 C -168.973,1294.15 -169.979,1291.09 -170.04,1288.27 C -170.185,1281.92 -167.272,1275.5 -156.9,1268.75 C -148.613,1263.36 -142.195,1254.45 -144.26,1248.06 C -142.843,1249.76 -141.301,1252.39 -141.116,1255.41 C -140.839,1259.83 -141.164,1269.09 -154.499,1277.64 C -160.384,1281.41 -163.183,1286.7 -164.248,1290.68 C -164.783,1292.67 -164.947,1294.44 -164.975,1295.71 C -165.003,1296.93 -164.893,1297.78 -164.893,1297.78 C -164.893,1297.78 -164.897,1297.89 -164.897,1297.89 C -164.901,1297.94 -166.528,1299.76 -167.351,1298.31"/>
		<path id="dp_path007" fill="#d6d6d6" fill-rule="evenodd" stroke="none" stroke-width="0" d="M -103.304,1286.72 C -103.304,1286.72 -99.7013,1284.3 -99.7013,1284.3 C -99.7013,1284.3 -101.828,1289.15 -102.672,1290.45 C -103.493,1291.7 -104.755,1293.38 -106.525,1295.04 C -110.085,1298.37 -115.715,1301.66 -123.917,1301.52 C -128.757,1301.43 -133.017,1300.87 -138.847,1300.88 C -146.212,1300.88 -152.157,1302.69 -155.537,1304.3 C -157.304,1305.15 -162.032,1307.47 -165.504,1311.11 C -165.504,1311.11 -165.028,1306.73 -165.028,1306.73 C -165.028,1306.73 -165.808,1303.42 -165.808,1303.42 C -158.857,1295.83 -147.944,1294.69 -139.371,1293.52 C -130.967,1292.36 -122.436,1292.75 -115.276,1291.67 C -109.365,1290.78 -103.308,1286.72 -103.304,1286.72"/>
		<path id="dp_path008" fill="#d6d6d6" fill-rule="evenodd" stroke="none" stroke-width="0" d="M -131.539,1270.41 C -131.628,1270.17 -132.011,1269.76 -133.012,1269.15 C -133.988,1268.56 -135.177,1268 -136.277,1267.38 C -137.407,1266.75 -138.624,1265.97 -139.439,1264.97 C -140.321,1263.89 -140.743,1262.51 -140.148,1260.9 C -139.584,1259.37 -138.127,1258.13 -137.044,1257.35 C -137.044,1257.35 -137.556,1261.4 -131.976,1262.33 C -131.229,1262.45 -130.497,1262.85 -129.723,1263.13 C -128.889,1263.44 -128.519,1264.37 -127.731,1264.79 C -126.109,1265.65 -124.324,1266.85 -123.769,1269.01 C -121.516,1277.76 -130.829,1283.32 -139.204,1285.73 C -151.589,1289.3 -154.659,1292.02 -158.632,1296.52 C -161.201,1299.43 -164.063,1303.01 -163.345,1305.49 C -163.256,1305.78 -166.263,1301.46 -166.263,1301.46 C -166.263,1301.46 -166.185,1300.37 -166.185,1300.37 C -166.16,1300.02 -166.249,1298.76 -165.953,1296.96 C -165.641,1295.08 -166.236,1292.68 -164.901,1290.06 C -161.016,1282.45 -154.401,1277.81 -140.137,1274.2 C -132.929,1272.38 -131.343,1270.96 -131.539,1270.41"/>
		<path id="dp_path009" fill="#d6d6d6" fill-rule="evenodd" stroke="none" stroke-width="0" d="M -172.18,1274.78 C -166.711,1268.59 -165.735,1262.03 -166.691,1258.57 C -160.455,1255.1 -155.06,1244.15 -154.611,1242.33 C -154.248,1242.75 -153.604,1244.05 -153.604,1244.05 C -149.961,1250.54 -154.943,1258.45 -157.971,1264.07 C -159.496,1266.9 -160.919,1269.41 -162.6,1271.55 C -164.269,1273.67 -165.796,1275.39 -166.72,1276.53 C -170.144,1280.77 -167.043,1285.86 -168.176,1293.93 C -168.176,1293.93 -172.18,1274.78 -172.18,1274.78 Z "/>
		<path id="dp_path010" fill="#d6d6d6" fill-rule="evenodd" stroke="none" stroke-width="0" d="M -174.863,1314.24 C -173.453,1315.72 -172.928,1318.11 -174.315,1320 C -176.461,1322.94 -177.907,1325.33 -177.619,1327.63 C -177.524,1327.63 -177.409,1327.63 -177.277,1327.61 C -176.952,1327.58 -176.663,1327.52 -176.468,1327.49 C -174.435,1327.11 -172.568,1326.2 -171.163,1325.34 C -170.827,1325.13 -169.812,1324.54 -169.548,1324.35 C -170.911,1309.05 -149.828,1301.95 -135.547,1305.87 C -132.752,1304.53 -129.12,1303.34 -126.48,1303.14 C -120.959,1302.71 -120.931,1307.45 -121.984,1309.58 C -122.34,1310.3 -122.983,1311.24 -123.783,1312.02 C -124.516,1312.73 -125.724,1313.64 -127.188,1313.59 C -128.785,1313.52 -130.148,1313.69 -131.208,1314.34 C -132.556,1321.41 -140.107,1329.86 -147.859,1333.21 C -153.431,1335.61 -161.517,1337.72 -166.541,1333.16 C -168.039,1334.1 -169.959,1335.19 -172.055,1336.03 C -174.763,1337.12 -178.296,1338.01 -181.692,1337.08 C -183.236,1338.4 -185.051,1339.1 -186.843,1339.5 C -192.988,1340.86 -200.9,1336.72 -206.569,1333.26 C -209.56,1331.43 -212.315,1329.53 -214.437,1328.09 C -214.921,1327.77 -215.369,1327.47 -215.777,1327.19 C -216.129,1327.84 -216.513,1328.56 -216.907,1329.31 C -218.212,1331.78 -219.599,1334.51 -220.14,1335.54 C -222.189,1339.41 -225.455,1344.47 -230.467,1344.49 C -235.139,1344.51 -237.137,1341.79 -237.075,1338.19 C -237.019,1335.15 -235.748,1331.31 -233.727,1327.89 C -226.691,1315.98 -218.239,1302.89 -203.852,1297.15 C -201.492,1296.2 -198.823,1295.34 -196.151,1294.77 C -194.541,1294.44 -189.552,1296.96 -191.376,1294.15 C -187.356,1293.98 -183.767,1294.92 -181.769,1297.85 C -178.111,1303.23 -181.644,1308.21 -185.248,1311.21 C -189.059,1314.37 -194.552,1316.92 -199.257,1318.47 C -201.397,1319.18 -203.677,1319.68 -206.124,1320.21 C -203.907,1321.77 -201.517,1323.3 -198.752,1324.81 C -195.333,1326.68 -192.131,1327.96 -189.715,1328.19 C -190.475,1320.37 -182.208,1313.25 -178.364,1313.04 C -178.1,1313.02 -177.844,1313.03 -177.592,1313.06 C -179.183,1311.81 -181.231,1308.9 -181.107,1306.21 C -180.907,1301.87 -177.221,1299.04 -172.593,1298.72 C -167.968,1298.39 -163.596,1300.49 -163.432,1306.04 C -163.296,1310.75 -169.025,1315.55 -174.863,1314.24M -144.761,1313.53 C -154.691,1313.98 -159.984,1321.35 -159.573,1323.31 C -159.46,1323.84 -158.753,1325.18 -155.684,1324.72 C -151.196,1324.03 -146.121,1320.66 -143.356,1316.28 C -144.056,1315.49 -144.551,1314.59 -144.761,1313.53M -192.255,1304.12 C -192.631,1304.02 -193.396,1303.97 -194.511,1304.21 C -196.461,1304.65 -197.764,1305.17 -200.731,1307.07 C -203.293,1308.71 -204.113,1309.34 -204.995,1310.1 C -201.243,1308.67 -193.313,1305.13 -192.72,1304.61 C -192.503,1304.41 -192.352,1304.25 -192.255,1304.12"/>
		<path id="dp_path011" fill="white" fill-rule="evenodd" stroke="none" stroke-width="0" d="M -172.713,1244.7 C -175.241,1245.27 -181.837,1249.27 -173.832,1262.13 C -170.275,1267.84 -161.979,1282.35 -175.851,1297.9 C -172.012,1276.19 -206.707,1272.25 -205.792,1256.54 C -205.551,1252.41 -201.549,1251.01 -201.549,1251.01 C -201.549,1251.01 -202.963,1252.66 -202.604,1255.11 C -201.247,1264.44 -174.068,1269.84 -172.467,1286.79 C -166.7,1274.76 -185.96,1265.62 -185.577,1251.27 C -185.228,1238.13 -165.141,1234.93 -165.289,1246.62 C -165.36,1252.15 -171.447,1253.15 -171.447,1253.15 C -165.785,1245.73 -171.013,1244.31 -172.713,1244.7"/>
		<path id="dp_path012" fill="white" fill-rule="evenodd" stroke="none" stroke-width="0" d="M -223.94,1271.68 C -225.265,1262.22 -208.675,1263.47 -216.595,1256.12 C -215.607,1256.33 -212.673,1257.1 -211.675,1259.32 C -209.484,1264.18 -218.632,1265.65 -217.337,1270.12 C -215.611,1276.11 -185.452,1270.98 -177.827,1294.22 C -190.937,1276.1 -222.14,1284.56 -223.94,1271.68"/>
		<path id="dp_path013" fill="white" fill-rule="evenodd" stroke="none" stroke-width="0" d="M -166.159,1296.06 C -166.16,1296.12 -174.995,1281.7 -154.803,1268.57 C -146.316,1263.04 -142.011,1253.9 -144.26,1248.06 C -142.929,1247.9 -133.596,1261.8 -155.373,1275.27 C -167.911,1283.02 -166.159,1296.06 -166.159,1296.06"/>
		<path id="dp_path014" fill="white" fill-rule="evenodd" stroke="none" stroke-width="0" d="M -115.087,1291.14 C -108.868,1290.2 -102.603,1285.99 -102.603,1285.99 C -102.603,1285.99 -108.265,1298.75 -123.892,1298.47 C -128.744,1298.39 -133.009,1297.82 -138.847,1297.83 C -154.035,1297.85 -160.081,1305.75 -164.288,1304.92 C -150.937,1290.33 -129.415,1293.31 -115.087,1291.14"/>
		<path id="dp_path015" fill="white" fill-rule="evenodd" stroke="none" stroke-width="0" d="M -138.491,1274.9 C -131.384,1273.1 -129.684,1270.06 -130.353,1268.21 C -131.377,1265.39 -140.616,1264.02 -138.967,1259.56 C -138.12,1257.26 -134.291,1255.37 -134.291,1255.37 C -139.871,1263.51 -126.983,1260.3 -124.487,1267.07 C -121.872,1274.16 -129.572,1279.67 -139.277,1281.83 C -165.449,1287.65 -162.741,1299.17 -164.925,1298.68 C -164.831,1297.31 -166.591,1282 -138.491,1274.9"/>
		<path id="dp_path016" fill="white" fill-rule="evenodd" stroke="none" stroke-width="0" d="M -205.212,1249.13 C -207.76,1251.36 -210.783,1259.31 -206.556,1264.36 C -209.572,1262.16 -214.063,1251.51 -207.639,1244.86 C -208.421,1246.66 -209.423,1251.2 -209.464,1252.89 C -208.168,1250.93 -206.7,1249.36 -205.212,1249.13"/>
		<path id="dp_path017" fill="#d6d6d6" fill-rule="evenodd" stroke="none" stroke-width="0" d="M -232.121,1309.99 C -241.385,1311.09 -247.723,1303.93 -247.952,1303.45 C -248.127,1303.09 -248.173,1302.8 -248.08,1302.44 C -247.973,1302.01 -247.492,1301.38 -246.773,1301.43 C -246.563,1301.45 -246.384,1301.54 -246.275,1301.6 C -246.173,1301.67 -245.621,1302.13 -245.433,1302.25 C -241.427,1304.81 -237.852,1306.2 -233.817,1305.22 C -231.253,1304.59 -229.047,1303.76 -226.916,1303.2 C -224.737,1302.63 -223.301,1302.76 -220.905,1303.29 C -220.905,1303.29 -219.743,1303.55 -219.743,1303.55 C -219.743,1303.55 -220.609,1304.36 -220.609,1304.36 C -223.233,1306.85 -226.761,1309.35 -232.121,1309.99"/>
		<path id="dp_path018" fill="white" fill-rule="evenodd" stroke="none" stroke-width="0" d="M -219.021,1302.52 C -223.461,1301.21 -227.296,1303.05 -232.512,1303.93 C -236.713,1304.64 -240.584,1304.35 -244.971,1302.15 C -245.416,1301.93 -245.816,1301.54 -246.088,1301.55 C -246.396,1301.56 -246.644,1301.89 -246.681,1302.15 C -246.697,1302.28 -246.641,1302.39 -246.58,1302.47 C -246.524,1302.55 -245.697,1303.3 -245.423,1303.49 C -241.444,1306.19 -237.025,1308.35 -231.253,1307.91 C -226.056,1307.51 -221.772,1304.78 -219.021,1302.52"/>
		<path id="dp_path019" fill="white" fill-rule="evenodd" stroke="none" stroke-width="0" d="M -247.267,1288.73 C -244.997,1294.08 -239.037,1298.92 -232.573,1298.47 C -238.833,1296.81 -241.964,1289.23 -242.572,1286.61 C -243.244,1288.12 -243.203,1291.99 -242.167,1293.02 C -244.792,1290.56 -246.716,1289.63 -247.267,1288.73"/>
		<path id="dp_path020" fill="white" fill-rule="evenodd" stroke="none" stroke-width="0" d="M -121.08,1281.59 C -115.116,1279.6 -110.863,1273.17 -110.863,1273.17 C -110.863,1273.17 -112.1,1284.26 -127.544,1288.74 C -132.2,1290.1 -137.031,1290.41 -142.792,1291.33 C -157.791,1293.73 -160.592,1301.97 -164.877,1301.81 C -155.073,1284.86 -136.321,1286.67 -121.08,1281.59"/>
		<path id="dp_path021" fill="white" fill-rule="evenodd" stroke="none" stroke-width="0" d="M -225.825,1290.09 C -231.347,1288.94 -236.485,1284.33 -236.485,1284.33 C -236.485,1284.33 -233.852,1297.63 -215.675,1297.76 C -192.671,1297.94 -187.56,1298.36 -181.911,1303.82 C -182.571,1300.82 -185.007,1299.37 -187.176,1297.66 C -196.697,1289.72 -213.104,1292.75 -225.825,1290.09"/>
		<path id="dp_path022" fill="white" fill-rule="evenodd" stroke="none" stroke-width="0" d="M -236.571,1269.94 C -236.571,1269.94 -236.232,1285.14 -216.279,1288.22 C -195.808,1291.38 -196.483,1292.46 -189.764,1296.15 C -181.739,1300.57 -170.952,1301.55 -169.74,1291.87 C -168.74,1283.86 -167.615,1278.97 -163.928,1274.41 C -160.243,1269.85 -144.079,1255.29 -152.897,1241.58 C -154.325,1246.63 -157.795,1253.25 -164.531,1259.24 C -163.183,1267.48 -170.14,1273.27 -170.527,1278.45 C -170.527,1278.45 -171.501,1273.6 -178.985,1267.27 C -194.499,1254.13 -186.348,1247.05 -183.347,1245.82 C -180.364,1244.61 -176.18,1245.69 -175.364,1247.91 C -175.364,1247.91 -175.731,1242.87 -182.104,1243.29 C -190.3,1243.81 -197.803,1255.4 -181.397,1268.72 C -173.369,1275.25 -173.188,1278.05 -171.923,1279.84 C -174.327,1276.63 -179.329,1271.55 -184.692,1267.67 C -189.391,1264.26 -198.2,1253.9 -189.28,1244.68 C -189.28,1244.68 -205.332,1255.19 -184.393,1270.39 C -177.632,1275.3 -171.012,1283.36 -172.915,1290.28 C -173.793,1293.49 -177.267,1295.07 -187.012,1289.57 C -198.563,1283.05 -206.536,1284.2 -216.871,1281.54 C -227.519,1278.79 -236.571,1269.94 -236.571,1269.94"/>
		<path id="dp_path023" fill="white" fill-rule="evenodd" stroke="none" stroke-width="0" d="M -171.975,1300.65 C -168.359,1300.4 -165.24,1302.84 -165.009,1306.11 C -164.783,1309.39 -167.528,1312.25 -171.145,1312.5 C -174.763,1312.75 -177.883,1310.31 -178.112,1307.03 C -178.343,1303.76 -175.591,1300.9 -171.975,1300.65 Z M -215.715,1324.42 C -216.203,1325.27 -216.823,1326.43 -217.468,1327.65 C -218.772,1330.13 -220.16,1332.86 -220.703,1333.89 C -222.836,1337.92 -225.688,1341.95 -229.584,1341.97 C -233.289,1341.98 -234.593,1340.06 -234.545,1337.33 C -234.495,1334.65 -233.349,1331.09 -231.423,1327.83 C -224.367,1315.89 -216.157,1303.29 -202.356,1297.78 C -194.531,1294.65 -185.428,1293.19 -182.239,1297.88 C -179.368,1302.09 -181.899,1306.14 -185.407,1309.05 C -189,1312.04 -194.272,1314.5 -198.884,1316.03 C -202.129,1317.1 -206.66,1318.04 -209.611,1318.6 C -204.641,1322.36 -193.165,1330.38 -186.931,1329.26 C -189.296,1321.98 -180.356,1314.19 -177.577,1313.99 C -175.347,1313.84 -173.631,1316.71 -174.988,1318.57 C -177.125,1321.49 -178.811,1324.02 -178.323,1327.14 C -178.188,1328 -177.799,1328.21 -177.299,1328.32 C -176.988,1328.38 -176.624,1328.39 -176.251,1328.36 C -175.859,1328.32 -175.512,1328.25 -175.275,1328.21 C -172.976,1327.78 -170.917,1326.77 -169.411,1325.84 C -168.643,1325.37 -168.031,1324.92 -167.625,1324.61 C -169.771,1310.56 -149.019,1302.33 -134.503,1306.72 C -131.755,1305.34 -128,1304.08 -125.464,1303.89 C -121.916,1303.61 -121.731,1306.28 -122.563,1307.97 C -123.117,1309.08 -124.708,1311.11 -126.239,1311.05 C -128.177,1310.98 -130.233,1311.19 -131.824,1312.52 C -132.685,1319.01 -139.983,1327.51 -147.621,1330.81 C -153.72,1333.44 -161.373,1335.05 -165.405,1330.15 C -166.951,1331.18 -169.241,1332.6 -171.775,1333.62 C -174.641,1334.77 -178.128,1335.54 -181.225,1334.33 C -182.604,1335.82 -184.387,1336.57 -186.307,1337 C -191.703,1338.21 -199.031,1334.51 -204.823,1330.97 C -207.793,1329.16 -210.52,1327.28 -212.628,1325.85 C -213.652,1325.15 -214.527,1324.57 -215.204,1324.16 C -215.204,1324.16 -215.468,1324 -215.468,1324 C -215.468,1324 -215.715,1324.42 -215.715,1324.42 Z M -154.545,1325.45 C -149.168,1324.63 -143.197,1320.42 -140.399,1315.09 C -141.78,1313.99 -142.471,1312.74 -142.328,1310.99 C -153.479,1310.7 -161.072,1319 -160.289,1322.76 C -159.951,1324.37 -158.228,1326.01 -154.545,1325.45 Z M -190.744,1304.95 C -187.919,1302.45 -190.7,1301 -193.975,1301.72 C -196.184,1302.21 -197.645,1302.87 -200.713,1304.79 C -205.405,1307.73 -208.048,1310.32 -209.496,1312.12 C -209.496,1312.12 -209.585,1312.23 -209.585,1312.23 C -198.247,1309.1 -192.256,1306.28 -190.744,1304.95 Z "/>
		<path id="dp_path024" fill="white" fill-rule="evenodd" stroke="none" stroke-width="0" d="M -166.375,1306.21 C -166.208,1308.61 -168.257,1310.93 -171.24,1311.14 C -174.227,1311.35 -176.579,1309.34 -176.749,1306.94 C -176.916,1304.53 -174.867,1302.22 -171.881,1302.02 C -168.891,1301.81 -166.541,1303.81 -166.375,1306.21M -148.155,1329.57 C -154.848,1332.46 -161.992,1333.49 -165.068,1328.28 C -167.833,1330.21 -176.028,1335.77 -181.583,1332.66 C -181.671,1332.81 -182.033,1333.2 -182.033,1333.2 C -183.183,1334.55 -184.736,1335.27 -186.599,1335.69 C -196.148,1337.81 -213.997,1322.36 -215.92,1322.34 C -216.355,1322.33 -220.811,1331.2 -221.895,1333.25 C -224.104,1337.42 -226.608,1340.6 -229.591,1340.61 C -232.503,1340.62 -233.229,1339.36 -233.195,1337.36 C -233.152,1334.98 -232.111,1331.64 -230.26,1328.52 C -223.185,1316.55 -215.183,1304.35 -201.856,1299.03 C -193.741,1295.8 -185.847,1294.98 -183.352,1298.64 C -178.909,1305.17 -190.255,1311.75 -199.305,1314.75 C -204.436,1316.44 -212.817,1317.8 -212.817,1317.8 C -212.817,1317.8 -193.408,1333.96 -185.096,1330.1 C -188.704,1323.65 -179.895,1315.5 -177.483,1315.34 C -176.339,1315.26 -175.433,1316.89 -176.077,1317.77 C -178.167,1320.63 -180.244,1323.6 -179.657,1327.35 C -179.191,1330.34 -176.097,1329.74 -175.029,1329.54 C -169.992,1328.6 -166.155,1325.15 -166.155,1325.15 C -168.9,1312.3 -149.172,1303.33 -134.375,1308.18 C -131.701,1306.74 -127.808,1305.42 -125.357,1305.23 C -121.219,1304.91 -125.001,1309.75 -126.185,1309.7 C -128.355,1309.62 -131.063,1309.85 -133.113,1311.87 C -133.567,1317.76 -140.599,1326.31 -148.155,1329.57M -140.703,1309.73 C -152.875,1308.59 -162.735,1317.64 -161.609,1323.03 C -161.083,1325.55 -158.507,1327.42 -154.344,1326.78 C -148.18,1325.84 -141.419,1320.86 -138.687,1314.64 C -140.807,1313.31 -141.444,1312.14 -140.703,1309.73M -189.861,1305.97 C -185.285,1302.01 -188.58,1300.13 -190.996,1300.13 C -192.16,1300.13 -195.304,1300.03 -201.427,1303.65 C -211.191,1309.41 -212.463,1314.39 -212.463,1314.39 C -199.073,1310.94 -191.801,1307.65 -189.861,1305.97"/>
		<path id="dp_path025" fill="white" fill-rule="evenodd" stroke="none" stroke-width="0" d="M -106.783,1274.61 C -106.416,1275.9 -106.235,1278.47 -106.416,1279.94 C -105.315,1279.39 -102.744,1275.9 -101.271,1273.88 C -104.399,1284.17 -113.401,1286.19 -117.073,1286.01 C -114.32,1285.27 -107.153,1283.8 -106.783,1274.61"/>
	</g>
</svg>