<?xml version="1.0" encoding="UTF-8" standalone="no"?>
<svg version="1.1" xmlns="http://www.w3.org/2000/svg" xmlns:xlink="http://www.w3.org/1999/xlink" width="77" height="77">
	<g id="dp_dp001" transform="matrix(1,0,0,1,-543.476,-551.229)">
		<path id="dp_path002" fill="none" fill-rule="evenodd" stroke="black" stroke-width="0.666667" d="M 599.451,598.919 C 599.451,599.8 598.728,600.512 597.851,600.512 L 593.004,600.512 C 592.127,600.512 591.405,599.84 591.405,599.011 C 591.405,598.189 592.104,597.343 592.967,597.141 L 597.893,595.964 C 598.751,595.76 599.451,596.313 599.451,597.193 L 599.451,598.919 Z M 587.607,602.672 L 576.439,602.672 L 576.439,600.417 L 587.607,600.417 L 587.607,602.672 Z M 571.041,600.512 L 566.193,600.512 C 565.316,600.512 564.596,599.8 564.596,598.919 L 564.596,597.193 C 564.596,596.313 565.293,595.76 566.148,595.964 L 571.08,597.141 C 571.94,597.343 572.639,598.189 572.639,599.011 C 572.639,599.84 571.917,600.512 571.041,600.512 Z M 570.496,582.956 C 574.244,581.899 578.115,581.367 582.023,581.367 C 585.82,581.367 589.585,581.871 593.236,582.868 L 597.413,590.932 L 597.109,590.932 C 593.559,590.213 588.124,589.84 582.023,589.84 C 575.921,589.84 570.487,590.213 566.937,590.932 L 566.559,590.932 L 570.496,582.956 Z M 604.287,589.393 L 600.161,589.393 C 600.02,589.393 599.897,589.415 599.772,589.448 L 595.38,580.981 C 586.557,578.391 577.12,578.427 568.307,581.092 L 564.189,589.424 C 564.089,589.408 563.989,589.393 563.887,589.393 L 559.759,589.393 C 558.949,589.393 558.292,590.056 558.292,590.863 L 558.292,591.459 C 558.292,592.267 558.936,593.072 559.719,593.249 L 562.156,593.805 L 562.156,607.944 C 562.156,608.753 562.809,609.413 563.621,609.413 L 570.667,609.413 C 571.472,609.413 572.131,608.753 572.131,607.944 L 572.131,605.784 L 591.913,605.784 L 591.913,607.944 C 591.913,608.753 592.571,609.413 593.38,609.413 L 600.425,609.413 C 601.235,609.413 601.889,608.753 601.889,607.944 L 601.889,593.805 L 604.324,593.249 C 605.108,593.072 605.751,592.267 605.751,591.459 L 605.751,590.863 C 605.751,590.056 605.096,589.393 604.287,589.393 Z "/>
		<path id="dp_path003" fill="none" fill-rule="evenodd" stroke="black" stroke-width="0.666667" d="M 594.911,574.08 C 594.687,573.845 594.695,573.472 594.929,573.247 L 598.179,570.135 C 598.415,569.909 598.788,569.917 599.012,570.153 L 601.933,573.203 C 602.159,573.437 602.149,573.811 601.915,574.036 L 600.933,574.976 L 600.933,577.668 L 602.416,577.668 C 602.656,577.668 602.851,577.863 602.851,578.103 C 602.851,578.343 602.656,578.537 602.416,578.537 L 600.499,578.537 C 600.259,578.537 600.064,578.343 600.064,578.103 C 600.064,578.1 600.064,578.097 600.064,578.096 L 600.064,578.088 L 600.064,575.808 L 598.665,577.148 C 598.429,577.373 598.057,577.365 597.832,577.131 L 597.448,576.729 L 596.971,579.433 L 592.573,574.843 L 595.296,574.483 Z "/>
		<path id="dp_path004" fill="none" fill-rule="evenodd" stroke="black" stroke-width="0.666667" d="M 543.812,589.775 C 543.812,568.672 560.919,551.565 582.021,551.565 C 603.124,551.565 620.231,568.672 620.231,589.775 C 620.231,610.877 603.124,627.984 582.021,627.984 C 560.919,627.984 543.812,610.877 543.812,589.775 Z M 549.925,589.775 C 549.925,572.048 564.295,557.679 582.021,557.679 C 599.748,557.679 614.117,572.048 614.117,589.775 C 614.117,607.501 599.748,621.871 582.021,621.871 C 564.295,621.871 549.925,607.501 549.925,589.775 Z "/>
		<path id="dp_path005" fill="black" fill-rule="evenodd" stroke="black" stroke-width="0.133333" stroke-linejoin="round" d="M 577.012,557.769 L 581.468,555.525 L 585.817,557.645 L 587.737,551.88 L 581.464,555.039 L 575.209,551.989 Z M 580.975,555.285 L 577.311,557.129 L 575.976,552.849 Z M 586.94,552.769 L 585.525,557.017 L 581.957,555.279 Z "/>
		<path id="dp_path006" fill="black" fill-rule="evenodd" stroke="black" stroke-width="0.133333" stroke-linejoin="round" d="M 577.287,621.803 L 581.743,624.047 L 586.092,621.927 L 588.012,627.692 L 581.739,624.535 L 575.483,627.583 Z M 581.248,624.287 L 577.585,622.443 L 576.249,626.723 Z M 587.215,626.803 L 585.8,622.555 L 582.232,624.293 Z "/>
		<path id="dp_path007" fill="black" fill-rule="evenodd" stroke="black" stroke-width="0.133333" stroke-linejoin="round" d="M 549.996,585.011 L 547.752,589.467 L 549.872,593.816 L 544.105,595.736 L 547.264,589.463 L 544.215,583.208 Z M 547.511,588.973 L 549.356,585.311 L 545.075,583.975 Z M 544.996,594.939 L 549.244,593.525 L 547.505,589.956 Z "/>
		<path id="dp_path008" fill="black" fill-rule="evenodd" stroke="black" stroke-width="0.133333" stroke-linejoin="round" d="M 614.024,584.764 L 616.268,589.22 L 614.148,593.569 L 619.915,595.489 L 616.756,589.216 L 619.805,582.961 Z M 616.509,588.727 L 614.664,585.064 L 618.945,583.728 Z M 619.024,594.692 L 614.776,593.277 L 616.515,589.709 Z "/>
		<path id="dp_path009" fill="black" fill-rule="evenodd" stroke="black" stroke-width="0.133333" stroke-linejoin="round" d="M 601.317,563.811 L 606.055,565.375 L 607.631,569.949 L 613.065,567.229 L 606.396,565.027 L 604.129,558.448 Z M 605.876,564.855 L 601.981,563.569 L 604.064,559.597 Z M 611.872,567.295 L 607.869,569.299 L 606.575,565.547 Z "/>
		<path id="dp_path010" fill="black" fill-rule="evenodd" stroke="black" stroke-width="0.133333" stroke-linejoin="round" d="M 601.163,615.901 L 605.901,614.337 L 607.477,609.763 L 612.912,612.483 L 606.243,614.685 L 603.975,621.264 Z M 605.721,614.857 L 601.827,616.143 L 603.909,620.113 Z M 611.719,612.417 L 607.715,610.413 L 606.42,614.165 Z "/>
		<path id="dp_path011" fill="black" fill-rule="evenodd" stroke="black" stroke-width="0.133333" stroke-linejoin="round" d="M 562.839,615.897 L 558.101,614.333 L 556.525,609.757 L 551.091,612.477 L 557.759,614.68 L 560.027,621.26 Z M 558.28,614.852 L 562.175,616.139 L 560.092,620.109 Z M 552.283,612.412 L 556.287,610.408 L 557.581,614.161 Z "/>
		<path id="dp_path012" fill="black" fill-rule="evenodd" stroke="black" stroke-width="0.133333" stroke-linejoin="round" d="M 562.761,563.735 L 558.023,565.299 L 556.447,569.873 L 551.012,567.153 L 557.681,564.952 L 559.949,558.372 Z M 558.203,564.78 L 562.097,563.493 L 560.015,559.523 Z M 552.205,567.219 L 556.209,569.223 L 557.503,565.471 Z "/>
	</g>
</svg>