<?xml version="1.0" encoding="UTF-8" standalone="no"?>
<svg version="1.1" xmlns="http://www.w3.org/2000/svg" xmlns:xlink="http://www.w3.org/1999/xlink" width="77" height="77">
	<g id="dp_dp001" transform="matrix(1,0,0,1,-422.037,-411.244)">
		<path id="dp_path002" fill="none" fill-rule="evenodd" stroke="black" stroke-width="0.666667" d="M 459.237,431.972 C 456.957,432.104 455.731,432.256 453.875,432.631 C 447.743,433.873 441.757,437.059 437.44,441.38 C 436.796,442.024 436.637,442.248 436.467,442.763 C 436.38,443.032 436.368,443.127 436.368,443.577 C 436.368,444.028 436.38,444.123 436.467,444.392 C 436.611,444.827 436.811,445.141 437.156,445.491 C 437.675,446.013 438.307,446.275 439.043,446.275 C 439.467,446.271 439.663,446.236 440.031,446.1 C 440.421,445.952 440.652,445.779 441.372,445.104 C 443.064,443.509 444.485,442.425 446.307,441.331 C 449.856,439.199 453.659,437.953 457.976,437.509 C 459.087,437.396 461.875,437.384 462.988,437.491 C 467.336,437.904 471.275,439.176 474.859,441.331 C 476.684,442.429 478.108,443.52 479.805,445.115 C 480.517,445.785 480.74,445.952 481.141,446.1 C 481.501,446.236 481.699,446.271 482.123,446.275 C 482.857,446.275 483.491,446.013 484.009,445.491 C 484.353,445.141 484.555,444.827 484.699,444.392 C 484.785,444.123 484.797,444.028 484.797,443.577 C 484.797,443.127 484.785,443.032 484.699,442.763 C 484.528,442.248 484.369,442.024 483.725,441.38 C 481.441,439.093 478.505,436.995 475.472,435.476 C 471.571,433.521 467.563,432.408 463.101,432.044 C 462.431,431.987 459.787,431.937 459.237,431.972 Z "/>
		<path id="dp_path003" fill="none" fill-rule="evenodd" stroke="black" stroke-width="0.666667" d="M 458.859,441.873 C 457.325,441.997 455.791,442.256 454.401,442.631 C 450.601,443.657 446.959,445.74 444.253,448.425 C 443.671,449.001 443.609,449.077 443.469,449.372 C 442.777,450.816 443.485,452.475 444.996,452.956 C 445.636,453.16 446.257,453.107 446.893,452.8 C 447.189,452.656 447.307,452.569 447.727,452.172 C 449.311,450.676 450.671,449.721 452.457,448.843 C 457.128,446.547 462.517,446.339 467.4,448.263 C 469.003,448.895 470.665,449.857 472.009,450.933 C 472.577,451.388 472.624,451.429 473.408,452.156 C 474.192,452.88 474.604,453.065 475.431,453.061 C 475.801,453.057 475.911,453.043 476.168,452.956 C 476.619,452.8 476.855,452.652 477.211,452.293 C 477.729,451.771 477.945,451.248 477.945,450.509 C 477.945,450.051 477.861,449.721 477.635,449.277 C 477.347,448.721 475.68,447.209 474.161,446.135 C 470.84,443.775 467.116,442.384 462.912,441.925 C 462.253,441.855 459.541,441.82 458.859,441.873 Z "/>
		<path id="dp_path004" fill="none" fill-rule="evenodd" stroke="black" stroke-width="0.666667" d="M 459.313,451.115 C 456.344,451.403 453.685,452.501 451.428,454.376 C 450.825,454.876 450.22,455.497 450.064,455.773 C 449.261,457.183 449.943,458.967 451.477,459.471 C 451.78,459.569 451.863,459.58 452.288,459.58 C 452.708,459.576 452.795,459.565 453.064,459.471 C 453.488,459.323 453.741,459.16 454.208,458.724 C 455.753,457.285 457.56,456.448 459.587,456.228 C 460.215,456.16 461.537,456.197 462.116,456.3 C 463.589,456.561 464.919,457.129 466.06,457.981 C 466.264,458.133 466.661,458.467 466.939,458.716 C 467.653,459.364 468.04,459.549 468.745,459.588 C 469.787,459.641 470.711,459.103 471.169,458.179 C 471.343,457.827 471.427,457.459 471.427,457.043 C 471.427,456.623 471.347,456.308 471.147,455.887 C 471.007,455.603 470.931,455.508 470.509,455.092 C 468.351,452.952 465.529,451.6 462.313,451.168 C 461.813,451.1 459.829,451.065 459.313,451.115 Z "/>
		<path id="dp_path005" fill="none" fill-rule="evenodd" stroke="black" stroke-width="0.666667" d="M 460.132,461.379 C 459.097,461.523 458.208,462.16 457.737,463.088 C 457.029,464.5 457.503,466.257 458.821,467.111 C 459.393,467.477 459.84,467.607 460.544,467.607 C 461.151,467.607 461.469,467.535 461.98,467.269 C 462.76,466.864 463.295,466.208 463.56,465.329 C 463.696,464.879 463.704,464.175 463.579,463.709 C 463.332,462.792 462.684,462.02 461.844,461.637 C 461.34,461.409 460.659,461.308 460.132,461.379 Z "/>
		<path id="dp_path006" fill="none" fill-rule="evenodd" stroke="black" stroke-width="0.666667" d="M 422.373,449.789 C 422.373,428.687 439.48,411.58 460.583,411.58 C 481.685,411.58 498.792,428.687 498.792,449.789 C 498.792,470.892 481.685,487.999 460.583,487.999 C 439.48,487.999 422.373,470.892 422.373,449.789 Z M 428.487,449.789 C 428.487,432.063 442.856,417.693 460.583,417.693 C 478.309,417.693 492.679,432.063 492.679,449.789 C 492.679,467.516 478.309,481.885 460.583,481.885 C 442.856,481.885 428.487,467.516 428.487,449.789 Z "/>
		<path id="dp_path007" fill="black" fill-rule="evenodd" stroke="black" stroke-width="0.133333" stroke-linejoin="round" d="M 455.573,417.784 L 460.029,415.54 L 464.379,417.66 L 466.299,411.895 L 460.025,415.053 L 453.771,412.004 Z M 459.536,415.3 L 455.872,417.144 L 454.537,412.864 Z M 465.501,412.784 L 464.087,417.032 L 460.519,415.293 Z "/>
		<path id="dp_path008" fill="black" fill-rule="evenodd" stroke="black" stroke-width="0.133333" stroke-linejoin="round" d="M 455.848,481.817 L 460.304,484.061 L 464.653,481.941 L 466.573,487.707 L 460.3,484.549 L 454.044,487.597 Z M 459.809,484.301 L 456.147,482.457 L 454.811,486.737 Z M 465.776,486.817 L 464.361,482.569 L 460.793,484.308 Z "/>
		<path id="dp_path009" fill="black" fill-rule="evenodd" stroke="black" stroke-width="0.133333" stroke-linejoin="round" d="M 428.557,445.025 L 426.313,449.481 L 428.433,453.831 L 422.667,455.751 L 425.825,449.477 L 422.776,443.223 Z M 426.072,448.988 L 427.917,445.325 L 423.636,443.989 Z M 423.557,454.953 L 427.805,453.54 L 426.067,449.971 Z "/>
		<path id="dp_path010" fill="black" fill-rule="evenodd" stroke="black" stroke-width="0.133333" stroke-linejoin="round" d="M 492.585,444.779 L 494.829,449.235 L 492.709,453.584 L 498.476,455.504 L 495.317,449.231 L 498.367,442.976 Z M 495.071,448.741 L 493.225,445.079 L 497.507,443.743 Z M 497.585,454.707 L 493.337,453.292 L 495.076,449.724 Z "/>
		<path id="dp_path011" fill="black" fill-rule="evenodd" stroke="black" stroke-width="0.133333" stroke-linejoin="round" d="M 479.879,423.825 L 484.616,425.389 L 486.192,429.964 L 491.627,427.244 L 484.957,425.041 L 482.691,418.463 Z M 484.437,424.869 L 480.543,423.584 L 482.625,419.612 Z M 490.433,427.309 L 486.431,429.313 L 485.136,425.561 Z "/>
		<path id="dp_path012" fill="black" fill-rule="evenodd" stroke="black" stroke-width="0.133333" stroke-linejoin="round" d="M 479.724,475.916 L 484.463,474.352 L 486.039,469.777 L 491.473,472.497 L 484.804,474.7 L 482.536,481.279 Z M 484.283,474.872 L 480.388,476.157 L 482.471,480.128 Z M 490.28,472.432 L 486.276,470.428 L 484.981,474.18 Z "/>
		<path id="dp_path013" fill="black" fill-rule="evenodd" stroke="black" stroke-width="0.133333" stroke-linejoin="round" d="M 441.4,475.912 L 436.663,474.348 L 435.087,469.772 L 429.652,472.492 L 436.32,474.695 L 438.588,481.275 Z M 436.841,474.867 L 440.736,476.153 L 438.653,480.124 Z M 430.844,472.427 L 434.848,470.423 L 436.143,474.176 Z "/>
		<path id="dp_path014" fill="black" fill-rule="evenodd" stroke="black" stroke-width="0.133333" stroke-linejoin="round" d="M 441.323,423.749 L 436.584,425.313 L 435.008,429.888 L 429.573,427.168 L 436.243,424.967 L 438.511,418.387 Z M 436.764,424.795 L 440.659,423.508 L 438.576,419.537 Z M 430.767,427.233 L 434.771,429.237 L 436.064,425.485 Z "/>
	</g>
</svg>