<?xml version="1.0" encoding="UTF-8" standalone="no"?>
<svg version="1.1" xmlns="http://www.w3.org/2000/svg" xmlns:xlink="http://www.w3.org/1999/xlink" width="77" height="77">
	<g id="dp_dp001" transform="matrix(1,0,0,1,-424.809,-271.896)">
		<path id="dp_path002" fill="none" fill-rule="evenodd" stroke="black" stroke-width="0.666667" d="M 455.249,307.897 C 455.249,307.109 455.888,306.389 456.677,306.389 L 459.044,306.389 C 458.456,304.957 456.984,303.717 455.264,303.717 C 453.031,303.717 451.212,305.497 451.212,307.731 C 451.212,309.967 453.031,311.923 455.264,311.923 C 457.008,311.923 458.499,310.84 459.069,309.408 L 456.677,309.408 C 455.888,309.408 455.249,308.688 455.249,307.897 Z M 464.507,309.408 L 460.991,309.408 C 460.361,311.633 458.033,313.745 455.264,313.745 C 452.015,313.745 449.371,311.021 449.371,307.772 C 449.371,304.521 452.015,301.916 455.264,301.916 C 458.011,301.916 460.324,303.844 460.976,306.389 L 464.507,306.389 C 465.295,306.389 465.933,307.109 465.933,307.897 C 465.933,308.688 465.295,309.408 464.507,309.408 Z M 477.344,294.783 L 446.185,294.783 L 446.185,320.536 L 477.344,320.536 L 477.344,316.721 L 478.933,316.721 L 478.933,312.588 L 477.344,312.588 L 477.344,303.367 L 478.933,303.367 L 478.933,298.916 L 477.344,298.916 L 477.344,294.783 Z M 484.497,296.049 C 484.497,293.507 482.436,291.444 479.892,291.444 L 446.816,291.444 C 444.272,291.444 442.211,293.507 442.211,296.049 L 442.211,320.701 C 442.211,323.244 444.272,325.305 446.816,325.305 L 479.892,325.305 C 482.436,325.305 484.497,323.244 484.497,320.701 L 484.497,296.049 Z M 478.92,325.943 L 475.604,325.943 C 474.689,325.943 473.947,326.775 473.947,327.691 C 473.947,328.605 474.689,329.439 475.604,329.439 L 478.92,329.439 C 479.835,329.439 480.577,328.605 480.577,327.691 C 480.577,326.775 479.835,325.943 478.92,325.943 Z M 451.749,325.943 L 448.435,325.943 C 447.519,325.943 446.776,326.775 446.776,327.691 C 446.776,328.605 447.519,329.439 448.435,329.439 L 451.749,329.439 C 452.665,329.439 453.408,328.605 453.408,327.691 C 453.408,326.775 452.665,325.943 451.749,325.943 Z "/>
		<path id="dp_path003" fill="none" fill-rule="evenodd" stroke="black" stroke-width="0.666667" d="M 425.145,310.441 C 425.145,289.339 442.252,272.232 463.355,272.232 C 484.457,272.232 501.564,289.339 501.564,310.441 C 501.564,331.544 484.457,348.651 463.355,348.651 C 442.252,348.651 425.145,331.544 425.145,310.441 Z M 431.259,310.441 C 431.259,292.715 445.628,278.345 463.355,278.345 C 481.081,278.345 495.451,292.715 495.451,310.441 C 495.451,328.168 481.081,342.537 463.355,342.537 C 445.628,342.537 431.259,328.168 431.259,310.441 Z "/>
		<path id="dp_path004" fill="black" fill-rule="evenodd" stroke="black" stroke-width="0.133333" stroke-linejoin="round" d="M 458.345,278.436 L 462.801,276.192 L 467.151,278.312 L 469.071,272.547 L 462.797,275.705 L 456.543,272.656 Z M 462.308,275.952 L 458.644,277.796 L 457.309,273.516 Z M 468.273,273.436 L 466.859,277.684 L 463.291,275.945 Z "/>
		<path id="dp_path005" fill="black" fill-rule="evenodd" stroke="black" stroke-width="0.133333" stroke-linejoin="round" d="M 458.62,342.469 L 463.076,344.713 L 467.425,342.593 L 469.345,348.359 L 463.072,345.201 L 456.816,348.249 Z M 462.581,344.953 L 458.919,343.109 L 457.583,347.389 Z M 468.548,347.469 L 467.133,343.221 L 463.565,344.96 Z "/>
		<path id="dp_path006" fill="black" fill-rule="evenodd" stroke="black" stroke-width="0.133333" stroke-linejoin="round" d="M 431.329,305.677 L 429.085,310.133 L 431.205,314.483 L 425.439,316.403 L 428.597,310.129 L 425.548,303.875 Z M 428.844,309.64 L 430.689,305.977 L 426.408,304.641 Z M 426.329,315.605 L 430.577,314.192 L 428.839,310.623 Z "/>
		<path id="dp_path007" fill="black" fill-rule="evenodd" stroke="black" stroke-width="0.133333" stroke-linejoin="round" d="M 495.357,305.431 L 497.601,309.887 L 495.481,314.236 L 501.248,316.156 L 498.089,309.883 L 501.139,303.628 Z M 497.843,309.393 L 495.997,305.731 L 500.279,304.395 Z M 500.357,315.359 L 496.109,313.944 L 497.848,310.376 Z "/>
		<path id="dp_path008" fill="black" fill-rule="evenodd" stroke="black" stroke-width="0.133333" stroke-linejoin="round" d="M 482.651,284.477 L 487.388,286.041 L 488.964,290.616 L 494.399,287.896 L 487.729,285.693 L 485.463,279.115 Z M 487.209,285.521 L 483.315,284.236 L 485.397,280.264 Z M 493.205,287.961 L 489.203,289.965 L 487.908,286.213 Z "/>
		<path id="dp_path009" fill="black" fill-rule="evenodd" stroke="black" stroke-width="0.133333" stroke-linejoin="round" d="M 482.496,336.568 L 487.235,335.004 L 488.811,330.429 L 494.245,333.149 L 487.576,335.352 L 485.308,341.931 Z M 487.055,335.524 L 483.16,336.809 L 485.243,340.78 Z M 493.052,333.084 L 489.048,331.08 L 487.753,334.832 Z "/>
		<path id="dp_path010" fill="black" fill-rule="evenodd" stroke="black" stroke-width="0.133333" stroke-linejoin="round" d="M 444.172,336.564 L 439.435,335 L 437.859,330.424 L 432.424,333.144 L 439.092,335.347 L 441.36,341.927 Z M 439.613,335.519 L 443.508,336.805 L 441.425,340.776 Z M 433.616,333.079 L 437.62,331.075 L 438.915,334.828 Z "/>
		<path id="dp_path011" fill="black" fill-rule="evenodd" stroke="black" stroke-width="0.133333" stroke-linejoin="round" d="M 444.095,284.401 L 439.356,285.965 L 437.78,290.54 L 432.345,287.82 L 439.015,285.619 L 441.283,279.039 Z M 439.536,285.447 L 443.431,284.16 L 441.348,280.189 Z M 433.539,287.885 L 437.543,289.889 L 438.836,286.137 Z "/>
	</g>
</svg>