<?xml version="1.0" encoding="UTF-8" standalone="no"?>
<svg version="1.1" xmlns="http://www.w3.org/2000/svg" xmlns:xlink="http://www.w3.org/1999/xlink" width="100.137" height="58.7587">
	<g id="dp_dp001" transform="matrix(1,0,0,1,270.113,-584.961)">
		<path id="dp_path002" fill="white" fill-rule="evenodd" stroke="none" stroke-width="0" d="M -211.619,603.757 C -211.313,603.131 -211.313,602.495 -211.313,602.495 C -211.287,602.259 -211.272,601.301 -211.133,600.9 C -210.98,600.496 -210.384,599.748 -210.247,599.553 C -210.247,599.553 -209.123,598.221 -209.815,596.863 C -209.871,596.767 -207.305,597.779 -208.693,601.592 L -208.817,601.924 C -209.593,604.077 -210.759,604.741 -211.619,604.907 C -212.285,605.033 -212.769,604.852 -212.728,604.839 C -212.16,604.603 -211.827,604.187 -211.619,603.757 Z M -211.619,596.28 C -210.841,596.543 -209.955,597.333 -210.965,598.86 C -211.133,599.111 -211.397,599.4 -211.619,599.748 C -211.772,599.956 -211.896,600.207 -211.993,600.481 C -212.285,601.301 -212.188,602.008 -212.229,602.509 C -212.396,604.783 -214.197,604.367 -214.795,603.883 C -214.907,603.797 -215.003,603.7 -215.113,603.617 C -215.807,602.993 -216.556,602.145 -217.167,601.356 C -217.639,600.747 -218.027,600.149 -218.248,599.692 C -218.499,599.179 -218.276,599.055 -218.081,599.068 C -217.817,599.083 -217.5,599.152 -217.167,599.236 C -216.404,599.415 -215.627,599.692 -215.627,599.692 C -215.433,599.748 -215.267,599.789 -215.113,599.804 C -214.725,599.845 -214.461,599.789 -214.337,599.733 C -214.42,599.595 -214.644,599.332 -215.113,599.111 C -215.196,599.068 -215.28,599.027 -215.392,598.985 C -215.392,598.985 -216.404,598.639 -217.167,598.263 C -217.375,598.168 -217.555,598.055 -217.693,597.973 C -217.859,597.863 -217.971,597.625 -217.444,597.363 C -217.36,597.321 -217.263,597.28 -217.167,597.252 C -216.627,597.015 -215.891,596.793 -215.113,596.612 C -214.101,596.376 -213.02,596.211 -212.16,596.197 C -212.008,596.197 -211.813,596.224 -211.619,596.28 Z M -211.619,589.692 C -210.232,591.535 -211.272,593.02 -211.287,592.937 C -211.328,592.577 -211.452,592.272 -211.619,592.021 C -212.16,591.203 -213.144,590.925 -213.144,590.925 C -213.365,590.844 -214.268,590.565 -214.615,590.316 C -214.767,590.22 -214.933,590.025 -215.113,589.817 C -215.351,589.525 -215.585,589.207 -215.669,589.095 C -215.669,589.095 -216.237,588.249 -217.167,587.985 C -217.459,587.903 -217.791,587.876 -218.151,587.945 C -218.193,587.957 -217.859,587.5 -217.167,587.237 C -216.668,587.043 -215.987,586.947 -215.113,587.209 C -214.573,587.376 -213.964,587.681 -213.283,588.165 L -212.992,588.372 C -212.381,588.819 -211.937,589.261 -211.619,589.692 Z M -215.113,591.161 C -214.476,591.605 -213.797,591.744 -213.353,591.925 C -211.244,592.797 -212.203,594.38 -212.855,594.796 C -213.476,595.199 -214.281,595.601 -215.113,595.933 C -215.836,596.237 -216.556,596.488 -217.167,596.641 C -217.429,596.711 -217.679,596.752 -217.888,596.781 C -218.471,596.863 -218.511,596.612 -218.428,596.432 C -218.165,595.781 -217.429,594.74 -217.167,594.408 C -216.681,593.715 -216.627,593.272 -216.639,593.076 C -216.749,593.103 -216.945,593.172 -217.167,593.339 C -217.333,593.464 -217.5,593.616 -217.679,593.84 C -217.679,593.84 -218.664,595.143 -219.331,595.697 C -219.524,595.849 -219.76,595.879 -219.844,595.295 C -220.024,594.048 -219.816,591.523 -219.331,589.913 C -219.136,589.289 -218.261,588.291 -217.167,588.929 C -216.931,589.068 -216.681,589.289 -216.432,589.611 C -216.127,589.999 -215.807,590.635 -215.212,591.079 Z M -212.299,606.349 L -212.229,608.763 L -214.503,607.959 L -214.573,605.547 Z M -217.167,607.751 C -216.749,607.696 -216.32,607.515 -215.947,607.127 C -215.891,607.085 -215.932,608.292 -217.167,609.083 C -217.667,609.401 -218.36,609.651 -219.331,609.72 C -219.552,609.733 -219.788,609.733 -220.037,609.733 L -220.399,609.733 L -220.869,609.707 C -221.799,609.637 -222.492,609.416 -223.007,609.124 C -224.461,608.305 -224.461,606.919 -224.42,606.975 C -223.992,607.445 -223.477,607.628 -223.007,607.681 C -222.312,607.751 -221.744,607.556 -221.744,607.556 C -221.605,607.515 -221.232,607.404 -220.869,607.323 C -220.607,607.249 -220.343,607.211 -220.163,607.211 C -219.953,607.211 -219.635,607.293 -219.331,607.389 C -219.027,607.475 -218.748,607.571 -218.636,607.599 C -218.636,607.599 -217.944,607.876 -217.167,607.751 Z M -217.167,602.452 C -216.721,603.215 -216.32,604.005 -216.071,604.699 C -215.864,605.281 -215.947,606.613 -217.167,606.78 C -217.459,606.808 -217.791,606.793 -218.207,606.681 C -218.511,606.599 -218.887,606.447 -219.331,606.336 C -219.58,606.28 -219.829,606.239 -220.121,606.239 C -220.425,606.239 -220.648,606.28 -220.869,606.323 C -221.328,606.433 -221.729,606.599 -222.049,606.681 C -222.424,606.78 -222.729,606.808 -223.007,606.78 C -224.309,606.669 -224.405,605.296 -224.185,604.699 C -223.921,603.964 -223.477,603.104 -223.007,602.315 C -222.452,601.399 -221.84,600.551 -221.356,600.081 C -221.133,599.859 -220.968,599.804 -220.869,599.831 C -220.773,599.859 -220.731,599.941 -220.704,600.025 C -220.496,600.857 -220.496,602.551 -220.496,602.551 C -220.467,603.256 -220.247,603.647 -220.121,603.783 C -219.995,603.647 -219.775,603.256 -219.747,602.551 C -219.747,602.551 -219.747,600.857 -219.552,600.025 C -219.524,599.929 -219.456,599.816 -219.331,599.816 C -219.22,599.831 -219.08,599.885 -218.901,600.081 C -218.401,600.58 -217.748,601.481 -217.167,602.452 Z M -219.331,596.848 C -219.027,597.085 -218.831,597.46 -218.831,597.863 C -218.831,598.277 -219.027,598.639 -219.331,598.875 C -219.537,599.041 -219.801,599.137 -220.093,599.137 C -220.385,599.137 -220.648,599.041 -220.869,598.887 C -221.175,598.653 -221.369,598.277 -221.369,597.863 C -221.369,597.445 -221.175,597.085 -220.869,596.848 C -220.648,596.683 -220.385,596.585 -220.093,596.585 C -219.801,596.585 -219.537,596.683 -219.331,596.848 Z M -219.331,586.1 L -218.733,586.947 L -219.331,587.805 L -220.093,588.929 L -220.869,587.805 L -221.467,586.947 L -220.869,586.085 L -220.093,584.961 Z M -220.869,589.888 C -220.371,591.523 -220.163,594.048 -220.343,595.295 C -220.412,595.879 -220.677,595.849 -220.828,595.727 C -221.536,595.143 -222.507,593.84 -222.507,593.84 C -222.687,593.631 -222.853,593.479 -223.007,593.353 C -223.241,593.172 -223.435,593.103 -223.547,593.076 C -223.573,593.272 -223.519,593.715 -223.103,594.297 C -222.729,594.796 -222.021,595.796 -221.757,596.432 C -221.673,596.612 -221.729,596.863 -222.299,596.781 C -222.507,596.752 -222.741,596.711 -223.007,596.641 C -223.615,596.488 -224.351,596.237 -225.087,595.933 C -225.904,595.601 -226.724,595.199 -227.348,594.796 C -227.985,594.38 -228.941,592.797 -226.835,591.925 C -226.391,591.744 -225.711,591.605 -225.087,591.161 C -224.379,590.635 -224.06,589.999 -223.755,589.611 C -223.492,589.276 -223.241,589.055 -223.007,588.915 C -221.924,588.305 -221.064,589.276 -220.869,589.888 Z M -223.007,599.248 C -222.645,599.165 -222.284,599.096 -222.008,599.068 C -221.812,599.055 -221.592,599.179 -221.84,599.692 C -222.076,600.177 -222.492,600.816 -223.007,601.467 C -223.629,602.271 -224.379,603.104 -225.087,603.7 C -225.156,603.772 -225.224,603.824 -225.293,603.883 C -225.892,604.367 -227.68,604.783 -227.86,602.509 C -227.901,602.008 -227.805,601.301 -228.068,600.539 C -228.18,600.207 -228.319,599.956 -228.469,599.733 C -228.692,599.4 -228.955,599.111 -229.123,598.86 C -230.121,597.333 -229.247,596.543 -228.469,596.28 C -228.276,596.224 -228.081,596.197 -227.929,596.197 C -227.097,596.211 -226.056,596.363 -225.087,596.585 C -224.295,596.767 -223.561,596.988 -223.007,597.208 L -222.645,597.363 C -222.119,597.625 -222.215,597.863 -222.381,597.973 C -222.548,598.069 -222.771,598.193 -223.007,598.304 C -223.755,598.667 -224.697,598.985 -224.697,598.985 C -224.849,599.041 -224.975,599.096 -225.087,599.165 C -225.475,599.373 -225.681,599.609 -225.752,599.733 C -225.64,599.789 -225.405,599.845 -225.087,599.816 C -224.907,599.804 -224.697,599.761 -224.461,599.692 C -224.461,599.692 -223.727,599.443 -223.007,599.248 Z M -223.007,587.237 C -222.327,587.5 -222.008,587.957 -222.049,587.945 C -222.395,587.876 -222.715,587.903 -223.007,587.972 C -223.949,588.237 -224.531,589.095 -224.531,589.095 C -224.615,589.207 -224.836,589.525 -225.087,589.817 C -225.252,590.025 -225.433,590.22 -225.572,590.316 C -225.919,590.565 -226.835,590.844 -227.043,590.925 C -227.043,590.925 -227.916,591.176 -228.469,591.871 C -228.692,592.147 -228.859,592.493 -228.915,592.937 C -228.928,593.02 -230.011,591.453 -228.469,589.552 C -228.165,589.165 -227.749,588.777 -227.195,588.372 L -226.903,588.165 C -226.237,587.681 -225.627,587.376 -225.087,587.209 C -224.199,586.947 -223.504,587.043 -223.007,587.237 Z M -228.469,603.757 C -228.263,604.187 -227.929,604.603 -227.36,604.839 C -227.319,604.852 -227.805,605.033 -228.469,604.907 C -229.317,604.741 -230.496,604.077 -231.273,601.924 L -231.396,601.592 C -232.783,597.779 -230.217,596.767 -230.26,596.863 C -230.967,598.221 -229.843,599.553 -229.843,599.553 C -229.705,599.748 -229.108,600.496 -228.955,600.9 C -228.817,601.301 -228.788,602.259 -228.775,602.495 C -228.775,602.495 -228.775,603.131 -228.469,603.757 Z M -225.696,607.904 L -227.971,608.707 L -227.916,606.293 L -225.64,605.489 Z M -230.967,595.767 L -232.437,593.853 L -230.121,593.16 L -228.651,595.073 Z M -209.248,595.767 L -211.564,595.073 L -210.093,593.16 L -207.791,593.853 Z "/>
		<path id="dp_path003" fill="white" fill-rule="evenodd" stroke="none" stroke-width="0" d="M -207.599,612.216 C -206.876,612.228 -206.291,612.365 -205.843,612.64 C -205.396,612.925 -205.069,613.273 -204.872,613.711 C -204.673,614.144 -204.573,614.592 -204.573,615.065 C -204.573,615.537 -204.673,615.985 -204.872,616.421 C -205.069,616.856 -205.396,617.205 -205.843,617.492 C -206.291,617.767 -206.876,617.916 -207.599,617.916 C -208.319,617.916 -208.904,617.767 -209.352,617.492 C -209.787,617.205 -210.112,616.856 -210.311,616.421 C -210.521,615.985 -210.621,615.537 -210.609,615.065 C -210.621,614.592 -210.521,614.144 -210.311,613.711 C -210.112,613.273 -209.787,612.925 -209.352,612.64 C -208.904,612.365 -208.319,612.228 -207.599,612.216 Z M -207.599,617.217 C -207.175,617.217 -206.801,617.143 -206.465,616.981 C -206.141,616.821 -205.88,616.583 -205.681,616.26 C -205.481,615.948 -205.383,615.552 -205.383,615.065 C -205.383,614.592 -205.481,614.195 -205.681,613.872 C -205.88,613.548 -206.141,613.309 -206.465,613.149 C -206.801,613 -207.175,612.913 -207.599,612.913 C -208.007,612.913 -208.381,613 -208.717,613.149 C -209.053,613.309 -209.315,613.548 -209.513,613.872 C -209.699,614.195 -209.799,614.592 -209.813,615.065 C -209.799,615.552 -209.699,615.948 -209.513,616.26 C -209.315,616.583 -209.053,616.821 -208.717,616.981 C -208.381,617.143 -208.007,617.217 -207.599,617.217 Z M -236.527,617.779 L -236.527,612.353 L -232.161,612.353 L -232.161,613.051 L -235.719,613.051 L -235.719,614.629 L -232.26,614.629 L -232.26,615.325 L -235.719,615.325 L -235.719,617.081 L -232.085,617.081 L -232.085,617.779 Z M -244.205,617.779 L -244.205,612.353 L -239.837,612.353 L -239.837,613.051 L -243.396,613.051 L -243.396,614.629 L -239.949,614.629 L -239.949,615.325 L -243.396,615.325 L -243.396,617.081 L -239.763,617.081 L -239.763,617.779 Z M -249.68,612.353 L -249.196,612.353 C -248.585,612.353 -248.139,612.489 -247.839,612.752 C -247.528,613.013 -247.379,613.397 -247.367,613.909 C -247.379,614.431 -247.528,614.841 -247.827,615.14 C -248.124,615.439 -248.56,615.6 -249.133,615.6 L -249.68,615.6 L -251.185,615.6 L -251.185,617.779 L -251.983,617.779 L -251.983,612.353 Z M -249.68,614.905 L -249.245,614.905 C -248.847,614.905 -248.572,614.804 -248.411,614.619 C -248.249,614.444 -248.175,614.208 -248.175,613.921 C -248.175,613.66 -248.249,613.448 -248.411,613.299 C -248.56,613.136 -248.785,613.051 -249.096,613.051 L -249.68,613.051 L -251.185,613.051 L -251.185,614.905 Z M -226.213,612.353 L -225.092,612.353 C -224.731,612.353 -224.445,612.427 -224.233,612.577 C -224.009,612.712 -223.848,612.9 -223.76,613.112 C -223.661,613.337 -223.612,613.56 -223.612,613.796 C -223.612,614.132 -223.697,614.405 -223.848,614.643 C -223.999,614.879 -224.233,615.04 -224.533,615.14 C -224.283,615.191 -224.097,615.315 -223.96,615.512 C -223.823,615.725 -223.748,615.985 -223.736,616.309 C -223.724,616.633 -223.711,616.893 -223.687,617.095 C -223.673,617.28 -223.649,617.428 -223.612,617.529 C -223.585,617.629 -223.537,617.717 -223.473,617.779 L -224.333,617.779 C -224.396,617.717 -224.432,617.604 -224.445,617.455 C -224.457,617.305 -224.483,617.069 -224.496,616.745 C -224.52,616.272 -224.619,615.936 -224.793,615.749 C -224.956,615.564 -225.217,615.464 -225.541,615.477 L -226.213,615.477 L -228.004,615.477 L -228.004,617.779 L -228.812,617.779 L -228.812,612.353 Z M -226.213,614.78 L -225.404,614.78 C -225.141,614.78 -224.943,614.729 -224.793,614.643 C -224.656,614.556 -224.557,614.444 -224.496,614.307 C -224.445,614.181 -224.42,614.044 -224.42,613.921 C -224.42,613.66 -224.496,613.448 -224.656,613.287 C -224.819,613.136 -225.055,613.051 -225.377,613.051 L -226.213,613.051 L -228.004,613.051 L -228.004,614.78 Z M -217.067,616.745 L -214.939,612.353 L -213.817,612.353 L -213.817,617.779 L -214.628,617.779 L -214.628,613.273 L -216.755,617.779 L -217.067,617.779 L -217.465,617.779 L -219.567,613.372 L -219.58,617.779 L -220.388,617.779 L -220.388,612.353 L -219.256,612.353 L -217.117,616.856 Z M -197.045,617.779 L -200.529,613.46 L -200.555,617.779 L -201.349,617.779 L -201.349,612.353 L -200.416,612.353 L -196.935,616.671 L -196.921,612.353 L -196.111,612.353 L -196.111,617.779 Z M -191.109,617.779 L -191.109,613.051 L -193.164,613.051 L -193.164,612.353 L -188.247,612.353 L -188.247,613.051 L -190.301,613.051 L -190.301,617.779 Z "/>
		<path id="dp_path004" fill="white" fill-rule="evenodd" stroke="none" stroke-width="0" d="M -174.656,629.861 L -176.183,627.743 L -176.205,632.696 L -178.225,632.696 L -178.225,621.891 L -175.071,621.891 L -174.656,621.901 C -172.277,622.011 -171.088,623.069 -171.088,625.068 C -171.088,625.864 -171.327,626.529 -171.799,627.064 C -172.255,627.599 -172.877,627.905 -173.675,627.981 L -170.115,632.696 L -172.605,632.696 Z M -174.656,623.375 C -174.929,623.32 -175.235,623.297 -175.585,623.297 L -176.205,623.297 L -176.205,627.011 L -175.596,627.011 C -175.245,627.011 -174.929,626.977 -174.656,626.921 C -173.619,626.716 -173.105,626.115 -173.105,625.121 C -173.105,624.161 -173.619,623.583 -174.656,623.375 Z M -189.873,631.081 C -188.715,631.081 -187.799,630.711 -187.1,629.968 C -186.412,629.216 -186.064,628.287 -186.064,627.195 C -186.064,626.147 -186.412,625.273 -187.1,624.576 C -187.787,623.867 -188.715,623.505 -189.873,623.496 C -191.028,623.496 -191.957,623.855 -192.655,624.576 C -193.332,625.297 -193.672,626.16 -193.672,627.195 C -193.672,628.221 -193.311,629.128 -192.58,629.915 C -191.837,630.688 -190.944,631.081 -189.873,631.081 Z M -189.873,621.748 C -188.172,621.748 -186.763,622.295 -185.649,623.375 C -184.533,624.467 -183.989,625.764 -183.989,627.295 C -183.989,628.821 -184.533,630.132 -185.649,631.213 C -186.752,632.283 -188.157,632.817 -189.873,632.817 C -191.576,632.817 -192.995,632.283 -194.108,631.213 C -195.212,630.144 -195.767,628.844 -195.767,627.315 C -195.767,625.777 -195.212,624.467 -194.108,623.375 C -192.985,622.295 -191.563,621.748 -189.873,621.748 Z M -214.031,630.843 C -212.325,630.393 -211.485,629.216 -211.485,627.315 C -211.485,625.417 -212.325,624.237 -214.031,623.779 C -214.553,623.637 -215.165,623.56 -215.864,623.56 L -216.572,623.56 L -216.572,631.049 L -215.864,631.049 C -215.165,631.049 -214.553,630.984 -214.031,630.843 Z M -214.031,622 C -212.817,622.185 -211.803,622.665 -210.984,623.44 C -209.88,624.456 -209.324,625.745 -209.324,627.304 C -209.324,628.853 -209.88,630.144 -210.995,631.18 C -211.824,631.933 -212.84,632.413 -214.031,632.6 C -214.411,632.665 -214.815,632.696 -215.24,632.696 L -218.647,632.696 L -218.647,621.912 L -215.219,621.912 C -214.804,621.912 -214.411,621.947 -214.031,622 Z M -201.455,632.696 L -203.475,632.696 L -203.475,621.891 L -201.455,621.891 Z M -246.481,631.148 C -245.336,631.148 -244.407,630.776 -243.72,630.033 C -243.02,629.28 -242.684,628.352 -242.684,627.261 C -242.684,626.215 -243.02,625.34 -243.72,624.64 C -244.407,623.932 -245.324,623.572 -246.481,623.56 C -247.649,623.56 -248.576,623.921 -249.265,624.64 C -249.952,625.363 -250.291,626.224 -250.291,627.261 C -250.291,628.287 -249.92,629.193 -249.188,629.979 C -248.457,630.755 -247.551,631.148 -246.481,631.148 Z M -246.481,621.813 C -244.777,621.813 -243.383,622.361 -242.269,623.44 C -241.155,624.532 -240.599,625.832 -240.599,627.36 C -240.599,628.889 -241.155,630.199 -242.269,631.279 C -243.36,632.349 -244.767,632.884 -246.481,632.884 C -248.195,632.884 -249.604,632.349 -250.717,631.279 C -251.831,630.209 -252.387,628.909 -252.387,627.381 C -252.387,625.841 -251.831,624.532 -250.717,623.44 C -249.593,622.361 -248.184,621.813 -246.481,621.813 Z M -235.041,621.901 L -233.513,621.901 L -226.779,629.827 L -226.8,621.891 L -224.737,621.891 L -224.737,632.696 L -226.255,632.696 L -233,625.001 L -233.023,632.696 L -235.041,632.696 Z M -260.453,625.612 L -263.445,632.84 L -263.936,632.84 L -266.729,625.58 L -268.083,632.696 L -270.113,632.696 L -268.105,621.901 L -266.621,621.901 L -263.521,629.139 L -260.551,621.901 L -259.044,621.901 L -257.267,632.696 L -259.285,632.696 Z "/>
		<path id="dp_path005" fill="white" fill-rule="evenodd" stroke="none" stroke-width="0" d="M -237.148,643.477 C -237.393,643.575 -237.641,643.623 -237.891,643.623 C -238.208,643.623 -238.492,643.564 -238.743,643.448 C -238.992,643.331 -239.204,643.173 -239.379,642.975 C -239.555,642.777 -239.687,642.548 -239.779,642.291 C -239.869,642.035 -239.915,641.767 -239.915,641.488 C -239.915,641.179 -239.872,640.887 -239.787,640.607 C -239.701,640.327 -239.575,640.081 -239.407,639.872 C -239.237,639.661 -239.028,639.493 -238.776,639.371 C -238.524,639.245 -238.231,639.183 -237.893,639.183 C -237.663,639.183 -237.445,639.209 -237.241,639.263 C -237.037,639.316 -236.856,639.4 -236.695,639.515 C -236.535,639.631 -236.4,639.776 -236.291,639.952 C -236.181,640.129 -236.107,640.343 -236.068,640.592 L -236.632,640.592 C -236.66,640.429 -236.712,640.289 -236.787,640.173 C -236.861,640.056 -236.955,639.959 -237.067,639.884 C -237.177,639.808 -237.303,639.753 -237.444,639.715 C -237.585,639.677 -237.735,639.657 -237.892,639.657 C -238.151,639.657 -238.372,639.709 -238.556,639.812 C -238.74,639.915 -238.891,640.052 -239.008,640.22 C -239.125,640.388 -239.211,640.58 -239.267,640.796 C -239.323,641.013 -239.349,641.235 -239.349,641.46 C -239.349,641.681 -239.317,641.895 -239.255,642.099 C -239.192,642.304 -239.097,642.484 -238.975,642.64 C -238.852,642.797 -238.7,642.923 -238.52,643.015 C -238.339,643.109 -238.129,643.155 -237.891,643.155 C -237.669,643.155 -237.473,643.119 -237.303,643.048 C -237.132,642.976 -236.988,642.879 -236.871,642.752 C -236.753,642.627 -236.665,642.481 -236.605,642.312 C -236.547,642.144 -236.52,641.963 -236.529,641.768 L -237.885,641.768 L -237.885,641.292 L -236.024,641.292 L -236.024,643.529 L -236.38,643.529 L -236.529,642.999 C -236.696,643.221 -236.903,643.38 -237.148,643.477"/>
		<path id="dp_path006" fill="white" fill-rule="evenodd" stroke="none" stroke-width="0" d="M -232.128,641.775 L -232.835,639.795 L -232.848,639.795 L -233.568,641.775 Z M -232.52,639.283 L -230.86,643.531 L -231.485,643.531 L -231.949,642.251 L -233.747,642.251 L -234.223,643.531 L -234.799,643.531 L -233.145,639.283 Z "/>
		<path id="dp_path007" fill="white" fill-rule="evenodd" stroke="none" stroke-width="0" d="M -227.571,643.055 C -227.32,643.055 -227.125,642.987 -226.984,642.852 C -226.844,642.717 -226.773,642.531 -226.773,642.293 C -226.773,642.155 -226.799,642.04 -226.849,641.948 C -226.901,641.856 -226.971,641.784 -227.056,641.731 C -227.141,641.677 -227.239,641.64 -227.349,641.617 C -227.461,641.596 -227.576,641.585 -227.695,641.585 L -228.987,641.585 L -228.987,643.055 Z M -227.856,641.109 C -227.535,641.109 -227.303,641.053 -227.163,640.939 C -227.021,640.827 -226.952,640.657 -226.952,640.431 C -226.952,640.28 -226.975,640.161 -227.023,640.073 C -227.071,639.987 -227.136,639.919 -227.22,639.871 C -227.301,639.824 -227.399,639.792 -227.508,639.78 C -227.617,639.765 -227.733,639.757 -227.856,639.757 L -228.987,639.757 L -228.987,641.109 Z M -228.011,639.283 C -227.919,639.283 -227.821,639.284 -227.716,639.287 C -227.611,639.288 -227.507,639.293 -227.404,639.304 C -227.3,639.313 -227.205,639.328 -227.115,639.348 C -227.027,639.368 -226.949,639.397 -226.887,639.437 C -226.747,639.52 -226.629,639.636 -226.532,639.783 C -226.435,639.929 -226.387,640.109 -226.387,640.324 C -226.387,640.551 -226.441,640.745 -226.551,640.911 C -226.66,641.075 -226.815,641.197 -227.016,641.276 L -227.016,641.288 C -226.756,641.344 -226.555,641.461 -226.416,641.645 C -226.277,641.827 -226.208,642.049 -226.208,642.312 C -226.208,642.465 -226.236,642.616 -226.291,642.764 C -226.347,642.911 -226.429,643.039 -226.537,643.152 C -226.648,643.265 -226.783,643.357 -226.943,643.427 C -227.104,643.495 -227.288,643.531 -227.499,643.531 L -229.551,643.531 L -229.551,639.283 Z "/>
		<path id="dp_path008" fill="white" fill-rule="evenodd" stroke="none" stroke-width="0" d="M -224.175,642.04 C -224.119,642.249 -224.032,642.436 -223.912,642.601 C -223.792,642.769 -223.64,642.901 -223.453,643.004 C -223.267,643.105 -223.045,643.156 -222.785,643.156 C -222.528,643.156 -222.305,643.105 -222.119,643.004 C -221.932,642.901 -221.78,642.769 -221.66,642.601 C -221.541,642.436 -221.453,642.249 -221.397,642.04 C -221.343,641.832 -221.315,641.621 -221.315,641.407 C -221.315,641.192 -221.343,640.981 -221.397,640.773 C -221.453,640.565 -221.541,640.379 -221.66,640.212 C -221.78,640.044 -221.932,639.912 -222.119,639.809 C -222.305,639.708 -222.528,639.657 -222.785,639.657 C -223.045,639.657 -223.267,639.708 -223.453,639.809 C -223.64,639.912 -223.792,640.044 -223.912,640.212 C -224.032,640.379 -224.119,640.565 -224.175,640.773 C -224.231,640.981 -224.257,641.192 -224.257,641.407 C -224.257,641.621 -224.231,641.832 -224.175,642.04M -224.695,640.571 C -224.609,640.304 -224.481,640.067 -224.309,639.86 C -224.14,639.655 -223.927,639.491 -223.673,639.367 C -223.419,639.244 -223.124,639.183 -222.785,639.183 C -222.449,639.183 -222.153,639.244 -221.899,639.367 C -221.645,639.491 -221.433,639.655 -221.261,639.86 C -221.091,640.067 -220.963,640.304 -220.877,640.571 C -220.793,640.839 -220.749,641.117 -220.749,641.407 C -220.749,641.696 -220.793,641.973 -220.877,642.241 C -220.963,642.509 -221.091,642.745 -221.261,642.951 C -221.433,643.159 -221.645,643.321 -221.899,643.441 C -222.153,643.563 -222.449,643.623 -222.785,643.623 C -223.124,643.623 -223.419,643.563 -223.673,643.441 C -223.927,643.321 -224.14,643.159 -224.309,642.951 C -224.481,642.745 -224.609,642.509 -224.695,642.241 C -224.78,641.973 -224.823,641.696 -224.823,641.407 C -224.823,641.117 -224.78,640.839 -224.695,640.571"/>
		<path id="dp_path009" fill="white" fill-rule="evenodd" stroke="none" stroke-width="0" d="M -217.052,641.208 C -216.932,641.188 -216.828,641.149 -216.739,641.092 C -216.651,641.036 -216.577,640.957 -216.524,640.86 C -216.471,640.764 -216.444,640.637 -216.444,640.484 C -216.444,640.269 -216.504,640.095 -216.623,639.96 C -216.743,639.825 -216.933,639.757 -217.2,639.757 L -218.604,639.757 L -218.604,641.237 L -217.425,641.237 C -217.296,641.237 -217.169,641.228 -217.052,641.208 Z M -217.169,639.281 C -216.767,639.281 -216.449,639.381 -216.221,639.579 C -215.993,639.777 -215.879,640.048 -215.879,640.393 C -215.879,640.652 -215.937,640.877 -216.055,641.072 C -216.172,641.265 -216.36,641.399 -216.617,641.471 L -216.617,641.481 C -216.495,641.505 -216.393,641.545 -216.317,641.601 C -216.239,641.656 -216.177,641.721 -216.132,641.8 C -216.087,641.877 -216.052,641.964 -216.031,642.06 C -216.009,642.155 -215.993,642.253 -215.981,642.357 C -215.972,642.46 -215.967,642.565 -215.964,642.673 C -215.959,642.78 -215.949,642.884 -215.932,642.988 C -215.917,643.092 -215.893,643.189 -215.864,643.284 C -215.835,643.376 -215.789,643.459 -215.731,643.529 L -216.361,643.529 C -216.401,643.485 -216.428,643.427 -216.443,643.351 C -216.456,643.276 -216.464,643.192 -216.469,643.097 C -216.472,643.004 -216.476,642.904 -216.48,642.796 C -216.484,642.689 -216.496,642.585 -216.516,642.483 C -216.532,642.379 -216.551,642.28 -216.575,642.187 C -216.6,642.093 -216.637,642.012 -216.689,641.943 C -216.74,641.873 -216.807,641.817 -216.891,641.776 C -216.975,641.735 -217.085,641.713 -217.223,641.713 L -218.604,641.713 L -218.604,643.529 L -219.169,643.529 L -219.169,639.281 Z "/>
		<path id="dp_path010" fill="white" fill-rule="evenodd" stroke="none" stroke-width="0" d="M -213.792,642.04 C -213.736,642.249 -213.649,642.436 -213.529,642.601 C -213.409,642.769 -213.257,642.901 -213.071,643.004 C -212.884,643.105 -212.663,643.156 -212.403,643.156 C -212.145,643.156 -211.923,643.105 -211.736,643.004 C -211.551,642.901 -211.397,642.769 -211.277,642.601 C -211.159,642.436 -211.071,642.249 -211.016,642.04 C -210.96,641.832 -210.932,641.621 -210.932,641.407 C -210.932,641.192 -210.96,640.981 -211.016,640.773 C -211.071,640.565 -211.159,640.379 -211.277,640.212 C -211.397,640.044 -211.551,639.912 -211.736,639.809 C -211.923,639.708 -212.145,639.657 -212.403,639.657 C -212.663,639.657 -212.884,639.708 -213.071,639.809 C -213.257,639.912 -213.409,640.044 -213.529,640.212 C -213.649,640.379 -213.736,640.565 -213.792,640.773 C -213.848,640.981 -213.875,641.192 -213.875,641.407 C -213.875,641.621 -213.848,641.832 -213.792,642.04M -214.312,640.571 C -214.227,640.304 -214.099,640.067 -213.928,639.86 C -213.756,639.655 -213.544,639.491 -213.291,639.367 C -213.037,639.244 -212.741,639.183 -212.403,639.183 C -212.065,639.183 -211.771,639.244 -211.517,639.367 C -211.263,639.491 -211.049,639.655 -210.88,639.86 C -210.708,640.067 -210.581,640.304 -210.495,640.571 C -210.411,640.839 -210.367,641.117 -210.367,641.407 C -210.367,641.696 -210.411,641.973 -210.495,642.241 C -210.581,642.509 -210.708,642.745 -210.88,642.951 C -211.049,643.159 -211.263,643.321 -211.517,643.441 C -211.771,643.563 -212.065,643.623 -212.403,643.623 C -212.741,643.623 -213.037,643.563 -213.291,643.441 C -213.544,643.321 -213.756,643.159 -213.928,642.951 C -214.099,642.745 -214.227,642.509 -214.312,642.241 C -214.397,641.973 -214.44,641.696 -214.44,641.407 C -214.44,641.117 -214.397,640.839 -214.312,640.571"/>
		<path id="dp_path011" fill="white" fill-rule="evenodd" stroke="none" stroke-width="0" d="M -208.192,639.283 L -205.955,642.728 L -205.944,642.728 L -205.944,639.283 L -205.408,639.283 L -205.408,643.531 L -206.027,643.531 L -208.245,640.121 L -208.257,640.121 L -208.257,643.531 L -208.793,643.531 L -208.793,639.283 Z "/>
		<path id="dp_path012" fill="white" fill-rule="evenodd" stroke="none" stroke-width="0" d="M -200.664,639.283 L -200.664,639.759 L -203.033,639.759 L -203.033,641.109 L -200.825,641.109 L -200.825,641.585 L -203.033,641.585 L -203.033,643.055 L -200.645,643.055 L -200.645,643.531 L -203.599,643.531 L -203.599,639.283 Z "/>
	</g>
</svg>