<?xml version="1.0" encoding="UTF-8" standalone="no"?>
<svg version="1.1" xmlns="http://www.w3.org/2000/svg" xmlns:xlink="http://www.w3.org/1999/xlink" width="102" height="28">
	<g id="dp_dp001" transform="matrix(1,0,0,1,436.465,177.668)">
		<path id="dp_path002" fill="white" fill-rule="evenodd" stroke="none" stroke-width="0" d="M -400.788,-165.429 C -391.239,-168.067 -381.919,-167.985 -372.789,-165.429 C -376.324,-167.716 -381.731,-169.424 -386.748,-169.493 C -391.965,-169.356 -397.129,-168.093 -400.788,-165.429"/>
		<path id="dp_path003" fill="white" fill-rule="evenodd" stroke="white" stroke-width="0.0432114" stroke-linejoin="round" d="M -400.788,-165.429 C -391.239,-168.067 -381.919,-167.985 -372.789,-165.429 C -376.324,-167.716 -381.731,-169.424 -386.748,-169.493 C -391.965,-169.356 -397.129,-168.093 -400.788,-165.429 Z "/>
		<path id="dp_path004" fill="white" fill-rule="evenodd" stroke="none" stroke-width="0" d="M -388.133,-176.216 C -387.811,-176.311 -387.5,-176.392 -387.179,-176.459 C -386.371,-176.58 -385.589,-176.728 -384.691,-176.728 C -384.233,-176.647 -383.953,-176.701 -383.72,-176.028 C -383.693,-175.84 -383.681,-175.651 -383.655,-175.437 C -383.561,-175.449 -383.48,-175.476 -383.372,-175.476 C -382.917,-175.705 -382.363,-175.732 -381.772,-175.677 C -381.584,-175.612 -381.396,-175.543 -381.207,-175.449 L -381.207,-175.424 C -381.825,-175.424 -381.868,-175.437 -382.243,-175.168 C -382.243,-175.14 -382.243,-175.127 -382.229,-175.087 C -381.853,-175.073 -381.436,-175.168 -381.087,-174.696 C -381.38,-174.696 -381.679,-174.696 -381.973,-174.669 C -382.351,-174.549 -382.728,-174.415 -383.091,-174.28 C -383.655,-174.28 -383.816,-174.509 -384.084,-174.709 C -384.287,-174.791 -384.503,-174.871 -384.691,-174.939 L -388.133,-174.415 Z "/>
		<path id="dp_path005" fill="white" fill-rule="evenodd" stroke="white" stroke-width="0.0432114" stroke-linejoin="round" d="M -388.133,-176.216 C -387.811,-176.311 -387.5,-176.392 -387.179,-176.459 C -386.371,-176.58 -385.589,-176.728 -384.691,-176.728 C -384.233,-176.647 -383.953,-176.701 -383.72,-176.028 C -383.693,-175.84 -383.681,-175.651 -383.655,-175.437 C -383.561,-175.449 -383.48,-175.476 -383.372,-175.476 C -382.917,-175.705 -382.363,-175.732 -381.772,-175.677 C -381.584,-175.612 -381.396,-175.543 -381.207,-175.449 L -381.207,-175.424 C -381.825,-175.424 -381.868,-175.437 -382.243,-175.168 C -382.243,-175.14 -382.243,-175.127 -382.229,-175.087 C -381.853,-175.073 -381.436,-175.168 -381.087,-174.696 C -381.38,-174.696 -381.679,-174.696 -381.973,-174.669 C -382.351,-174.549 -382.728,-174.415 -383.091,-174.28 C -383.655,-174.28 -383.816,-174.509 -384.084,-174.709 C -384.287,-174.791 -384.503,-174.871 -384.691,-174.939 L -388.133,-174.415 Z "/>
		<path id="dp_path006" fill="white" fill-rule="evenodd" stroke="none" stroke-width="0" d="M -386.371,-172.881 C -385.993,-172.977 -385.629,-173.056 -385.243,-173.123 C -384.287,-173.244 -383.332,-173.392 -382.257,-173.392 C -381.717,-173.325 -381.367,-173.364 -381.099,-172.692 C -381.073,-172.505 -381.059,-172.316 -381.017,-172.101 C -380.912,-172.125 -380.804,-172.14 -380.681,-172.14 C -380.144,-172.369 -379.485,-172.396 -378.773,-172.344 C -378.543,-172.276 -378.329,-172.207 -378.101,-172.125 L -378.101,-172.088 C -378.841,-172.088 -378.88,-172.101 -379.339,-171.832 C -379.339,-171.804 -379.339,-171.792 -379.309,-171.752 C -378.865,-171.737 -378.368,-171.832 -377.953,-171.361 C -378.301,-171.361 -378.649,-171.361 -379.001,-171.349 C -379.459,-171.227 -379.916,-171.08 -380.345,-170.944 C -381.017,-170.944 -381.221,-171.172 -381.529,-171.375 C -381.784,-171.469 -382.027,-171.536 -382.257,-171.603 L -386.371,-171.08 Z "/>
		<path id="dp_path007" fill="white" fill-rule="evenodd" stroke="white" stroke-width="0.0432114" stroke-linejoin="round" d="M -386.371,-172.881 C -385.993,-172.977 -385.629,-173.056 -385.243,-173.123 C -384.287,-173.244 -383.332,-173.392 -382.257,-173.392 C -381.717,-173.325 -381.367,-173.364 -381.099,-172.692 C -381.073,-172.505 -381.059,-172.316 -381.017,-172.101 C -380.912,-172.125 -380.804,-172.14 -380.681,-172.14 C -380.144,-172.369 -379.485,-172.396 -378.773,-172.344 C -378.543,-172.276 -378.329,-172.207 -378.101,-172.125 L -378.101,-172.088 C -378.841,-172.088 -378.88,-172.101 -379.339,-171.832 C -379.339,-171.804 -379.339,-171.792 -379.309,-171.752 C -378.865,-171.737 -378.368,-171.832 -377.953,-171.361 C -378.301,-171.361 -378.649,-171.361 -379.001,-171.349 C -379.459,-171.227 -379.916,-171.08 -380.345,-170.944 C -381.017,-170.944 -381.221,-171.172 -381.529,-171.375 C -381.784,-171.469 -382.027,-171.536 -382.257,-171.603 L -386.371,-171.08 Z "/>
		<path id="dp_path008" fill="white" fill-rule="evenodd" stroke="none" stroke-width="0" d="M -384.544,-169.545 C -384.127,-169.627 -383.693,-169.72 -383.252,-169.787 C -382.159,-169.909 -381.073,-170.043 -379.851,-170.043 C -379.243,-169.977 -378.841,-170.029 -378.531,-169.356 C -378.503,-169.156 -378.491,-168.967 -378.436,-168.765 C -378.316,-168.78 -378.209,-168.792 -378.061,-168.792 C -377.456,-169.02 -376.688,-169.061 -375.895,-169.008 C -375.639,-168.94 -375.369,-168.873 -375.115,-168.78 L -375.115,-168.752 C -375.961,-168.752 -376.016,-168.765 -376.528,-168.483 C -376.528,-168.469 -376.528,-168.456 -376.497,-168.416 C -375.989,-168.401 -375.424,-168.483 -374.955,-168.012 C -375.357,-168.012 -375.748,-168.012 -376.151,-167.999 C -376.675,-167.88 -377.185,-167.744 -377.684,-167.595 C -378.436,-167.595 -378.68,-167.823 -379.029,-168.039 C -379.309,-168.12 -379.596,-168.187 -379.851,-168.255 L -384.544,-167.744 Z "/>
		<path id="dp_path009" fill="white" fill-rule="evenodd" stroke="white" stroke-width="0.0432114" stroke-linejoin="round" d="M -384.544,-169.545 C -384.127,-169.627 -383.693,-169.72 -383.252,-169.787 C -382.159,-169.909 -381.073,-170.043 -379.851,-170.043 C -379.243,-169.977 -378.841,-170.029 -378.531,-169.356 C -378.503,-169.156 -378.491,-168.967 -378.436,-168.765 C -378.316,-168.78 -378.209,-168.792 -378.061,-168.792 C -377.456,-169.02 -376.688,-169.061 -375.895,-169.008 C -375.639,-168.94 -375.369,-168.873 -375.115,-168.78 L -375.115,-168.752 C -375.961,-168.752 -376.016,-168.765 -376.528,-168.483 C -376.528,-168.469 -376.528,-168.456 -376.497,-168.416 C -375.989,-168.401 -375.424,-168.483 -374.955,-168.012 C -375.357,-168.012 -375.748,-168.012 -376.151,-167.999 C -376.675,-167.88 -377.185,-167.744 -377.684,-167.595 C -378.436,-167.595 -378.68,-167.823 -379.029,-168.039 C -379.309,-168.12 -379.596,-168.187 -379.851,-168.255 L -384.544,-167.744 Z "/>
		<path id="dp_path010" fill="white" fill-rule="evenodd" stroke="none" stroke-width="0" d="M -388.94,-164.785 C -388.94,-167.447 -388.995,-173.823 -388.967,-176.473 C -389.264,-176.889 -389.183,-176.943 -389.183,-177.279 C -388.831,-177.616 -388.497,-177.924 -388.012,-177.279 L -388.213,-176.473 L -388.213,-174.224 L -388.175,-164.879 Z "/>
		<path id="dp_path011" fill="white" fill-rule="evenodd" stroke="none" stroke-width="0" d="M -388.94,-164.785 C -388.94,-167.447 -388.995,-173.823 -388.967,-176.473 C -389.264,-176.889 -389.183,-176.943 -389.183,-177.279 C -388.831,-177.616 -388.497,-177.924 -388.012,-177.279 L -388.213,-176.473 L -388.213,-174.224 L -388.175,-164.879 Z "/>
		<path id="dp_path012" fill="white" fill-rule="evenodd" stroke="white" stroke-width="0.0432114" stroke-linejoin="round" d="M -388.94,-164.785 C -388.94,-167.447 -388.995,-173.823 -388.967,-176.473 C -389.264,-176.889 -389.183,-176.943 -389.183,-177.279 C -388.831,-177.616 -388.497,-177.924 -388.012,-177.279 L -388.213,-176.473 L -388.213,-174.224 L -388.175,-164.879 Z "/>
		<path id="dp_path013" fill="white" fill-rule="evenodd" stroke="none" stroke-width="0" d="M -387.031,-164.839 C -387.031,-166.76 -387.071,-171.361 -387.044,-173.283 C -387.312,-173.58 -387.231,-173.62 -387.231,-173.848 C -386.936,-174.104 -386.64,-174.319 -386.224,-173.848 L -386.397,-173.283 L -386.397,-171.657 L -386.356,-164.905 Z "/>
		<path id="dp_path014" fill="white" fill-rule="evenodd" stroke="none" stroke-width="0" d="M -387.031,-164.839 C -387.031,-166.76 -387.071,-171.361 -387.044,-173.283 C -387.312,-173.58 -387.231,-173.62 -387.231,-173.848 C -386.936,-174.104 -386.64,-174.319 -386.224,-173.848 L -386.397,-173.283 L -386.397,-171.657 L -386.356,-164.905 Z "/>
		<path id="dp_path015" fill="white" fill-rule="evenodd" stroke="white" stroke-width="0.0432114" stroke-linejoin="round" d="M -387.031,-164.839 C -387.031,-166.76 -387.071,-171.361 -387.044,-173.283 C -387.312,-173.58 -387.231,-173.62 -387.231,-173.848 C -386.936,-174.104 -386.64,-174.319 -386.224,-173.848 L -386.397,-173.283 L -386.397,-171.657 L -386.356,-164.905 Z "/>
		<path id="dp_path016" fill="white" fill-rule="evenodd" stroke="none" stroke-width="0" d="M -385.119,-164.812 C -385.119,-166.008 -385.16,-168.873 -385.149,-170.071 C -385.361,-170.26 -385.296,-170.284 -385.296,-170.432 C -385.053,-170.593 -384.797,-170.731 -384.448,-170.432 L -384.595,-170.071 L -384.595,-169.063 L -384.556,-164.853 Z "/>
		<path id="dp_path017" fill="white" fill-rule="evenodd" stroke="none" stroke-width="0" d="M -385.119,-164.812 C -385.119,-166.008 -385.16,-168.873 -385.149,-170.071 C -385.361,-170.26 -385.296,-170.284 -385.296,-170.432 C -385.053,-170.593 -384.797,-170.731 -384.448,-170.432 L -384.595,-170.071 L -384.595,-169.063 L -384.556,-164.853 Z "/>
		<path id="dp_path018" fill="white" fill-rule="evenodd" stroke="white" stroke-width="0.0432114" stroke-linejoin="round" d="M -385.119,-164.812 C -385.119,-166.008 -385.16,-168.873 -385.149,-170.071 C -385.361,-170.26 -385.296,-170.284 -385.296,-170.432 C -385.053,-170.593 -384.797,-170.731 -384.448,-170.432 L -384.595,-170.071 L -384.595,-169.063 L -384.556,-164.853 Z "/>
		<path id="dp_path019" fill="white" fill-rule="evenodd" stroke="none" stroke-width="0" d="M -429.796,-149.952 C -430.617,-150.059 -431.369,-150.3 -432.041,-150.543 C -432.352,-150.691 -432.648,-150.837 -432.944,-150.972 L -432.944,-151.027 C -433.011,-151.043 -433.065,-151.068 -433.104,-151.068 L -433.104,-151.12 C -433.253,-151.191 -433.373,-151.268 -433.507,-151.336 L -433.507,-151.404 C -433.548,-151.417 -433.589,-151.429 -433.615,-151.429 L -433.615,-151.485 C -433.669,-151.511 -433.709,-151.524 -433.749,-151.524 L -433.749,-151.579 C -433.804,-151.607 -433.845,-151.619 -433.885,-151.619 C -434.007,-151.849 -434.328,-152.087 -434.383,-152.104 C -434.705,-152.479 -435.001,-152.857 -435.296,-153.205 C -435.7,-153.945 -435.969,-154.524 -436.224,-155.116 C -436.32,-155.425 -436.4,-155.721 -436.465,-156.016 C -436.615,-157.213 -436.696,-158.236 -436.465,-159.272 C -436.265,-160.132 -435.916,-161.1 -435.457,-161.84 C -435.123,-162.311 -434.587,-163.131 -434.152,-163.332 C -434.152,-163.468 -433.845,-163.669 -433.709,-163.709 C -433.709,-163.816 -433.4,-164.087 -433.185,-164.087 L -433.185,-164.139 C -432.768,-164.368 -432.339,-164.571 -431.908,-164.772 C -431.532,-164.879 -431.169,-165.001 -430.765,-165.108 C -429.728,-165.296 -428.707,-165.269 -427.511,-165.121 C -426.919,-165.013 -426.327,-164.825 -425.6,-164.516 L -425.6,-164.463 C -425.535,-164.463 -425.479,-164.463 -425.412,-164.435 C -425.116,-165.055 -425.519,-165.429 -424.739,-165.429 C -424.685,-165.349 -424.633,-165.269 -424.551,-165.204 C -424.551,-163.709 -424.537,-162.216 -424.511,-160.724 C -424.537,-160.616 -424.551,-160.509 -424.551,-160.373 C -424.604,-160.319 -424.66,-160.265 -424.713,-160.199 C -425.116,-160.199 -425.237,-160.225 -425.292,-160.428 C -425.32,-160.724 -425.333,-161.019 -425.359,-161.329 C -425.573,-162.364 -426.152,-162.915 -426.919,-163.372 C -427.511,-163.641 -427.939,-163.736 -428.344,-163.805 C -429.071,-163.805 -429.553,-163.749 -430.173,-163.615 C -430.455,-163.508 -430.709,-163.372 -430.98,-163.251 C -431.048,-163.211 -431.128,-163.171 -431.179,-163.117 L -431.179,-163.061 C -431.221,-163.061 -431.249,-163.036 -431.288,-163.023 L -431.288,-162.969 C -431.516,-162.969 -431.667,-162.768 -431.733,-162.593 C -432.136,-162.405 -432.379,-161.825 -432.593,-161.449 C -432.728,-161.087 -432.863,-160.711 -432.969,-160.333 C -433.037,-159.997 -433.104,-159.66 -433.157,-159.312 C -433.185,-158.585 -433.227,-157.845 -433.253,-157.092 C -433.227,-156.783 -433.185,-156.461 -433.157,-156.151 C -432.889,-154.631 -432.256,-152.293 -430.493,-151.579 L -430.493,-151.524 L -430.375,-151.524 C -429.796,-151.283 -428.856,-151.083 -428.143,-151.524 C -427.657,-152.251 -427.737,-152.964 -427.684,-153.649 L -427.684,-155.68 C -427.712,-155.761 -427.737,-155.815 -427.752,-155.868 C -428.224,-156.003 -428.531,-155.921 -428.801,-156.111 C -429.003,-156.513 -428.856,-156.593 -428.572,-156.728 C -426.836,-156.728 -425.116,-156.728 -423.355,-156.701 L -423.355,-156.649 C -423.233,-156.649 -423.181,-156.365 -423.205,-156.179 C -423.259,-156.123 -423.327,-156.069 -423.381,-156.016 C -423.731,-156.003 -424.161,-155.961 -424.403,-155.841 C -424.497,-154.873 -424.415,-153.704 -424.403,-152.573 C -424.295,-152.573 -424.175,-152.547 -424.067,-152.533 C -423.784,-152.399 -423.784,-151.888 -424.175,-151.7 C -424.175,-151.619 -424.268,-151.607 -424.309,-151.579 L -424.309,-151.524 C -424.511,-151.524 -424.469,-151.471 -424.591,-151.404 L -424.591,-151.336 C -424.793,-151.336 -424.753,-151.283 -424.872,-151.216 L -424.872,-151.161 C -424.928,-151.161 -424.955,-151.136 -424.995,-151.12 L -424.995,-151.068 C -425.424,-150.891 -425.841,-150.704 -426.245,-150.516 C -427.067,-150.26 -427.939,-150.072 -428.667,-149.965 C -429.056,-149.965 -429.433,-149.965 -429.796,-149.952"/>
		<path id="dp_path020" fill="white" fill-rule="evenodd" stroke="none" stroke-width="0" d="M -383.357,-151.861 C -383.735,-152.128 -383.641,-152.251 -383.653,-152.439 C -383.708,-152.493 -383.763,-152.533 -383.816,-152.573 C -386.224,-152.587 -388.629,-152.613 -391.037,-152.613 C -391.48,-152.909 -391.388,-153.179 -391.065,-153.423 C -390.795,-153.488 -390.421,-153.541 -390.044,-153.729 C -390.028,-153.824 -390.016,-153.891 -389.975,-153.971 L -389.975,-163.251 C -390.044,-164.3 -390.071,-164.233 -390.863,-164.233 C -391.304,-164.381 -391.157,-164.609 -391.131,-164.812 L -389.193,-165.001 L -384.825,-164.972 C -384.395,-165.001 -383.976,-165.013 -383.547,-165.025 C -383.264,-165.348 -383.171,-166.061 -382.605,-165.497 C -382.605,-164.716 -382.78,-163.709 -382.887,-162.835 C -383.009,-162.632 -383.224,-162.592 -383.372,-162.58 C -383.425,-162.632 -383.492,-162.672 -383.547,-162.7 C -383.573,-162.943 -383.615,-163.184 -383.653,-163.427 C -383.708,-163.507 -383.763,-163.56 -383.816,-163.615 C -384.301,-163.615 -387.072,-163.655 -387.164,-163.56 L -387.164,-159.943 C -387.109,-159.889 -384.676,-159.889 -384.248,-159.889 C -383.519,-159.984 -383.896,-160.601 -383.641,-160.856 C -383.507,-160.897 -383.171,-161.14 -383.021,-160.669 C -383.061,-159.648 -383.076,-158.599 -383.089,-157.561 C -383.157,-157.508 -383.211,-157.455 -383.264,-157.375 C -384.127,-157.375 -383.693,-157.872 -383.843,-158.343 C -383.936,-158.396 -384.003,-158.436 -384.083,-158.477 L -387.139,-158.477 L -387.139,-154.067 C -387.084,-154.025 -387.031,-153.984 -386.948,-153.944 C -386.061,-153.971 -385.188,-153.971 -384.287,-153.971 C -383.749,-154.133 -383.453,-154.375 -383.089,-154.86 C -383.009,-155.289 -382.699,-155.572 -382.281,-155.14 C -382.281,-154.335 -382.699,-153.004 -382.887,-152.104 C -382.943,-152.049 -383.009,-151.968 -383.061,-151.901 C -383.171,-151.901 -383.264,-151.888 -383.357,-151.861"/>
		<path id="dp_path021" fill="white" fill-rule="evenodd" stroke="white" stroke-width="0.0594157" stroke-linejoin="round" d="M -383.357,-151.861 C -383.735,-152.128 -383.641,-152.251 -383.653,-152.439 C -383.708,-152.493 -383.763,-152.533 -383.816,-152.573 C -386.224,-152.587 -388.629,-152.613 -391.037,-152.613 C -391.48,-152.909 -391.388,-153.179 -391.065,-153.423 C -390.795,-153.488 -390.421,-153.541 -390.044,-153.729 C -390.028,-153.824 -390.016,-153.891 -389.975,-153.971 L -389.975,-163.251 C -390.044,-164.3 -390.071,-164.233 -390.863,-164.233 C -391.304,-164.381 -391.157,-164.609 -391.131,-164.812 L -389.193,-165.001 L -384.825,-164.972 C -384.395,-165.001 -383.976,-165.013 -383.547,-165.025 C -383.264,-165.348 -383.171,-166.061 -382.605,-165.497 C -382.605,-164.716 -382.78,-163.709 -382.887,-162.835 C -383.009,-162.632 -383.224,-162.592 -383.372,-162.58 C -383.425,-162.632 -383.492,-162.672 -383.547,-162.7 C -383.573,-162.943 -383.615,-163.184 -383.653,-163.427 C -383.708,-163.507 -383.763,-163.56 -383.816,-163.615 C -384.301,-163.615 -387.072,-163.655 -387.164,-163.56 L -387.164,-159.943 C -387.109,-159.889 -384.676,-159.889 -384.248,-159.889 C -383.519,-159.984 -383.896,-160.601 -383.641,-160.856 C -383.507,-160.897 -383.171,-161.14 -383.021,-160.669 C -383.061,-159.648 -383.076,-158.599 -383.089,-157.561 C -383.157,-157.508 -383.211,-157.455 -383.264,-157.375 C -384.127,-157.375 -383.693,-157.872 -383.843,-158.343 C -383.936,-158.396 -384.003,-158.436 -384.083,-158.477 L -387.139,-158.477 L -387.139,-154.067 C -387.084,-154.025 -387.031,-153.984 -386.948,-153.944 C -386.061,-153.971 -385.188,-153.971 -384.287,-153.971 C -383.749,-154.133 -383.453,-154.375 -383.089,-154.86 C -383.009,-155.289 -382.699,-155.572 -382.281,-155.14 C -382.281,-154.335 -382.699,-153.004 -382.887,-152.104 C -382.943,-152.049 -383.009,-151.968 -383.061,-151.901 C -383.171,-151.901 -383.264,-151.888 -383.357,-151.861 Z "/>
		<path id="dp_path022" fill="white" fill-rule="evenodd" stroke="none" stroke-width="0" d="M -373.987,-151.861 C -374.349,-152.036 -374.255,-152.332 -374.255,-152.439 C -374.267,-152.479 -374.293,-152.52 -374.308,-152.547 C -376.596,-152.573 -378.895,-152.587 -381.18,-152.613 C -381.827,-152.871 -381.623,-153.123 -381.313,-153.447 C -381.032,-153.488 -380.643,-153.503 -380.28,-153.704 C -380.224,-153.877 -380.172,-154.025 -380.119,-154.173 L -380.119,-163.857 C -380.157,-164.005 -380.224,-164.059 -380.345,-164.139 C -380.98,-164.179 -381.584,-164.099 -381.381,-164.731 C -381.275,-164.853 -381.248,-164.879 -381.128,-164.919 C -379.485,-164.919 -377.832,-164.919 -376.163,-164.905 C -376.097,-164.825 -375.815,-164.581 -376.017,-164.285 C -376.596,-163.897 -377.105,-164.529 -377.307,-163.736 C -377.307,-160.576 -377.307,-157.387 -377.281,-154.215 C -377.133,-154.067 -377.067,-153.997 -376.636,-153.971 C -375.775,-153.971 -374.321,-153.851 -373.835,-154.847 C -373.743,-155.008 -373.636,-155.181 -373.529,-155.331 C -373.247,-155.384 -372.936,-155.479 -372.936,-154.9 C -373.151,-153.984 -373.353,-153.072 -373.568,-152.157 C -373.676,-151.915 -373.771,-151.941 -373.987,-151.861"/>
		<path id="dp_path023" fill="white" fill-rule="evenodd" stroke="none" stroke-width="0" d="M -407.525,-157.629 C -408.131,-157.657 -408.708,-157.671 -409.285,-157.699 L -409.285,-157.819 C -408.736,-159.231 -408.197,-160.629 -407.66,-162.013 C -407.647,-161.973 -407.605,-161.948 -407.567,-161.907 C -407.135,-160.601 -406.719,-159.257 -406.261,-157.912 C -406.261,-157.845 -406.247,-157.765 -406.235,-157.671 C -406.679,-157.671 -407.109,-157.657 -407.525,-157.629M -361.707,-150.112 C -382.095,-150.125 -402.443,-150.152 -422.817,-150.167 C -423.287,-150.341 -423.205,-150.488 -423.205,-150.756 C -423.153,-150.837 -423.084,-150.92 -423.004,-150.987 C -420.153,-151.001 -417.305,-151.025 -414.437,-151.043 C -415.003,-151.607 -415.164,-152.345 -415.392,-152.884 C -415.852,-154.428 -416.308,-155.868 -416.887,-157.132 C -417.061,-157.481 -417.693,-158.331 -417.88,-158.331 L -417.88,-158.384 C -418.151,-158.492 -418.405,-158.599 -418.648,-158.693 C -418.876,-158.921 -418.661,-159.149 -418.633,-159.257 C -418.151,-159.297 -417.305,-159.419 -416.792,-159.713 C -416.456,-159.957 -416.212,-160.225 -416.039,-160.616 C -415.997,-160.845 -415.945,-161.059 -415.889,-161.261 L -415.889,-162.149 C -416.159,-163.641 -417.101,-163.601 -418.163,-163.655 C -418.417,-163.641 -418.661,-163.615 -418.903,-163.575 L -418.903,-154.147 C -418.876,-153.851 -418.928,-153.663 -418.445,-153.423 C -418.203,-153.405 -417.961,-153.368 -417.693,-153.341 C -417.571,-153.273 -417.291,-152.976 -417.612,-152.668 C -419.375,-152.668 -421.149,-152.668 -422.897,-152.641 C -422.965,-152.68 -423.044,-152.721 -423.1,-152.733 C -423.193,-153.017 -423.153,-153.124 -423.084,-153.26 C -422.467,-153.463 -421.9,-153.273 -421.66,-154.027 L -421.66,-163.669 C -421.727,-163.937 -421.78,-163.992 -421.929,-164.087 C -422.277,-164.155 -422.627,-164.22 -422.992,-164.273 C -423.301,-164.463 -423.193,-164.624 -423.193,-164.757 C -423.139,-164.825 -423.084,-164.905 -423.004,-164.96 C -420.759,-164.96 -418.487,-164.96 -416.212,-164.947 C -415.541,-164.879 -414.881,-164.716 -414.101,-164.327 L -414.101,-164.273 C -413.859,-164.273 -413.457,-163.601 -413.253,-163.223 C -413.215,-163.036 -413.16,-162.849 -413.092,-162.647 L -413.092,-161.677 C -413.173,-161.087 -413.656,-159.901 -414.332,-159.688 L -414.332,-159.635 C -414.532,-159.553 -414.72,-159.459 -414.908,-159.364 C -415.245,-159.272 -415.553,-159.163 -415.877,-159.056 C -415.824,-159.015 -415.755,-158.975 -415.688,-158.935 L -415.688,-158.88 C -415.447,-158.88 -415.339,-158.504 -414.948,-158.384 C -414.921,-158.289 -414.76,-158.113 -414.532,-158.009 C -414.532,-157.912 -414.332,-157.711 -414.181,-157.537 C -413.617,-156.46 -413.228,-154.807 -412.837,-153.488 C -412.675,-153.488 -412.636,-153.663 -412.392,-153.663 C -412.245,-153.932 -412.099,-154.173 -411.951,-154.415 C -410.604,-157.779 -409.261,-161.155 -407.929,-164.516 C -407.848,-164.663 -407.768,-164.812 -407.7,-164.96 C -407.284,-165.055 -406.288,-165.443 -405.816,-165.215 C -404.66,-161.825 -403.503,-158.424 -402.335,-154.993 C -402.227,-154.697 -402.092,-154.389 -401.957,-154.092 C -401.715,-153.663 -401.46,-153.488 -400.748,-153.341 C -400.627,-153.205 -400.587,-153.179 -400.587,-152.909 C -400.64,-152.829 -400.693,-152.733 -400.748,-152.641 L -406.075,-152.641 C -406.381,-152.733 -406.381,-152.964 -406.343,-153.112 C -406.193,-153.423 -405.831,-153.368 -405.387,-153.423 C -405.32,-153.488 -405.24,-153.543 -405.172,-153.596 C -405.077,-153.783 -405.089,-153.932 -405.089,-154.027 C -405.32,-154.765 -405.523,-155.519 -405.724,-156.26 C -405.764,-156.272 -405.804,-156.297 -405.816,-156.297 C -407.123,-156.313 -408.427,-156.313 -409.703,-156.313 C -409.948,-156.069 -410.133,-155.437 -410.309,-155.035 C -410.417,-154.725 -410.525,-154.415 -410.62,-154.092 C -410.62,-153.971 -410.74,-153.783 -410.459,-153.503 C -410.12,-153.395 -409.744,-153.448 -409.315,-153.353 C -409.261,-153.26 -409.14,-153.099 -409.193,-152.816 C -409.245,-152.763 -409.301,-152.696 -409.355,-152.641 C -410.403,-152.641 -411.439,-152.627 -412.461,-152.613 C -412.299,-152.184 -412.125,-151.672 -411.399,-151.511 C -411.129,-151.524 -410.768,-151.565 -410.403,-151.7 C -410.403,-151.579 -410.835,-151.161 -410.981,-151.043 C -390.647,-151.025 -370.327,-151.001 -349.968,-150.972 C -349.753,-150.891 -349.671,-150.756 -349.671,-150.368 C -349.805,-150.3 -349.941,-150.221 -350.06,-150.125 C -353.961,-150.125 -357.835,-150.125 -361.707,-150.112"/>
		<path id="dp_path024" fill="white" fill-rule="evenodd" stroke="none" stroke-width="0" d="M -368.728,-157.603 C -368.848,-157.629 -368.983,-157.657 -369.116,-157.671 C -368.633,-159.163 -368.068,-160.615 -367.492,-161.919 L -367.424,-161.919 C -366.897,-160.711 -366.455,-159.109 -366.024,-157.629 C -366.94,-157.629 -367.825,-157.617 -368.728,-157.603M -342.112,-151.524 C -342.489,-151.565 -342.852,-151.605 -343.229,-151.619 L -343.229,-163.547 C -342.976,-163.575 -342.708,-163.615 -342.436,-163.641 C -341.631,-163.641 -340.957,-163.507 -340.043,-163.117 L -340.043,-163.061 C -339.708,-163.061 -339.168,-162.283 -338.873,-161.907 C -338.336,-160.764 -338.201,-159.445 -338.159,-158.048 C -338.187,-157.617 -338.201,-157.187 -338.229,-156.757 C -338.376,-155.491 -338.805,-153.029 -339.989,-152.249 C -339.989,-152.184 -340.123,-152.144 -340.137,-152.144 L -340.137,-152.087 C -340.177,-152.087 -340.217,-152.063 -340.257,-152.049 L -340.257,-151.996 C -340.66,-151.861 -341.052,-151.712 -341.439,-151.565 C -341.671,-151.565 -341.885,-151.551 -342.112,-151.524M -342.747,-150.127 C -344.387,-150.152 -346.028,-150.167 -347.641,-150.167 C -348.207,-150.395 -348.071,-150.637 -347.884,-150.932 C -347.776,-150.985 -347.641,-151.025 -347.52,-151.067 C -347.251,-151.093 -346.999,-151.136 -346.713,-151.16 L -346.713,-151.215 C -346.417,-151.323 -346.459,-152.049 -346.459,-152.199 C -346.472,-155.828 -346.485,-159.459 -346.511,-163.077 C -346.699,-163.655 -346.86,-163.884 -347.237,-164.059 C -347.332,-164.087 -347.425,-164.099 -347.493,-164.099 C -348.22,-164.099 -348.757,-164.099 -349.335,-164.031 C -349.7,-163.763 -349.619,-163.816 -349.753,-163.399 C -349.765,-159.713 -349.765,-156.029 -349.765,-152.345 C -349.805,-152.157 -349.913,-152.049 -350.021,-151.941 C -350.184,-151.941 -350.303,-151.941 -350.437,-151.915 C -351.151,-152.277 -351.3,-152.641 -351.635,-153.099 C -353.747,-156.015 -355.871,-158.933 -357.984,-161.852 C -357.996,-161.719 -358.011,-161.571 -358.037,-161.409 C -358.037,-158.839 -358.011,-156.272 -357.996,-153.692 C -357.741,-153.315 -357.527,-153.352 -356.921,-153.3 C -356.787,-153.165 -356.587,-153.017 -356.772,-152.641 C -356.839,-152.628 -356.921,-152.613 -356.988,-152.573 C -358.103,-152.587 -359.223,-152.587 -360.351,-152.587 C -360.471,-152.721 -360.657,-152.587 -360.671,-152.573 C -362.407,-152.587 -364.143,-152.587 -365.876,-152.587 C -366.32,-152.817 -366.117,-153.059 -366.039,-153.26 C -365.756,-153.341 -365.315,-153.352 -364.963,-153.555 C -364.881,-153.729 -364.881,-153.877 -364.881,-154.025 C -365.097,-154.711 -365.297,-155.397 -365.487,-156.084 C -365.552,-156.123 -365.608,-156.151 -365.66,-156.164 C -366.964,-156.177 -368.271,-156.177 -369.56,-156.177 C -369.856,-156.177 -370.355,-154.335 -370.436,-153.932 C -370.436,-153.3 -369.749,-153.461 -369.064,-153.26 C -368.983,-153.112 -368.943,-153.072 -368.943,-152.884 C -369.023,-152.789 -369.089,-152.641 -369.213,-152.587 L -372.896,-152.587 C -373.3,-152.789 -373.097,-153.112 -373.004,-153.26 C -372.504,-153.447 -372.075,-153.704 -371.835,-154.215 C -370.393,-157.777 -368.943,-161.357 -367.492,-164.919 C -367.087,-165.013 -366.655,-165.108 -366.225,-165.204 C -366.117,-165.204 -365.891,-165.311 -365.608,-165.188 C -364.397,-161.637 -363.268,-158.155 -361.948,-154.428 C -361.856,-154.241 -361.775,-154.025 -361.575,-153.756 C -361.424,-153.663 -361.28,-153.555 -361.103,-153.447 L -361.103,-153.393 C -360.887,-153.352 -360.657,-153.315 -360.431,-153.273 C -360.136,-153.3 -359.865,-153.368 -359.504,-153.488 C -359.489,-153.541 -359.463,-153.596 -359.449,-153.636 C -359.449,-157.052 -359.449,-160.48 -359.436,-163.897 C -359.489,-163.991 -359.529,-164.059 -359.559,-164.139 C -359.988,-164.139 -360.404,-164.192 -360.553,-164.34 C -360.553,-164.785 -360.619,-164.811 -360.216,-164.905 L -355.779,-164.905 C -355.576,-164.853 -355.441,-164.785 -355.441,-164.368 C -355.671,-164.139 -355.896,-164.127 -356.115,-164.087 C -356.115,-163.857 -355.388,-163.009 -355.077,-162.647 C -351.744,-158.059 -351.447,-157.508 -351.217,-157.508 C -351.204,-157.561 -351.179,-157.603 -351.164,-157.629 L -351.164,-163.547 C -351.164,-164.368 -352.173,-164.099 -352.444,-164.285 C -352.656,-164.636 -352.508,-164.785 -352.268,-164.905 C -348.799,-164.919 -345.316,-164.919 -341.832,-164.919 C -341.092,-164.905 -340.407,-164.825 -339.505,-164.636 C -339.116,-164.529 -338.712,-164.395 -338.295,-164.273 C -337.919,-164.087 -337.555,-163.884 -337.165,-163.669 L -337.165,-163.615 C -336.939,-163.615 -336.076,-162.632 -335.835,-162.311 C -335.525,-161.772 -335.321,-161.261 -335.056,-160.48 C -335.001,-160.079 -334.947,-159.659 -334.863,-159.231 L -334.863,-157.657 C -335.015,-156.297 -335.336,-154.955 -335.981,-153.649 C -336.172,-153.352 -336.359,-153.059 -336.548,-152.735 C -336.991,-152.211 -337.744,-151.337 -338.376,-151.025 L -338.376,-150.972 C -338.563,-150.972 -338.805,-150.756 -338.831,-150.744 L -338.831,-150.691 L -338.953,-150.691 C -339.545,-150.395 -340.164,-150.26 -340.756,-150.167 C -341.427,-150.167 -342.099,-150.152 -342.747,-150.127"/>
		<path id="dp_path025" fill="white" fill-rule="evenodd" stroke="none" stroke-width="0" d="M -392.356,-152.049 C -392.677,-152.372 -392.519,-152.587 -392.491,-152.856 C -392.947,-152.856 -393.231,-152.668 -393.525,-152.573 C -394.776,-152.345 -395.893,-152.479 -396.941,-152.763 C -397.249,-152.884 -397.575,-153.016 -397.869,-153.123 C -399.149,-153.824 -399.94,-154.659 -400.667,-155.68 C -400.667,-155.787 -400.773,-155.907 -400.828,-155.961 C -401.271,-156.875 -401.421,-157.657 -401.568,-158.424 L -401.568,-159.943 C -401.421,-160.897 -401.152,-161.785 -400.681,-162.525 C -400.452,-162.821 -400.236,-163.117 -400.008,-163.412 C -399.697,-163.696 -399.377,-163.977 -399.04,-164.247 C -398.945,-164.327 -398.837,-164.395 -398.731,-164.463 C -398.448,-164.609 -398.167,-164.731 -397.869,-164.865 C -397.144,-165.108 -396.471,-165.257 -395.612,-165.348 L -394.521,-165.348 C -394.131,-165.295 -393.123,-165.203 -392.652,-164.853 C -392.639,-164.865 -392.612,-164.865 -392.584,-164.865 C -392.584,-165.269 -392.504,-165.685 -392.004,-165.511 C -391.965,-165.429 -391.915,-165.336 -391.859,-165.241 L -391.859,-162.645 C -391.915,-162.58 -391.965,-162.497 -392.004,-162.404 C -392.584,-162.189 -392.639,-162.929 -392.677,-163.077 C -392.785,-163.159 -392.799,-163.307 -392.853,-163.412 C -393.565,-164.005 -393.889,-163.977 -394.615,-164.005 C -395.705,-163.937 -396.243,-163.749 -397.035,-163.117 C -397.237,-162.848 -397.439,-162.592 -397.627,-162.311 C -397.788,-161.907 -397.964,-161.503 -398.125,-161.087 C -398.205,-160.724 -398.26,-160.373 -398.313,-159.997 C -398.327,-159.592 -398.327,-159.176 -398.327,-158.745 C -398.22,-157.375 -398.071,-155.936 -396.995,-154.669 C -396.457,-154.188 -396,-153.944 -395.153,-153.783 C -394.305,-153.729 -393.231,-153.743 -392.464,-154.309 C -392.261,-154.617 -392.059,-154.913 -391.831,-155.211 C -391.777,-155.289 -391.724,-155.343 -391.669,-155.397 C -391.335,-155.343 -391.304,-155.397 -391.239,-154.859 C -391.441,-154.025 -391.643,-153.179 -391.859,-152.332 C -392.032,-152.063 -392.167,-152.087 -392.356,-152.049"/>
	</g>
</svg>