<?xml version="1.0" encoding="UTF-8" standalone="no"?>
<svg version="1.1" xmlns="http://www.w3.org/2000/svg" xmlns:xlink="http://www.w3.org/1999/xlink" width="171" height="45">
	<path id="dp_path001" transform="matrix(1,0,0,1,1.82667,125.413)" fill="white" fill-rule="evenodd" stroke="none" stroke-width="0" d="M 48.2533,-115.613 C 47.5773,-116.188 46.7627,-116.591 45.8893,-116.812 C 49.24,-121.987 55.056,-125.412 61.6773,-125.413 C 72.0573,-125.412 80.4693,-116.999 80.4707,-106.619 C 80.4707,-105.121 80.2893,-103.665 79.96,-102.269 C 79.2653,-102.876 78.4347,-103.337 77.5493,-103.613 C 77.732,-104.588 77.832,-105.592 77.832,-106.619 C 77.832,-111.085 76.0267,-115.115 73.1,-118.045 C 70.1733,-120.969 66.1427,-122.775 61.6773,-122.775 C 57.2107,-122.775 53.18,-120.969 50.252,-118.045 C 49.5107,-117.303 48.84,-116.488 48.2533,-115.613 Z M 85.8787,-97.2613 C 82.0813,-96.852 77.3987,-100.703 74.6213,-102.859 C 71.6573,-105.156 68.696,-107.625 66.4107,-110.625 C 65.86,-111.347 65.1627,-112.968 64.324,-113.412 C 62.9613,-114.133 61.7493,-114.6 60.6627,-114.324 C 60.6013,-114.343 60.5387,-114.359 60.4787,-114.376 C 60.5147,-114.356 60.5493,-114.327 60.584,-114.303 C 60.0347,-114.144 59.5147,-113.792 59.0267,-113.173 C 57.6453,-111.424 56.1493,-109.312 54.3173,-108.023 C 53.7373,-107.616 53.1067,-107.241 52.3867,-107.159 C 52.3413,-107.152 52.3,-107.147 52.26,-107.14 C 52.256,-107.144 52.2507,-107.147 52.2453,-107.151 C 49.24,-109.033 46.936,-111.877 44.644,-114.531 C 42.968,-116.471 41.196,-118.993 38.872,-120.203 C 37.488,-120.924 34.4987,-122.264 32.9507,-121.472 C 31.5613,-120.761 31.1627,-118.295 30.7347,-116.199 C 29.7933,-117.197 28.796,-118.152 27.736,-119.019 C 24.9813,-121.276 20.7013,-123.847 16.9373,-123.469 C 14.332,-123.207 13.2387,-120.757 12.9027,-118.397 C 12.2907,-114.1 11.616,-109.785 9.90667,-105.759 C 8.80933,-103.175 7.40267,-100.195 5.05333,-98.4907 C 4.544,-98.12 3.984,-97.7213 3.36667,-97.536 C 2.81467,-98.088 2.39333,-98.736 2.008,-99.452 C 1.50267,-100.393 -1.50667,-99.8853 -1.82667,-100.479 C -0.332,-97.696 4.05733,-95.1947 7.288,-96.5453 C 12.7267,-98.8187 14.9293,-106.94 15.9133,-112.095 C 16.428,-114.783 16.1533,-119.889 18.7547,-121.704 C 19.1973,-122.013 19.6333,-122.289 20.196,-122.344 C 20.2987,-122.355 20.368,-122.369 20.424,-122.385 C 21.4013,-121.872 22.3267,-121.26 23.192,-120.579 C 24.596,-119.471 25.9293,-118.269 27.148,-116.959 C 27.8293,-116.228 27.756,-114.811 28.236,-113.873 C 28.9733,-112.443 30.784,-112.203 32.2573,-111.945 C 34.384,-111.576 34.3547,-115.484 34.708,-116.835 C 34.9507,-117.763 35.3787,-119.539 36.3573,-120.243 C 36.9307,-119.761 37.476,-119.249 37.9933,-118.707 C 40.824,-115.731 43.2507,-112.292 46.3973,-109.625 C 48.7573,-107.624 52.1867,-105.931 55.3733,-106.025 C 57.5107,-106.092 58.8467,-107.528 60.216,-109.033 C 60.4387,-109.277 61.456,-110.736 62.3933,-111.901 C 63.5453,-110.413 64.804,-109.005 66.1893,-107.728 C 69.816,-104.387 73.824,-101.229 78.324,-99.136 C 81.5173,-97.652 85.9173,-95.7867 89.5533,-96.18 C 88.9013,-96.1093 87.0107,-97.3853 85.8787,-97.2613 Z M 17.6907,-92.1267 L 17.6907,-89.924 L 14.228,-89.924 L 14.228,-80.6467 L 11.644,-80.6467 L 11.644,-89.924 L 8.18133,-89.924 L 8.18133,-92.1267 Z M 27.9267,-92.1267 L 30.512,-92.1267 L 30.512,-80.6467 L 27.9267,-80.6467 L 27.9267,-85.516 L 23.5867,-85.516 L 23.5867,-80.6467 L 21.0027,-80.6467 L 21.0027,-92.1267 L 23.5867,-92.1267 L 23.5867,-87.7373 L 27.9267,-87.7373 Z M 42.5187,-80.6467 C 42.392,-81.0467 42.2533,-81.4573 42.1067,-81.8773 C 41.96,-82.296 41.812,-82.7147 41.668,-83.1333 L 37.184,-83.1333 C 37.04,-82.7133 36.8947,-82.292 36.748,-81.8733 C 36.6027,-81.452 36.468,-81.0427 36.3413,-80.6467 L 33.6587,-80.6467 C 34.0893,-81.884 34.5,-83.028 34.888,-84.076 C 35.276,-85.1253 35.656,-86.1133 36.024,-87.0413 C 36.3973,-87.9693 36.7613,-88.8493 37.1227,-89.6827 C 37.4813,-90.516 37.8573,-91.332 38.244,-92.1267 L 40.6933,-92.1267 C 41.0707,-91.332 41.4413,-90.516 41.8093,-89.6827 C 42.1747,-88.8493 42.544,-87.9693 42.9147,-87.0413 C 43.2867,-86.1133 43.668,-85.1253 44.056,-84.076 C 44.444,-83.028 44.8533,-81.884 45.288,-80.6467 Z M 39.4147,-89.5267 C 39.356,-89.3587 39.272,-89.132 39.1613,-88.8467 C 39.0507,-88.5573 38.924,-88.2253 38.7813,-87.8493 C 38.64,-87.4733 38.4813,-87.0613 38.3067,-86.6093 C 38.132,-86.156 37.9533,-85.6827 37.7733,-85.1853 L 41.0533,-85.1853 C 40.8787,-85.684 40.708,-86.1613 40.544,-86.612 C 40.38,-87.0667 40.2227,-87.48 40.076,-87.8573 C 39.9267,-88.2333 39.7973,-88.564 39.6867,-88.852 C 39.5733,-89.1373 39.4827,-89.3627 39.4147,-89.5267 Z M 52.244,-80.4973 C 51.612,-80.4973 50.9867,-80.5187 50.3627,-80.556 C 49.7387,-80.5947 49.0893,-80.6853 48.416,-80.8293 L 48.416,-91.9613 C 48.948,-92.06 49.5267,-92.136 50.156,-92.1853 C 50.7853,-92.2347 51.3693,-92.2587 51.912,-92.2587 C 52.6413,-92.2587 53.312,-92.2067 53.9253,-92.1013 C 54.5373,-91.9973 55.064,-91.8173 55.5067,-91.5627 C 55.948,-91.3093 56.2933,-90.976 56.5427,-90.5613 C 56.7907,-90.1467 56.9133,-89.636 56.9133,-89.0293 C 56.9133,-88.112 56.472,-87.3907 55.5893,-86.8587 C 56.3187,-86.5827 56.8147,-86.2067 57.0787,-85.732 C 57.3453,-85.2573 57.4773,-84.7213 57.4773,-84.1253 C 57.4773,-82.9213 57.0387,-82.016 56.1613,-81.4093 C 55.2827,-80.8027 53.9773,-80.4973 52.244,-80.4973 Z M 50.9347,-87.6213 L 52.1933,-87.6213 C 52.9893,-87.6213 53.556,-87.724 53.9,-87.9267 C 54.2413,-88.132 54.4147,-88.46 54.4147,-88.9133 C 54.4147,-89.3787 54.236,-89.7027 53.8827,-89.8893 C 53.5307,-90.0773 53.0107,-90.1707 52.3253,-90.1707 C 52.1053,-90.1707 51.868,-90.1693 51.612,-90.1627 C 51.36,-90.1573 51.1347,-90.144 50.9347,-90.124 Z M 50.9347,-85.6493 L 50.9347,-82.6853 C 51.1227,-82.6613 51.3267,-82.6453 51.548,-82.6347 C 51.768,-82.624 52.0107,-82.6173 52.2773,-82.6173 C 53.048,-82.6173 53.672,-82.728 54.1493,-82.9507 C 54.6227,-83.1693 54.86,-83.58 54.86,-84.176 C 54.86,-84.704 54.66,-85.084 54.264,-85.3093 C 53.868,-85.536 53.2987,-85.6493 52.5573,-85.6493 Z M 68.7413,-80.6467 C 68.612,-81.0467 68.476,-81.4573 68.3293,-81.8773 C 68.1813,-82.296 68.0347,-82.7147 67.888,-83.1333 L 63.4053,-83.1333 C 63.26,-82.7133 63.1147,-82.292 62.9693,-81.8733 C 62.824,-81.452 62.6893,-81.0427 62.5627,-80.6467 L 59.8787,-80.6467 C 60.312,-81.884 60.7227,-83.028 61.108,-84.076 C 61.496,-85.1253 61.876,-86.1133 62.2467,-87.0413 C 62.6173,-87.9693 62.984,-88.8493 63.344,-89.6827 C 63.7027,-90.516 64.0773,-91.332 64.4653,-92.1267 L 66.9147,-92.1267 C 67.2933,-91.332 67.664,-90.516 68.0293,-89.6827 C 68.396,-88.8493 68.7653,-87.9693 69.1373,-87.0413 C 69.508,-86.1133 69.888,-85.1253 70.276,-84.076 C 70.6653,-83.028 71.0747,-81.884 71.508,-80.6467 Z M 65.636,-89.5267 C 65.5787,-89.3587 65.4947,-89.132 65.3813,-88.8467 C 65.2707,-88.5573 65.1453,-88.2253 65.0027,-87.8493 C 64.8627,-87.4733 64.7027,-87.0613 64.5293,-86.6093 C 64.3533,-86.156 64.1747,-85.6827 63.9933,-85.1853 L 67.276,-85.1853 C 67.1,-85.684 66.9307,-86.1613 66.7667,-86.612 C 66.6013,-87.0667 66.4453,-87.48 66.296,-87.8573 C 66.148,-88.2333 66.02,-88.564 65.9067,-88.852 C 65.796,-89.1373 65.7027,-89.3627 65.636,-89.5267 Z M 83.3187,-92.1267 C 83.5173,-91.7613 83.748,-91.312 84.008,-90.776 C 84.268,-90.2413 84.5387,-89.66 84.8213,-89.0373 C 85.1027,-88.412 85.3813,-87.776 85.66,-87.124 C 85.9373,-86.472 86.196,-85.8587 86.44,-85.2853 C 86.6827,-85.8587 86.944,-86.472 87.2213,-87.124 C 87.4987,-87.776 87.7773,-88.412 88.0587,-89.0373 C 88.3427,-89.66 88.612,-90.2413 88.8747,-90.776 C 89.1347,-91.312 89.3653,-91.7613 89.5627,-92.1267 L 91.9147,-92.1267 C 92.0267,-91.364 92.1267,-90.512 92.2213,-89.568 C 92.3147,-88.6227 92.3987,-87.64 92.4707,-86.6173 C 92.5413,-85.5973 92.608,-84.5733 92.6693,-83.5453 C 92.7293,-82.52 92.7813,-81.552 92.8267,-80.6467 L 90.308,-80.6467 C 90.2747,-81.7627 90.232,-82.976 90.1747,-84.2907 C 90.12,-85.6053 90.0387,-86.9307 89.9267,-88.2667 C 89.7267,-87.8027 89.5067,-87.2893 89.2627,-86.7253 C 89.02,-86.164 88.7787,-85.6 88.5387,-85.036 C 88.3013,-84.4733 88.0707,-83.936 87.8507,-83.4213 C 87.628,-82.908 87.4413,-82.4693 87.2867,-82.104 L 85.4813,-82.104 C 85.3253,-82.4693 85.1373,-82.908 84.9147,-83.4213 C 84.6933,-83.936 84.4627,-84.4733 84.224,-85.036 C 83.9867,-85.6 83.7453,-86.164 83.5027,-86.7253 C 83.2587,-87.2893 83.036,-87.8027 82.8387,-88.2667 C 82.7267,-86.9307 82.644,-85.6053 82.5893,-84.2907 C 82.5347,-82.976 82.4893,-81.7627 82.4573,-80.6467 L 79.9387,-80.6467 C 79.984,-81.552 80.0347,-82.52 80.096,-83.5453 C 80.156,-84.5733 80.2227,-85.5973 80.296,-86.6173 C 80.368,-87.64 80.4507,-88.6227 80.544,-89.568 C 80.636,-90.512 80.7387,-91.364 80.8507,-92.1267 Z M 107.717,-86.3947 C 107.717,-85.412 107.569,-84.5493 107.279,-83.804 C 106.985,-83.0573 106.585,-82.4333 106.077,-81.932 C 105.569,-81.428 104.965,-81.0493 104.264,-80.7973 C 103.561,-80.5427 102.809,-80.416 102.003,-80.416 C 101.217,-80.416 100.479,-80.5427 99.7813,-80.7973 C 99.088,-81.0493 98.4787,-81.428 97.9613,-81.932 C 97.4413,-82.4333 97.0333,-83.0573 96.736,-83.804 C 96.436,-84.5493 96.288,-85.412 96.288,-86.3947 C 96.288,-87.3787 96.444,-88.2413 96.7507,-88.988 C 97.06,-89.7333 97.4773,-90.3587 98.0027,-90.8667 C 98.5253,-91.376 99.1347,-91.756 99.824,-92.0107 C 100.513,-92.2653 101.241,-92.392 102.003,-92.392 C 102.785,-92.392 103.527,-92.2653 104.221,-92.0107 C 104.919,-91.756 105.525,-91.376 106.044,-90.8667 C 106.563,-90.3587 106.972,-89.7333 107.269,-88.988 C 107.568,-88.2413 107.717,-87.3787 107.717,-86.3947 Z M 98.9547,-86.3947 C 98.9547,-85.8307 99.0227,-85.324 99.1613,-84.872 C 99.3,-84.4187 99.4987,-84.0293 99.7573,-83.7027 C 100.017,-83.376 100.335,-83.1267 100.711,-82.9507 C 101.087,-82.7733 101.515,-82.6853 102.003,-82.6853 C 102.477,-82.6853 102.905,-82.7733 103.287,-82.9507 C 103.668,-83.1267 103.987,-83.376 104.247,-83.7027 C 104.507,-84.0293 104.705,-84.4187 104.844,-84.872 C 104.981,-85.324 105.051,-85.8307 105.051,-86.3947 C 105.051,-86.9587 104.981,-87.4693 104.844,-87.9267 C 104.705,-88.3853 104.507,-88.776 104.247,-89.1027 C 103.987,-89.4293 103.668,-89.68 103.287,-89.8587 C 102.905,-90.0347 102.477,-90.124 102.003,-90.124 C 101.515,-90.124 101.087,-90.0307 100.711,-89.848 C 100.335,-89.6667 100.017,-89.412 99.7573,-89.0853 C 99.4987,-88.7613 99.3,-88.368 99.1613,-87.912 C 99.0227,-87.452 98.9547,-86.9467 98.9547,-86.3947 Z M 114.659,-82.6173 C 115.021,-82.6173 115.323,-82.648 115.56,-82.7093 C 115.797,-82.7707 115.989,-82.8533 116.132,-82.9573 C 116.276,-83.0613 116.373,-83.1867 116.429,-83.3307 C 116.484,-83.476 116.512,-83.6347 116.512,-83.8107 C 116.512,-84.1867 116.336,-84.4973 115.981,-84.7467 C 115.629,-84.9947 115.021,-85.264 114.161,-85.5507 C 113.785,-85.6827 113.409,-85.8347 113.035,-86.0053 C 112.659,-86.1787 112.323,-86.392 112.024,-86.652 C 111.725,-86.912 111.483,-87.2253 111.295,-87.5973 C 111.107,-87.9667 111.015,-88.416 111.015,-88.9453 C 111.015,-89.476 111.113,-89.952 111.312,-90.38 C 111.511,-90.804 111.792,-91.1667 112.156,-91.464 C 112.52,-91.7613 112.961,-91.992 113.481,-92.1507 C 114.001,-92.312 114.585,-92.392 115.239,-92.392 C 116.009,-92.392 116.677,-92.308 117.241,-92.144 C 117.804,-91.9787 118.269,-91.7947 118.633,-91.5947 L 117.888,-89.5587 C 117.568,-89.724 117.211,-89.8707 116.82,-89.9973 C 116.427,-90.1253 115.955,-90.188 115.404,-90.188 C 114.784,-90.188 114.341,-90.1027 114.069,-89.932 C 113.799,-89.7613 113.664,-89.4973 113.664,-89.144 C 113.664,-88.9333 113.713,-88.7573 113.812,-88.6133 C 113.912,-88.472 114.052,-88.34 114.235,-88.2253 C 114.417,-88.1093 114.628,-88.0053 114.865,-87.912 C 115.101,-87.816 115.365,-87.72 115.651,-87.6213 C 116.248,-87.4 116.767,-87.1827 117.209,-86.9667 C 117.651,-86.752 118.017,-86.5 118.308,-86.212 C 118.603,-85.9253 118.821,-85.588 118.965,-85.2027 C 119.108,-84.816 119.18,-84.3453 119.18,-83.7933 C 119.18,-82.724 118.804,-81.892 118.053,-81.3013 C 117.301,-80.712 116.169,-80.416 114.659,-80.416 C 114.149,-80.416 113.691,-80.4467 113.283,-80.5067 C 112.875,-80.568 112.512,-80.6427 112.199,-80.7307 C 111.883,-80.8187 111.612,-80.912 111.387,-81.012 C 111.16,-81.112 110.969,-81.2053 110.815,-81.2947 L 111.543,-83.3453 C 111.884,-83.1587 112.308,-82.9907 112.811,-82.8413 C 113.313,-82.692 113.927,-82.6173 114.659,-82.6173 Z M 129.748,-92.1267 L 132.332,-92.1267 L 132.332,-80.6467 L 129.748,-80.6467 L 129.748,-85.516 L 125.408,-85.516 L 125.408,-80.6467 L 122.823,-80.6467 L 122.823,-92.1267 L 125.408,-92.1267 L 125.408,-87.7373 L 129.748,-87.7373 Z M 144.341,-80.6467 C 144.211,-81.0467 144.075,-81.4573 143.927,-81.8773 C 143.78,-82.296 143.633,-82.7147 143.488,-83.1333 L 139.004,-83.1333 C 138.86,-82.7133 138.713,-82.292 138.569,-81.8733 C 138.423,-81.452 138.288,-81.0427 138.163,-80.6467 L 135.477,-80.6467 C 135.911,-81.884 136.32,-83.028 136.708,-84.076 C 137.096,-85.1253 137.476,-86.1133 137.845,-87.0413 C 138.217,-87.9693 138.584,-88.8493 138.943,-89.6827 C 139.301,-90.516 139.677,-91.332 140.064,-92.1267 L 142.513,-92.1267 C 142.891,-91.332 143.263,-90.516 143.628,-89.6827 C 143.996,-88.8493 144.365,-87.9693 144.736,-87.0413 C 145.107,-86.1133 145.488,-85.1253 145.875,-84.076 C 146.264,-83.028 146.675,-81.884 147.107,-80.6467 Z M 141.235,-89.5267 C 141.177,-89.3587 141.093,-89.132 140.981,-88.8467 C 140.871,-88.5573 140.744,-88.2253 140.603,-87.8493 C 140.46,-87.4733 140.301,-87.0613 140.127,-86.6093 C 139.951,-86.156 139.773,-85.6827 139.592,-85.1853 L 142.875,-85.1853 C 142.699,-85.684 142.529,-86.1613 142.365,-86.612 C 142.201,-87.0667 142.044,-87.48 141.896,-87.8573 C 141.745,-88.2333 141.617,-88.564 141.505,-88.852 C 141.393,-89.1373 141.303,-89.3627 141.235,-89.5267 Z M 157.393,-92.1267 L 157.393,-89.924 L 153.931,-89.924 L 153.931,-80.6467 L 151.348,-80.6467 L 151.348,-89.924 L 147.887,-89.924 L 147.887,-92.1267 Z M 160.707,-80.6467 L 160.707,-92.1267 L 168.459,-92.1267 L 168.459,-89.956 L 163.289,-89.956 L 163.289,-87.704 L 167.877,-87.704 L 167.877,-85.5827 L 163.289,-85.5827 L 163.289,-82.8173 L 168.839,-82.8173 L 168.839,-80.6467 Z "/>
</svg>