<?xml version="1.0" encoding="UTF-8" standalone="no"?>
<svg version="1.1" xmlns="http://www.w3.org/2000/svg" xmlns:xlink="http://www.w3.org/1999/xlink" width="70" height="49">
	<g id="dp_dp001" transform="matrix(1,0,0,1,629.021,138.391)">
		<path id="dp_path002" fill="#d6d6d6" fill-rule="evenodd" stroke="none" stroke-width="0" d="M -594.621,-110.188 C -594.621,-110.188 -592.648,-110.251 -592.648,-110.251 C -592.648,-110.251 -590.691,-109.224 -590.691,-109.224 C -590.691,-109.224 -590.383,-109.471 -590.383,-109.471 C -590.383,-109.471 -590.047,-116.801 -590.047,-116.801 C -590.047,-116.801 -592.861,-116.769 -592.861,-116.769 C -592.861,-116.769 -594.621,-110.188 -594.621,-110.188 Z "/>
		<path id="dp_path003" fill="#d6d6d6" fill-rule="evenodd" stroke="none" stroke-width="0" d="M -605.547,-112.784 C -601.357,-112.072 -597.421,-110.739 -596.62,-107.236 C -596.62,-107.236 -596.289,-105.791 -596.289,-105.791 C -596.289,-105.791 -597.488,-107.305 -597.488,-107.305 C -598.675,-108.092 -602.105,-108.888 -612.808,-109.233 C -623.983,-109.591 -624.639,-117.208 -624.639,-117.208 C -624.639,-117.208 -620.888,-114.931 -618.472,-114.427 C -614.776,-113.652 -609.788,-113.507 -605.547,-112.784"/>
		<path id="dp_path004" fill="#d6d6d6" fill-rule="evenodd" stroke="none" stroke-width="0" d="M -594.032,-127.005 C -593.621,-126.312 -593.244,-125.36 -592.709,-124.235 C -592.167,-123.095 -591.444,-121.772 -591.228,-120.245 C -590.789,-117.16 -591.201,-113.723 -594.739,-109.793 C -594.739,-109.793 -596.12,-108.26 -596.12,-108.26 C -596.12,-108.26 -596.107,-110.265 -596.107,-110.265 C -595.277,-114.947 -598.201,-117.775 -602.017,-120.449 C -602.967,-121.115 -603.925,-121.756 -604.828,-122.405 C -605.736,-123.057 -606.604,-123.727 -607.351,-124.437 C -608.843,-125.857 -609.92,-127.512 -609.797,-129.603 C -609.728,-130.777 -609.12,-131.564 -608.549,-132.041 C -608.268,-132.279 -607.992,-132.443 -607.787,-132.549 C -607.56,-132.664 -607.22,-132.993 -607.22,-132.993 C -607.22,-132.993 -608.395,-131.86 -608.125,-130.64 C -607.941,-129.799 -606.288,-128.577 -605.039,-127.552 C -603.793,-126.532 -602.179,-125.501 -600.545,-124.383 C -597.9,-122.569 -595.075,-119.749 -593.728,-116.917 C -593.745,-118.648 -594.703,-121.719 -596.753,-122.981 C -601.064,-125.636 -602.175,-128.669 -602.197,-130.765 C -602.233,-134.167 -597.869,-137.083 -595.252,-138.057 C -592.86,-138.949 -590.516,-138.012 -590.467,-134.811 C -590.443,-133.117 -593.115,-131.989 -593.115,-131.989 C -591.723,-134.007 -592.877,-134.647 -593.579,-134.543 C -594.504,-134.401 -597.353,-132.62 -594.032,-127.005"/>
		<path id="dp_path005" fill="#d6d6d6" fill-rule="evenodd" stroke="none" stroke-width="0" d="M -614.269,-130.6 C -614.016,-130.545 -613.377,-130.161 -612.852,-129.895 C -612.332,-129.633 -610.561,-126.931 -613.201,-125.432 C -614.56,-124.659 -614.737,-123.863 -614.653,-123.571 C -614.624,-123.464 -613.901,-123.095 -613.483,-122.893 C -613.075,-122.7 -612.497,-122.533 -611.755,-122.364 C -610.253,-122.023 -608.292,-121.72 -606.243,-121.161 C -602.308,-120.091 -598.452,-118.091 -596.46,-113.005 C -596.351,-112.728 -594.777,-109.751 -594.677,-109.451 C -594.677,-109.451 -597.116,-107.563 -597.116,-107.563 C -598.467,-109.428 -599.715,-114.671 -601.695,-115.547 C -603.991,-116.561 -606.553,-117.089 -609,-117.535 C -610.136,-117.74 -611.235,-117.929 -612.243,-118.143 C -613.284,-118.361 -614.235,-118.607 -615.053,-118.923 C -616.727,-119.565 -618.623,-121.276 -618.523,-123.365 C -618.297,-128.193 -611.827,-127.607 -614.269,-130.6"/>
		<path id="dp_path006" fill="#d6d6d6" fill-rule="evenodd" stroke="none" stroke-width="0" d="M -591.196,-110.833 C -591.228,-110.891 -591.273,-110.976 -591.328,-111.087 C -591.432,-111.297 -591.567,-111.607 -591.697,-112.003 C -591.956,-112.781 -592.427,-114.215 -592.456,-115.535 C -592.524,-118.512 -591.159,-121.519 -586.299,-124.683 C -582.416,-127.208 -579.409,-131.384 -580.376,-134.377 C -579.712,-133.58 -578.991,-132.345 -578.904,-130.935 C -578.773,-128.86 -578.925,-124.52 -585.173,-120.517 C -587.931,-118.751 -589.243,-116.272 -589.741,-114.408 C -589.992,-113.473 -590.069,-112.645 -590.083,-112.051 C -590.096,-111.477 -590.044,-111.08 -590.044,-111.08 C -590.044,-111.08 -590.047,-111.029 -590.047,-111.029 C -590.048,-111.005 -590.811,-110.153 -591.196,-110.833"/>
		<path id="dp_path007" fill="#d6d6d6" fill-rule="evenodd" stroke="none" stroke-width="0" d="M -561.187,-116.264 C -561.187,-116.264 -559.499,-117.396 -559.499,-117.396 C -559.499,-117.396 -560.495,-115.125 -560.891,-114.517 C -561.275,-113.928 -561.867,-113.144 -562.696,-112.367 C -564.364,-110.803 -567.001,-109.261 -570.845,-109.329 C -573.112,-109.368 -575.108,-109.633 -577.84,-109.629 C -581.291,-109.627 -584.076,-108.781 -585.66,-108.025 C -586.488,-107.628 -588.704,-106.539 -590.331,-104.833 C -590.331,-104.833 -590.108,-106.888 -590.108,-106.888 C -590.108,-106.888 -590.473,-108.439 -590.473,-108.439 C -587.216,-111.995 -582.103,-112.528 -578.085,-113.077 C -574.148,-113.621 -570.151,-113.436 -566.796,-113.944 C -564.027,-114.361 -561.188,-116.261 -561.187,-116.264"/>
		<path id="dp_path008" fill="#d6d6d6" fill-rule="evenodd" stroke="none" stroke-width="0" d="M -574.416,-123.903 C -574.457,-124.017 -574.637,-124.209 -575.105,-124.495 C -575.564,-124.769 -576.121,-125.035 -576.636,-125.325 C -577.165,-125.621 -577.736,-125.983 -578.117,-126.452 C -578.531,-126.961 -578.728,-127.608 -578.449,-128.36 C -578.185,-129.079 -577.503,-129.66 -576.996,-130.024 C -576.996,-130.024 -577.235,-128.128 -574.62,-127.689 C -574.271,-127.632 -573.928,-127.447 -573.565,-127.313 C -573.175,-127.171 -573,-126.735 -572.632,-126.54 C -571.872,-126.136 -571.036,-125.575 -570.776,-124.563 C -569.72,-120.461 -574.083,-117.857 -578.007,-116.727 C -583.811,-115.052 -585.248,-113.779 -587.111,-111.672 C -588.315,-110.309 -589.655,-108.629 -589.319,-107.469 C -589.277,-107.329 -590.685,-109.357 -590.685,-109.357 C -590.685,-109.357 -590.649,-109.868 -590.649,-109.868 C -590.637,-110.032 -590.68,-110.621 -590.541,-111.465 C -590.395,-112.345 -590.673,-113.468 -590.048,-114.696 C -588.228,-118.263 -585.128,-120.439 -578.445,-122.128 C -575.067,-122.981 -574.324,-123.645 -574.416,-123.903"/>
		<path id="dp_path009" fill="#d6d6d6" fill-rule="evenodd" stroke="none" stroke-width="0" d="M -593.459,-121.857 C -590.896,-124.759 -590.439,-127.831 -590.885,-129.453 C -587.964,-131.08 -585.437,-136.209 -585.227,-137.059 C -585.056,-136.867 -584.755,-136.256 -584.755,-136.256 C -583.048,-133.213 -585.381,-129.507 -586.8,-126.875 C -587.515,-125.548 -588.181,-124.375 -588.969,-123.371 C -589.752,-122.376 -590.467,-121.572 -590.9,-121.039 C -592.504,-119.052 -591.052,-116.664 -591.583,-112.883 C -591.583,-112.883 -593.459,-121.857 -593.459,-121.857 Z "/>
		<path id="dp_path010" fill="#d6d6d6" fill-rule="evenodd" stroke="none" stroke-width="0" d="M -594.716,-103.369 C -594.055,-102.673 -593.808,-101.556 -594.459,-100.669 C -595.464,-99.2933 -596.141,-98.172 -596.007,-97.096 C -595.961,-97.096 -595.908,-97.096 -595.847,-97.1027 C -595.695,-97.116 -595.559,-97.144 -595.468,-97.16 C -594.515,-97.3373 -593.64,-97.7627 -592.981,-98.1693 C -592.824,-98.2667 -592.349,-98.5427 -592.225,-98.6293 C -592.864,-105.799 -582.985,-109.127 -576.293,-107.292 C -574.984,-107.915 -573.283,-108.475 -572.045,-108.571 C -569.459,-108.769 -569.445,-106.548 -569.939,-105.551 C -570.105,-105.215 -570.407,-104.775 -570.781,-104.409 C -571.125,-104.075 -571.691,-103.649 -572.377,-103.675 C -573.125,-103.703 -573.764,-103.627 -574.261,-103.321 C -574.892,-100.009 -578.429,-96.0493 -582.063,-94.4813 C -584.673,-93.3573 -588.463,-92.3667 -590.816,-94.504 C -591.517,-94.064 -592.417,-93.5533 -593.399,-93.16 C -594.668,-92.648 -596.324,-92.2293 -597.915,-92.6667 C -598.639,-92.0453 -599.488,-91.7213 -600.328,-91.5347 C -603.208,-90.8933 -606.915,-92.836 -609.571,-94.4547 C -610.972,-95.312 -612.264,-96.2013 -613.259,-96.876 C -613.485,-97.0293 -613.695,-97.1707 -613.887,-97.2973 C -614.051,-96.9973 -614.231,-96.6587 -614.415,-96.308 C -615.027,-95.148 -615.676,-93.8693 -615.931,-93.388 C -616.891,-91.572 -618.42,-89.2013 -620.768,-89.1933 C -622.957,-89.184 -623.895,-90.4573 -623.864,-92.1453 C -623.839,-93.572 -623.243,-95.3707 -622.296,-96.9747 C -619,-102.552 -615.039,-108.688 -608.299,-111.377 C -607.193,-111.819 -605.943,-112.225 -604.689,-112.489 C -603.936,-112.647 -601.597,-111.464 -602.453,-112.783 C -600.569,-112.86 -598.888,-112.423 -597.952,-111.048 C -596.237,-108.528 -597.893,-106.191 -599.581,-104.789 C -601.367,-103.304 -603.94,-102.115 -606.145,-101.384 C -607.148,-101.052 -608.216,-100.817 -609.363,-100.569 C -608.324,-99.8373 -607.204,-99.1227 -605.908,-98.4133 C -604.307,-97.5387 -602.805,-96.9387 -601.675,-96.8333 C -602.031,-100.493 -598.157,-103.833 -596.356,-103.931 C -596.232,-103.937 -596.112,-103.935 -595.995,-103.921 C -596.74,-104.504 -597.699,-105.869 -597.641,-107.132 C -597.547,-109.164 -595.82,-110.491 -593.652,-110.641 C -591.484,-110.793 -589.436,-109.812 -589.36,-107.209 C -589.296,-105.001 -591.98,-102.752 -594.716,-103.369M -580.611,-103.7 C -585.264,-103.489 -587.744,-100.039 -587.552,-99.116 C -587.499,-98.868 -587.167,-98.24 -585.729,-98.4587 C -583.627,-98.78 -581.248,-100.36 -579.953,-102.411 C -580.281,-102.781 -580.512,-103.204 -580.611,-103.7M -602.864,-108.108 C -603.041,-108.156 -603.399,-108.181 -603.921,-108.065 C -604.836,-107.863 -605.445,-107.616 -606.836,-106.727 C -608.036,-105.959 -608.42,-105.665 -608.833,-105.307 C -607.076,-105.98 -603.36,-107.636 -603.083,-107.883 C -602.98,-107.972 -602.909,-108.049 -602.864,-108.108"/>
		<path id="dp_path011" fill="white" fill-rule="evenodd" stroke="none" stroke-width="0" d="M -593.708,-135.952 C -594.892,-135.685 -597.983,-133.809 -594.232,-127.785 C -592.565,-125.108 -588.679,-118.309 -595.179,-111.024 C -593.38,-121.196 -609.636,-123.043 -609.207,-130.403 C -609.095,-132.336 -607.22,-132.993 -607.22,-132.993 C -607.22,-132.993 -607.881,-132.223 -607.713,-131.075 C -607.077,-126.704 -594.343,-124.173 -593.592,-116.229 C -590.891,-121.867 -599.915,-126.148 -599.736,-132.872 C -599.572,-139.027 -590.16,-140.527 -590.229,-135.049 C -590.263,-132.461 -593.115,-131.989 -593.115,-131.989 C -590.461,-135.467 -592.912,-136.133 -593.708,-135.952"/>
		<path id="dp_path012" fill="white" fill-rule="evenodd" stroke="none" stroke-width="0" d="M -617.711,-123.311 C -618.332,-127.743 -610.559,-127.153 -614.269,-130.6 C -613.807,-130.5 -612.431,-130.14 -611.964,-129.1 C -610.937,-126.823 -615.224,-126.136 -614.617,-124.04 C -613.808,-121.233 -599.676,-123.637 -596.104,-112.748 C -602.247,-121.239 -616.867,-117.276 -617.711,-123.311"/>
		<path id="dp_path013" fill="white" fill-rule="evenodd" stroke="none" stroke-width="0" d="M -590.637,-111.887 C -590.637,-111.857 -594.777,-118.612 -585.316,-124.769 C -581.34,-127.356 -579.323,-131.64 -580.376,-134.377 C -579.753,-134.453 -575.38,-127.937 -585.583,-121.628 C -591.457,-117.995 -590.637,-111.887 -590.637,-111.887"/>
		<path id="dp_path014" fill="white" fill-rule="evenodd" stroke="none" stroke-width="0" d="M -566.707,-114.192 C -563.793,-114.633 -560.857,-116.605 -560.857,-116.605 C -560.857,-116.605 -563.511,-110.627 -570.833,-110.755 C -573.107,-110.795 -575.105,-111.06 -577.84,-111.056 C -584.956,-111.048 -587.789,-107.347 -589.761,-107.736 C -583.505,-114.569 -573.42,-113.177 -566.707,-114.192"/>
		<path id="dp_path015" fill="white" fill-rule="evenodd" stroke="none" stroke-width="0" d="M -577.673,-121.8 C -574.343,-122.644 -573.547,-124.069 -573.86,-124.937 C -574.34,-126.259 -578.668,-126.897 -577.896,-128.989 C -577.5,-130.065 -575.705,-130.952 -575.705,-130.952 C -578.32,-127.14 -572.281,-128.641 -571.112,-125.468 C -569.887,-122.149 -573.495,-119.565 -578.041,-118.555 C -590.304,-115.825 -589.036,-110.431 -590.06,-110.659 C -590.015,-111.3 -590.84,-118.473 -577.673,-121.8"/>
		<path id="dp_path016" fill="white" fill-rule="evenodd" stroke="none" stroke-width="0" d="M -608.936,-133.876 C -610.129,-132.831 -611.545,-129.107 -609.565,-126.739 C -610.979,-127.768 -613.083,-132.76 -610.072,-135.877 C -610.439,-135.033 -610.908,-132.904 -610.928,-132.115 C -610.32,-133.033 -609.633,-133.767 -608.936,-133.876"/>
		<path id="dp_path017" fill="#d6d6d6" fill-rule="evenodd" stroke="none" stroke-width="0" d="M -621.544,-105.361 C -625.884,-104.845 -628.853,-108.2 -628.961,-108.424 C -629.044,-108.592 -629.065,-108.728 -629.021,-108.897 C -628.972,-109.1 -628.745,-109.395 -628.409,-109.368 C -628.311,-109.363 -628.227,-109.32 -628.175,-109.288 C -628.128,-109.26 -627.869,-109.044 -627.781,-108.988 C -625.904,-107.788 -624.229,-107.137 -622.339,-107.593 C -621.137,-107.887 -620.103,-108.277 -619.105,-108.539 C -618.084,-108.805 -617.412,-108.747 -616.288,-108.499 C -616.288,-108.499 -615.744,-108.379 -615.744,-108.379 C -615.744,-108.379 -616.149,-107.996 -616.149,-107.996 C -617.38,-106.833 -619.032,-105.659 -621.544,-105.361"/>
		<path id="dp_path018" fill="white" fill-rule="evenodd" stroke="none" stroke-width="0" d="M -615.405,-108.861 C -617.485,-109.475 -619.283,-108.611 -621.727,-108.197 C -623.696,-107.864 -625.509,-108 -627.564,-109.031 C -627.773,-109.135 -627.96,-109.317 -628.088,-109.313 C -628.232,-109.308 -628.348,-109.155 -628.365,-109.032 C -628.373,-108.973 -628.347,-108.923 -628.319,-108.883 C -628.292,-108.844 -627.905,-108.493 -627.776,-108.407 C -625.912,-107.141 -623.841,-106.129 -621.137,-106.335 C -618.701,-106.52 -616.695,-107.801 -615.405,-108.861"/>
		<path id="dp_path019" fill="white" fill-rule="evenodd" stroke="none" stroke-width="0" d="M -628.64,-115.321 C -627.576,-112.815 -624.784,-110.544 -621.756,-110.757 C -624.689,-111.536 -626.156,-115.087 -626.44,-116.316 C -626.755,-115.607 -626.736,-113.795 -626.251,-113.309 C -627.48,-114.465 -628.383,-114.899 -628.64,-115.321"/>
		<path id="dp_path020" fill="white" fill-rule="evenodd" stroke="none" stroke-width="0" d="M -569.515,-118.668 C -566.721,-119.6 -564.728,-122.609 -564.728,-122.609 C -564.728,-122.609 -565.308,-117.415 -572.544,-115.315 C -574.725,-114.68 -576.989,-114.531 -579.688,-114.1 C -586.716,-112.98 -588.029,-109.115 -590.036,-109.191 C -585.443,-117.133 -576.656,-116.285 -569.515,-118.668"/>
		<path id="dp_path021" fill="white" fill-rule="evenodd" stroke="none" stroke-width="0" d="M -618.593,-114.681 C -621.181,-115.223 -623.588,-117.384 -623.588,-117.384 C -623.588,-117.384 -622.355,-111.152 -613.837,-111.088 C -603.059,-111.005 -600.665,-110.807 -598.017,-108.249 C -598.327,-109.655 -599.468,-110.337 -600.484,-111.137 C -604.945,-114.856 -612.633,-113.436 -618.593,-114.681"/>
		<path id="dp_path022" fill="white" fill-rule="evenodd" stroke="none" stroke-width="0" d="M -623.629,-124.124 C -623.629,-124.124 -623.469,-117.001 -614.12,-115.56 C -604.529,-114.08 -604.845,-113.573 -601.697,-111.843 C -597.937,-109.775 -592.883,-109.316 -592.315,-113.848 C -591.847,-117.601 -591.319,-119.895 -589.592,-122.031 C -587.865,-124.165 -580.292,-130.991 -584.424,-137.415 C -585.092,-135.045 -586.717,-131.947 -589.875,-129.137 C -589.243,-125.279 -592.503,-122.565 -592.684,-120.137 C -592.684,-120.137 -593.14,-122.409 -596.647,-125.377 C -603.916,-131.532 -600.097,-134.852 -598.691,-135.425 C -597.293,-135.993 -595.332,-135.487 -594.951,-134.447 C -594.951,-134.447 -595.121,-136.805 -598.108,-136.613 C -601.948,-136.365 -605.464,-130.936 -597.777,-124.695 C -594.016,-121.637 -593.931,-120.323 -593.337,-119.485 C -594.464,-120.989 -596.808,-123.368 -599.321,-125.189 C -601.523,-126.785 -605.651,-131.637 -601.471,-135.961 C -601.471,-135.961 -608.992,-131.035 -599.181,-123.915 C -596.012,-121.615 -592.911,-117.835 -593.803,-114.596 C -594.213,-113.092 -595.841,-112.352 -600.408,-114.928 C -605.82,-117.984 -609.556,-117.444 -614.399,-118.691 C -619.388,-119.976 -623.629,-124.124 -623.629,-124.124"/>
		<path id="dp_path023" fill="white" fill-rule="evenodd" stroke="none" stroke-width="0" d="M -593.363,-109.735 C -591.668,-109.855 -590.207,-108.708 -590.099,-107.175 C -589.992,-105.639 -591.279,-104.301 -592.973,-104.183 C -594.668,-104.065 -596.131,-105.211 -596.239,-106.744 C -596.345,-108.279 -595.056,-109.617 -593.363,-109.735 Z M -613.857,-98.5973 C -614.085,-98.1973 -614.376,-97.6547 -614.679,-97.084 C -615.289,-95.924 -615.94,-94.644 -616.193,-94.1627 C -617.193,-92.272 -618.529,-90.3853 -620.355,-90.3773 C -622.091,-90.372 -622.701,-91.2693 -622.68,-92.5467 C -622.656,-93.804 -622.119,-95.4733 -621.216,-97 C -617.911,-102.593 -614.064,-108.499 -607.597,-111.081 C -603.931,-112.545 -599.665,-113.231 -598.171,-111.032 C -596.827,-109.061 -598.012,-107.163 -599.656,-105.799 C -601.34,-104.399 -603.809,-103.245 -605.971,-102.531 C -607.491,-102.028 -609.613,-101.585 -610.997,-101.325 C -608.668,-99.5613 -603.291,-95.8067 -600.369,-96.328 C -601.477,-99.7413 -597.289,-103.393 -595.987,-103.484 C -594.943,-103.556 -594.139,-102.211 -594.775,-101.341 C -595.776,-99.9707 -596.565,-98.7853 -596.336,-97.3213 C -596.273,-96.9213 -596.091,-96.82 -595.856,-96.7707 C -595.711,-96.74 -595.541,-96.7387 -595.365,-96.7533 C -595.181,-96.7693 -595.02,-96.8013 -594.908,-96.8213 C -593.831,-97.0213 -592.867,-97.4973 -592.16,-97.932 C -591.8,-98.1533 -591.513,-98.3627 -591.324,-98.5093 C -592.329,-105.092 -582.605,-108.947 -575.805,-106.889 C -574.516,-107.54 -572.757,-108.128 -571.569,-108.22 C -569.907,-108.349 -569.82,-107.099 -570.209,-106.308 C -570.469,-105.785 -571.215,-104.833 -571.932,-104.861 C -572.84,-104.896 -573.804,-104.796 -574.549,-104.175 C -574.953,-101.135 -578.372,-97.1493 -581.951,-95.604 C -584.808,-94.3733 -588.395,-93.6173 -590.284,-95.912 C -591.008,-95.4293 -592.081,-94.7667 -593.268,-94.2893 C -594.611,-93.7493 -596.245,-93.3853 -597.696,-93.9573 C -598.343,-93.2573 -599.177,-92.9027 -600.077,-92.7013 C -602.605,-92.1373 -606.039,-93.872 -608.753,-95.528 C -610.144,-96.3787 -611.423,-97.26 -612.411,-97.928 C -612.891,-98.2547 -613.3,-98.528 -613.617,-98.7213 C -613.617,-98.7213 -613.741,-98.796 -613.741,-98.796 C -613.741,-98.796 -613.857,-98.5973 -613.857,-98.5973 Z M -585.196,-98.1173 C -582.676,-98.5013 -579.879,-100.473 -578.567,-102.969 C -579.215,-103.484 -579.537,-104.071 -579.471,-104.891 C -584.696,-105.025 -588.253,-101.137 -587.887,-99.376 C -587.728,-98.6227 -586.921,-97.8533 -585.196,-98.1173 Z M -602.156,-107.721 C -600.832,-108.893 -602.136,-109.573 -603.671,-109.233 C -604.705,-109.004 -605.389,-108.693 -606.828,-107.796 C -609.027,-106.419 -610.264,-105.205 -610.943,-104.36 C -610.943,-104.36 -610.984,-104.309 -610.984,-104.309 C -605.672,-105.776 -602.865,-107.096 -602.156,-107.721 Z "/>
		<path id="dp_path024" fill="white" fill-rule="evenodd" stroke="none" stroke-width="0" d="M -590.737,-107.129 C -590.66,-106.004 -591.62,-104.92 -593.017,-104.821 C -594.417,-104.724 -595.519,-105.664 -595.599,-106.789 C -595.677,-107.915 -594.717,-108.997 -593.319,-109.096 C -591.917,-109.193 -590.816,-108.255 -590.737,-107.129M -582.201,-96.1853 C -585.337,-94.832 -588.684,-94.3467 -590.125,-96.7907 C -591.421,-95.8827 -595.261,-93.2773 -597.864,-94.7373 C -597.905,-94.6693 -598.075,-94.4853 -598.075,-94.4853 C -598.613,-93.8493 -599.341,-93.516 -600.215,-93.3187 C -604.688,-92.3227 -613.052,-99.5627 -613.953,-99.5747 C -614.156,-99.5773 -616.244,-95.4213 -616.752,-94.46 C -617.787,-92.5053 -618.96,-91.016 -620.359,-91.0107 C -621.723,-91.0053 -622.063,-91.596 -622.047,-92.536 C -622.027,-93.6507 -621.539,-95.2133 -620.672,-96.676 C -617.357,-102.285 -613.608,-108 -607.363,-110.493 C -603.561,-112.009 -599.861,-112.392 -598.693,-110.676 C -596.611,-107.619 -601.928,-104.535 -606.168,-103.131 C -608.572,-102.337 -612.499,-101.699 -612.499,-101.699 C -612.499,-101.699 -603.405,-94.128 -599.511,-95.9387 C -601.2,-98.9613 -597.073,-102.776 -595.943,-102.853 C -595.407,-102.891 -594.983,-102.128 -595.284,-101.713 C -596.264,-100.373 -597.237,-98.9827 -596.961,-97.224 C -596.743,-95.824 -595.293,-96.1067 -594.793,-96.2 C -592.433,-96.6413 -590.636,-98.256 -590.636,-98.256 C -591.921,-104.276 -582.677,-108.48 -575.745,-106.208 C -574.492,-106.88 -572.668,-107.5 -571.52,-107.589 C -569.58,-107.74 -571.352,-105.472 -571.908,-105.493 C -572.924,-105.531 -574.193,-105.424 -575.153,-104.48 C -575.365,-101.719 -578.661,-97.7133 -582.201,-96.1853M -578.709,-105.479 C -584.412,-106.015 -589.032,-101.775 -588.505,-99.248 C -588.259,-98.068 -587.052,-97.1933 -585.101,-97.4907 C -582.213,-97.932 -579.045,-100.267 -577.765,-103.179 C -578.759,-103.801 -579.056,-104.353 -578.709,-105.479M -601.743,-107.244 C -599.599,-109.099 -601.143,-109.979 -602.275,-109.979 C -602.82,-109.979 -604.293,-110.024 -607.161,-108.332 C -611.737,-105.632 -612.332,-103.295 -612.332,-103.295 C -606.059,-104.913 -602.652,-106.457 -601.743,-107.244"/>
		<path id="dp_path025" fill="white" fill-rule="evenodd" stroke="none" stroke-width="0" d="M -562.816,-121.936 C -562.644,-121.333 -562.559,-120.127 -562.644,-119.439 C -562.128,-119.695 -560.924,-121.333 -560.233,-122.28 C -561.699,-117.457 -565.917,-116.511 -567.639,-116.597 C -566.348,-116.943 -562.989,-117.631 -562.816,-121.936"/>
	</g>
</svg>