<?xml version="1.0" encoding="UTF-8" standalone="no"?>
<svg version="1.1" xmlns="http://www.w3.org/2000/svg" xmlns:xlink="http://www.w3.org/1999/xlink" width="148" height="105">
	<g id="dp_dp001" transform="matrix(1,0,0,1,10.0947,-1204.25)">
		<path id="dp_path002" fill="#6a3569" fill-rule="evenodd" stroke="none" stroke-width="0" d="M 63.324,1264.44 C 63.324,1264.44 67.5333,1264.31 67.5333,1264.31 C 67.5333,1264.31 71.712,1266.5 71.712,1266.5 C 71.712,1266.5 72.368,1265.98 72.368,1265.98 C 72.368,1265.98 73.088,1250.33 73.088,1250.33 C 73.088,1250.33 67.0773,1250.4 67.0773,1250.4 C 67.0773,1250.4 63.324,1264.44 63.324,1264.44 Z "/>
		<path id="dp_path003" fill="#6a3569" fill-rule="evenodd" stroke="none" stroke-width="0" d="M 40.0067,1258.91 C 48.948,1260.43 57.348,1263.27 59.0587,1270.75 C 59.0587,1270.75 59.7627,1273.83 59.7627,1273.83 C 59.7627,1273.83 57.204,1270.6 57.204,1270.6 C 54.6707,1268.92 47.3493,1267.22 24.5067,1266.48 C 0.658667,1265.72 -0.74,1249.46 -0.74,1249.46 C -0.74,1249.46 7.264,1254.32 12.4187,1255.4 C 20.3067,1257.05 30.9547,1257.36 40.0067,1258.91"/>
		<path id="dp_path004" fill="#6a3569" fill-rule="evenodd" stroke="none" stroke-width="0" d="M 64.58,1228.55 C 65.4573,1230.03 66.2613,1232.06 67.4053,1234.47 C 68.5613,1236.9 70.1053,1239.72 70.564,1242.98 C 71.5,1249.57 70.6213,1256.9 63.0733,1265.29 C 63.0733,1265.29 60.1253,1268.56 60.1253,1268.56 C 60.1253,1268.56 60.1533,1264.28 60.1533,1264.28 C 61.9227,1254.29 55.6827,1248.25 47.5373,1242.55 C 45.512,1241.13 43.4653,1239.76 41.54,1238.37 C 39.6013,1236.98 37.748,1235.55 36.1547,1234.03 C 32.972,1231 30.672,1227.47 30.9333,1223.01 C 31.0813,1220.5 32.3813,1218.82 33.596,1217.81 C 34.1973,1217.3 34.788,1216.95 35.2253,1216.72 C 35.708,1216.48 36.436,1215.77 36.436,1215.77 C 36.436,1215.77 33.9293,1218.19 34.5013,1220.8 C 34.8947,1222.59 38.4227,1225.2 41.0907,1227.39 C 43.748,1229.56 47.1947,1231.76 50.6813,1234.15 C 56.324,1238.02 62.356,1244.04 65.2307,1250.08 C 65.192,1246.39 63.1493,1239.84 58.7747,1237.14 C 49.572,1231.48 47.2013,1225 47.1547,1220.53 C 47.0773,1213.27 56.392,1207.05 61.9773,1204.97 C 67.0813,1203.06 72.0853,1205.06 72.1893,1211.9 C 72.2413,1215.51 66.5387,1217.92 66.5387,1217.92 C 69.5093,1213.61 67.044,1212.25 65.548,1212.47 C 63.5733,1212.77 57.4907,1216.57 64.58,1228.55"/>
		<path id="dp_path005" fill="#6a3569" fill-rule="evenodd" stroke="none" stroke-width="0" d="M 21.3907,1220.88 C 21.9307,1221 23.2947,1221.82 24.4147,1222.39 C 25.5227,1222.94 29.304,1228.71 23.668,1231.91 C 20.7707,1233.56 20.3893,1235.26 20.5693,1235.88 C 20.6333,1236.11 22.176,1236.9 23.068,1237.33 C 23.94,1237.74 25.1733,1238.1 26.756,1238.46 C 29.96,1239.19 34.1453,1239.83 38.5213,1241.03 C 46.9187,1243.31 55.1467,1247.58 59.3973,1258.43 C 59.632,1259.03 62.9907,1265.38 63.2027,1266.02 C 63.2027,1266.02 57.9973,1270.05 57.9973,1270.05 C 55.1173,1266.07 52.4533,1254.88 48.228,1253.01 C 43.3253,1250.84 37.8587,1249.72 32.636,1248.77 C 30.212,1248.33 27.8667,1247.92 25.7133,1247.47 C 23.492,1247 21.4627,1246.48 19.716,1245.8 C 16.1453,1244.43 12.0987,1240.78 12.3107,1236.32 C 12.7933,1226.02 26.604,1227.27 21.3907,1220.88"/>
		<path id="dp_path006" fill="#6a3569" fill-rule="evenodd" stroke="none" stroke-width="0" d="M 70.6347,1263.07 C 70.564,1262.95 70.468,1262.77 70.3507,1262.53 C 70.1307,1262.08 69.844,1261.42 69.564,1260.57 C 69.012,1258.91 68.0067,1255.85 67.9453,1253.04 C 67.8,1246.68 70.7133,1240.26 81.0853,1233.51 C 89.372,1228.12 95.7907,1219.21 93.7253,1212.82 C 95.1427,1214.52 96.684,1217.16 96.8693,1220.17 C 97.1467,1224.6 96.8213,1233.86 83.4867,1242.4 C 77.6013,1246.17 74.8027,1251.46 73.7373,1255.44 C 73.2027,1257.43 73.0387,1259.2 73.0107,1260.47 C 72.9827,1261.69 73.092,1262.54 73.092,1262.54 C 73.092,1262.54 73.088,1262.65 73.088,1262.65 C 73.084,1262.7 71.4573,1264.52 70.6347,1263.07"/>
		<path id="dp_path007" fill="#6a3569" fill-rule="evenodd" stroke="none" stroke-width="0" d="M 134.681,1251.48 C 134.681,1251.48 138.284,1249.06 138.284,1249.06 C 138.284,1249.06 136.157,1253.91 135.313,1255.21 C 134.492,1256.46 133.231,1258.14 131.46,1259.8 C 127.9,1263.13 122.271,1266.42 114.068,1266.28 C 109.228,1266.2 104.968,1265.63 99.1387,1265.64 C 91.7733,1265.64 85.828,1267.45 82.448,1269.06 C 80.6827,1269.91 75.9533,1272.24 72.4813,1275.87 C 72.4813,1275.87 72.9573,1271.49 72.9573,1271.49 C 72.9573,1271.49 72.1773,1268.18 72.1773,1268.18 C 79.128,1260.59 90.0413,1259.45 98.6147,1258.28 C 107.019,1257.12 115.549,1257.51 122.709,1256.43 C 128.62,1255.54 134.677,1251.48 134.681,1251.48"/>
		<path id="dp_path008" fill="#6a3569" fill-rule="evenodd" stroke="none" stroke-width="0" d="M 106.447,1235.18 C 106.357,1234.93 105.975,1234.52 104.973,1233.91 C 103.997,1233.32 102.808,1232.76 101.708,1232.14 C 100.579,1231.51 99.3613,1230.73 98.5467,1229.73 C 97.664,1228.65 97.2427,1227.27 97.8373,1225.66 C 98.4027,1224.13 99.8587,1222.89 100.941,1222.11 C 100.941,1222.11 100.429,1226.16 106.009,1227.09 C 106.756,1227.22 107.488,1227.61 108.263,1227.9 C 109.096,1228.2 109.467,1229.13 110.255,1229.55 C 111.876,1230.41 113.661,1231.61 114.216,1233.77 C 116.469,1242.52 107.157,1248.08 98.7813,1250.49 C 86.396,1254.06 83.3267,1256.78 79.3533,1261.28 C 76.784,1264.19 73.9227,1267.77 74.64,1270.25 C 74.7293,1270.55 71.7227,1266.22 71.7227,1266.22 C 71.7227,1266.22 71.8,1265.13 71.8,1265.13 C 71.8253,1264.78 71.736,1263.52 72.032,1261.72 C 72.344,1259.84 71.7493,1257.45 73.084,1254.82 C 76.9693,1247.21 83.584,1242.57 97.848,1238.96 C 105.056,1237.14 106.644,1235.72 106.447,1235.18"/>
		<path id="dp_path009" fill="#6a3569" fill-rule="evenodd" stroke="none" stroke-width="0" d="M 65.8053,1239.54 C 71.2747,1233.35 72.2507,1226.79 71.2947,1223.33 C 77.5307,1219.86 82.9253,1208.91 83.3747,1207.1 C 83.7373,1207.51 84.3813,1208.81 84.3813,1208.81 C 88.024,1215.3 83.0427,1223.21 80.0147,1228.83 C 78.4893,1231.66 77.0667,1234.17 75.3853,1236.31 C 73.716,1238.43 72.1893,1240.15 71.2653,1241.29 C 67.8413,1245.53 70.9427,1250.62 69.8093,1258.7 C 69.8093,1258.7 65.8053,1239.54 65.8053,1239.54 Z "/>
		<path id="dp_path010" fill="#6a3569" fill-rule="evenodd" stroke="none" stroke-width="0" d="M 63.1227,1279 C 64.532,1280.49 65.0573,1282.87 63.6707,1284.76 C 61.524,1287.7 60.0787,1290.09 60.3667,1292.39 C 60.4613,1292.39 60.576,1292.39 60.708,1292.37 C 61.0333,1292.34 61.3227,1292.29 61.5173,1292.25 C 63.5507,1291.87 65.4173,1290.97 66.8227,1290.1 C 67.1587,1289.89 68.1733,1289.3 68.4373,1289.12 C 67.0747,1273.81 88.1573,1266.71 102.439,1270.63 C 105.233,1269.3 108.865,1268.1 111.505,1267.9 C 117.027,1267.47 117.055,1272.22 116.001,1274.34 C 115.645,1275.06 115.003,1276 114.203,1276.78 C 113.469,1277.49 112.261,1278.4 110.797,1278.35 C 109.2,1278.29 107.837,1278.45 106.777,1279.1 C 105.429,1286.17 97.8787,1294.62 90.1267,1297.97 C 84.5547,1300.37 76.468,1302.48 71.444,1297.92 C 69.9467,1298.86 68.0267,1299.95 65.9307,1300.79 C 63.2227,1301.88 59.6893,1302.77 56.2933,1301.84 C 54.7493,1303.17 52.9347,1303.86 51.1427,1304.26 C 44.9973,1305.63 37.0853,1301.48 31.416,1298.02 C 28.4253,1296.19 25.6707,1294.3 23.548,1292.86 C 23.064,1292.53 22.616,1292.23 22.208,1291.96 C 21.8547,1292.6 21.472,1293.32 21.0787,1294.07 C 19.7733,1296.54 18.3867,1299.27 17.8453,1300.3 C 15.796,1304.18 12.5307,1309.24 7.51867,1309.25 C 2.84667,1309.27 0.846667,1306.56 0.910667,1302.95 C 0.966667,1299.91 2.23733,1296.07 4.25867,1292.65 C 11.2947,1280.74 19.7467,1267.65 34.1333,1261.91 C 36.4933,1260.97 39.1613,1260.1 41.8347,1259.53 C 43.444,1259.2 48.4333,1261.72 46.6093,1258.91 C 50.6293,1258.74 54.2187,1259.68 56.216,1262.61 C 59.8747,1267.99 56.3413,1272.98 52.7373,1275.97 C 48.9267,1279.14 43.4333,1281.68 38.728,1283.23 C 36.5867,1283.95 34.308,1284.45 31.8613,1284.97 C 34.0787,1286.54 36.468,1288.06 39.2333,1289.58 C 42.652,1291.44 45.8547,1292.72 48.2707,1292.95 C 47.5093,1285.14 55.7773,1278.01 59.6213,1277.8 C 59.8853,1277.79 60.1413,1277.79 60.3933,1277.82 C 58.8027,1276.58 56.7547,1273.66 56.8787,1270.97 C 57.0787,1266.63 60.764,1263.8 65.392,1263.48 C 70.0173,1263.15 74.3893,1265.25 74.5533,1270.8 C 74.6893,1275.51 68.96,1280.32 63.1227,1279M 93.224,1278.29 C 83.2947,1278.74 78.0027,1286.11 78.412,1288.08 C 78.5253,1288.61 79.232,1289.95 82.3013,1289.48 C 86.7893,1288.79 91.864,1285.42 94.6293,1281.04 C 93.9293,1280.25 93.4347,1279.35 93.224,1278.29M 45.7307,1268.88 C 45.3547,1268.78 44.5893,1268.73 43.4747,1268.97 C 41.524,1269.41 40.2213,1269.94 37.2547,1271.83 C 34.692,1273.47 33.872,1274.1 32.9907,1274.86 C 36.7427,1273.43 44.672,1269.89 45.2653,1269.37 C 45.4827,1269.17 45.6333,1269.01 45.7307,1268.88"/>
		<path id="dp_path011" fill="#b6cd12" fill-rule="evenodd" stroke="none" stroke-width="0" d="M 65.272,1209.46 C 62.744,1210.03 56.148,1214.03 64.1533,1226.89 C 67.7107,1232.6 76.0067,1247.11 62.1347,1262.66 C 65.9733,1240.95 31.2787,1237.01 32.1933,1221.3 C 32.4347,1217.18 36.436,1215.77 36.436,1215.77 C 36.436,1215.77 35.0227,1217.42 35.3813,1219.87 C 36.7387,1229.2 63.9173,1234.6 65.5187,1251.55 C 71.2853,1239.52 52.0253,1230.38 52.408,1216.03 C 52.7573,1202.9 72.844,1199.69 72.696,1211.38 C 72.6253,1216.91 66.5387,1217.92 66.5387,1217.92 C 72.2,1210.5 66.972,1209.07 65.272,1209.46"/>
		<path id="dp_path012" fill="#e60e88" fill-rule="evenodd" stroke="none" stroke-width="0" d="M 14.0453,1236.44 C 12.72,1226.98 29.3107,1228.24 21.3907,1220.88 C 22.3787,1221.09 25.312,1221.86 26.3107,1224.08 C 28.5013,1228.94 19.3533,1230.41 20.648,1234.88 C 22.3747,1240.87 52.5333,1235.74 60.1587,1258.98 C 47.048,1240.86 15.8453,1249.32 14.0453,1236.44"/>
		<path id="dp_path013" fill="#e60e88" fill-rule="evenodd" stroke="none" stroke-width="0" d="M 71.8267,1260.82 C 71.8253,1260.88 62.9907,1246.47 83.1827,1233.33 C 91.6693,1227.81 95.9747,1218.66 93.7253,1212.82 C 95.056,1212.66 104.389,1226.57 82.612,1240.03 C 70.0747,1247.78 71.8267,1260.82 71.8267,1260.82"/>
		<path id="dp_path014" fill="#e60e88" fill-rule="evenodd" stroke="none" stroke-width="0" d="M 122.899,1255.9 C 129.117,1254.96 135.383,1250.75 135.383,1250.75 C 135.383,1250.75 129.72,1263.51 114.093,1263.24 C 109.241,1263.15 104.976,1262.59 99.1387,1262.59 C 83.9507,1262.61 77.904,1270.51 73.6973,1269.68 C 87.048,1255.09 108.571,1258.07 122.899,1255.9"/>
		<path id="dp_path015" fill="#b6cd12" fill-rule="evenodd" stroke="none" stroke-width="0" d="M 99.4947,1239.66 C 106.601,1237.86 108.301,1234.82 107.632,1232.97 C 106.608,1230.15 97.3707,1228.78 99.02,1224.32 C 99.8653,1222.02 103.695,1220.13 103.695,1220.13 C 98.1147,1228.27 111.003,1225.06 113.499,1231.84 C 116.115,1238.92 108.413,1244.43 98.708,1246.59 C 72.536,1252.42 75.244,1263.93 73.06,1263.44 C 73.1547,1262.07 71.3947,1246.76 99.4947,1239.66"/>
		<path id="dp_path016" fill="#e3e001" fill-rule="evenodd" stroke="none" stroke-width="0" d="M 32.7733,1213.89 C 30.2253,1216.12 27.2027,1224.07 31.4293,1229.12 C 28.4133,1226.92 23.9227,1216.27 30.3467,1209.62 C 29.564,1211.42 28.5627,1215.96 28.5213,1217.65 C 29.8173,1215.69 31.2853,1214.12 32.7733,1213.89"/>
		<path id="dp_path017" fill="#6a3569" fill-rule="evenodd" stroke="none" stroke-width="0" d="M 5.864,1274.75 C -3.4,1275.85 -9.73733,1268.69 -9.96667,1268.21 C -10.1413,1267.85 -10.1893,1267.56 -10.0947,1267.2 C -9.988,1266.77 -9.50667,1266.14 -8.788,1266.2 C -8.57733,1266.21 -8.39867,1266.3 -8.28933,1266.37 C -8.188,1266.43 -7.636,1266.89 -7.448,1267.01 C -3.44133,1269.57 0.133333,1270.96 4.168,1269.98 C 6.732,1269.36 8.93867,1268.52 11.0693,1267.97 C 13.248,1267.4 14.684,1267.52 17.08,1268.05 C 17.08,1268.05 18.2427,1268.31 18.2427,1268.31 C 18.2427,1268.31 17.376,1269.13 17.376,1269.13 C 14.752,1271.61 11.224,1274.11 5.864,1274.75"/>
		<path id="dp_path018" fill="#e60e88" fill-rule="evenodd" stroke="none" stroke-width="0" d="M 18.964,1267.28 C 14.524,1265.97 10.6893,1267.81 5.472,1268.69 C 1.272,1269.41 -2.59867,1269.11 -6.98533,1266.91 C -7.43067,1266.69 -7.83067,1266.31 -8.10267,1266.31 C -8.41067,1266.33 -8.65867,1266.65 -8.696,1266.91 C -8.712,1267.04 -8.656,1267.15 -8.59467,1267.23 C -8.53867,1267.31 -7.71333,1268.06 -7.43733,1268.25 C -3.45867,1270.95 0.96,1273.11 6.732,1272.67 C 11.9293,1272.27 16.2133,1269.54 18.964,1267.28"/>
		<path id="dp_path019" fill="#e3e001" fill-rule="evenodd" stroke="none" stroke-width="0" d="M -9.28133,1253.49 C -7.012,1258.84 -1.052,1263.69 5.412,1263.23 C -0.848,1261.57 -3.97867,1253.99 -4.58667,1251.37 C -5.25867,1252.88 -5.21733,1256.75 -4.18133,1257.78 C -6.80667,1255.32 -8.73067,1254.39 -9.28133,1253.49"/>
		<path id="dp_path020" fill="#e3e001" fill-rule="evenodd" stroke="none" stroke-width="0" d="M 116.905,1246.35 C 122.869,1244.36 127.123,1237.94 127.123,1237.94 C 127.123,1237.94 125.885,1249.02 110.441,1253.5 C 105.785,1254.86 100.955,1255.18 95.1933,1256.1 C 80.1947,1258.49 77.3933,1266.74 73.108,1266.58 C 82.912,1249.62 101.664,1251.43 116.905,1246.35"/>
		<path id="dp_path021" fill="#b6cd12" fill-rule="evenodd" stroke="none" stroke-width="0" d="M 12.16,1254.85 C 6.63867,1253.7 1.5,1249.09 1.5,1249.09 C 1.5,1249.09 4.13333,1262.39 22.3107,1262.53 C 45.3147,1262.7 50.4253,1263.13 56.0747,1268.58 C 55.4147,1265.58 52.9787,1264.13 50.8093,1262.42 C 41.288,1254.48 24.8813,1257.51 12.16,1254.85"/>
		<path id="dp_path022" fill="#e3e001" fill-rule="evenodd" stroke="none" stroke-width="0" d="M 1.41467,1234.7 C 1.41467,1234.7 1.75333,1249.9 21.7067,1252.98 C 42.1773,1256.14 41.5027,1257.22 48.2213,1260.91 C 56.2467,1265.33 67.0333,1266.31 68.2453,1256.63 C 69.2467,1248.62 70.3707,1243.73 74.0573,1239.17 C 77.7427,1234.61 93.9067,1220.05 85.088,1206.34 C 83.66,1211.39 80.1907,1218.01 73.4547,1224 C 74.8027,1232.24 67.8453,1238.03 67.4587,1243.21 C 67.4587,1243.21 66.484,1238.36 59,1232.03 C 43.4867,1218.89 51.6373,1211.81 54.6387,1210.58 C 57.6213,1209.37 61.8053,1210.45 62.6213,1212.67 C 62.6213,1212.67 62.2547,1207.64 55.8813,1208.05 C 47.6853,1208.58 40.1827,1220.16 56.588,1233.49 C 64.616,1240.01 64.7973,1242.82 66.0627,1244.6 C 63.6587,1241.39 58.656,1236.32 53.2933,1232.43 C 48.5947,1229.02 39.784,1218.67 48.7053,1209.44 C 48.7053,1209.44 32.6533,1219.95 53.592,1235.15 C 60.3533,1240.06 66.9733,1248.13 65.0707,1255.04 C 64.192,1258.25 60.7187,1259.83 50.9733,1254.33 C 39.4227,1247.81 31.4493,1248.96 21.1147,1246.3 C 10.4667,1243.56 1.41467,1234.7 1.41467,1234.7"/>
		<path id="dp_path023" fill="#f6ab49" fill-rule="evenodd" stroke="none" stroke-width="0" d="M 66.0107,1265.41 C 69.6267,1265.16 72.7453,1267.6 72.976,1270.88 C 73.2027,1274.16 70.4573,1277.01 66.84,1277.26 C 63.2227,1277.51 60.1027,1275.07 59.8733,1271.79 C 59.6427,1268.52 62.3947,1265.66 66.0107,1265.41 Z M 22.2693,1289.18 C 21.7827,1290.04 21.1627,1291.19 20.516,1292.41 C 19.2133,1294.89 17.8253,1297.62 17.2827,1298.65 C 15.1493,1302.68 12.2973,1306.71 8.40133,1306.73 C 4.696,1306.74 3.392,1304.82 3.44,1302.1 C 3.49067,1299.41 4.636,1295.85 6.56267,1292.59 C 13.6187,1280.65 21.828,1268.05 35.6293,1262.54 C 43.4547,1259.42 52.556,1257.95 55.7467,1262.64 C 58.6173,1266.85 56.0867,1270.9 52.5787,1273.81 C 48.9853,1276.8 43.7133,1279.26 39.1013,1280.79 C 35.856,1281.86 31.3253,1282.81 28.3747,1283.36 C 33.344,1287.13 44.82,1295.14 51.0547,1294.03 C 48.6893,1286.74 57.6293,1278.95 60.408,1278.75 C 62.6387,1278.6 64.3547,1281.47 62.9973,1283.33 C 60.86,1286.25 59.1747,1288.78 59.6627,1291.91 C 59.7973,1292.76 60.1867,1292.98 60.6867,1293.08 C 60.9973,1293.15 61.3613,1293.15 61.7347,1293.12 C 62.1267,1293.08 62.4733,1293.02 62.7107,1292.97 C 65.0093,1292.55 67.068,1291.53 68.5747,1290.6 C 69.3427,1290.13 69.9547,1289.69 70.36,1289.37 C 68.216,1275.32 88.9667,1267.09 103.483,1271.49 C 106.232,1270.1 109.985,1268.84 112.521,1268.65 C 116.069,1268.37 116.255,1271.04 115.423,1272.73 C 114.868,1273.84 113.277,1275.87 111.747,1275.81 C 109.808,1275.74 107.752,1275.95 106.161,1277.28 C 105.3,1283.77 98.0027,1292.27 90.364,1295.57 C 84.2653,1298.2 76.612,1299.81 72.58,1294.91 C 71.0347,1295.94 68.744,1297.36 66.2107,1298.38 C 63.344,1299.53 59.8573,1300.31 56.76,1299.09 C 55.3813,1300.58 53.5987,1301.34 51.6787,1301.77 C 46.2827,1302.97 38.9547,1299.27 33.1627,1295.73 C 30.192,1293.92 27.4653,1292.04 25.3573,1290.61 C 24.332,1289.92 23.4587,1289.33 22.7813,1288.92 C 22.7813,1288.92 22.5173,1288.76 22.5173,1288.76 C 22.5173,1288.76 22.2693,1289.18 22.2693,1289.18 Z M 83.44,1290.21 C 88.8173,1289.39 94.788,1285.18 97.5867,1279.85 C 96.2053,1278.75 95.5147,1277.5 95.6573,1275.75 C 84.5067,1275.46 76.9133,1283.76 77.696,1287.52 C 78.0347,1289.13 79.7573,1290.77 83.44,1290.21 Z M 47.2413,1269.71 C 50.0667,1267.21 47.2853,1265.76 44.0107,1266.48 C 41.8013,1266.97 40.34,1267.63 37.272,1269.55 C 32.58,1272.49 29.9373,1275.08 28.4893,1276.88 C 28.4893,1276.88 28.4,1276.99 28.4,1276.99 C 39.7387,1273.86 45.7293,1271.05 47.2413,1269.71 Z "/>
		<path id="dp_path024" fill="#e60e88" fill-rule="evenodd" stroke="none" stroke-width="0" d="M 71.6107,1270.97 C 71.7773,1273.38 69.728,1275.69 66.7453,1275.9 C 63.7587,1276.11 61.4067,1274.1 61.236,1271.7 C 61.0693,1269.3 63.1187,1266.99 66.104,1266.78 C 69.0947,1266.57 71.444,1268.57 71.6107,1270.97M 89.8307,1294.33 C 83.1373,1297.22 75.9933,1298.26 72.9173,1293.04 C 70.152,1294.98 61.9573,1300.54 56.4027,1297.42 C 56.3147,1297.57 55.952,1297.96 55.952,1297.96 C 54.8027,1299.32 53.2493,1300.03 51.3867,1300.45 C 41.8373,1302.57 23.988,1287.12 22.064,1287.1 C 21.6307,1287.09 17.1747,1295.96 16.0893,1298.01 C 13.8813,1302.18 11.3773,1305.36 8.39467,1305.38 C 5.48267,1305.39 4.756,1304.13 4.79067,1302.12 C 4.83333,1299.74 5.87467,1296.41 7.72533,1293.28 C 14.8,1281.31 22.8027,1269.11 36.1293,1263.79 C 44.244,1260.56 52.1387,1259.74 54.6333,1263.4 C 59.076,1269.93 47.7307,1276.51 38.68,1279.51 C 33.5493,1281.2 25.168,1282.56 25.168,1282.56 C 25.168,1282.56 44.5773,1298.72 52.8893,1294.86 C 49.2813,1288.41 58.0907,1280.27 60.5027,1280.1 C 61.6467,1280.02 62.552,1281.65 61.908,1282.53 C 59.8187,1285.39 57.7413,1288.36 58.328,1292.12 C 58.7947,1295.1 61.888,1294.5 62.956,1294.3 C 67.9933,1293.36 71.8307,1289.91 71.8307,1289.91 C 69.0853,1277.06 88.8133,1268.09 103.611,1272.94 C 106.284,1271.51 110.177,1270.18 112.628,1269.99 C 116.767,1269.67 112.984,1274.51 111.8,1274.47 C 109.632,1274.39 106.923,1274.61 104.872,1276.63 C 104.419,1282.52 97.3867,1291.07 89.8307,1294.33M 97.2827,1274.5 C 85.112,1273.35 75.2507,1282.4 76.376,1287.79 C 76.9027,1290.31 79.4787,1292.18 83.6413,1291.55 C 89.8053,1290.6 96.5667,1285.62 99.2987,1279.41 C 97.1787,1278.08 96.5413,1276.9 97.2827,1274.5M 48.124,1270.73 C 52.7,1266.77 49.4053,1264.89 46.9893,1264.89 C 45.8253,1264.89 42.6813,1264.8 36.5587,1268.41 C 26.7947,1274.17 25.5227,1279.16 25.5227,1279.16 C 38.912,1275.7 46.184,1272.41 48.124,1270.73"/>
		<path id="dp_path025" fill="#b6cd12" fill-rule="evenodd" stroke="none" stroke-width="0" d="M 131.203,1239.37 C 131.569,1240.66 131.751,1243.23 131.569,1244.7 C 132.671,1244.16 135.241,1240.66 136.715,1238.64 C 133.587,1248.93 124.584,1250.95 120.912,1250.77 C 123.665,1250.03 130.832,1248.56 131.203,1239.37"/>
	</g>
</svg>