<?xml version="1.0" encoding="UTF-8" standalone="no"?>
<svg version="1.1" xmlns="http://www.w3.org/2000/svg" xmlns:xlink="http://www.w3.org/1999/xlink" width="120" height="120">
	<g id="dp_dp001" transform="matrix(1,0,0,1,128.397,-851.897)">
		<path id="dp_path002" fill="black" fill-rule="evenodd" stroke="none" stroke-width="0" d="M -87.404,869.86 C -87.3227,868.248 -85.9893,866.968 -84.3587,866.968 L -50.856,866.968 C -49.172,866.968 -47.8053,868.333 -47.8053,870.017 L -47.8053,916.539 C -47.708,916.488 -47.6053,916.441 -47.5013,916.399 L -47.5027,916.401 C -47.112,916.239 -46.7107,916.139 -46.3093,916.095 L -46.3093,869.768 C -46.3093,867.487 -48.16,865.636 -50.4413,865.636 L -84.7733,865.636 C -87.0547,865.636 -88.9053,867.487 -88.9053,869.768 L -88.9053,941.2 C -88.9053,943.483 -87.0547,945.332 -84.7733,945.332 L -74.8133,945.332 C -74.964,944.899 -75.0653,944.453 -75.116,944 L -84.3587,944 C -86.0427,944 -87.4093,942.635 -87.4093,940.951 L -87.4093,870.017 C -87.4093,869.964 -87.408,869.911 -87.404,869.86 Z "/>
		<path id="dp_path003" fill="none" fill-rule="evenodd" stroke="black" stroke-width="0.666667" d="M -72.9827,873.308 C -72.9827,872.711 -72.4987,872.227 -71.9013,872.227 L -58.608,872.227 C -58.0107,872.227 -57.5267,872.711 -57.5267,873.308 C -57.5267,873.905 -58.0107,874.389 -58.608,874.389 L -71.9013,874.389 C -72.4987,874.389 -72.9827,873.905 -72.9827,873.308 Z "/>
		<path id="dp_path004" fill="black" fill-rule="evenodd" stroke="none" stroke-width="0" d="M -75.0307,873.308 C -75.0307,872.537 -75.656,871.912 -76.4267,871.912 C -77.1973,871.912 -77.8227,872.537 -77.8227,873.308 C -77.8227,874.079 -77.1973,874.704 -76.4267,874.704 C -75.656,874.704 -75.0307,874.079 -75.0307,873.308 Z M -75.6307,873.308 C -75.6307,872.868 -75.9867,872.512 -76.4267,872.512 C -76.8667,872.512 -77.2227,872.868 -77.2227,873.308 C -77.2227,873.748 -76.8667,874.104 -76.4267,874.104 C -75.9867,874.104 -75.6307,873.748 -75.6307,873.308 Z "/>
		<path id="dp_path005" fill="none" fill-rule="evenodd" stroke="black" stroke-width="1.33333" d="M -40.5427,923.776 C -41.4133,921.685 -40.424,919.284 -38.336,918.415 L -38.3373,918.416 C -36.2467,917.545 -33.848,918.533 -32.9773,920.623 L -31.7187,923.645 C -29.644,925.892 -25.5027,937.833 -24.9787,939.308 C -18.8707,956.564 -39.2147,979.629 -68.24,949.867 C -68.24,949.865 -68.24,949.865 -68.2387,949.865 L -70.7227,948.065 C -73.228,946.251 -73.788,942.749 -71.972,940.244 C -70.1587,937.739 -66.6573,937.179 -64.1507,938.995 L -59.4707,942.384 C -59.42,942.42 -59.3693,942.459 -59.3173,942.499 L -72.4893,910.889 C -73.36,908.801 -72.3707,906.4 -70.2813,905.529 L -70.2827,905.529 C -68.1947,904.659 -65.7933,905.649 -64.9227,907.737 L -58.8027,922.425 C -59.1,920.595 -58.12,918.732 -56.332,917.988 L -56.3333,917.988 C -54.2453,917.117 -51.844,918.107 -50.9733,920.196 L -49.736,923.165 C -50.3373,921.176 -49.3453,919.016 -47.3867,918.201 L -47.388,918.203 C -45.2987,917.332 -42.8987,918.32 -42.0293,920.409 L -40.2227,924.744 C -40.1987,924.739 -40.1733,924.732 -40.1467,924.728 Z "/>
		<path id="dp_path006" fill="black" fill-rule="evenodd" stroke="none" stroke-width="0" d="M -84.8787,871.265 C -84.8293,870.265 -84.0013,869.471 -82.9893,869.471 L -52.3613,869.471 C -51.316,869.471 -50.468,870.319 -50.468,871.364 L -50.468,917.977 L -50.2333,918.173 C -50.108,917.975 -49.9747,917.799 -49.8293,917.641 L -49.8293,871.223 C -49.8293,869.903 -50.9,868.832 -52.22,868.832 L -83.1293,868.832 C -84.4493,868.832 -85.52,869.903 -85.52,871.223 L -85.52,939.213 C -85.52,940.533 -84.4493,941.604 -83.1293,941.604 L -75.284,941.604 C -75.2547,941.297 -75.1893,941.101 -75.1053,940.965 L -82.9893,940.965 C -84.0333,940.965 -84.8813,940.117 -84.8813,939.072 L -84.8813,871.364 C -84.8813,871.329 -84.8813,871.297 -84.8787,871.265 Z "/>
		<path id="dp_path007" fill="none" fill-rule="evenodd" stroke="black" stroke-width="0.4" d="M -57.024,891.647 C -58.1667,891.647 -59.092,890.72 -59.092,889.577 C -59.092,888.435 -58.1667,887.509 -57.024,887.509 C -55.8813,887.509 -54.956,888.435 -54.956,889.577 C -54.956,890.72 -55.8813,891.647 -57.024,891.647 Z M -61.548,904.121 L -70.3107,887.509 L -63.9227,887.509 L -58.3547,898.068 Z M -71.584,904.211 L -80.3933,887.509 L -74.008,887.509 L -68.392,898.157 Z "/>
		<path id="dp_path008" fill="none" fill-rule="evenodd" stroke="black" stroke-width="0.4" d="M -69.428,887.509 L -66.5867,887.509 L -65.8253,887.811 L -66.3907,890.311 L -64.008,891.256 L -64.5733,893.755 L -62.1907,894.701 L -62.7547,897.201 L -60.3733,898.147 L -60.9387,900.647 L -59.9267,901.048 L -60.52,902.173 L -62.4107,901.423 L -61.8467,898.924 L -64.228,897.977 L -63.664,895.479 L -66.0453,894.533 L -65.4813,892.033 L -67.8627,891.087 L -67.2987,888.588 L -69.68,887.641 Z M -79.7013,887.509 L -76.3813,887.509 L -75.892,887.703 L -76.4573,890.203 L -74.0747,891.148 L -74.64,893.647 L -72.2587,894.593 L -72.8227,897.092 L -70.4413,898.037 L -71.0053,900.537 L -69.8827,900.984 L -70.476,902.109 L -72.4787,901.315 L -71.9147,898.815 L -74.296,897.869 L -73.732,895.369 L -76.1133,894.424 L -75.548,891.925 L -77.9307,890.979 L -77.3667,888.48 L -79.748,887.533 Z "/>
	</g>
</svg>