<?xml version="1.0" encoding="UTF-8" standalone="no"?>
<svg version="1.1" xmlns="http://www.w3.org/2000/svg" xmlns:xlink="http://www.w3.org/1999/xlink" width="77" height="77">
	<g id="dp_dp001" transform="matrix(1,0,0,1,-417.097,-545.896)">
		<path id="dp_path002" fill="none" fill-rule="evenodd" stroke="black" stroke-width="0.666667" d="M 433.047,587.308 C 434.275,587.313 435.091,587.567 435.809,587.945 C 436.348,588.232 436.835,588.607 437.344,589.047 C 438.108,589.699 438.909,590.507 440.019,591.181 C 441.124,591.857 442.547,592.336 444.343,592.331 C 445.939,592.335 447.243,591.96 448.288,591.397 C 449.073,590.979 449.712,590.471 450.279,589.983 C 451.128,589.245 451.828,588.565 452.612,588.096 C 453.399,587.629 454.259,587.316 455.64,587.308 C 456.868,587.313 457.684,587.567 458.404,587.945 C 458.943,588.232 459.428,588.607 459.937,589.047 C 460.701,589.699 461.503,590.508 462.613,591.181 C 463.719,591.857 465.143,592.336 466.939,592.331 C 468.535,592.335 469.837,591.96 470.884,591.397 C 471.668,590.979 472.307,590.471 472.875,589.983 C 473.725,589.245 474.424,588.565 475.208,588.096 C 475.995,587.629 476.855,587.316 478.236,587.308 C 478.929,587.308 479.492,586.747 479.492,586.052 C 479.492,585.36 478.929,584.797 478.236,584.797 C 476.639,584.793 475.337,585.167 474.292,585.729 C 473.505,586.149 472.867,586.656 472.3,587.144 C 471.451,587.881 470.751,588.563 469.967,589.032 C 469.18,589.497 468.32,589.812 466.939,589.819 C 465.709,589.815 464.895,589.561 464.175,589.181 C 463.636,588.895 463.151,588.52 462.641,588.081 C 461.877,587.428 461.075,586.619 459.965,585.947 C 458.86,585.271 457.436,584.791 455.64,584.797 C 454.044,584.793 452.741,585.167 451.696,585.729 C 450.911,586.149 450.272,586.656 449.705,587.145 C 448.855,587.883 448.156,588.563 447.372,589.032 C 446.585,589.497 445.724,589.812 444.343,589.819 C 443.116,589.815 442.3,589.561 441.58,589.181 C 441.043,588.895 440.556,588.52 440.048,588.081 C 439.284,587.428 438.481,586.62 437.372,585.947 C 436.267,585.271 434.844,584.791 433.047,584.797 C 432.355,584.797 431.792,585.36 431.792,586.052 C 431.792,586.747 432.355,587.308 433.047,587.308 Z "/>
		<path id="dp_path003" fill="none" fill-rule="evenodd" stroke="black" stroke-width="0.666667" d="M 478.236,591.417 C 476.639,591.413 475.337,591.787 474.292,592.349 C 473.505,592.768 472.867,593.276 472.3,593.763 C 471.451,594.501 470.751,595.181 469.967,595.651 C 469.18,596.117 468.32,596.432 466.939,596.439 C 465.709,596.435 464.895,596.18 464.175,595.801 C 463.636,595.515 463.151,595.14 462.641,594.7 C 461.877,594.047 461.075,593.239 459.965,592.565 C 458.86,591.889 457.436,591.409 455.64,591.417 C 454.044,591.413 452.741,591.787 451.696,592.349 C 450.911,592.768 450.272,593.276 449.705,593.764 C 448.855,594.501 448.156,595.181 447.372,595.651 C 446.585,596.117 445.724,596.432 444.343,596.439 C 443.116,596.435 442.3,596.18 441.58,595.801 C 441.043,595.515 440.556,595.14 440.048,594.7 C 439.284,594.048 438.481,593.24 437.372,592.565 C 436.267,591.889 434.844,591.409 433.047,591.417 C 432.355,591.417 431.792,591.979 431.792,592.673 C 431.792,593.365 432.355,593.928 433.047,593.928 C 434.275,593.932 435.091,594.185 435.809,594.565 C 436.348,594.852 436.835,595.227 437.344,595.665 C 438.108,596.319 438.909,597.128 440.019,597.8 C 441.124,598.476 442.547,598.956 444.343,598.949 C 445.939,598.953 447.243,598.579 448.288,598.016 C 449.073,597.597 449.712,597.091 450.279,596.603 C 451.128,595.864 451.828,595.184 452.612,594.715 C 453.399,594.249 454.259,593.935 455.64,593.928 C 456.868,593.932 457.684,594.185 458.404,594.565 C 458.943,594.852 459.428,595.227 459.937,595.665 C 460.701,596.319 461.503,597.128 462.613,597.8 C 463.719,598.476 465.143,598.956 466.939,598.949 C 468.535,598.953 469.837,598.579 470.884,598.016 C 471.668,597.597 472.307,597.091 472.875,596.603 C 473.725,595.865 474.424,595.184 475.208,594.715 C 475.995,594.249 476.855,593.935 478.236,593.928 C 478.929,593.928 479.492,593.365 479.492,592.673 C 479.492,591.979 478.929,591.417 478.236,591.417 Z "/>
		<path id="dp_path004" fill="none" fill-rule="evenodd" stroke="black" stroke-width="0.666667" d="M 471.76,581.451 C 473.729,579.403 473.664,576.147 471.616,574.177 C 469.565,572.208 466.309,572.273 464.34,574.323 C 462.371,576.373 462.437,579.629 464.485,581.599 C 466.532,583.568 469.791,583.503 471.76,581.451 Z "/>
		<path id="dp_path005" fill="none" fill-rule="evenodd" stroke="black" stroke-width="0.666667" d="M 444.368,579.063 L 450.128,575.388 L 452.525,577.521 C 452.337,577.627 452.153,577.736 451.975,577.852 C 448.208,580.279 445.196,582.664 442.057,585.803 C 441.801,586.059 444.569,588.773 447.415,586.848 C 448.653,586.009 453.984,579.275 460.632,584.852 C 461.487,585.569 464.779,587.184 465.657,587.057 C 464.151,583.92 462.173,581.057 461.139,579.275 C 460.932,578.919 460.707,578.613 460.472,578.332 C 460.337,578.056 460.151,577.801 459.908,577.585 L 451.984,570.537 C 451.172,569.816 449.977,569.721 449.063,570.305 L 441.756,574.967 C 440.625,575.689 440.293,577.191 441.015,578.321 C 441.736,579.452 443.237,579.784 444.368,579.063 Z "/>
		<path id="dp_path006" fill="none" fill-rule="evenodd" stroke="black" stroke-width="0.666667" d="M 417.433,584.441 C 417.433,563.339 434.54,546.232 455.643,546.232 C 476.745,546.232 493.852,563.339 493.852,584.441 C 493.852,605.544 476.745,622.651 455.643,622.651 C 434.54,622.651 417.433,605.544 417.433,584.441 Z M 423.547,584.441 C 423.547,566.715 437.916,552.345 455.643,552.345 C 473.369,552.345 487.739,566.715 487.739,584.441 C 487.739,602.168 473.369,616.537 455.643,616.537 C 437.916,616.537 423.547,602.168 423.547,584.441 Z "/>
		<path id="dp_path007" fill="black" fill-rule="evenodd" stroke="black" stroke-width="0.133333" stroke-linejoin="round" d="M 450.633,552.436 L 455.089,550.192 L 459.439,552.312 L 461.359,546.547 L 455.085,549.705 L 448.831,546.656 Z M 454.596,549.952 L 450.932,551.796 L 449.597,547.516 Z M 460.561,547.436 L 459.147,551.684 L 455.579,549.945 Z "/>
		<path id="dp_path008" fill="black" fill-rule="evenodd" stroke="black" stroke-width="0.133333" stroke-linejoin="round" d="M 450.908,616.469 L 455.364,618.713 L 459.713,616.593 L 461.633,622.359 L 455.36,619.201 L 449.104,622.249 Z M 454.869,618.953 L 451.207,617.109 L 449.871,621.389 Z M 460.836,621.469 L 459.421,617.221 L 455.853,618.96 Z "/>
		<path id="dp_path009" fill="black" fill-rule="evenodd" stroke="black" stroke-width="0.133333" stroke-linejoin="round" d="M 423.617,579.677 L 421.373,584.133 L 423.493,588.483 L 417.727,590.403 L 420.885,584.129 L 417.836,577.875 Z M 421.132,583.64 L 422.977,579.977 L 418.696,578.641 Z M 418.617,589.605 L 422.865,588.192 L 421.127,584.623 Z "/>
		<path id="dp_path010" fill="black" fill-rule="evenodd" stroke="black" stroke-width="0.133333" stroke-linejoin="round" d="M 487.645,579.431 L 489.889,583.887 L 487.769,588.236 L 493.536,590.156 L 490.377,583.883 L 493.427,577.628 Z M 490.131,583.393 L 488.285,579.731 L 492.567,578.395 Z M 492.645,589.359 L 488.397,587.944 L 490.136,584.376 Z "/>
		<path id="dp_path011" fill="black" fill-rule="evenodd" stroke="black" stroke-width="0.133333" stroke-linejoin="round" d="M 474.939,558.477 L 479.676,560.041 L 481.252,564.616 L 486.687,561.896 L 480.017,559.693 L 477.751,553.115 Z M 479.497,559.521 L 475.603,558.236 L 477.685,554.264 Z M 485.493,561.961 L 481.491,563.965 L 480.196,560.213 Z "/>
		<path id="dp_path012" fill="black" fill-rule="evenodd" stroke="black" stroke-width="0.133333" stroke-linejoin="round" d="M 474.784,610.568 L 479.523,609.004 L 481.099,604.429 L 486.533,607.149 L 479.864,609.352 L 477.596,615.931 Z M 479.343,609.524 L 475.448,610.809 L 477.531,614.78 Z M 485.34,607.084 L 481.336,605.08 L 480.041,608.832 Z "/>
		<path id="dp_path013" fill="black" fill-rule="evenodd" stroke="black" stroke-width="0.133333" stroke-linejoin="round" d="M 436.46,610.564 L 431.723,609 L 430.147,604.424 L 424.712,607.144 L 431.38,609.347 L 433.648,615.927 Z M 431.901,609.519 L 435.796,610.805 L 433.713,614.776 Z M 425.904,607.079 L 429.908,605.075 L 431.203,608.828 Z "/>
		<path id="dp_path014" fill="black" fill-rule="evenodd" stroke="black" stroke-width="0.133333" stroke-linejoin="round" d="M 436.383,558.401 L 431.644,559.965 L 430.068,564.54 L 424.633,561.82 L 431.303,559.619 L 433.571,553.039 Z M 431.824,559.447 L 435.719,558.16 L 433.636,554.189 Z M 425.827,561.885 L 429.831,563.889 L 431.124,560.137 Z "/>
	</g>
</svg>