<?xml version="1.0" encoding="UTF-8" standalone="no"?>
<svg version="1.1" xmlns="http://www.w3.org/2000/svg" xmlns:xlink="http://www.w3.org/1999/xlink" width="103" height="45">
	<defs>
		<clipPath id="clip_dp_001" clipPathUnits="userSpaceOnUse" clip-rule="evenodd">
			<path d="M 527.983,-161.837 L 530.087,-161.837 L 530.087,-150.248 L 527.983,-150.248 Z " clip-rule="evenodd"/>
		</clipPath>
		<clipPath id="clip_dp_002" clipPathUnits="userSpaceOnUse" clip-rule="evenodd">
			<path d="M 528.448,-174.147 L 530.087,-174.147 L 530.087,-170.332 L 528.448,-170.332 Z " clip-rule="evenodd"/>
		</clipPath>
	</defs>
	<g id="dp_dp001" transform="matrix(1,0,0,1,-427.243,194.949)">
		<path id="dp_path002" fill="white" fill-rule="evenodd" stroke="none" stroke-width="0" d="M 454.868,-162.179 C 456.669,-158.697 457.887,-154.633 459.64,-151.105 C 458.648,-150.847 457.849,-150.399 456.913,-150.083 C 456.313,-152.265 455.428,-154.163 454.699,-156.216 C 453.181,-154.721 452.763,-152.133 451.291,-150.593 C 450.597,-152.799 449.287,-154.383 448.393,-156.387 C 447.409,-154.532 446.705,-152.396 446.179,-150.083 C 445.02,-150.175 444.655,-151.059 443.281,-150.935 C 444.921,-154.52 446.737,-157.929 447.883,-162.009 C 449.385,-160.16 450.155,-157.58 451.631,-155.705 C 452.973,-157.6 453.916,-159.895 454.868,-162.179"/>
		<path id="dp_path003" fill="white" fill-rule="evenodd" stroke="none" stroke-width="0" d="M 476.192,-158.601 C 475.049,-156.961 475.659,-153.189 477.896,-152.639 C 483.421,-151.28 484.661,-160.64 478.408,-159.793 C 478.285,-159.777 478.251,-159.627 478.236,-159.624 C 477.317,-159.433 476.641,-159.247 476.192,-158.601M 478.408,-162.009 C 483.099,-162.511 487.081,-158.364 484.712,-153.321 C 483.267,-150.245 478.719,-149.187 475.681,-150.935 C 472.481,-152.777 472.444,-158.119 474.488,-160.305 C 475.52,-161.408 476.656,-161.821 478.408,-162.009"/>
		<path id="dp_path004" fill="white" fill-rule="evenodd" stroke="none" stroke-width="0" d="M 504.06,-152.639 C 510.069,-151.208 510.412,-161.095 504.229,-159.623 C 501.289,-158.923 500.587,-153.465 504.06,-152.639M 504.4,-162.009 C 507.665,-162.399 510.288,-160.535 511.045,-158.6 C 513.371,-152.667 505.485,-146.891 500.651,-151.787 C 497.176,-155.305 499.727,-161.451 504.4,-162.009"/>
		<path id="dp_path005" fill="white" fill-rule="evenodd" stroke="none" stroke-width="0" d="M 515.208,-162.008 C 517.827,-161.672 521.013,-161.907 523.899,-161.837 C 522.248,-158.945 520.491,-156.16 519.127,-152.979 C 520.591,-152.653 523.1,-152.753 524.58,-152.979 C 524.617,-152.049 524.463,-150.931 524.751,-150.252 C 521.471,-150.701 518.183,-150.12 514.697,-150.252 C 516.624,-153.212 518.503,-156.216 519.98,-159.623 C 518.8,-159.777 516.517,-159.565 515.037,-159.452 C 515.313,-160.085 515.18,-161.128 515.208,-162.008"/>
		<path id="dp_path006" fill="white" fill-rule="evenodd" stroke="none" stroke-width="0" d="M 432.019,-161.837 C 431.928,-158.347 430.896,-152.931 434.064,-152.468 C 438.192,-151.865 437.395,-157.768 437.131,-161.837 L 440.028,-161.837 C 440.144,-155.848 439.977,-150.211 434.745,-150.083 C 429.183,-149.945 428.945,-155.4 428.952,-161.327 L 428.952,-161.837 Z "/>
		<path id="dp_path007" fill="white" fill-rule="evenodd" stroke="none" stroke-width="0" d="M 462.872,-161.837 L 469.688,-161.837 C 469.796,-161.264 469.468,-160.255 469.859,-159.964 C 468.653,-159.444 467.241,-160.184 465.769,-159.964 C 465.411,-159.3 465.683,-158.004 465.599,-157.067 C 466.273,-156.651 467.393,-157.027 468.155,-157.067 L 468.155,-154.853 L 465.769,-154.853 C 465.243,-153.475 465.98,-151.887 465.769,-150.252 C 465.009,-150.656 463.701,-150.328 462.872,-150.252 C 463.307,-153.723 463.419,-158.395 462.872,-161.837"/>
		<path id="dp_path008" fill="white" fill-rule="evenodd" stroke="none" stroke-width="0" d="M 488.649,-161.837 L 491.547,-161.837 C 491.343,-158.916 491.359,-155.779 491.376,-152.639 C 492.903,-152.645 494.156,-152.924 495.805,-152.809 L 495.805,-150.252 C 493.647,-150.485 490.797,-150.531 488.649,-150.252 C 488.915,-153.827 488.915,-158.264 488.649,-161.837"/>
		<g id="dp_dp009" clip-path="url(#clip_dp_001)">
			<g id="clip">
				<path id="dp_path010" fill="white" fill-rule="evenodd" stroke="none" stroke-width="0" d="M 527.983,-161.837 L 530.88,-161.837 C 530.592,-158.296 530.648,-153.976 530.88,-150.424 C 529.852,-150.428 528.781,-150.477 527.983,-150.252 C 528.213,-153.931 528.244,-158.167 527.983,-161.837"/>
			</g>
		</g>
		<path id="dp_path011" fill="white" fill-rule="evenodd" stroke="none" stroke-width="0" d="M 505.719,-180.64 C 508.156,-182.601 486.321,-182.239 481.58,-182.421 C 481.225,-182.435 480.827,-182.441 480.391,-182.44 C 480.429,-182.755 480.407,-183.083 480.325,-183.403 C 481.828,-183.463 483.109,-183.483 484.069,-183.447 C 488.809,-183.265 511.445,-184.225 508.059,-180.261 C 502.677,-176.968 486.676,-176.937 491.861,-173.931 C 495.052,-172.827 499.98,-173.173 504.192,-173.012 C 507.507,-172.885 518.953,-174.337 527.304,-174.897 C 526.731,-173.689 524.579,-172.061 524.153,-170.788 C 515.924,-170.552 504.756,-170.485 501.653,-170.605 C 497.443,-170.767 490.012,-171.461 486.043,-173.387 C 480.872,-176.777 501.367,-179.119 505.719,-180.64"/>
		<path id="dp_path012" fill="white" fill-rule="evenodd" stroke="none" stroke-width="0" d="M 506.124,-181.448 C 508.56,-183.409 486.725,-183.048 481.984,-183.229 C 481.629,-183.243 481.231,-183.249 480.795,-183.248 C 480.833,-183.563 480.811,-183.891 480.729,-184.211 C 482.232,-184.271 483.513,-184.291 484.473,-184.253 C 489.213,-184.072 511.848,-185.033 508.463,-181.071 C 503.081,-177.776 487.08,-177.745 492.265,-174.739 C 495.456,-173.635 500.384,-173.981 504.596,-173.82 C 507.911,-173.693 519.357,-175.145 527.707,-175.705 C 527.135,-174.497 524.983,-172.869 524.557,-171.595 C 516.328,-171.36 505.159,-171.293 502.059,-171.413 C 497.845,-171.575 490.416,-172.269 486.447,-174.195 C 481.276,-177.585 501.769,-179.928 506.124,-181.448"/>
		<path id="dp_path013" fill="white" fill-rule="evenodd" stroke="none" stroke-width="0" d="M 485.945,-175.601 C 486.309,-177.469 492.311,-178.797 500.119,-180.339 C 502.916,-180.892 505.336,-181.371 506.549,-181.785 C 506.745,-181.951 506.797,-182.067 506.779,-182.121 C 506.493,-182.951 500.221,-183.028 496.849,-183.068 C 495.577,-183.084 483.463,-183.1 482.515,-183.135 C 482.184,-183.148 481.816,-183.155 481.415,-183.155 L 481.333,-183.155 L 481.073,-183.153 L 481.105,-183.412 C 481.123,-183.539 481.123,-183.671 481.116,-183.8 C 481.967,-183.824 482.868,-183.933 483.609,-184.349 C 483.743,-184.424 483.825,-184.525 483.868,-184.636 C 483.892,-184.636 483.919,-184.636 483.943,-184.636 C 484.336,-184.636 484.696,-184.631 485.021,-184.619 C 485.493,-184.601 496.972,-184.592 497.767,-184.592 C 498.205,-184.592 498.669,-184.595 499.147,-184.597 L 499.196,-184.597 C 499.68,-184.6 500.18,-184.603 500.687,-184.603 C 505.655,-184.603 509.093,-184.319 509.732,-182.932 C 509.976,-182.404 509.788,-181.369 509.177,-180.653 L 509.153,-180.625 L 509.121,-180.607 C 506.772,-179.167 502.493,-178.213 498.729,-177.499 C 495.489,-176.883 492.153,-176.792 492.017,-175.993 C 491.993,-175.859 492.079,-175.563 492.9,-175.083 C 495.225,-174.285 498.544,-174.261 501.753,-174.241 C 502.881,-174.233 504.047,-174.227 505.144,-174.184 C 505.28,-174.179 505.427,-174.176 505.587,-174.176 C 507.679,-174.176 511.841,-174.583 516.66,-175.051 C 520.324,-175.408 524.461,-175.809 527.996,-176.052 C 527.481,-175.067 526.599,-174.271 525.975,-173.351 C 525.608,-172.809 525.096,-172.155 524.787,-171.492 C 519.733,-171.351 513.128,-171.261 507.845,-171.261 C 505.401,-171.261 503.583,-171.28 502.588,-171.319 C 497.38,-171.519 490.521,-172.36 486.861,-174.137 C 486.153,-174.601 485.845,-175.095 485.945,-175.601"/>
		<path id="dp_path014" fill="white" fill-rule="evenodd" stroke="none" stroke-width="0" d="M 506.259,-181.179 C 508.695,-183.141 486.86,-182.779 482.119,-182.96 C 481.764,-182.975 481.365,-182.98 480.928,-182.979 C 480.969,-183.293 480.945,-183.623 480.864,-183.941 C 482.367,-184.001 483.647,-184.023 484.608,-183.984 C 489.348,-183.804 511.984,-184.764 508.597,-180.801 C 503.216,-177.507 487.215,-177.476 492.4,-174.469 C 495.591,-173.365 500.519,-173.712 504.732,-173.551 C 508.045,-173.424 519.492,-174.876 527.843,-175.436 C 527.268,-174.228 525.117,-172.6 524.692,-171.325 C 516.463,-171.091 505.293,-171.025 502.192,-171.144 C 497.981,-171.305 490.551,-172 486.583,-173.925 C 481.411,-177.317 501.905,-179.659 506.259,-181.179"/>
		<path id="dp_path015" fill="white" fill-rule="evenodd" stroke="none" stroke-width="0" d="M 486.92,-174.039 L 486.997,-174.097 L 487.177,-174.236 L 487.255,-174.295 L 487.208,-174.38 C 487.099,-174.587 487.088,-174.777 487.176,-174.976 C 487.788,-176.337 492.595,-177.487 494.173,-177.864 C 496.381,-178.392 498.859,-178.881 501.045,-179.313 L 501.94,-179.491 C 504.564,-180.011 506.504,-180.408 507.571,-180.78 C 507.807,-180.951 508.037,-181.163 508.007,-181.424 C 507.98,-181.661 507.761,-181.793 507.575,-181.884 L 507.388,-181.973 L 507.2,-182.063 L 507.224,-181.856 L 507.248,-181.651 C 507.264,-181.516 507.145,-181.34 506.912,-181.152 C 505.848,-180.793 503.473,-180.309 501.335,-179.884 L 500.484,-179.717 C 498.285,-179.281 495.792,-178.789 493.559,-178.256 C 488.925,-177.149 486.735,-176.195 486.459,-175.161 C 486.363,-174.797 486.495,-174.443 486.849,-174.105 Z "/>
		<path id="dp_path016" fill="white" fill-rule="evenodd" stroke="none" stroke-width="0" d="M 486.928,-174.188 L 487.107,-174.327 C 486.98,-174.563 486.968,-174.791 487.072,-175.023 C 487.64,-176.291 491.383,-177.315 494.147,-177.976 C 496.355,-178.504 498.833,-178.992 501.023,-179.427 L 501.917,-179.603 C 504.536,-180.121 506.471,-180.517 507.533,-180.888 C 507.732,-181.037 507.915,-181.215 507.893,-181.411 C 507.871,-181.593 507.684,-181.703 507.525,-181.78 L 507.337,-181.869 L 507.361,-181.664 C 507.387,-181.439 507.169,-181.213 506.984,-181.064 C 505.872,-180.683 503.495,-180.196 501.357,-179.772 L 500.507,-179.604 C 498.305,-179.169 495.811,-178.676 493.585,-178.145 C 489.059,-177.064 486.829,-176.107 486.569,-175.132 C 486.484,-174.812 486.604,-174.495 486.928,-174.188"/>
		<path id="dp_path017" fill="white" fill-rule="evenodd" stroke="none" stroke-width="0" d="M 506.403,-172.235 C 507.603,-172.131 509.959,-172.207 512.081,-172.285 L 512.948,-172.317 C 515.189,-172.403 517.731,-172.5 520.019,-172.496 C 522.32,-172.493 524.064,-172.391 525.301,-172.179 C 525.191,-172.097 525.113,-171.975 525.077,-171.837 C 523.483,-172.147 521.295,-172.2 519.512,-172.203 C 517.241,-172.205 514.716,-172.111 512.488,-172.025 L 511.575,-171.991 C 508.971,-171.893 507.033,-171.833 505.901,-171.937 C 506.071,-172.032 506.237,-172.129 506.403,-172.235"/>
		<path id="dp_path018" fill="white" fill-rule="evenodd" stroke="none" stroke-width="0" d="M 500,-172.577 C 501.104,-172.577 502.288,-172.589 503.619,-172.615 C 507.584,-172.692 511.995,-172.875 515.884,-173.039 L 515.965,-173.043 L 517.576,-173.108 C 519.981,-173.209 522.729,-173.316 524.875,-173.356 L 526.236,-173.335 L 526.287,-173.333 L 526.321,-173.369 C 526.395,-173.448 526.447,-173.509 526.491,-173.561 C 526.533,-173.613 526.567,-173.653 526.609,-173.692 L 526.829,-173.892 L 526.532,-173.892 L 524.904,-173.888 C 523.059,-173.84 520.896,-173.753 518.465,-173.652 L 516.843,-173.584 C 512.931,-173.42 508.497,-173.235 504.5,-173.157 C 503.169,-173.132 501.985,-173.119 500.883,-173.119 C 499.928,-173.119 499.032,-173.129 498.22,-173.148 C 492.769,-173.28 491.287,-173.855 491.001,-174.313 C 490.94,-174.409 490.94,-174.512 490.999,-174.635 L 491.039,-174.719 L 490.963,-174.775 L 490.784,-174.909 L 490.709,-174.965 L 490.639,-174.903 C 490.261,-174.568 490.127,-174.241 490.239,-173.935 C 490.436,-173.392 491.417,-172.749 497.292,-172.607 C 498.119,-172.587 499.031,-172.577 500,-172.577"/>
		<path id="dp_path019" fill="white" fill-rule="evenodd" stroke="none" stroke-width="0" d="M 490.715,-174.817 L 490.895,-174.683 C 490.82,-174.524 490.823,-174.383 490.904,-174.252 C 491.339,-173.551 493.8,-173.141 498.217,-173.033 C 499.955,-172.992 502.009,-172.995 504.503,-173.043 C 508.495,-173.119 512.931,-173.305 516.847,-173.469 L 518.469,-173.537 C 520.679,-173.629 522.993,-173.723 524.904,-173.773 L 526.532,-173.777 C 526.443,-173.696 526.389,-173.608 526.239,-173.448 L 524.872,-173.471 C 522.737,-173.432 519.984,-173.324 517.571,-173.224 L 515.96,-173.156 C 512.045,-172.993 507.609,-172.807 503.617,-172.729 C 501.121,-172.681 499.053,-172.679 497.296,-172.721 C 491.424,-172.864 490.516,-173.505 490.345,-173.975 C 490.251,-174.233 490.376,-174.516 490.715,-174.817"/>
		<path id="dp_path020" fill="white" fill-rule="evenodd" stroke="none" stroke-width="0" d="M 453.985,-180.64 C 451.549,-182.601 475.001,-182.239 479.741,-182.421 C 480.096,-182.435 480.496,-182.441 480.932,-182.44 C 480.892,-182.755 480.916,-183.083 480.997,-183.403 C 479.495,-183.463 478.213,-183.483 477.253,-183.447 C 472.513,-183.265 448.26,-184.225 451.647,-180.261 C 457.029,-176.968 473.029,-176.937 467.844,-173.931 C 464.653,-172.827 459.725,-173.173 455.513,-173.012 C 452.199,-172.885 440.752,-174.337 432.403,-174.897 C 432.975,-173.689 435.127,-172.061 435.552,-170.788 C 443.781,-170.552 454.951,-170.485 458.051,-170.605 C 462.263,-170.767 469.693,-171.461 473.663,-173.387 C 478.833,-176.777 458.339,-179.119 453.985,-180.64"/>
		<path id="dp_path021" fill="white" fill-rule="evenodd" stroke="none" stroke-width="0" d="M 453.581,-181.448 C 451.145,-183.409 474.597,-183.048 479.337,-183.229 C 479.693,-183.243 480.091,-183.249 480.528,-183.248 C 480.488,-183.563 480.512,-183.891 480.593,-184.211 C 479.091,-184.271 477.809,-184.291 476.849,-184.253 C 472.109,-184.072 447.856,-185.033 451.243,-181.071 C 456.625,-177.776 472.625,-177.745 467.44,-174.739 C 464.249,-173.635 459.321,-173.981 455.108,-173.82 C 451.795,-173.693 440.348,-175.145 431.997,-175.705 C 432.572,-174.497 434.723,-172.869 435.148,-171.595 C 443.377,-171.36 454.547,-171.293 457.647,-171.413 C 461.859,-171.575 469.291,-172.269 473.259,-174.195 C 478.429,-177.585 457.936,-179.928 453.581,-181.448"/>
		<path id="dp_path022" fill="white" fill-rule="evenodd" stroke="none" stroke-width="0" d="M 473.76,-175.601 C 473.396,-177.469 467.395,-178.797 459.588,-180.339 C 456.789,-180.892 454.369,-181.371 453.156,-181.785 C 452.96,-181.951 452.908,-182.067 452.927,-182.121 C 453.212,-182.951 472.015,-183.028 475.385,-183.068 C 476.657,-183.084 477.86,-183.1 478.807,-183.135 C 479.137,-183.148 479.505,-183.155 479.907,-183.155 L 479.988,-183.155 L 480.248,-183.153 L 480.216,-183.412 C 480.2,-183.539 480.199,-183.671 480.205,-183.8 C 479.356,-183.824 478.455,-183.933 477.713,-184.349 C 477.58,-184.424 477.497,-184.525 477.453,-184.636 C 477.431,-184.636 477.404,-184.636 477.379,-184.636 C 476.987,-184.636 476.625,-184.631 476.301,-184.619 C 475.828,-184.601 462.733,-184.592 461.939,-184.592 C 461.5,-184.592 461.037,-184.595 460.559,-184.597 L 460.509,-184.597 C 460.025,-184.6 459.525,-184.603 459.019,-184.603 C 454.051,-184.603 450.611,-184.319 449.972,-182.932 C 449.729,-182.404 449.917,-181.369 450.528,-180.653 L 450.552,-180.625 L 450.584,-180.607 C 452.933,-179.167 457.212,-178.213 460.976,-177.499 C 464.216,-176.883 467.551,-176.792 467.688,-175.993 C 467.712,-175.859 467.627,-175.563 466.805,-175.083 C 464.48,-174.285 461.161,-174.261 457.952,-174.241 C 456.824,-174.233 455.659,-174.227 454.561,-174.184 C 454.425,-174.179 454.279,-174.176 454.119,-174.176 C 452.027,-174.176 447.864,-174.583 443.045,-175.051 C 439.381,-175.408 435.244,-175.809 431.709,-176.052 C 432.224,-175.067 433.107,-174.271 433.731,-173.351 C 434.097,-172.809 434.609,-172.155 434.919,-171.492 C 439.972,-171.351 446.577,-171.261 451.86,-171.261 C 454.304,-171.261 456.123,-171.28 457.116,-171.319 C 462.325,-171.519 469.184,-172.36 472.844,-174.137 C 473.551,-174.601 473.859,-175.095 473.76,-175.601"/>
		<path id="dp_path023" fill="white" fill-rule="evenodd" stroke="none" stroke-width="0" d="M 453.447,-181.179 C 451.011,-183.141 474.461,-182.779 479.203,-182.96 C 479.557,-182.975 479.956,-182.98 480.392,-182.979 C 480.353,-183.293 480.377,-183.623 480.457,-183.941 C 478.955,-184.001 477.675,-184.023 476.713,-183.984 C 471.975,-183.804 447.721,-184.764 451.108,-180.801 C 456.489,-177.507 472.491,-177.476 467.304,-174.469 C 464.113,-173.365 459.187,-173.712 454.973,-173.551 C 451.66,-173.424 440.213,-174.876 431.863,-175.436 C 432.436,-174.228 434.588,-172.6 435.013,-171.325 C 443.243,-171.091 454.411,-171.025 457.512,-171.144 C 461.725,-171.305 469.155,-172 473.123,-173.925 C 478.295,-177.317 457.8,-179.659 453.447,-181.179"/>
		<path id="dp_path024" fill="white" fill-rule="evenodd" stroke="none" stroke-width="0" d="M 472.787,-174.039 L 472.709,-174.097 L 472.529,-174.236 L 472.452,-174.295 L 472.497,-174.38 C 472.609,-174.587 472.62,-174.777 472.529,-174.976 C 471.919,-176.337 467.112,-177.487 465.532,-177.864 C 463.325,-178.392 460.847,-178.881 458.661,-179.313 L 457.765,-179.491 C 455.143,-180.011 453.201,-180.408 452.135,-180.78 C 451.899,-180.951 451.668,-181.163 451.699,-181.424 C 451.727,-181.661 451.945,-181.793 452.132,-181.884 L 452.319,-181.973 L 452.505,-182.063 L 452.483,-181.856 L 452.459,-181.651 C 452.443,-181.516 452.563,-181.34 452.793,-181.152 C 453.859,-180.793 456.232,-180.309 458.372,-179.884 L 459.223,-179.717 C 461.421,-179.281 463.915,-178.789 466.147,-178.256 C 470.781,-177.149 472.972,-176.195 473.248,-175.161 C 473.344,-174.797 473.213,-174.443 472.857,-174.105 Z "/>
		<path id="dp_path025" fill="white" fill-rule="evenodd" stroke="none" stroke-width="0" d="M 472.777,-174.188 L 472.599,-174.327 C 472.725,-174.563 472.737,-174.791 472.633,-175.023 C 472.065,-176.291 468.324,-177.315 465.559,-177.976 C 463.351,-178.504 460.872,-178.992 458.684,-179.427 L 457.788,-179.603 C 455.169,-180.121 453.235,-180.517 452.172,-180.888 C 451.975,-181.037 451.789,-181.215 451.812,-181.411 C 451.835,-181.593 452.02,-181.703 452.18,-181.78 L 452.368,-181.869 L 452.344,-181.664 C 452.319,-181.439 452.536,-181.213 452.721,-181.064 C 453.833,-180.683 456.211,-180.196 458.348,-179.772 L 459.2,-179.604 C 461.4,-179.169 463.895,-178.676 466.12,-178.145 C 470.647,-177.064 472.876,-176.107 473.136,-175.132 C 473.221,-174.812 473.101,-174.495 472.777,-174.188"/>
		<path id="dp_path026" fill="white" fill-rule="evenodd" stroke="none" stroke-width="0" d="M 453.303,-172.235 C 452.103,-172.131 449.747,-172.207 447.624,-172.285 L 446.757,-172.317 C 444.516,-172.403 441.975,-172.5 439.687,-172.496 C 437.385,-172.493 435.641,-172.391 434.404,-172.179 C 434.515,-172.097 434.592,-171.975 434.629,-171.837 C 436.223,-172.147 438.411,-172.2 440.193,-172.203 C 442.464,-172.205 444.988,-172.111 447.217,-172.025 L 448.131,-171.991 C 450.735,-171.893 452.672,-171.833 453.804,-171.937 C 453.635,-172.032 453.468,-172.129 453.303,-172.235"/>
		<path id="dp_path027" fill="white" fill-rule="evenodd" stroke="none" stroke-width="0" d="M 459.705,-172.577 C 458.6,-172.577 457.416,-172.589 456.085,-172.615 C 452.121,-172.692 447.711,-172.875 443.82,-173.039 L 443.74,-173.043 L 442.129,-173.108 C 439.724,-173.209 436.976,-173.316 434.831,-173.356 L 433.469,-173.335 L 433.417,-173.333 L 433.384,-173.369 C 433.311,-173.448 433.259,-173.509 433.215,-173.561 C 433.172,-173.613 433.137,-173.653 433.096,-173.692 L 432.876,-173.892 L 433.173,-173.892 L 434.801,-173.888 C 436.647,-173.84 438.809,-173.753 441.24,-173.652 L 442.864,-173.584 C 446.775,-173.42 451.208,-173.235 455.204,-173.157 C 456.536,-173.132 457.72,-173.119 458.823,-173.119 C 459.777,-173.119 460.672,-173.129 461.485,-173.148 C 466.936,-173.28 468.419,-173.855 468.704,-174.313 C 468.764,-174.409 468.764,-174.512 468.707,-174.635 L 468.667,-174.719 L 468.743,-174.775 L 468.921,-174.909 L 468.997,-174.965 L 469.067,-174.903 C 469.444,-174.568 469.579,-174.241 469.467,-173.935 C 469.269,-173.392 468.287,-172.749 462.412,-172.607 C 461.587,-172.587 460.675,-172.577 459.705,-172.577"/>
		<path id="dp_path028" fill="white" fill-rule="evenodd" stroke="none" stroke-width="0" d="M 468.991,-174.817 L 468.811,-174.683 C 468.885,-174.524 468.883,-174.383 468.801,-174.252 C 468.367,-173.551 465.905,-173.141 461.488,-173.033 C 459.751,-172.992 457.696,-172.995 455.203,-173.043 C 451.211,-173.119 446.775,-173.305 442.859,-173.469 L 441.236,-173.537 C 439.028,-173.629 436.712,-173.723 434.801,-173.773 L 433.173,-173.777 C 433.263,-173.696 433.316,-173.608 433.468,-173.448 L 434.833,-173.471 C 436.968,-173.432 439.721,-173.324 442.135,-173.224 L 443.745,-173.156 C 447.66,-172.993 452.096,-172.807 456.088,-172.729 C 458.584,-172.681 460.652,-172.679 462.411,-172.721 C 468.281,-172.864 469.188,-173.505 469.36,-173.975 C 469.455,-174.233 469.329,-174.516 468.991,-174.817"/>
		<path id="dp_path029" fill="white" fill-rule="evenodd" stroke="none" stroke-width="0" d="M 473.04,-183.955 C 473.04,-183.864 473.031,-183.776 473.015,-183.688 L 473.375,-183.095 L 473.473,-182.932 L 478.205,-175.12 L 478.476,-174.675 L 479.715,-172.68 L 480.935,-174.687 L 481.2,-175.136 L 485.823,-182.949 L 485.917,-183.109 L 486.352,-183.844 L 485.911,-184.577 L 485.816,-184.737 L 481.156,-192.476 L 480.889,-192.919 L 479.665,-194.948 L 478.437,-192.923 L 478.171,-192.481 L 473.473,-184.74 L 473.375,-184.58 L 473.037,-184.023 C 473.039,-183.999 473.04,-183.977 473.04,-183.955"/>
		<path id="dp_path030" fill="white" fill-rule="evenodd" stroke="none" stroke-width="0" d="M 479.663,-191.837 L 479.795,-191.617 L 484.455,-183.876 L 484.503,-183.796 L 484.456,-183.716 L 479.833,-175.904 L 479.7,-175.68 L 479.565,-175.903 L 474.832,-183.716 L 474.783,-183.796 L 474.832,-183.876 L 479.528,-191.617 Z "/>
		<path id="dp_path031" fill="white" fill-rule="evenodd" stroke="none" stroke-width="0" d="M 479.663,-192.851 L 479.959,-192.359 L 480.227,-191.917 L 484.885,-184.177 L 484.981,-184.016 L 485.088,-183.839 L 484.983,-183.661 L 484.888,-183.501 L 480.265,-175.689 L 480,-175.24 L 479.704,-174.743 L 479.404,-175.237 L 479.135,-175.683 L 474.401,-183.497 L 474.304,-183.657 L 474.195,-183.836 L 474.304,-184.016 L 474.401,-184.179 L 479.099,-191.919 L 479.367,-192.36 Z "/>
		<path id="dp_path032" fill="white" fill-rule="evenodd" stroke="none" stroke-width="0" d="M 475.056,-183.837 L 479.697,-176.177 L 484.231,-183.836 L 479.661,-191.425 Z "/>
		<path id="dp_path033" fill="white" fill-rule="evenodd" stroke="none" stroke-width="0" d="M 486.352,-183.804 L 488.075,-181.061 L 484.875,-181.173 L 486.335,-178.143 L 483.189,-178.311 L 484.761,-175.559 L 481.561,-175.559 L 483.133,-172.64 L 479.716,-172.64 Z "/>
		<path id="dp_path034" fill="white" fill-rule="evenodd" stroke="none" stroke-width="0" d="M 473.044,-183.804 L 471.321,-181.061 L 474.521,-181.173 L 473.063,-178.143 L 476.207,-178.311 L 474.635,-175.559 L 477.835,-175.559 L 476.263,-172.64 L 479.68,-172.64 Z "/>
		<path id="dp_path035" fill="white" fill-rule="evenodd" stroke="none" stroke-width="0" d="M 479.716,-194.949 L 486.352,-183.785 L 488.075,-186.528 L 484.875,-186.415 L 486.335,-189.447 L 483.189,-189.277 L 484.763,-192.029 L 481.561,-192.029 L 483.133,-194.949 Z "/>
		<path id="dp_path036" fill="white" fill-rule="evenodd" stroke="none" stroke-width="0" d="M 476.263,-194.949 L 477.836,-192.029 L 474.635,-192.029 L 476.207,-189.277 L 473.063,-189.447 L 474.523,-186.415 L 471.32,-186.528 L 473.044,-183.785 L 479.68,-194.949 Z "/>
		<path id="dp_path037" fill="white" fill-rule="evenodd" stroke="none" stroke-width="0" d="M 429.931,-170.336 C 430.261,-170.384 430.789,-170.575 431.008,-170.809 C 431.773,-171.636 431.333,-173.223 430.504,-173.717 C 430.308,-173.835 430.067,-173.975 429.92,-174.011 C 428.236,-174.431 427.049,-173.925 427.243,-172.099 C 427.428,-170.353 428.427,-170.123 429.931,-170.336"/>
		<g id="dp_dp038" clip-path="url(#clip_dp_002)">
			<g id="clip">
				<path id="dp_path039" fill="white" fill-rule="evenodd" stroke="none" stroke-width="0" d="M 531.135,-170.336 C 531.465,-170.384 531.995,-170.575 532.212,-170.809 C 532.979,-171.636 532.539,-173.223 531.709,-173.717 C 531.513,-173.835 531.272,-173.975 531.125,-174.011 C 529.441,-174.431 528.255,-173.925 528.448,-172.099 C 528.632,-170.353 529.632,-170.123 531.135,-170.336"/>
			</g>
		</g>
	</g>
</svg>