<?xml version="1.0" encoding="UTF-8" standalone="no"?>
<svg version="1.1" xmlns="http://www.w3.org/2000/svg" xmlns:xlink="http://www.w3.org/1999/xlink" width="300.16" height="147.2">
	<defs>
		<linearGradient id="grad_dp_001" gradientUnits="userSpaceOnUse" x1="573.498" y1="86.3706" x2="668.062" y2="86.3706">
			<stop offset="0" stop-color="#d9bf64"/>
			<stop offset="0.4775" stop-color="#f8d86e"/>
			<stop offset="1" stop-color="#f8d86e"/>
		</linearGradient>
		<linearGradient id="grad_dp_002" gradientUnits="userSpaceOnUse" x1="607.059" y1="53.8389" x2="635.291" y2="44.666">
			<stop offset="0" stop-color="#d9bf64"/>
			<stop offset="0.4775" stop-color="#f8d86e"/>
			<stop offset="1" stop-color="#f8d86e"/>
		</linearGradient>
		<linearGradient id="grad_dp_003" gradientUnits="userSpaceOnUse" x1="617.512" y1="50.864" x2="617.512" y2="33.5222">
			<stop offset="0" stop-color="#af9b55"/>
			<stop offset="0.4101" stop-color="#af9b55"/>
			<stop offset="1" stop-color="#d9bf64"/>
		</linearGradient>
		<linearGradient id="grad_dp_004" gradientUnits="userSpaceOnUse" x1="620.682" y1="52.0816" x2="620.682" y2="61.9577">
			<stop offset="0" stop-color="#af9b55"/>
			<stop offset="0.4101" stop-color="#af9b55"/>
			<stop offset="1" stop-color="#d9bf64"/>
		</linearGradient>
		<linearGradient id="grad_dp_005" gradientUnits="userSpaceOnUse" x1="577.784" y1="59.451" x2="597.896" y2="52.9162">
			<stop offset="0" stop-color="#d9bf64"/>
			<stop offset="0.4775" stop-color="#f8d86e"/>
			<stop offset="1" stop-color="#f8d86e"/>
		</linearGradient>
		<linearGradient id="grad_dp_006" gradientUnits="userSpaceOnUse" x1="582.901" y1="59.0686" x2="582.901" y2="47.1675">
			<stop offset="0" stop-color="#af9b55"/>
			<stop offset="0.4101" stop-color="#af9b55"/>
			<stop offset="1" stop-color="#d9bf64"/>
		</linearGradient>
		<linearGradient id="grad_dp_007" gradientUnits="userSpaceOnUse" x1="588.707" y1="59.7263" x2="588.707" y2="69.0267">
			<stop offset="0" stop-color="#af9b55"/>
			<stop offset="0.4101" stop-color="#af9b55"/>
			<stop offset="1" stop-color="#d9bf64"/>
		</linearGradient>
		<linearGradient id="grad_dp_008" gradientUnits="userSpaceOnUse" x1="643.675" y1="63.8943" x2="664.672" y2="57.0719">
			<stop offset="0" stop-color="#d9bf64"/>
			<stop offset="0.4775" stop-color="#f8d86e"/>
			<stop offset="1" stop-color="#f8d86e"/>
		</linearGradient>
		<linearGradient id="grad_dp_009" gradientUnits="userSpaceOnUse" x1="656.297" y1="58.7334" x2="656.297" y2="47.1675">
			<stop offset="0" stop-color="#af9b55"/>
			<stop offset="0.4101" stop-color="#af9b55"/>
			<stop offset="1" stop-color="#d9bf64"/>
		</linearGradient>
		<linearGradient id="grad_dp_010" gradientUnits="userSpaceOnUse" x1="653.153" y1="59.7263" x2="653.153" y2="69.0267">
			<stop offset="0" stop-color="#af9b55"/>
			<stop offset="0.4101" stop-color="#af9b55"/>
			<stop offset="1" stop-color="#d9bf64"/>
		</linearGradient>
		<linearGradient id="grad_dp_011" gradientUnits="userSpaceOnUse" x1="588.231" y1="97.8383" x2="640.632" y2="97.8383">
			<stop offset="0" stop-color="#af9b55"/>
			<stop offset="0.4101" stop-color="#af9b55"/>
			<stop offset="1" stop-color="#d9bf64"/>
		</linearGradient>
		<linearGradient id="grad_dp_012" gradientUnits="userSpaceOnUse" x1="573.498" y1="79.5946" x2="657.216" y2="79.5946">
			<stop offset="0" stop-color="#af9b55"/>
			<stop offset="0.4101" stop-color="#af9b55"/>
			<stop offset="1" stop-color="#d9bf64"/>
		</linearGradient>
		<linearGradient id="grad_dp_013" gradientUnits="userSpaceOnUse" x1="654.262" y1="103.151" x2="654.262" y2="81.241">
			<stop offset="0" stop-color="#af9b55"/>
			<stop offset="1" stop-color="#f8d86e"/>
		</linearGradient>
	</defs>
	<g id="dp_dp001" transform="matrix(1,0,0,1,-470.68,-33.5227)">
		<path id="dp_path002" fill="white" fill-rule="evenodd" stroke="none" stroke-width="0" d="M 491.489,168.325 L 491.489,173.527 L 485.844,173.527 L 485.844,168.325 L 483.029,168.325 L 483.029,180.793 L 485.844,180.793 L 485.844,175.879 L 491.489,175.879 L 491.489,180.793 L 494.304,180.793 L 494.304,168.325 Z "/>
		<path id="dp_path003" fill="white" fill-rule="evenodd" stroke="none" stroke-width="0" d="M 501.856,171.112 C 501.263,171.463 500.793,171.94 500.449,172.545 C 500.104,173.151 499.933,173.816 499.933,174.541 C 499.933,175.277 500.108,175.948 500.459,176.553 C 500.809,177.159 501.277,177.64 501.865,177.996 C 502.453,178.353 503.092,178.531 503.78,178.531 C 504.469,178.531 505.101,178.356 505.677,178.005 C 506.253,177.656 506.711,177.175 507.049,176.563 C 507.387,175.952 507.556,175.277 507.556,174.541 C 507.556,173.816 507.387,173.151 507.049,172.545 C 506.711,171.94 506.253,171.463 505.677,171.112 C 505.101,170.763 504.469,170.587 503.78,170.587 C 503.092,170.587 502.451,170.763 501.856,171.112M 507.147,168.965 C 508.168,169.524 508.973,170.292 509.56,171.272 C 510.148,172.252 510.443,173.341 510.443,174.541 C 510.443,175.741 510.148,176.833 509.56,177.817 C 508.973,178.804 508.168,179.579 507.147,180.143 C 506.125,180.707 504.992,180.989 503.745,180.989 C 502.497,180.989 501.364,180.707 500.343,180.143 C 499.321,179.579 498.517,178.807 497.928,177.827 C 497.341,176.847 497.047,175.752 497.047,174.541 C 497.047,173.341 497.341,172.252 497.928,171.272 C 498.517,170.292 499.319,169.524 500.333,168.965 C 501.349,168.407 502.487,168.128 503.745,168.128 C 504.992,168.128 506.125,168.407 507.147,168.965"/>
		<path id="dp_path004" fill="white" fill-rule="evenodd" stroke="none" stroke-width="0" d="M 511.601,168.324 L 522.02,168.324 L 522.02,170.711 L 518.209,170.711 L 518.209,180.793 L 515.395,180.793 L 515.395,170.711 L 511.601,170.711 Z "/>
		<path id="dp_path005" fill="white" fill-rule="evenodd" stroke="none" stroke-width="0" d="M 524.425,168.324 L 533.92,168.324 L 533.92,170.657 L 527.24,170.657 L 527.24,173.364 L 533.243,173.364 L 533.243,175.699 L 527.24,175.699 L 527.24,178.459 L 534.116,178.459 L 534.116,180.793 L 524.425,180.793 Z "/>
		<path id="dp_path006" fill="white" fill-rule="evenodd" stroke="none" stroke-width="0" d="M 537.216,168.324 L 540.029,168.324 L 540.029,178.335 L 545.375,178.335 L 545.375,180.793 L 537.216,180.793 Z "/>
		<path id="dp_path007" fill="white" fill-rule="evenodd" stroke="none" stroke-width="0" d="M 554.111,170.863 C 553.392,170.631 552.777,170.515 552.267,170.515 C 551.779,170.515 551.393,170.604 551.108,170.783 C 550.824,170.96 550.681,171.221 550.681,171.565 C 550.681,172.005 550.885,172.341 551.296,172.572 C 551.705,172.804 552.337,173.045 553.193,173.295 C 554.048,173.544 554.752,173.793 555.304,174.043 C 555.856,174.292 556.328,174.665 556.72,175.164 C 557.111,175.663 557.307,176.323 557.307,177.141 C 557.307,177.937 557.096,178.623 556.675,179.199 C 556.253,179.775 555.675,180.211 554.939,180.508 C 554.201,180.805 553.364,180.953 552.427,180.953 C 551.417,180.953 550.425,180.775 549.452,180.419 C 548.479,180.061 547.636,179.576 546.923,178.957 L 548.044,176.66 C 548.675,177.231 549.399,177.688 550.219,178.032 C 551.037,178.376 551.785,178.549 552.463,178.549 C 553.044,178.549 553.499,178.441 553.825,178.228 C 554.152,178.013 554.315,177.705 554.315,177.301 C 554.315,176.981 554.205,176.717 553.985,176.509 C 553.765,176.301 553.487,176.132 553.148,176.001 C 552.811,175.871 552.344,175.723 551.749,175.556 C 550.895,175.319 550.197,175.081 549.657,174.844 C 549.117,174.605 548.649,174.244 548.259,173.756 C 547.867,173.269 547.671,172.623 547.671,171.816 C 547.671,171.067 547.872,170.412 548.276,169.847 C 548.68,169.283 549.244,168.849 549.968,168.547 C 550.693,168.244 551.536,168.092 552.497,168.092 C 553.353,168.092 554.196,168.217 555.028,168.467 C 555.859,168.716 556.596,169.048 557.237,169.464 L 556.149,171.797 C 555.508,171.405 554.828,171.093 554.111,170.863"/>
		<path id="dp_path008" fill="white" fill-rule="evenodd" stroke="none" stroke-width="0" d="M 577.817,171.023 C 577.241,170.732 576.664,170.588 576.081,170.588 C 575.38,170.588 574.739,170.759 574.157,171.103 C 573.576,171.448 573.119,171.917 572.785,172.511 C 572.453,173.104 572.287,173.764 572.287,174.488 C 572.287,175.212 572.453,175.873 572.785,176.473 C 573.119,177.073 573.576,177.549 574.157,177.899 C 574.739,178.249 575.38,178.424 576.081,178.424 C 576.639,178.424 577.207,178.291 577.783,178.024 C 578.357,177.756 578.872,177.397 579.324,176.947 L 580.98,178.745 C 580.315,179.435 579.533,179.98 578.637,180.384 C 577.741,180.788 576.84,180.991 575.939,180.991 C 574.716,180.991 573.605,180.708 572.608,180.144 C 571.611,179.579 570.825,178.804 570.256,177.819 C 569.687,176.833 569.401,175.735 569.401,174.524 C 569.401,173.324 569.692,172.239 570.273,171.264 C 570.856,170.291 571.655,169.524 572.669,168.965 C 573.685,168.408 574.811,168.129 576.045,168.129 C 576.948,168.129 577.839,168.316 578.717,168.691 C 579.596,169.064 580.344,169.572 580.961,170.213 L 579.324,172.225 C 578.895,171.715 578.395,171.315 577.817,171.023"/>
		<path id="dp_path009" fill="white" fill-rule="evenodd" stroke="none" stroke-width="0" d="M 586.804,176.108 L 590.74,176.108 L 588.781,171.263 Z M 592.628,180.793 L 591.649,178.371 L 585.879,178.371 L 584.897,180.793 L 581.993,180.793 L 587.409,168.324 L 590.313,168.324 L 595.64,180.793 Z "/>
		<path id="dp_path010" fill="white" fill-rule="evenodd" stroke="none" stroke-width="0" d="M 603.931,170.863 C 603.211,170.631 602.597,170.515 602.087,170.515 C 601.599,170.515 601.213,170.604 600.929,170.783 C 600.644,170.96 600.501,171.221 600.501,171.565 C 600.501,172.005 600.707,172.341 601.115,172.572 C 601.525,172.804 602.159,173.045 603.013,173.295 C 603.868,173.544 604.572,173.793 605.124,174.043 C 605.676,174.292 606.148,174.665 606.539,175.164 C 606.931,175.663 607.127,176.323 607.127,177.141 C 607.127,177.937 606.915,178.623 606.495,179.199 C 606.072,179.775 605.495,180.211 604.759,180.508 C 604.021,180.805 603.185,180.953 602.247,180.953 C 601.237,180.953 600.245,180.775 599.272,180.419 C 598.299,180.061 597.456,179.576 596.743,178.957 L 597.865,176.66 C 598.493,177.231 599.219,177.688 600.039,178.032 C 600.857,178.376 601.605,178.549 602.283,178.549 C 602.864,178.549 603.319,178.441 603.644,178.228 C 603.972,178.013 604.135,177.705 604.135,177.301 C 604.135,176.981 604.025,176.717 603.805,176.509 C 603.587,176.301 603.307,176.132 602.969,176.001 C 602.629,175.871 602.164,175.723 601.569,175.556 C 600.715,175.319 600.017,175.081 599.477,174.844 C 598.936,174.605 598.471,174.244 598.079,173.756 C 597.688,173.269 597.491,172.623 597.491,171.816 C 597.491,171.067 597.692,170.412 598.096,169.847 C 598.5,169.283 599.064,168.849 599.788,168.547 C 600.513,168.244 601.356,168.092 602.317,168.092 C 603.172,168.092 604.016,168.217 604.847,168.467 C 605.679,168.716 606.415,169.048 607.056,169.464 L 605.969,171.797 C 605.328,171.405 604.648,171.093 603.931,170.863"/>
		<path id="dp_path011" fill="white" fill-rule="evenodd" stroke="none" stroke-width="0" d="M 609.995,168.324 L 612.809,168.324 L 612.809,180.793 L 609.995,180.793 Z "/>
		<path id="dp_path012" fill="white" fill-rule="evenodd" stroke="none" stroke-width="0" d="M 625.083,168.324 L 627.755,168.324 L 627.755,180.793 L 625.189,180.793 L 619.152,172.777 L 619.152,180.793 L 616.461,180.793 L 616.461,168.324 L 619.027,168.324 L 625.083,176.375 Z "/>
		<path id="dp_path013" fill="white" fill-rule="evenodd" stroke="none" stroke-width="0" d="M 635.307,171.112 C 634.712,171.463 634.244,171.94 633.899,172.545 C 633.555,173.151 633.383,173.816 633.383,174.541 C 633.383,175.277 633.557,175.948 633.909,176.553 C 634.259,177.159 634.727,177.64 635.316,177.996 C 635.904,178.353 636.541,178.531 637.231,178.531 C 637.919,178.531 638.551,178.356 639.128,178.005 C 639.703,177.656 640.161,177.175 640.499,176.563 C 640.836,175.952 641.007,175.277 641.007,174.541 C 641.007,173.816 640.836,173.151 640.499,172.545 C 640.161,171.94 639.703,171.463 639.128,171.112 C 638.551,170.763 637.919,170.587 637.231,170.587 C 636.541,170.587 635.9,170.763 635.307,171.112M 640.597,168.965 C 641.617,169.524 642.424,170.292 643.011,171.272 C 643.597,172.252 643.893,173.341 643.893,174.541 C 643.893,175.741 643.597,176.833 643.011,177.817 C 642.424,178.804 641.617,179.579 640.597,180.143 C 639.576,180.707 638.441,180.989 637.195,180.989 C 635.948,180.989 634.813,180.707 633.793,180.143 C 632.771,179.579 631.967,178.807 631.377,177.827 C 630.792,176.847 630.497,175.752 630.497,174.541 C 630.497,173.341 630.792,172.252 631.377,171.272 C 631.967,170.292 632.768,169.524 633.783,168.965 C 634.799,168.407 635.936,168.128 637.195,168.128 C 638.441,168.128 639.576,168.407 640.597,168.965"/>
		<path id="dp_path014" fill="white" fill-rule="evenodd" stroke="none" stroke-width="0" d="M 652.808,170.863 C 652.089,170.631 651.475,170.515 650.964,170.515 C 650.476,170.515 650.092,170.604 649.807,170.783 C 649.521,170.96 649.379,171.221 649.379,171.565 C 649.379,172.005 649.584,172.341 649.992,172.572 C 650.403,172.804 651.036,173.045 651.891,173.295 C 652.745,173.544 653.449,173.793 654.001,174.043 C 654.553,174.292 655.025,174.665 655.417,175.164 C 655.809,175.663 656.005,176.323 656.005,177.141 C 656.005,177.937 655.795,178.623 655.373,179.199 C 654.951,179.775 654.372,180.211 653.636,180.508 C 652.9,180.805 652.063,180.953 651.124,180.953 C 650.115,180.953 649.123,180.775 648.151,180.419 C 647.176,180.061 646.333,179.576 645.62,178.957 L 646.744,176.66 C 647.371,177.231 648.097,177.688 648.916,178.032 C 649.735,178.376 650.483,178.549 651.16,178.549 C 651.743,178.549 652.196,178.441 652.523,178.228 C 652.849,178.013 653.013,177.705 653.013,177.301 C 653.013,176.981 652.903,176.717 652.684,176.509 C 652.464,176.301 652.185,176.132 651.847,176.001 C 651.507,175.871 651.041,175.723 650.448,175.556 C 649.592,175.319 648.895,175.081 648.355,174.844 C 647.813,174.605 647.349,174.244 646.956,173.756 C 646.565,173.269 646.368,172.623 646.368,171.816 C 646.368,171.067 646.569,170.412 646.973,169.847 C 647.377,169.283 647.943,168.849 648.665,168.547 C 649.391,168.244 650.233,168.092 651.196,168.092 C 652.051,168.092 652.893,168.217 653.724,168.467 C 654.557,168.716 655.293,169.048 655.935,169.464 L 654.848,171.797 C 654.207,171.405 653.527,171.093 652.808,170.863"/>
		<path id="dp_path015" fill="white" fill-rule="evenodd" stroke="none" stroke-width="0" d="M 671.803,174.88 L 674.404,174.88 C 675.188,174.88 675.791,174.699 676.213,174.336 C 676.633,173.973 676.844,173.443 676.844,172.743 C 676.844,172.053 676.633,171.533 676.213,171.183 C 675.791,170.833 675.188,170.659 674.404,170.659 L 671.803,170.659 Z M 676.649,180.793 L 674.671,177.231 L 674.404,177.231 L 671.803,177.231 L 671.803,180.793 L 668.989,180.793 L 668.989,168.325 L 674.404,168.325 C 676.032,168.325 677.289,168.703 678.18,169.456 C 679.071,170.211 679.516,171.276 679.516,172.653 C 679.516,173.615 679.319,174.437 678.92,175.12 C 678.523,175.803 677.944,176.323 677.184,176.679 L 679.837,180.793 Z "/>
		<path id="dp_path016" fill="white" fill-rule="evenodd" stroke="none" stroke-width="0" d="M 682.776,168.324 L 692.269,168.324 L 692.269,170.657 L 685.591,170.657 L 685.591,173.364 L 691.593,173.364 L 691.593,175.699 L 685.591,175.699 L 685.591,178.459 L 692.467,178.459 L 692.467,180.793 L 682.776,180.793 Z "/>
		<path id="dp_path017" fill="white" fill-rule="evenodd" stroke="none" stroke-width="0" d="M 701.739,170.863 C 701.019,170.631 700.405,170.515 699.895,170.515 C 699.407,170.515 699.021,170.604 698.737,170.783 C 698.452,170.96 698.309,171.221 698.309,171.565 C 698.309,172.005 698.515,172.341 698.923,172.572 C 699.333,172.804 699.967,173.045 700.82,173.295 C 701.675,173.544 702.38,173.793 702.932,174.043 C 703.484,174.292 703.956,174.665 704.347,175.164 C 704.739,175.663 704.935,176.323 704.935,177.141 C 704.935,177.937 704.724,178.623 704.303,179.199 C 703.881,179.775 703.303,180.211 702.567,180.508 C 701.829,180.805 700.993,180.953 700.055,180.953 C 699.045,180.953 698.053,180.775 697.08,180.419 C 696.107,180.061 695.264,179.576 694.551,178.957 L 695.673,176.66 C 696.301,177.231 697.027,177.688 697.847,178.032 C 698.665,178.376 699.413,178.549 700.091,178.549 C 700.672,178.549 701.127,178.441 701.452,178.228 C 701.78,178.013 701.943,177.705 701.943,177.301 C 701.943,176.981 701.833,176.717 701.613,176.509 C 701.393,176.301 701.115,176.132 700.777,176.001 C 700.437,175.871 699.972,175.723 699.377,175.556 C 698.523,175.319 697.825,175.081 697.285,174.844 C 696.744,174.605 696.279,174.244 695.887,173.756 C 695.496,173.269 695.299,172.623 695.299,171.816 C 695.299,171.067 695.5,170.412 695.904,169.847 C 696.308,169.283 696.872,168.849 697.596,168.547 C 698.32,168.244 699.164,168.092 700.125,168.092 C 700.98,168.092 701.824,168.217 702.655,168.467 C 703.487,168.716 704.223,169.048 704.865,169.464 L 703.777,171.797 C 703.136,171.405 702.456,171.093 701.739,170.863"/>
		<path id="dp_path018" fill="white" fill-rule="evenodd" stroke="none" stroke-width="0" d="M 711.721,171.112 C 711.127,171.463 710.657,171.94 710.313,172.545 C 709.968,173.151 709.796,173.816 709.796,174.541 C 709.796,175.277 709.972,175.948 710.323,176.553 C 710.672,177.159 711.141,177.64 711.729,177.996 C 712.317,178.353 712.955,178.531 713.644,178.531 C 714.333,178.531 714.965,178.356 715.541,178.005 C 716.117,177.656 716.575,177.175 716.913,176.563 C 717.251,175.952 717.421,175.277 717.421,174.541 C 717.421,173.816 717.251,173.151 716.913,172.545 C 716.575,171.94 716.117,171.463 715.541,171.112 C 714.965,170.763 714.333,170.587 713.644,170.587 C 712.955,170.587 712.315,170.763 711.721,171.112M 717.011,168.965 C 718.032,169.524 718.837,170.292 719.425,171.272 C 720.012,172.252 720.307,173.341 720.307,174.541 C 720.307,175.741 720.012,176.833 719.425,177.817 C 718.837,178.804 718.032,179.579 717.011,180.143 C 715.991,180.707 714.855,180.989 713.608,180.989 C 712.363,180.989 711.228,180.707 710.207,180.143 C 709.185,179.579 708.38,178.807 707.792,177.827 C 707.207,176.847 706.911,175.752 706.911,174.541 C 706.911,173.341 707.207,172.252 707.792,171.272 C 708.38,170.292 709.181,169.524 710.197,168.965 C 711.213,168.407 712.349,168.128 713.608,168.128 C 714.855,168.128 715.991,168.407 717.011,168.965"/>
		<path id="dp_path019" fill="white" fill-rule="evenodd" stroke="none" stroke-width="0" d="M 725.864,174.88 L 728.464,174.88 C 729.249,174.88 729.852,174.699 730.273,174.336 C 730.695,173.973 730.905,173.443 730.905,172.743 C 730.905,172.053 730.695,171.533 730.273,171.183 C 729.852,170.833 729.249,170.659 728.464,170.659 L 725.864,170.659 Z M 730.709,180.793 L 728.732,177.231 L 728.464,177.231 L 725.864,177.231 L 725.864,180.793 L 723.049,180.793 L 723.049,168.325 L 728.464,168.325 C 730.093,168.325 731.351,168.703 732.241,169.456 C 733.132,170.211 733.577,171.276 733.577,172.653 C 733.577,173.615 733.379,174.437 732.981,175.12 C 732.583,175.803 732.004,176.323 731.245,176.679 L 733.899,180.793 Z "/>
		<path id="dp_path020" fill="white" fill-rule="evenodd" stroke="none" stroke-width="0" d="M 735.608,168.324 L 746.028,168.324 L 746.028,170.711 L 742.216,170.711 L 742.216,180.793 L 739.403,180.793 L 739.403,170.711 L 735.608,170.711 Z "/>
		<path id="dp_path021" fill="white" fill-rule="evenodd" stroke="none" stroke-width="0" d="M 754.605,170.863 C 753.885,170.631 753.272,170.515 752.761,170.515 C 752.273,170.515 751.888,170.604 751.604,170.783 C 751.319,170.96 751.176,171.221 751.176,171.565 C 751.176,172.005 751.381,172.341 751.789,172.572 C 752.2,172.804 752.832,173.045 753.687,173.295 C 754.541,173.544 755.247,173.793 755.799,174.043 C 756.351,174.292 756.823,174.665 757.213,175.164 C 757.605,175.663 757.801,176.323 757.801,177.141 C 757.801,177.937 757.591,178.623 757.169,179.199 C 756.748,179.775 756.169,180.211 755.433,180.508 C 754.696,180.805 753.86,180.953 752.921,180.953 C 751.912,180.953 750.92,180.775 749.947,180.419 C 748.973,180.061 748.129,179.576 747.417,178.957 L 748.54,176.66 C 749.168,177.231 749.893,177.688 750.713,178.032 C 751.532,178.376 752.28,178.549 752.957,178.549 C 753.539,178.549 753.993,178.441 754.319,178.228 C 754.647,178.013 754.809,177.705 754.809,177.301 C 754.809,176.981 754.7,176.717 754.48,176.509 C 754.26,176.301 753.981,176.132 753.644,176.001 C 753.304,175.871 752.837,175.723 752.244,175.556 C 751.388,175.319 750.692,175.081 750.152,174.844 C 749.611,174.605 749.145,174.244 748.753,173.756 C 748.363,173.269 748.165,172.623 748.165,171.816 C 748.165,171.067 748.367,170.412 748.771,169.847 C 749.175,169.283 749.739,168.849 750.463,168.547 C 751.187,168.244 752.031,168.092 752.992,168.092 C 753.847,168.092 754.691,168.217 755.521,168.467 C 756.353,168.716 757.089,169.048 757.732,169.464 L 756.644,171.797 C 756.003,171.405 755.323,171.093 754.605,170.863"/>
		<path id="dp_path022" fill="url(#grad_dp_001)" fill-rule="evenodd" stroke="none" stroke-width="0" d="M 575.219,81.176 C 575.219,81.176 573.448,82.1027 573.499,82.452 L 573.499,82.452 C 573.524,82.64 573.896,82.596 580.38,80.9747 L 580.38,80.9747 C 601.251,75.7507 630.348,74.3213 646.792,85.812 L 646.792,85.812 L 640.787,92.1267 C 628.607,87.6227 607.36,87.3493 589.328,98.044 L 589.328,98.044 C 588.797,98.3587 588.177,98.8453 588.227,99.0507 L 588.227,99.0507 C 588.261,99.2093 588.783,99.276 590.567,98.784 L 590.567,98.784 C 601.235,95.8253 624.496,92.6653 640.465,103.151 L 640.465,103.151 L 668.063,81.24 C 657.231,74.9347 641.32,69.5893 622.592,69.5893 L 622.592,69.5893 C 608.129,69.5907 591.987,72.78 575.219,81.176 Z "/>
		<path id="dp_path023" fill="url(#grad_dp_002)" fill-rule="evenodd" stroke="none" stroke-width="0" d="M 620.681,33.5227 C 620.681,33.5227 614.345,37.8 614.345,42.7347 L 614.345,42.7347 C 614.345,45.1093 615.567,47.0347 617.743,48.2627 L 617.743,48.2627 C 618.271,48.564 618.448,49.2387 618.144,49.764 L 618.144,49.764 C 617.84,50.296 617.164,50.4827 616.639,50.172 L 616.639,50.172 C 614.637,48.9853 612.172,48.8307 610.117,50.0133 L 610.117,50.0133 C 605.959,52.4187 605.343,60.1693 605.343,60.1693 L 605.343,60.1693 C 605.343,60.1693 612.215,63.5173 616.492,61.0507 L 616.492,61.0507 C 618.545,59.8667 619.572,57.7653 619.572,55.416 L 619.572,55.416 C 619.572,54.6667 620.171,54.2827 620.684,54.2827 L 620.684,54.2827 C 621.196,54.2827 621.796,54.6667 621.796,55.416 L 621.796,55.416 C 621.796,57.7653 622.821,59.8667 624.875,61.0507 L 624.875,61.0507 C 629.148,63.5173 636.021,60.1693 636.021,60.1693 L 636.021,60.1693 C 636.021,60.1693 635.404,52.4187 631.244,50.0133 L 631.244,50.0133 C 629.191,48.8307 626.724,48.9853 624.724,50.172 L 624.724,50.172 C 624.201,50.4827 623.523,50.296 623.22,49.764 L 623.22,49.764 C 622.913,49.2387 623.092,48.564 623.62,48.2627 L 623.62,48.2627 C 625.799,47.0347 627.023,45.1093 627.023,42.7347 L 627.023,42.7347 C 627.023,37.8 620.681,33.5227 620.681,33.5227 Z "/>
		<path id="dp_path024" fill="url(#grad_dp_003)" fill-rule="evenodd" stroke="none" stroke-width="0" d="M 620.681,33.5227 C 620.681,33.5227 614.345,37.8 614.345,42.7347 L 614.345,42.7347 C 614.345,45.1093 615.567,47.0347 617.743,48.2627 L 617.743,48.2627 C 618.271,48.564 618.448,49.2507 618.144,49.7773 L 618.144,49.7773 C 618.135,49.7933 619.247,50.4333 620,50.864 L 620,50.864 L 620.5,40.9813 C 620.504,40.78 620.6,40.692 620.681,40.7147 L 620.681,40.7147 Z "/>
		<path id="dp_path025" fill="url(#grad_dp_004)" fill-rule="evenodd" stroke="none" stroke-width="0" d="M 612.535,56.1627 C 612.436,56.2133 612.352,56.176 612.316,56.1147 L 612.316,56.1147 L 605.343,60.1693 C 605.343,60.1693 612.215,63.5173 616.492,61.0507 L 616.492,61.0507 C 618.545,59.8667 619.572,57.7653 619.572,55.416 L 619.572,55.416 C 619.572,54.6667 620.171,54.2827 620.684,54.2827 L 620.684,54.2827 C 621.196,54.2827 621.796,54.6667 621.796,55.416 L 621.796,55.416 C 621.796,57.7653 622.821,59.8667 624.875,61.0507 L 624.875,61.0507 C 629.148,63.5173 636.021,60.1693 636.021,60.1693 L 636.021,60.1693 L 629.048,56.1147 C 629.011,56.176 628.929,56.2133 628.829,56.1627 L 628.829,56.1627 L 620.681,52.0813 Z "/>
		<path id="dp_path026" fill="#fffcdd" fill-rule="evenodd" stroke="none" stroke-width="0" d="M 620,50.864 L 620.5,40.9827 C 620.511,40.624 620.796,40.6173 620.815,40.9827 L 621.368,50.864 L 628.979,55.9 C 629.161,56.0213 629.028,56.264 628.829,56.164 L 620.681,52.0827 L 612.535,56.164 C 612.337,56.264 612.201,56.0213 612.387,55.9 Z "/>
		<path id="dp_path027" fill="#c8c6b0" fill-rule="evenodd" stroke="none" stroke-width="0" d="M 588.775,57.612 C 588.897,57.4853 589.021,57.356 589.152,57.2387 C 589.093,57.3027 589.037,57.3707 588.98,57.4387 C 588.92,57.5093 588.852,57.5707 588.775,57.612"/>
		<path id="dp_path028" fill="url(#grad_dp_005)" fill-rule="evenodd" stroke="none" stroke-width="0" d="M 580.124,54.964 C 580.709,56.5707 582.011,57.5707 583.785,57.864 L 583.785,57.864 C 584.216,57.9387 584.504,58.3533 584.427,58.7853 L 584.427,58.7853 C 584.351,59.2173 583.939,59.5107 583.507,59.4307 L 583.507,59.4307 C 581.861,59.1227 580.153,59.6213 579.059,60.928 L 579.059,60.928 C 576.835,63.5787 578.327,68.9747 578.327,68.9747 L 578.327,68.9747 C 578.327,68.9747 583.803,69.552 586.087,66.8253 L 586.087,66.8253 C 587.184,65.5187 587.364,63.8467 586.784,62.256 L 586.784,62.256 C 586.6,61.7493 586.915,61.3413 587.257,61.216 L 587.257,61.216 C 587.607,61.092 588.104,61.204 588.289,61.712 L 588.289,61.712 C 588.867,63.3013 590.08,64.464 591.759,64.7613 L 591.759,64.7613 C 595.26,65.376 599.087,61.4213 599.087,61.4213 L 599.087,61.4213 C 599.087,61.4213 596.76,56.328 593.352,55.728 L 593.352,55.728 C 591.672,55.432 590.043,56.1453 588.98,57.4373 L 588.98,57.4373 C 588.701,57.776 588.199,57.8173 587.86,57.5347 L 587.86,57.5347 C 587.524,57.2533 587.479,56.7547 587.759,56.4187 L 587.759,56.4187 C 588.931,55.0507 589.285,53.448 588.701,51.8427 L 588.701,51.8427 C 587.487,48.5027 582.141,47.168 582.141,47.168 L 582.141,47.168 C 582.141,47.168 578.907,51.624 580.124,54.964 Z "/>
		<path id="dp_path029" fill="url(#grad_dp_006)" fill-rule="evenodd" stroke="none" stroke-width="0" d="M 580.124,54.964 C 580.709,56.5707 582.011,57.5707 583.785,57.864 L 583.785,57.864 C 584.216,57.9387 584.508,58.3613 584.429,58.7933 L 584.429,58.7933 C 584.427,58.804 585.337,58.9627 585.953,59.0693 L 585.953,59.0693 L 583.856,52.26 C 583.809,52.1227 583.852,52.0413 583.913,52.036 L 583.913,52.036 L 582.141,47.168 C 582.141,47.168 578.907,51.624 580.124,54.964 Z "/>
		<path id="dp_path030" fill="url(#grad_dp_007)" fill-rule="evenodd" stroke="none" stroke-width="0" d="M 582.207,64.4933 C 582.153,64.552 582.085,64.552 582.047,64.5147 L 582.047,64.5147 L 578.327,68.9747 C 578.327,68.9747 583.803,69.552 586.087,66.8253 L 586.087,66.8253 C 587.184,65.5187 587.364,63.8467 586.784,62.256 L 586.784,62.256 C 586.6,61.7493 586.915,61.3413 587.257,61.216 L 587.257,61.216 C 587.607,61.092 588.104,61.204 588.289,61.712 L 588.289,61.712 C 588.867,63.3013 590.08,64.464 591.759,64.7613 L 591.759,64.7613 C 595.26,65.376 599.087,61.4213 599.087,61.4213 L 599.087,61.4213 L 593.368,60.3947 C 593.36,60.4467 593.311,60.4907 593.235,60.484 L 593.235,60.484 L 586.713,59.7267 Z "/>
		<path id="dp_path031" fill="#fffcdd" fill-rule="evenodd" stroke="none" stroke-width="0" d="M 585.953,59.0693 L 583.855,52.26 C 583.777,52.0147 583.968,51.9427 584.069,52.1853 L 586.88,58.7333 L 593.268,60.2693 C 593.421,60.3053 593.391,60.5 593.233,60.484 L 586.712,59.7267 L 582.207,64.4933 C 582.097,64.6107 581.947,64.48 582.041,64.356 Z "/>
		<path id="dp_path032" fill="url(#grad_dp_008)" fill-rule="evenodd" stroke="none" stroke-width="0" d="M 653.157,51.8427 C 652.572,53.448 652.927,55.0507 654.093,56.4187 L 654.093,56.4187 C 654.383,56.7547 654.329,57.2533 653.999,57.5347 L 653.999,57.5347 C 653.661,57.8173 653.157,57.776 652.879,57.4373 L 652.879,57.4373 C 651.817,56.1453 650.189,55.432 648.508,55.728 L 648.508,55.728 C 645.099,56.328 642.773,61.4213 642.773,61.4213 L 642.773,61.4213 C 642.773,61.4213 646.599,65.376 650.097,64.7613 L 650.097,64.7613 C 651.784,64.464 652.992,63.3013 653.571,61.712 L 653.571,61.712 C 653.756,61.204 654.259,61.092 654.604,61.216 L 654.604,61.216 C 654.945,61.3413 655.256,61.7493 655.072,62.256 L 655.072,62.256 C 654.496,63.8467 654.672,65.5187 655.768,66.8253 L 655.768,66.8253 C 658.059,69.552 663.533,68.9747 663.533,68.9747 L 663.533,68.9747 C 663.533,68.9747 665.024,63.5787 662.8,60.928 L 662.8,60.928 C 661.704,59.6213 659.997,59.1227 658.351,59.4307 L 658.351,59.4307 C 657.917,59.5107 657.504,59.2173 657.432,58.7853 L 657.432,58.7853 C 657.351,58.3533 657.641,57.9387 658.071,57.864 L 658.071,57.864 C 659.847,57.5707 661.149,56.5707 661.736,54.964 L 661.736,54.964 C 662.948,51.624 659.715,47.168 659.715,47.168 L 659.715,47.168 C 659.715,47.168 654.373,48.5027 653.157,51.8427 Z "/>
		<path id="dp_path033" fill="url(#grad_dp_009)" fill-rule="evenodd" stroke="none" stroke-width="0" d="M 653.157,51.8427 C 652.572,53.448 652.927,55.0507 654.093,56.4187 L 654.093,56.4187 C 654.383,56.7547 654.329,57.2627 653.992,57.5427 L 653.992,57.5427 C 653.983,57.5507 654.579,58.2573 654.985,58.7333 L 654.985,58.7333 L 657.752,52.1693 C 657.811,52.0373 657.893,52 657.944,52.0347 L 657.944,52.0347 L 659.715,47.168 C 659.715,47.168 654.373,48.5027 653.157,51.8427 Z "/>
		<path id="dp_path034" fill="url(#grad_dp_010)" fill-rule="evenodd" stroke="none" stroke-width="0" d="M 648.628,60.484 C 648.547,60.4907 648.499,60.4467 648.491,60.3947 L 648.491,60.3947 L 642.773,61.4213 C 642.773,61.4213 646.599,65.376 650.097,64.7613 L 650.097,64.7613 C 651.784,64.464 652.992,63.3013 653.571,61.712 L 653.571,61.712 C 653.756,61.204 654.259,61.092 654.604,61.216 L 654.604,61.216 C 654.945,61.3413 655.256,61.7493 655.072,62.256 L 655.072,62.256 C 654.496,63.8467 654.672,65.5187 655.768,66.8253 L 655.768,66.8253 C 658.059,69.552 663.533,68.9747 663.533,68.9747 L 663.533,68.9747 L 659.812,64.5147 C 659.772,64.552 659.707,64.552 659.652,64.4933 L 659.652,64.4933 L 655.143,59.7267 Z "/>
		<path id="dp_path035" fill="#fffcdd" fill-rule="evenodd" stroke="none" stroke-width="0" d="M 654.985,58.7333 L 657.752,52.1693 C 657.853,51.9307 658.045,52 657.967,52.2493 L 655.909,59.0693 L 659.816,64.3547 C 659.909,64.48 659.761,64.6107 659.652,64.4933 L 655.141,59.7267 L 648.628,60.484 C 648.468,60.4987 648.436,60.3053 648.591,60.2693 Z "/>
		<path id="dp_path036" fill="url(#grad_dp_011)" fill-rule="evenodd" stroke="none" stroke-width="0" d="M 588.231,99.064 C 588.292,99.2133 588.833,99.2653 590.567,98.784 L 590.567,98.784 C 601.235,95.8253 624.496,92.6653 640.465,103.151 L 640.465,103.151 L 640.632,97.4827 C 633.565,94.2293 625.673,92.5253 617.317,92.5253 L 617.317,92.5253 C 608.029,92.5253 598.167,94.632 588.231,99.064 Z "/>
		<path id="dp_path037" fill="url(#grad_dp_012)" fill-rule="evenodd" stroke="none" stroke-width="0" d="M 573.544,82.3173 C 573.509,82.3693 573.493,82.4133 573.499,82.452 L 573.499,82.452 C 573.524,82.64 573.896,82.596 580.38,80.9747 L 580.38,80.9747 C 601.251,75.7507 630.348,74.3213 646.792,85.812 L 646.792,85.812 L 657.216,83.572 C 646.961,76.8827 633.415,73.3773 618.164,73.3773 L 618.164,73.3773 C 604.297,73.3787 589.021,76.2773 573.544,82.3173 Z "/>
		<path id="dp_path038" fill="#fffcdd" fill-rule="evenodd" stroke="none" stroke-width="0" d="M 592.785,76.0973 C 618.52,69.66 643.597,73.82 658.609,83.2733 L 640.608,98.252 C 630.765,92.8587 617.023,91.92 604.865,93.9453 C 603.912,94.0907 603.888,93.7507 604.772,93.5787 C 617.221,91.1413 631.133,92.008 640.641,96.8093 L 656.247,83.78 C 641.577,74.3533 617.173,70.8053 592.884,76.432 C 591.693,76.7267 591.575,76.408 592.785,76.0973"/>
		<path id="dp_path039" fill="url(#grad_dp_013)" fill-rule="evenodd" stroke="none" stroke-width="0" d="M 658.608,83.2733 L 640.608,98.252 L 640.465,103.151 L 668.06,81.24 Z "/>
		<path id="dp_path040" fill="white" fill-rule="evenodd" stroke="none" stroke-width="0" d="M 760.136,122.461 L 760.136,145.771 L 752.944,145.771 L 752.944,122.461 L 742.36,122.461 L 742.36,117.249 L 770.679,117.249 L 770.679,122.461 Z M 728.261,145.771 L 710.648,125.773 L 710.648,145.771 L 703.86,145.771 L 703.86,117.249 L 711.011,117.249 L 728.503,137.165 L 728.503,117.249 L 735.289,117.249 L 735.289,145.771 Z M 685.761,124.601 C 683.783,122.42 680.712,121.411 677.763,121.491 C 677.116,121.532 675.42,121.653 673.643,122.42 C 668.349,124.764 667.945,129.813 667.945,131.712 C 667.945,132.277 667.987,134.136 668.713,135.832 C 668.915,136.357 669.159,136.883 669.804,137.772 C 670.007,138.013 670.531,138.781 671.259,139.388 C 672.389,140.357 674.571,141.569 678.087,141.569 C 678.732,141.569 680.428,141.529 682.207,140.883 C 687.821,138.863 688.307,133.328 688.307,131.551 C 688.307,130.339 688.145,127.228 685.761,124.601 Z M 695.255,134.863 C 694.891,136.761 693.76,140.883 689.437,143.791 C 687.459,145.083 683.823,146.7 678.167,146.7 C 669.683,146.7 665.199,143.265 663.14,140.236 C 662.169,138.863 660.593,135.873 660.593,131.511 C 660.593,124.925 663.785,121.491 665.885,119.876 C 668.996,117.492 673.157,116.523 676.993,116.361 C 680.549,116.24 684.832,116.805 688.024,118.38 C 688.468,118.624 689.276,119.027 690.285,119.755 C 691.093,120.36 691.903,121.087 692.548,121.896 C 693.76,123.309 695.577,126.46 695.577,131.228 C 695.577,131.792 695.577,133.288 695.255,134.863 Z M 645.484,145.771 L 645.645,123.835 L 636.475,145.771 L 629.972,145.771 L 620.72,123.835 L 620.881,145.771 L 614.095,145.771 L 614.095,117.249 L 624.436,117.249 L 633.284,138.176 L 642.049,117.249 L 652.271,117.249 L 652.271,145.771 Z M 598.663,123.713 C 597.773,122.339 596.197,122.259 594.743,122.259 L 583.513,122.259 L 583.513,129.248 L 594.945,129.248 C 594.987,129.248 596.117,129.288 596.723,129.127 C 597.572,128.925 599.228,128.197 599.228,125.855 C 599.228,125.572 599.187,124.521 598.663,123.713 Z M 599.268,145.771 L 591.675,134.297 L 583.513,134.297 L 583.513,145.771 L 576.403,145.771 L 576.403,117.249 L 596.036,117.249 C 598.501,117.249 599.592,117.411 600.763,117.775 C 604.44,118.865 606.459,122.016 606.459,125.773 C 606.459,126.5 606.419,127.915 605.692,129.531 C 604.399,132.44 601.935,133.328 599.027,133.852 L 607.711,145.771 Z M 541.135,145.771 L 541.135,117.249 L 567.717,117.249 L 567.717,122.38 L 548.285,122.38 L 548.285,128.804 L 567.071,128.804 L 567.071,133.895 L 548.285,133.895 L 548.285,140.68 L 568.524,140.68 L 568.524,145.771 Z M 505.908,145.771 L 505.908,117.249 L 532.489,117.249 L 532.489,122.38 L 513.059,122.38 L 513.059,128.804 L 531.843,128.804 L 531.843,133.895 L 513.059,133.895 L 513.059,140.68 L 533.297,140.68 L 533.297,145.771 Z M 489.505,122.38 C 489.021,122.217 488.697,122.179 487.728,122.179 L 477.709,122.179 L 477.709,130.015 L 486.475,130.015 C 487.525,130.015 488.98,130.015 489.951,129.611 C 491.888,128.804 491.929,126.864 491.929,126.177 C 491.929,125.572 491.808,123.067 489.505,122.38 Z M 498.231,130.259 C 498.071,130.661 497.787,131.267 497.141,131.995 C 496.857,132.317 496.252,133.005 495.283,133.611 C 493.06,134.944 490.152,135.025 487.647,135.025 L 477.709,135.025 L 477.709,145.771 L 470.68,145.771 L 470.68,117.249 L 488.293,117.249 C 489.021,117.249 489.748,117.249 490.476,117.291 C 493.424,117.492 496.211,118.38 497.787,121.087 C 498.312,121.936 499.039,123.672 499.039,126.177 C 499.039,126.784 498.999,128.601 498.231,130.259 Z "/>
	</g>
</svg>