<?xml version="1.0" encoding="UTF-8" standalone="no"?>
<svg version="1.1" xmlns="http://www.w3.org/2000/svg" xmlns:xlink="http://www.w3.org/1999/xlink" width="120" height="120">
	<g id="dp_dp001" transform="matrix(1,0,0,1,186.488,-1029.41)">
		<path id="dp_path002" fill="black" fill-rule="evenodd" stroke="none" stroke-width="0" d="M -113.072,1065.32 L -105.715,1065.32 L -105.715,1066.83 C -105.991,1072.07 -107.44,1075.19 -108.892,1078.3 C -111.665,1084.27 -116.275,1089.68 -118.745,1097.41 C -120.423,1102.65 -121.319,1107.58 -121.319,1110.64 L -121.317,1110.64 L -121.317,1110.75 C -121.319,1110.8 -121.317,1110.85 -121.316,1110.9 C -121.317,1110.9 -121.317,1110.9 -121.317,1110.9 L -121.317,1114.06 L -139.669,1114.06 L -139.669,1111.1 L -139.671,1111.1 C -139.707,1106.82 -138.431,1099.08 -132.991,1092.27 C -130.385,1089 -127.033,1086.27 -124.247,1083.72 C -121.521,1081.23 -119.345,1078.9 -117.948,1077.56 C -118.079,1077.43 -118.203,1077.37 -118.363,1077.25 C -119.279,1078.13 -121.337,1079.75 -124.065,1080.05 C -127.779,1080.45 -132.633,1077.25 -134.797,1078.49 C -137.552,1080.08 -137.007,1083.51 -137.079,1084.58 L -137.079,1084.61 L -147.239,1084.61 L -147.239,1065.32 L -137.079,1065.32 L -137.079,1068.21 C -136.987,1068.47 -136.864,1068.44 -136.717,1068.21 C -136.367,1067.09 -134.283,1065.27 -132.049,1064.91 C -123.985,1063.63 -115.848,1070.54 -113.075,1065.43 C -113.075,1065.43 -113.073,1065.43 -113.072,1065.43 Z "/>
		<path id="dp_path003" fill="black" fill-rule="evenodd" stroke="none" stroke-width="0" d="M -150.04,1062.63 L -134.303,1062.63 L -134.303,1062.8 C -133.217,1062.35 -131.919,1062.01 -130.124,1061.98 C -128.216,1061.94 -125.935,1062.25 -123.464,1062.99 C -120.831,1063.77 -118.236,1064.8 -116.365,1064.67 C -115.32,1064.59 -115.095,1063.2 -114.953,1062.7 L -114.953,1062.63 L -102.947,1062.63 L -102.947,1063.64 C -102.94,1063.66 -102.936,1063.68 -102.936,1063.7 C -102.965,1064.6 -103.02,1067.5 -103.093,1068.58 C -103.245,1070.81 -104.341,1074.72 -105.324,1076.89 C -106.123,1078.65 -106.703,1080.32 -107.715,1082.07 C -108.856,1084.05 -110.027,1086.21 -111.104,1087.92 C -112.253,1089.75 -113.855,1092.71 -115.151,1095.85 C -116.153,1098.28 -116.891,1100.62 -117.44,1103.02 C -117.732,1104.3 -118.064,1105.71 -118.271,1107.28 C -118.593,1109.73 -118.711,1112.57 -118.64,1115.74 L -118.592,1115.74 L -118.592,1116.83 L -142.151,1116.83 L -142.155,1116.83 C -142.317,1116.98 -142.455,1117.03 -142.485,1116.85 C -142.487,1116.84 -142.488,1116.83 -142.488,1116.83 L -142.509,1116.83 L -142.509,1116.68 L -142.511,1116.66 C -142.619,1115.62 -142.491,1112.69 -142.443,1110.7 C -142.4,1108.99 -141.987,1106.55 -141.491,1103.75 C -141.012,1101.07 -139.837,1098.29 -138.977,1096.44 C -137.573,1093.41 -135.428,1090.71 -133.021,1088.15 C -130.729,1085.71 -128.263,1083.71 -127.301,1082.77 C -127.237,1082.7 -127.173,1082.53 -127.26,1082.5 C -127.824,1082.31 -129.307,1081.99 -130.691,1081.63 C -131.764,1081.35 -132.769,1081.03 -133.264,1080.98 C -133.812,1080.92 -133.933,1081.55 -134.075,1081.95 C -134.248,1082.44 -134.268,1083.1 -134.297,1083.9 C -134.329,1084.72 -134.348,1085.67 -134.353,1086.47 L -134.303,1086.47 L -134.303,1087.56 L -134.333,1087.56 L -134.333,1087.56 L -134.336,1087.56 L -150.04,1087.56 L -150.04,1086.47 L -150.04,1063.72 Z M -148.951,1063.72 L -135.199,1063.72 L -135.199,1064.29 C -133.939,1063.52 -131.773,1062.98 -130.071,1062.99 C -127.351,1063 -125.083,1063.56 -122.403,1064.33 C -119.939,1065.04 -117.677,1066.03 -115.795,1065.6 C -114.689,1065.35 -114.484,1064.21 -114.24,1063.76 L -114.268,1063.72 L -104.011,1063.72 C -103.979,1064.77 -104.007,1066.91 -104.137,1068.77 C -104.352,1071.82 -106.028,1077.08 -108.508,1081.43 C -110.463,1084.86 -112.633,1088.57 -114.34,1091.7 C -115.664,1094.13 -117.683,1099.4 -118.555,1103.37 C -119.072,1105.73 -119.337,1108.01 -119.475,1110 C -119.645,1112.5 -119.753,1114.74 -119.627,1115.74 L -141.552,1115.74 C -141.552,1115.73 -141.552,1115.73 -141.551,1115.73 C -141.525,1113.92 -141.537,1110.32 -141.024,1106.57 C -140.508,1102.79 -139.016,1098.98 -138.068,1096.77 C -136.843,1093.92 -134.456,1091.12 -131.968,1088.56 C -129.164,1085.67 -126.411,1083.18 -125.059,1081.97 C -124.84,1081.78 -124.848,1081.74 -125.139,1081.73 C -126.616,1081.69 -127.217,1081.54 -128.888,1081.16 C -129.384,1081.05 -131.075,1080.47 -132.839,1080.01 C -133.153,1079.92 -133.547,1079.96 -133.811,1080.03 C -134.825,1080.3 -135.173,1081.74 -135.209,1084.36 C -135.22,1085.19 -135.24,1085.59 -135.269,1086.45 C -135.271,1086.45 -135.271,1086.46 -135.269,1086.47 L -148.951,1086.47 Z "/>
		<path id="dp_path004" fill="white" fill-rule="evenodd" stroke="none" stroke-width="0" d="M -140.768,1109.72 L -138.472,1107.8 L -136.176,1109.72 L -133.88,1107.8 L -131.584,1109.72 L -129.288,1107.8 L -126.992,1109.72 L -124.696,1107.8 L -122.4,1109.72 L -120.104,1107.8 L -120.104,1109.72 L -122.4,1111.64 L -124.696,1109.72 L -126.992,1111.64 L -129.288,1109.72 L -131.584,1111.64 L -133.88,1109.72 L -136.176,1111.64 L -138.472,1109.72 L -140.768,1111.64 Z "/>
		<path id="dp_path005" fill="none" fill-rule="evenodd" stroke="white" stroke-width="0.666667" d="M -115.276,1071.29 C -113.052,1069.15 -108.603,1064.87 -108.603,1064.87"/>
		<path id="dp_path006" fill="none" fill-rule="evenodd" stroke="white" stroke-width="0.666667" d="M -121.793,1065.71 C -116.975,1069.81 -107.337,1078.01 -107.337,1078.01"/>
		<path id="dp_path007" fill="none" fill-rule="evenodd" stroke="white" stroke-width="0.666667" d="M -114.072,1072.33 L -105.305,1070.03"/>
		<path id="dp_path008" fill="none" fill-rule="evenodd" stroke="black" stroke-width="0.666667" d="M -176.487,1089.41 C -176.487,1061.8 -154.103,1039.41 -126.488,1039.41 C -98.8747,1039.41 -76.4893,1061.8 -76.4893,1089.41 C -76.4893,1117.03 -98.8747,1139.41 -126.488,1139.41 C -154.103,1139.41 -176.487,1117.03 -176.487,1089.41 Z M -168.488,1089.41 C -168.488,1066.22 -149.684,1047.41 -126.488,1047.41 C -103.292,1047.41 -84.4893,1066.22 -84.4893,1089.41 C -84.4893,1112.61 -103.292,1131.41 -126.488,1131.41 C -149.684,1131.41 -168.488,1112.61 -168.488,1089.41 Z "/>
		<path id="dp_path009" fill="black" fill-rule="evenodd" stroke="black" stroke-width="0.133333" stroke-linejoin="round" d="M -133.043,1047.53 L -127.212,1044.59 L -121.521,1047.37 L -119.008,1039.82 L -127.217,1043.96 L -135.403,1039.97 Z M -127.857,1044.28 L -132.652,1046.69 L -134.399,1041.09 Z M -120.052,1040.99 L -121.903,1046.55 L -126.572,1044.27 Z "/>
		<path id="dp_path010" fill="black" fill-rule="evenodd" stroke="black" stroke-width="0.133333" stroke-linejoin="round" d="M -132.684,1131.32 L -126.853,1134.26 L -121.161,1131.48 L -118.649,1139.03 L -126.859,1134.9 L -135.044,1138.89 Z M -127.5,1134.57 L -132.293,1132.16 L -134.041,1137.76 Z M -119.692,1137.87 L -121.544,1132.31 L -126.212,1134.58 Z "/>
		<path id="dp_path011" fill="black" fill-rule="evenodd" stroke="black" stroke-width="0.133333" stroke-linejoin="round" d="M -168.395,1083.18 L -171.332,1089.01 L -168.557,1094.7 L -176.104,1097.21 L -171.971,1089 L -175.96,1080.82 Z M -171.648,1088.36 L -169.233,1083.57 L -174.835,1081.82 Z M -174.939,1096.17 L -169.379,1094.32 L -171.655,1089.65 Z "/>
		<path id="dp_path012" fill="black" fill-rule="evenodd" stroke="black" stroke-width="0.133333" stroke-linejoin="round" d="M -84.6107,1082.85 L -81.6747,1088.69 L -84.448,1094.38 L -76.9027,1096.89 L -81.036,1088.68 L -77.0453,1080.5 Z M -81.3587,1088.04 L -83.7733,1083.25 L -78.1707,1081.5 Z M -78.068,1095.85 L -83.6267,1093.99 L -81.352,1089.33 Z "/>
		<path id="dp_path013" fill="black" fill-rule="evenodd" stroke="black" stroke-width="0.133333" stroke-linejoin="round" d="M -101.239,1055.44 L -95.0387,1057.48 L -92.9773,1063.47 L -85.8653,1059.91 L -94.592,1057.03 L -97.5587,1048.42 Z M -95.2733,1056.8 L -100.369,1055.12 L -97.644,1049.92 Z M -87.4267,1060 L -92.664,1062.62 L -94.3587,1057.71 Z "/>
		<path id="dp_path014" fill="black" fill-rule="evenodd" stroke="black" stroke-width="0.133333" stroke-linejoin="round" d="M -101.44,1123.6 L -95.24,1121.55 L -93.1773,1115.57 L -86.0653,1119.13 L -94.7933,1122.01 L -97.7613,1130.62 Z M -95.476,1122.23 L -100.572,1123.92 L -97.8467,1129.11 Z M -87.628,1119.04 L -92.8667,1116.42 L -94.5613,1121.33 Z "/>
		<path id="dp_path015" fill="black" fill-rule="evenodd" stroke="black" stroke-width="0.133333" stroke-linejoin="round" d="M -151.589,1123.59 L -157.789,1121.55 L -159.851,1115.56 L -166.963,1119.12 L -158.237,1122 L -155.269,1130.61 Z M -157.555,1122.23 L -152.459,1123.91 L -155.184,1129.11 Z M -165.403,1119.03 L -160.164,1116.41 L -158.469,1121.32 Z "/>
		<path id="dp_path016" fill="black" fill-rule="evenodd" stroke="black" stroke-width="0.133333" stroke-linejoin="round" d="M -151.691,1055.34 L -157.892,1057.38 L -159.955,1063.37 L -167.065,1059.81 L -158.339,1056.93 L -155.371,1048.32 Z M -157.656,1056.71 L -152.56,1055.02 L -155.285,1049.83 Z M -165.504,1059.9 L -160.265,1062.52 L -158.572,1057.61 Z "/>
	</g>
</svg>