<?xml version="1.0" encoding="UTF-8" standalone="no"?>
<svg version="1.1" xmlns="http://www.w3.org/2000/svg" xmlns:xlink="http://www.w3.org/1999/xlink" width="120" height="120">
	<g id="dp_dp001" transform="matrix(1,0,0,1,-268.179,-896.079)">
		<path id="dp_path002" fill="none" fill-rule="evenodd" stroke="black" stroke-width="0.666667" d="M 278.18,956.079 C 278.18,928.464 300.564,906.08 328.179,906.08 C 355.792,906.08 378.177,928.464 378.177,956.079 C 378.177,983.692 355.792,1006.08 328.179,1006.08 C 300.564,1006.08 278.18,983.692 278.18,956.079 Z M 286.179,956.079 C 286.179,932.883 304.983,914.079 328.179,914.079 C 351.375,914.079 370.177,932.883 370.177,956.079 C 370.177,979.275 351.375,998.077 328.179,998.077 C 304.983,998.077 286.179,979.275 286.179,956.079 Z "/>
		<path id="dp_path003" fill="black" fill-rule="evenodd" stroke="black" stroke-width="0.133333" stroke-linejoin="round" d="M 321.624,914.197 L 327.455,911.261 L 333.145,914.036 L 335.659,906.491 L 327.449,910.624 L 319.264,906.635 Z M 326.809,910.947 L 322.015,913.36 L 320.268,907.76 Z M 334.615,907.655 L 332.764,913.213 L 328.095,910.939 Z "/>
		<path id="dp_path004" fill="black" fill-rule="evenodd" stroke="black" stroke-width="0.133333" stroke-linejoin="round" d="M 321.983,997.989 L 327.813,1000.93 L 333.505,998.151 L 336.017,1005.7 L 327.808,1001.56 L 319.623,1005.55 Z M 327.167,1001.24 L 322.373,998.827 L 320.625,1004.43 Z M 334.975,1004.53 L 333.123,998.973 L 328.455,1001.25 Z "/>
		<path id="dp_path005" fill="black" fill-rule="evenodd" stroke="black" stroke-width="0.133333" stroke-linejoin="round" d="M 286.272,949.844 L 283.335,955.676 L 286.109,961.367 L 278.563,963.879 L 282.696,955.671 L 278.707,947.485 Z M 283.019,955.029 L 285.433,950.237 L 279.832,948.489 Z M 279.728,962.836 L 285.288,960.987 L 283.012,956.316 Z "/>
		<path id="dp_path006" fill="black" fill-rule="evenodd" stroke="black" stroke-width="0.133333" stroke-linejoin="round" d="M 370.056,949.521 L 372.992,955.352 L 370.219,961.044 L 377.764,963.556 L 373.631,955.348 L 377.621,947.163 Z M 373.308,954.707 L 370.893,949.915 L 376.496,948.167 Z M 376.599,962.513 L 371.04,960.661 L 373.315,955.993 Z "/>
		<path id="dp_path007" fill="black" fill-rule="evenodd" stroke="black" stroke-width="0.133333" stroke-linejoin="round" d="M 353.428,922.103 L 359.628,924.149 L 361.689,930.136 L 368.801,926.576 L 360.075,923.695 L 357.108,915.085 Z M 359.393,923.469 L 354.297,921.787 L 357.023,916.589 Z M 367.24,926.663 L 362.003,929.284 L 360.308,924.375 Z "/>
		<path id="dp_path008" fill="black" fill-rule="evenodd" stroke="black" stroke-width="0.133333" stroke-linejoin="round" d="M 353.227,990.267 L 359.427,988.22 L 361.489,982.233 L 368.601,985.793 L 359.873,988.676 L 356.905,997.284 Z M 359.191,988.9 L 354.095,990.583 L 356.82,995.779 Z M 367.039,985.708 L 361.8,983.085 L 360.105,987.995 Z "/>
		<path id="dp_path009" fill="black" fill-rule="evenodd" stroke="black" stroke-width="0.133333" stroke-linejoin="round" d="M 303.077,990.261 L 296.877,988.215 L 294.816,982.227 L 287.704,985.787 L 296.429,988.668 L 299.397,997.279 Z M 297.112,988.893 L 302.208,990.577 L 299.483,995.773 Z M 289.264,985.701 L 294.503,983.079 L 296.197,987.989 Z "/>
		<path id="dp_path010" fill="black" fill-rule="evenodd" stroke="black" stroke-width="0.133333" stroke-linejoin="round" d="M 302.976,922.004 L 296.775,924.051 L 294.712,930.036 L 287.601,926.477 L 296.328,923.596 L 299.296,914.987 Z M 297.011,923.372 L 302.107,921.688 L 299.381,916.492 Z M 289.163,926.563 L 294.401,929.185 L 296.095,924.275 Z "/>
		<path id="dp_path011" fill="none" fill-rule="evenodd" stroke="black" stroke-width="0.533333" d="M 300.104,964.607 C 300.105,963.241 301.211,962.135 302.576,962.135 L 309.053,962.137 C 310.417,962.137 311.525,963.244 311.525,964.608 L 311.525,964.608 C 311.525,965.96 310.44,967.056 309.095,967.08 L 309.093,979.004 C 309.093,980.817 307.623,982.285 305.811,982.285 C 303.997,982.285 302.529,980.816 302.529,979.003 L 302.532,967.079 C 301.187,967.055 300.104,965.957 300.104,964.607 Z M 338.363,948.167 C 339.748,948.492 340.807,950.193 340.807,952.245 C 340.807,952.245 340.807,952.245 340.807,952.245 L 340.807,952.247 C 340.807,952.277 340.807,952.309 340.807,952.341 C 340.772,954.349 339.727,956.001 338.361,956.323 C 338.052,956.419 337.765,956.136 337.765,955.896 C 337.765,954.333 337.765,952.772 337.765,951.209 C 337.765,950.336 337.768,949.465 337.768,948.593 C 337.768,948.353 338.055,948.068 338.363,948.167 Z M 296.385,952.269 C 296.385,952.259 296.385,952.247 296.388,952.237 C 296.388,952.227 296.388,952.216 296.385,952.207 C 296.388,948.135 299.685,944.837 303.755,944.837 L 308.471,944.837 L 308.469,959.64 L 303.753,959.64 C 299.684,959.64 296.385,956.339 296.385,952.269 Z M 311.307,959.643 L 311.308,944.839 L 311.935,944.839 C 314.233,944.556 316.681,943.873 318.841,942.947 C 322.223,941.495 325.512,939.513 328.528,937.536 L 328.524,961.024 L 328.524,966.949 C 325.507,964.971 322.219,962.989 318.837,961.537 C 316.679,960.608 314.231,959.925 311.932,959.643 Z M 331.46,936.299 C 331.46,935.232 332.324,934.368 333.391,934.368 C 334.455,934.368 335.32,935.233 335.32,936.3 L 335.313,968.189 C 335.313,969.256 334.449,970.12 333.383,970.12 C 332.319,970.12 331.455,969.253 331.455,968.187 Z "/>
		<path id="dp_path012" fill="none" fill-rule="evenodd" stroke="black" stroke-width="0.533333" d="M 306.764,944.839 C 303.797,948.768 297.867,956.625 297.867,956.625"/>
		<path id="dp_path013" fill="none" fill-rule="evenodd" stroke="black" stroke-width="0.533333" d="M 302.199,950.653 C 304.297,952.028 308.495,954.776 308.495,954.776"/>
		<path id="dp_path014" fill="none" fill-rule="evenodd" stroke="black" stroke-width="0.533333" d="M 300.417,953.209 C 303.049,955.067 308.316,958.78 308.316,958.78"/>
		<path id="dp_path015" fill="none" fill-rule="evenodd" stroke="black" stroke-width="0.533333" d="M 333.381,934.449 L 335.191,937.307 L 333.455,940.024 L 335.161,942.759 L 333.424,945.477 L 335.133,948.212 L 333.395,950.929 L 335.103,953.665 L 333.365,956.381 L 335.073,959.119 L 333.336,961.835 L 335.045,964.571 L 333.307,967.288 L 334.576,969.323 C 334.633,969.585 334.497,969.789 334.165,969.941 C 333.843,970.079 333.548,970.108 333.292,970.013 L 331.587,967.279 L 333.32,964.561 L 331.616,961.825 L 333.351,959.109 L 331.644,956.373 L 333.38,953.655 L 331.676,950.92 L 333.411,948.203 L 331.704,945.467 L 333.44,942.751 L 331.732,940.015 L 333.468,937.297 L 332.036,934.997 C 332.061,934.716 333.153,934.187 333.381,934.449 Z "/>
		<path id="dp_path016" fill="none" fill-rule="evenodd" stroke="black" stroke-width="0.533333" d="M 302.816,977.916 C 305.013,977.847 309.405,977.709 309.405,977.709"/>
		<path id="dp_path017" fill="none" fill-rule="evenodd" stroke="black" stroke-width="0.533333" d="M 302.436,975.307 C 304.633,975.237 309.027,975.101 309.027,975.101"/>
		<path id="dp_path018" fill="none" fill-rule="evenodd" stroke="black" stroke-width="0.533333" d="M 343.343,952.136 C 343.343,951.548 343.819,951.072 344.407,951.072 L 354.779,951.072 C 355.367,951.072 355.843,951.548 355.843,952.136 L 355.843,952.135 C 355.843,952.723 355.367,953.199 354.779,953.199 L 344.407,953.199 C 343.819,953.199 343.343,952.723 343.343,952.135 Z "/>
		<path id="dp_path019" fill="none" fill-rule="evenodd" stroke="black" stroke-width="0.533333" d="M 343.324,943.337 C 343.004,942.928 343.077,942.335 343.487,942.015 L 353.939,933.855 C 354.348,933.535 354.941,933.608 355.261,934.017 C 355.581,934.427 355.509,935.02 355.099,935.34 L 344.647,943.5 C 344.237,943.82 343.644,943.747 343.324,943.337 Z "/>
		<path id="dp_path020" fill="none" fill-rule="evenodd" stroke="black" stroke-width="0.533333" d="M 343.247,961.033 C 342.884,961.497 342.967,962.165 343.431,962.527 L 353.691,970.537 C 354.155,970.899 354.823,970.817 355.184,970.353 C 355.547,969.891 355.464,969.221 355,968.86 L 344.74,960.849 C 344.276,960.488 343.608,960.569 343.247,961.033 Z "/>
	</g>
</svg>